<svg width="391" height="287" viewBox="0 0 391 287" fill="none" xmlns="http://www.w3.org/2000/svg">
<mask id="path-1-inside-1_734_393" fill="white">
<path fill-rule="evenodd" clip-rule="evenodd" d="M19.8261 11.3456L30.4701 1.35443C31.3971 0.484317 32.6207 0 33.8921 0H68H136H272L386 6.85203e-06C388.761 7.01801e-06 391 2.23858 391 5V70.4611V108.269V162.404V178.731V186.878V216.539V232.865V255.151C391 256.546 390.417 257.878 389.393 258.824L371.174 275.654L360.53 285.646C359.603 286.516 358.379 287 357.108 287H323H255H119H5C2.23858 287 0 284.761 0 282V216.539V178.731V124.596V108.269V100.122V70.4611V54.1347V31.8487C0 30.4538 0.582633 29.1224 1.60719 28.1759L19.8261 11.3456Z"/>
</mask>
<path d="M19.8261 11.3456L21.1832 12.8147L21.1891 12.8093L21.1949 12.8038L19.8261 11.3456ZM272 0V-2V0ZM371.174 275.654L369.817 274.185L369.811 274.191L369.805 274.196L371.174 275.654ZM389.393 258.824L390.75 260.293L389.393 258.824ZM360.53 285.646L359.161 284.187L360.53 285.646ZM1.60719 28.1759L2.96432 29.645L1.60719 28.1759ZM29.1013 -0.103793L18.4573 9.88738L21.1949 12.8038L31.8389 2.81266L29.1013 -0.103793ZM68 -2H33.8921V2H68V-2ZM136 -2H68V2H136V-2ZM272 -2H136V2H272V-2ZM386 -1.99999L272 -2V2L386 2.00001V-1.99999ZM393 70.4611V5H389V70.4611H393ZM393 108.269V70.4611H389V108.269H393ZM393 162.404V108.269H389V162.404H393ZM393 178.731V162.404H389V178.731H393ZM393 186.878V178.731H389V186.878H393ZM393 216.539V186.878H389V216.539H393ZM393 232.865V216.539H389V232.865H393ZM393 255.151V232.865H389V255.151H393ZM372.531 277.123L390.75 260.293L388.036 257.355L369.817 274.185L372.531 277.123ZM361.899 287.104L372.543 277.113L369.805 274.196L359.161 284.187L361.899 287.104ZM323 289H357.108V285H323V289ZM255 289H323V285H255V289ZM119 289H255V285H119V289ZM5 289H119V285H5V289ZM-2 216.539V282H2V216.539H-2ZM-2 178.731V216.539H2V178.731H-2ZM-2 124.596V178.731H2V124.596H-2ZM-2 108.269V124.596H2V108.269H-2ZM-2 100.122V108.269H2V100.122H-2ZM-2 70.4611V100.122H2V70.4611H-2ZM-2 54.1347V70.4611H2V54.1347H-2ZM-2 31.8487V54.1347H2V31.8487H-2ZM18.469 9.87651L0.250072 26.7069L2.96432 29.645L21.1832 12.8147L18.469 9.87651ZM5 285C3.34314 285 2 283.657 2 282H-2C-2 285.866 1.13401 289 5 289V285ZM389 255.151C389 255.988 388.65 256.787 388.036 257.355L390.75 260.293C392.184 258.968 393 257.104 393 255.151H389ZM359.161 284.187C358.605 284.709 357.871 285 357.108 285V289C358.888 289 360.601 288.322 361.899 287.104L359.161 284.187ZM2 31.8487C2 31.0118 2.34958 30.2129 2.96432 29.645L0.250072 26.7069C-1.18431 28.0319 -2 29.8959 -2 31.8487H2ZM386 2.00001C387.657 2.00001 389 3.34315 389 5H393C393 1.134 389.866 -1.99999 386 -1.99999V2.00001ZM31.8389 2.81266C32.3951 2.29059 33.1293 2 33.8921 2V-2C32.1122 -2 30.3991 -1.32196 29.1013 -0.103793L31.8389 2.81266Z" fill="url(#paint0_linear_734_393)" mask="url(#path-1-inside-1_734_393)"/>
<defs>
<linearGradient id="paint0_linear_734_393" x1="391" y1="4.63769e-05" x2="-44.6109" y2="109.452" gradientUnits="userSpaceOnUse">
<stop offset="0.302083" stop-color="#FF127F"/>
<stop offset="0.458285" stop-color="#FF89BF"/>
<stop offset="0.625" stop-color="#FF1580"/>
</linearGradient>
</defs>
</svg>
