<svg width="391" height="287" viewBox="0 0 391 287" fill="none" xmlns="http://www.w3.org/2000/svg">
<mask id="path-1-inside-1_121_1125" fill="white">
<path fill-rule="evenodd" clip-rule="evenodd" d="M33.8921 0C32.6207 0 31.3971 0.484316 30.4701 1.35443L19.8261 11.3456L1.6072 28.1759C0.582635 29.1224 0 30.4538 0 31.8487V54.1347V70.4611V100.122V108.269V124.596V178.731V216.539V282C0 284.761 2.23858 287 5 287H119H123C125.761 287 128 284.761 128 282V276.648L128 270.838V261.367C128 260.229 128.388 259.125 129.101 258.238L134.744 251.206L137.354 247.901C138.302 246.7 139.748 246 141.278 246H151.131H174.261H220.522L256 246C258.762 246 261 248.239 261 251V282C261 284.761 263.239 287 266 287H323H357.108C358.379 287 359.603 286.516 360.53 285.646L371.174 275.654L389.393 258.824C390.417 257.878 391 256.546 391 255.151V232.865V216.539V186.878V178.731V162.404V108.269V70.4611V5.00001C391 2.23858 388.761 7.01801e-06 386 6.85203e-06L272 0H136H68H33.8921Z"/>
</mask>
<path d="M19.8261 11.3456L21.1832 12.8147L21.1891 12.8093L21.1949 12.8038L19.8261 11.3456ZM128 276.648L126 276.648V276.648H128ZM128 270.838L130 270.838V270.838H128ZM134.744 251.206L136.304 252.457L136.309 252.451L136.314 252.445L134.744 251.206ZM220.522 246V244V246ZM371.174 275.654L369.817 274.185L369.811 274.191L369.805 274.196L371.174 275.654ZM272 0V-2V0ZM137.354 247.901L138.924 249.141L137.354 247.901ZM389.393 258.824L390.75 260.293L389.393 258.824ZM129.101 258.238L127.541 256.986L129.101 258.238ZM360.53 285.646L359.161 284.187L360.53 285.646ZM1.6072 28.1759L2.96432 29.645L1.6072 28.1759ZM21.1949 12.8038L31.8389 2.81266L29.1013 -0.103794L18.4573 9.88738L21.1949 12.8038ZM2.96432 29.645L21.1832 12.8147L18.469 9.87651L0.250074 26.7069L2.96432 29.645ZM2 54.1347V31.8487H-2V54.1347H2ZM2 70.4611V54.1347H-2V70.4611H2ZM2 100.122V70.4611H-2V100.122H2ZM2 108.269V100.122H-2V108.269H2ZM2 124.596V108.269H-2V124.596H2ZM2 178.731V124.596H-2V178.731H2ZM2 216.539V178.731H-2V216.539H2ZM2 282V216.539H-2V282H2ZM119 285H5V289H119V285ZM123 285H119V289H123V285ZM130 282V276.648H126V282H130ZM130 276.648L130 270.838L126 270.838L126 276.648L130 276.648ZM130 270.838V261.367H126V270.838H130ZM130.66 259.489L136.304 252.457L133.184 249.954L127.541 256.986L130.66 259.489ZM136.314 252.445L138.924 249.141L135.785 246.661L133.175 249.966L136.314 252.445ZM141.278 248H151.131V244H141.278V248ZM151.131 248H174.261V244H151.131V248ZM174.261 248H220.522V244H174.261V248ZM220.522 248L256 248L256 244L220.522 244V248ZM259 251V282H263V251H259ZM323 285H266V289H323V285ZM357.108 285H323V289H357.108V285ZM369.805 274.196L359.161 284.187L361.899 287.104L372.543 277.113L369.805 274.196ZM388.036 257.355L369.817 274.185L372.531 277.123L390.75 260.293L388.036 257.355ZM389 232.865V255.151H393V232.865H389ZM389 216.539V232.865H393V216.539H389ZM389 186.878V216.539H393V186.878H389ZM389 178.731V186.878H393V178.731H389ZM389 162.404V178.731H393V162.404H389ZM389 108.269V162.404H393V108.269H389ZM389 70.4611V108.269H393V70.4611H389ZM389 5.00001V70.4611H393V5.00001H389ZM272 2L386 2.00001V-1.99999L272 -2V2ZM136 2H272V-2H136V2ZM68 2H136V-2H68V2ZM33.8921 2H68V-2H33.8921V2ZM259 282C259 285.866 262.134 289 266 289V285C264.343 285 263 283.657 263 282H259ZM138.924 249.141C139.492 248.42 140.36 248 141.278 248V244C139.136 244 137.112 244.981 135.785 246.661L138.924 249.141ZM390.75 260.293C392.184 258.968 393 257.104 393 255.151H389C389 255.988 388.65 256.787 388.036 257.355L390.75 260.293ZM130 261.367C130 260.684 130.233 260.022 130.66 259.489L127.541 256.986C126.544 258.228 126 259.774 126 261.367H130ZM256 248C257.657 248 259 249.343 259 251H263C263 247.134 259.866 244 256 244L256 248ZM-2 282C-2 285.866 1.13401 289 5 289V285C3.34315 285 2 283.657 2 282H-2ZM393 5.00001C393 1.13401 389.866 -1.99999 386 -1.99999V2.00001C387.657 2.00001 389 3.34315 389 5.00001H393ZM31.8389 2.81266C32.3951 2.29059 33.1292 2 33.8921 2V-2C32.1122 -2 30.3991 -1.32196 29.1013 -0.103794L31.8389 2.81266ZM123 289C126.866 289 130 285.866 130 282H126C126 283.657 124.657 285 123 285V289ZM357.108 289C358.888 289 360.601 288.322 361.899 287.104L359.161 284.187C358.605 284.709 357.871 285 357.108 285V289ZM0.250074 26.7069C-1.18431 28.0319 -2 29.8959 -2 31.8487H2C2 31.0118 2.34958 30.2129 2.96432 29.645L0.250074 26.7069Z" fill="url(#paint0_linear_121_1125)" mask="url(#path-1-inside-1_121_1125)"/>
<defs>
<linearGradient id="paint0_linear_121_1125" x1="391" y1="4.63769e-05" x2="-44.6109" y2="109.452" gradientUnits="userSpaceOnUse">
<stop offset="0.302083" stop-color="#FF127F"/>
<stop offset="0.458285" stop-color="#FF89BF"/>
<stop offset="0.625" stop-color="#FF1580"/>
</linearGradient>
</defs>
</svg>
