<svg width="143" height="202" viewBox="0 0 143 202" fill="none" xmlns="http://www.w3.org/2000/svg">
<g opacity="0.2">
<path opacity="0.090909" d="M16.7271 152.772L57.8888 136.855C60.1847 135.542 63.1365 134.722 66.0884 134.886C67.4003 134.886 68.5482 135.05 69.6962 135.378C70.6801 135.706 71.992 136.199 72.812 136.691L103.314 154.577L104.134 155.069C106.594 156.546 107.578 158.844 107.578 161.141C107.414 163.602 105.61 166.392 102.822 168.033L77.5677 192.155C75.2718 193.467 72.484 194.124 69.5322 194.124C67.0723 194.124 64.7764 193.632 62.9725 192.483L15.9072 165.407C13.6113 164.095 12.1354 161.961 12.1354 159.5C12.1354 156.874 13.7753 154.413 16.7271 152.772Z" fill="#1F1F1F"/>
<path opacity="0.1818" d="M16.8911 153.1L58.0528 137.183C60.3487 135.87 63.3005 135.214 66.2523 135.214C67.5643 135.214 68.7122 135.378 69.8601 135.706C70.8441 136.034 72.156 136.527 72.976 137.019L103.314 154.741L104.134 155.234C106.43 156.71 107.25 159.008 107.086 161.305C106.758 163.602 104.79 166.556 102.33 167.869L77.4037 191.662C75.1078 192.975 72.32 193.632 69.5322 193.632C67.0723 193.632 64.7764 193.139 63.1365 192.155L16.0711 165.079C13.7753 163.766 12.4633 161.797 12.6273 159.5C12.6273 157.039 14.1033 154.741 16.8911 153.1Z" fill="#1F1F1F"/>
<path opacity="0.2727" d="M17.0551 153.428L58.2168 137.511C60.5127 136.199 63.4645 135.542 66.2523 135.542C67.5643 135.542 68.7122 135.87 69.6961 136.034C70.5161 136.199 71.992 137.019 72.812 137.347L102.986 155.069L103.806 155.562C106.102 157.039 106.594 159.336 106.266 161.633C105.938 163.602 103.642 166.884 101.51 168.033L77.0757 191.498C74.9438 192.811 72.156 193.467 69.5322 193.467C67.0723 193.467 64.9404 192.975 63.3005 191.991L16.2351 164.751C14.1032 163.438 12.7913 161.633 12.9553 159.5C12.9553 157.039 14.4312 154.905 17.0551 153.428Z" fill="#1F1F1F"/>
<path opacity="0.3636" d="M17.219 153.757L58.3807 137.84C60.6766 136.527 63.6285 135.87 66.4163 136.034C67.7282 136.034 68.8762 136.363 69.8601 136.691C70.5161 136.855 72.32 137.675 72.8119 138.004L102.822 155.562C102.986 155.562 103.642 156.054 103.642 156.054C105.938 157.531 106.594 159.828 105.61 162.125C105.61 163.931 102.658 167.212 100.854 168.361L76.9117 191.17C74.7798 192.319 72.156 192.975 69.5321 193.139C67.2363 193.139 65.1044 192.647 63.4645 191.662L16.3991 164.423C14.2672 163.274 13.2833 161.469 13.2833 159.336C13.2833 157.203 14.7592 155.069 17.219 153.757Z" fill="#1F1F1F"/>
<path opacity="0.4545" d="M17.3831 154.085L58.5448 138.168C60.8406 136.855 63.7925 136.199 66.5803 136.363C67.8922 136.363 69.0402 136.691 70.0241 137.019C70.6801 137.183 72.484 138.168 72.9759 138.332L102.822 155.89C102.986 155.89 103.478 156.382 103.642 156.382C105.938 157.859 106.43 160.32 105.118 162.454C105.118 163.931 101.838 167.541 100.198 168.525L76.7477 191.006C74.6159 192.155 72.156 192.811 69.5321 192.811C67.2363 192.811 65.2684 192.319 63.6285 191.498L16.5631 164.095C14.5952 162.946 13.6113 161.305 13.6113 159.336C13.6113 157.367 15.0872 155.398 17.3831 154.085Z" fill="#1F1F1F"/>
<path opacity="0.5455" d="M17.5471 154.413L58.7088 138.496C61.0046 137.183 63.9565 136.527 66.7443 136.691C68.0562 136.855 69.0402 137.019 70.1881 137.347C70.6801 137.511 72.648 138.496 73.14 138.824L102.822 156.218C102.986 156.382 103.478 156.71 103.642 156.71C105.774 158.187 106.102 160.649 104.462 162.618C104.462 163.931 100.854 167.705 99.5425 168.361L76.5838 190.35C74.6159 191.498 71.992 192.155 69.5322 192.155C67.4003 192.155 65.2684 191.662 63.7925 190.842L16.7271 163.766C14.9232 162.618 13.9393 161.141 13.9393 159.336C14.1033 157.531 15.2512 155.562 17.5471 154.413Z" fill="#1F1F1F"/>
<path opacity="0.6364" d="M17.711 154.577L58.8727 138.66C61.1686 137.347 64.1204 136.691 66.7443 137.019C67.8922 137.183 69.0401 137.511 70.0241 137.84C70.5161 138.004 72.484 139.152 72.9759 139.316L102.494 156.546C102.658 156.71 103.15 157.039 103.314 157.039C105.446 158.679 105.61 160.977 103.642 162.946C103.642 163.931 99.8704 167.869 98.7225 168.525L76.2557 190.35C74.2879 191.498 71.828 192.155 69.3681 192.155C67.2362 192.155 65.2684 191.662 63.7924 190.842L16.8911 163.438C15.0872 162.454 14.2672 160.977 14.2672 159.336C14.4312 157.531 15.5791 155.89 17.711 154.577Z" fill="#1F1F1F"/>
<path opacity="0.7273" d="M17.875 154.905L59.0367 139.152C61.3326 137.839 64.2844 137.347 66.9082 137.511C68.0562 137.675 69.2041 138.003 70.1881 138.331C70.516 138.495 72.8119 139.644 72.9759 139.808L102.33 157.038C102.494 157.202 102.986 157.366 103.15 157.53C105.282 159.171 105.118 161.469 102.986 163.438C102.986 164.258 98.8865 168.361 98.0665 168.853L75.9277 190.021C73.9598 191.17 71.664 191.662 69.3681 191.662C67.2362 191.662 65.4323 191.334 63.9564 190.349L17.219 163.11C15.5791 162.125 14.7592 160.812 14.7592 159.171C14.7592 157.695 15.9071 156.054 17.875 154.905Z" fill="#1F1F1F"/>
<path opacity="0.8182" d="M18.039 155.233L59.2007 139.48C61.4966 138.167 64.4484 137.675 67.0723 137.839C68.2202 138.003 69.3681 138.331 70.3521 138.66C70.5161 138.66 72.9759 140.136 73.1399 140.136L102.33 157.202C102.494 157.366 102.986 157.53 103.15 157.694C105.118 159.335 104.954 161.797 102.494 163.602C102.494 164.094 98.0665 168.525 97.5746 168.853L75.9278 189.529C74.1239 190.513 71.828 191.17 69.5321 191.17C67.5642 191.17 65.5963 190.841 64.2844 190.021L17.383 162.945C15.7431 161.961 15.0872 160.812 15.0872 159.335C15.0872 157.859 16.2351 156.382 18.039 155.233Z" fill="#1F1F1F"/>
<path opacity="0.9091" d="M18.367 155.562L59.5287 139.645C61.8246 138.332 64.7764 137.84 67.4003 138.168C68.5482 138.332 69.6961 138.824 70.6801 139.152C70.8441 139.152 73.3039 140.629 73.4679 140.629L102.494 157.695C102.822 157.859 103.15 158.023 103.314 158.187C105.282 159.828 104.954 162.29 102.166 164.095C102.166 164.423 97.4106 169.017 97.0826 169.182L75.9278 189.365C74.1239 190.35 71.828 191.006 69.6961 191.006C67.7282 191.006 65.9243 190.678 64.6124 189.857L17.547 162.618C16.0711 161.797 15.4152 160.485 15.4152 159.336C15.5792 157.859 16.5631 156.546 18.367 155.562Z" fill="#1F1F1F"/>
<path d="M64.6124 189.529L17.7111 162.29C14.9232 160.649 15.2512 157.859 18.531 155.89L59.6927 139.973C62.9725 138.168 67.8922 137.84 70.6801 139.48L102.166 158.023C104.954 159.664 104.626 162.454 101.346 164.423L75.5998 189.037C72.32 191.006 67.4003 191.17 64.6124 189.529Z" fill="#1F1F1F"/>
</g>
<path d="M64.6124 189.365L17.7111 162.125C16.3991 161.469 15.7432 160.485 15.7432 159.336C15.7432 159.336 15.7432 155.89 15.7432 155.726C15.7432 154.413 16.7271 156.71 18.367 155.562L59.5287 139.645C62.8085 137.84 67.7283 137.511 70.5161 139.152L102.002 157.695C102.986 158.187 103.642 155.89 103.806 156.71C103.806 156.874 103.806 160.156 103.806 160.485C103.806 161.797 102.986 163.11 101.182 164.095L75.4358 188.709C72.32 190.842 67.4003 191.006 64.6124 189.365Z" fill="url(#paint0_linear_121_1355)"/>
<path d="M64.6124 185.919L17.7111 158.679C14.9232 157.038 15.2512 154.249 18.531 152.279L59.6927 136.362C62.9725 134.557 67.8922 134.229 70.6801 135.87L102.166 154.413C104.954 156.054 104.626 158.843 101.346 160.812L75.5998 185.426C72.32 187.396 67.4003 187.56 64.6124 185.919Z" fill="url(#paint1_linear_121_1355)"/>
<path d="M102.166 154.577L70.6801 136.035C67.8922 134.394 62.9725 134.558 59.6927 136.527L38.8658 144.404C39.0298 144.568 39.1938 144.732 39.5218 144.896L86.4232 172.136C87.0791 172.464 87.8991 172.792 88.7191 172.956L101.346 160.813C104.626 159.008 104.954 156.218 102.166 154.577Z" fill="url(#paint2_linear_121_1355)"/>
<path d="M101.346 160.32L75.5998 184.935C72.32 186.74 67.4003 187.068 64.6124 185.427L17.7111 158.187C16.5631 157.531 15.9072 156.546 15.9072 155.726C15.7432 156.874 16.3991 158.023 17.7111 158.844L64.6124 186.083C67.4003 187.724 72.32 187.56 75.5998 185.591L101.346 160.977C103.314 159.828 104.134 158.515 103.97 157.039C103.97 158.187 102.986 159.336 101.346 160.32Z" fill="white"/>
<path d="M125.945 186.083L10.6594 119.461C4.75573 116.179 0 106.989 0 99.1129V10.9943C0 3.11777 4.75573 -0.492297 10.6594 2.95368L125.781 69.5759C131.685 73.0219 136.44 82.0471 136.44 89.9236V178.042C136.604 185.919 131.685 189.529 125.945 186.083Z" fill="url(#paint3_linear_121_1355)"/>
<path d="M127.257 180.011L13.6113 114.374C8.85552 111.42 5.90369 105.348 5.90369 99.1129V10.3379C5.90369 8.86108 7.5436 8.0406 8.69153 8.69698C8.85552 8.86108 9.01951 8.86108 9.01951 8.86108L122.665 74.6629C128.241 77.9447 130.373 83.688 130.373 89.9236V178.37C130.373 180.011 128.733 180.996 127.257 180.175C127.421 180.011 127.257 180.011 127.257 180.011Z" fill="url(#paint4_linear_121_1355)"/>
<path d="M122.829 74.6629L9.18351 8.86108C9.18351 8.86108 9.01952 8.69698 8.85553 8.69698C7.54361 8.0406 6.06769 8.86108 6.06769 10.3379V99.1129C6.06769 105.348 9.01952 111.256 13.7753 114.374L127.421 180.011C127.421 180.011 127.585 180.011 127.749 180.175C129.061 180.996 130.865 180.011 130.865 178.37V89.9236C130.537 83.688 128.569 77.9447 122.829 74.6629ZM129.389 178.37C129.389 178.863 128.897 179.191 128.569 179.191C128.405 179.191 128.241 179.191 128.077 179.027L14.2672 113.225C10.0035 110.435 7.21562 104.856 7.21562 99.1129V10.3379C7.21562 9.84564 7.54361 9.68155 7.87159 9.68155C8.03558 9.68155 8.19957 9.68155 8.19957 9.84564L122.173 75.8115C128.077 79.2575 129.225 85.329 129.225 89.9236V178.37H129.389Z" fill="#BCBEC0"/>
<path d="M128.897 67.935L13.6112 1.31275C11.3154 0 9.1835 -0.328188 7.3796 0.328188C7.21561 0.492283 4.26377 1.96913 3.93579 2.13322C5.73969 1.31275 8.03556 1.47685 10.4954 2.7896L125.617 69.4119C131.521 72.8578 136.276 81.883 136.276 89.7595V177.878C136.276 182.801 134.472 186.083 131.521 186.903C131.685 186.903 132.013 186.903 132.505 186.575C132.669 186.575 135.948 184.606 135.948 184.606C137.916 183.129 139.228 180.34 139.228 176.237V88.2827C139.556 80.4062 134.8 71.2169 128.897 67.935Z" fill="url(#paint5_linear_121_1355)"/>
<path d="M126.437 69.2478L11.1514 2.62551C8.69152 1.31276 6.55964 0.984571 4.75574 1.80504C6.23165 1.64095 8.03555 1.96914 9.83945 2.9537L124.961 69.576C130.865 73.0219 135.62 82.0471 135.62 89.9236V178.042C135.62 182.637 133.981 185.755 131.357 186.903C134.636 186.411 136.932 182.965 136.932 177.55V89.5955C137.096 81.7189 132.341 72.6937 126.437 69.2478Z" fill="url(#paint6_radial_121_1355)"/>
<path d="M62.6445 53.6588L67.0723 56.1202V51.0333L62.6445 48.4078V53.6588Z" fill="#85CFFF"/>
<path opacity="0.3" d="M45.9174 43.9773L50.3452 46.4387V41.3518L45.9174 38.7263V43.9773Z" fill="#85CFFF"/>
<path opacity="0.3" d="M20.6628 29.3729L25.2546 31.9984V26.9115L20.6628 24.2859V29.3729Z" fill="#85CFFF"/>
<path opacity="0.3" d="M12.2993 24.6141L16.8911 27.0756V21.9886L12.2993 19.5272V24.6141Z" fill="#85CFFF"/>
<path opacity="0.3" d="M62.6445 62.684L67.0723 65.3095V60.2226L62.6445 57.5971V62.684Z" fill="#85CFFF"/>
<path d="M45.9174 53.0024L50.3452 55.628V50.541L45.9174 47.9155V53.0024Z" fill="#85CFFF"/>
<path d="M29.0264 43.3209L33.6181 45.9464V40.8595L29.0264 38.2339V43.3209Z" fill="#85CFFF"/>
<path d="M20.6628 38.5621L25.2546 41.0236V35.9366L20.6628 33.3111V38.5621Z" fill="#85CFFF"/>
<path d="M12.2993 33.6393L16.8911 36.2648V31.1779L12.2993 28.5524V33.6393Z" fill="#85CFFF"/>
<path d="M62.6445 71.7089L67.0723 74.3344V69.2475L62.6445 66.622V71.7089Z" fill="#85CFFF"/>
<path opacity="0.3" d="M54.2809 66.9504L58.7087 69.4119V64.3249L54.2809 61.6994V66.9504Z" fill="#85CFFF"/>
<path opacity="0.3" d="M45.9174 62.0276L50.3452 64.6531V59.5662L45.9174 56.9407V62.0276Z" fill="#85CFFF"/>
<path d="M37.5539 57.2689L41.9816 59.7303V54.6434L37.5539 52.0179V57.2689Z" fill="#85CFFF"/>
<path d="M29.0264 52.346L33.6181 54.9716V49.8846L29.0264 47.2591V52.346Z" fill="#85CFFF"/>
<path d="M20.6628 47.5873L25.2546 50.0487V44.9618L20.6628 42.3363V47.5873Z" fill="#85CFFF"/>
<path d="M12.2993 42.6645L16.8911 45.29V40.2031L12.2993 37.5776V42.6645Z" fill="#85CFFF"/>
<path opacity="0.3" d="M12.2993 60.7149L16.8911 63.3404V58.2535L12.2993 55.628V60.7149Z" fill="#85CFFF"/>
<path d="M12.2993 69.9041L16.8911 72.3656V67.2786L12.2993 64.6531V69.9041Z" fill="#85CFFF"/>
<path opacity="0.3" d="M12.2993 78.9293L16.8911 81.3907V76.3038L12.2993 73.6783V78.9293Z" fill="#85CFFF"/>
<path d="M62.6445 116.999L67.0723 119.625V114.374L62.6445 111.912V116.999Z" fill="#85CFFF"/>
<path d="M54.2809 112.24L58.7087 114.702V109.615L54.2809 106.989V112.24Z" fill="#85CFFF"/>
<path opacity="0.3" d="M37.5539 102.559L41.9816 105.02V99.9334L37.5539 97.3079V102.559Z" fill="#85CFFF"/>
<path d="M29.0264 97.6361L33.6181 100.262V95.1746L29.0264 92.5491V97.6361Z" fill="#85CFFF"/>
<path d="M20.6628 92.8773L25.2546 95.3387V90.2518L20.6628 87.6263V92.8773Z" fill="#85CFFF"/>
<path d="M12.2993 87.9545L16.8911 90.58V85.4931L12.2993 82.8676V87.9545Z" fill="#85CFFF"/>
<path opacity="0.3" d="M62.6445 126.352L67.0723 128.814V123.727L62.6445 121.101V126.352Z" fill="#85CFFF"/>
<path opacity="0.3" d="M54.281 121.429L58.7088 124.055V118.968L54.281 116.343V121.429Z" fill="#85CFFF"/>
<path opacity="0.3" d="M45.9175 116.671L50.3452 119.132V114.045L45.9175 111.42V116.671Z" fill="#85CFFF"/>
<path opacity="0.3" d="M37.5539 111.748L41.9816 114.374V109.287L37.5539 106.661V111.748Z" fill="#85CFFF"/>
<path opacity="0.3" d="M29.0264 106.989L33.6181 109.451V104.364L29.0264 101.738V106.989Z" fill="#85CFFF"/>
<path opacity="0.3" d="M20.6628 102.067L25.2546 104.692V99.6052L20.6628 96.9797V102.067Z" fill="#85CFFF"/>
<path opacity="0.3" d="M12.2993 97.3079L16.8911 99.7693V94.6824L12.2993 92.0569V97.3079Z" fill="#85CFFF"/>
<path opacity="0.3" d="M62.6445 135.378L67.0723 138.003V132.752L62.6445 130.291V135.378Z" fill="#85CFFF"/>
<path opacity="0.3" d="M54.281 130.455L58.7088 133.08V127.993L54.281 125.368V130.455Z" fill="#85CFFF"/>
<path opacity="0.3" d="M37.554 120.773L41.9817 123.399V118.312L37.554 115.686V120.773Z" fill="#85CFFF"/>
<path d="M29.0264 116.014L33.6181 118.64V113.553L29.0264 110.927V116.014Z" fill="#85CFFF"/>
<path opacity="0.3" d="M20.6628 111.256L25.2546 113.717V108.63L20.6628 106.005V111.256Z" fill="#85CFFF"/>
<path opacity="0.3" d="M12.2993 106.333L16.8911 108.959V103.872L12.2993 101.246V106.333Z" fill="#85CFFF"/>
<path opacity="0.3" d="M121.025 87.6263L125.453 90.0877V85.0008L121.025 82.3753V87.6263Z" fill="#85CFFF"/>
<path opacity="0.3" d="M112.662 82.7035L117.09 85.329V80.2421L112.662 77.6166V82.7035Z" fill="#85CFFF"/>
<path opacity="0.3" d="M104.298 77.9448L108.726 80.4062V75.3193L104.298 72.6938V77.9448Z" fill="#85CFFF"/>
<path d="M79.2076 63.3404L83.6353 65.9659V60.879L79.2076 58.2534V63.3404Z" fill="#85CFFF"/>
<path d="M70.8441 58.5816L75.2718 61.0431V55.9561L70.8441 53.3306V58.5816Z" fill="#85CFFF"/>
<path d="M121.025 96.6515L125.453 99.277V94.1901L121.025 91.5646V96.6515Z" fill="#85CFFF"/>
<path d="M112.662 91.8928L117.09 94.3542V89.2673L112.662 86.6418V91.8928Z" fill="#85CFFF"/>
<path opacity="0.3" d="M104.298 86.9699L108.726 89.5955V84.5085L104.298 81.883V86.9699Z" fill="#85CFFF"/>
<path opacity="0.3" d="M95.9346 82.2112L100.362 84.6726V79.5857L95.9346 76.9602V82.2112Z" fill="#85CFFF"/>
<path opacity="0.3" d="M87.5711 77.2884L91.9989 79.9139V74.827L87.5711 72.2014V77.2884Z" fill="#85CFFF"/>
<path opacity="0.3" d="M79.2076 72.5296L83.6353 74.9911V69.9041L79.2076 67.2786V72.5296Z" fill="#85CFFF"/>
<path opacity="0.3" d="M70.8441 67.6068L75.2718 70.2323V65.1454L70.8441 62.5199V67.6068Z" fill="#85CFFF"/>
<path opacity="0.3" d="M121.025 105.677L125.453 108.302V103.215L121.025 100.59V105.677Z" fill="#85CFFF"/>
<path d="M104.298 95.9951L108.726 98.6206V93.5337L104.298 90.9082V95.9951Z" fill="#85CFFF"/>
<path opacity="0.3" d="M95.9346 91.2364L100.362 93.6978V88.6109L95.9346 85.9854V91.2364Z" fill="#85CFFF"/>
<path opacity="0.3" d="M87.5711 86.3135L91.9989 88.9391V83.8521L87.5711 81.2266V86.3135Z" fill="#85CFFF"/>
<path opacity="0.3" d="M79.2076 81.5548L83.6353 84.0162V78.9293L79.2076 76.3038V81.5548Z" fill="#85CFFF"/>
<path d="M70.8441 76.632L75.2718 79.2575V74.1706L70.8441 71.5451V76.632Z" fill="#85CFFF"/>
<path d="M121.025 114.702L125.453 117.328V112.241L121.025 109.615V114.702Z" fill="#85CFFF"/>
<path opacity="0.3" d="M121.025 123.727L125.453 126.352V121.265L121.025 118.64V123.727Z" fill="#85CFFF"/>
<path d="M121.025 132.916L125.453 135.377V130.29L121.025 127.665V132.916Z" fill="#85CFFF"/>
<path opacity="0.3" d="M121.025 141.942L125.453 144.403V139.316L121.025 136.69V141.942Z" fill="#85CFFF"/>
<path d="M121.025 150.967L125.453 153.592V148.341L121.025 145.88V150.967Z" fill="#85CFFF"/>
<path opacity="0.3" d="M112.662 146.044L117.09 148.669V143.582L112.662 140.957V146.044Z" fill="#85CFFF"/>
<path opacity="0.3" d="M104.298 141.285L108.726 143.911V138.824L104.298 136.198V141.285Z" fill="#85CFFF"/>
<path opacity="0.3" d="M95.9346 136.526L100.362 138.988V133.901L95.9346 131.275V136.526Z" fill="#85CFFF"/>
<path d="M87.5711 131.604L91.9989 134.229V129.142L87.5711 126.517V131.604Z" fill="#85CFFF"/>
<path d="M70.8441 121.922L75.2718 124.548V119.461L70.8441 116.835V121.922Z" fill="#85CFFF"/>
<path opacity="0.3" d="M121.025 160.156L125.453 162.782V157.695L121.025 155.069V160.156Z" fill="#85CFFF"/>
<path d="M104.298 150.639L108.726 153.1V148.013L104.298 145.388V150.639Z" fill="#85CFFF"/>
<path opacity="0.3" d="M95.9346 145.716L100.362 148.341V143.254L95.9346 140.629V145.716Z" fill="#85CFFF"/>
<path opacity="0.3" d="M87.5711 140.957L91.9989 143.418V138.331L87.5711 135.706V140.957Z" fill="#85CFFF"/>
<path opacity="0.3" d="M79.2076 136.034L83.6353 138.66V133.573L79.2076 130.947V136.034Z" fill="#85CFFF"/>
<path d="M70.8441 131.275L75.2718 133.737V128.65L70.8441 126.024V131.275Z" fill="#85CFFF"/>
<path d="M121.025 169.345L125.453 171.971V166.72L121.025 164.259V169.345Z" fill="#85CFFF"/>
<path opacity="0.3" d="M104.298 159.664L108.726 162.289V157.038L104.298 154.577V159.664Z" fill="#85CFFF"/>
<path opacity="0.3" d="M95.9346 154.741L100.362 157.366V152.279L95.9346 149.654V154.741Z" fill="#85CFFF"/>
<path d="M87.5711 149.982L91.9989 152.608V147.357L87.5711 144.895V149.982Z" fill="#85CFFF"/>
<path opacity="0.3" d="M70.8441 140.301L75.2718 142.926V137.839L70.8441 135.214V140.301Z" fill="#85CFFF"/>
<path d="M34.766 66.9504L30.1743 71.2169V71.381L37.3899 74.4988V78.2729L30.1743 73.0219V73.186L34.766 82.5394L31.6502 82.7035L28.6984 73.3501H28.5344L25.4186 79.4216L22.9587 75.6474L27.5504 71.5451V71.381L20.4988 68.2632V64.489L27.5504 69.5759V69.4118L22.9587 60.2226L25.9105 60.0585L28.8624 69.4118H29.0264L31.9782 63.3404L34.766 66.9504Z" fill="url(#paint7_linear_121_1355)"/>
<path d="M54.7729 78.437L50.1812 82.7035V82.8676L57.3968 85.9854V89.7595L50.1812 84.5085V84.6726L54.7729 94.026L51.6571 94.1901L48.7053 84.8367H48.5413L45.4254 90.9082L42.6376 87.2981L47.2293 83.1958V83.0317L40.1777 79.9139V76.1397L47.2293 81.2266V81.0625L42.6376 71.7092L45.5894 71.5451L48.5413 80.8984H48.7053L51.6571 74.827L54.7729 78.437Z" fill="url(#paint8_linear_121_1355)"/>
<path d="M74.7798 90.0877L70.1881 94.3542V94.5183L77.4037 97.6361V101.41L70.1881 96.1592V96.3233L74.7798 105.677L71.664 105.841L68.8762 96.3233H68.7122L65.5963 102.395L62.8085 98.7847L67.4002 94.6824V94.5183L60.3486 91.4005V87.6263L67.4002 92.7132V92.5491L62.8085 83.1958L65.7603 83.0317L68.7122 92.385H68.8762L71.828 86.3136L74.7798 90.0877Z" fill="url(#paint9_linear_121_1355)"/>
<path d="M94.7867 101.574L90.1949 105.841V106.005L97.4105 109.123V112.897L90.1949 107.646V107.81L94.7867 117.163L91.8348 117.327L88.883 107.974H88.719L85.6032 114.045L82.8153 110.435L87.4071 106.333V106.169L80.3555 103.051V99.277L87.4071 104.364V104.2L82.8153 94.8465L85.7672 94.6824L88.719 104.036H88.883L91.8348 97.9643L94.7867 101.574Z" fill="url(#paint10_linear_121_1355)"/>
<path d="M114.794 113.225L110.202 117.491V117.656L117.417 120.773V124.548L110.202 119.297V119.461L114.794 128.814L111.678 128.978L108.726 119.625H108.562L105.446 125.696L102.658 122.086L107.25 117.984V117.82L100.198 114.702V110.928L107.25 116.015V115.851L102.658 106.497L105.61 106.333L108.562 115.686H108.726L111.678 109.615L114.794 113.225Z" fill="url(#paint11_linear_121_1355)"/>
<defs>
<linearGradient id="paint0_linear_121_1355" x1="17.7212" y1="164.479" x2="110.875" y2="164.479" gradientUnits="userSpaceOnUse">
<stop offset="0.0555556" stop-color="#9F79B8"/>
<stop offset="0.2575" stop-color="#A17BBA"/>
<stop offset="0.3569" stop-color="#A783BF"/>
<stop offset="0.4338" stop-color="#B290C9"/>
<stop offset="0.4949" stop-color="#C1A1D5"/>
<stop offset="0.5067" stop-color="#C4A5D7"/>
<stop offset="0.5196" stop-color="#CDB3DD"/>
<stop offset="0.5329" stop-color="#DBC8E7"/>
<stop offset="0.5466" stop-color="#EFE7F4"/>
<stop offset="0.5556" stop-color="white"/>
<stop offset="0.5678" stop-color="#ECE0F3"/>
<stop offset="0.5801" stop-color="#DDC8EA"/>
<stop offset="0.5915" stop-color="#D4B9E5"/>
<stop offset="0.601" stop-color="#D1B4E3"/>
<stop offset="0.658" stop-color="#B395D6"/>
<stop offset="0.7155" stop-color="#9C7DCB"/>
<stop offset="0.7687" stop-color="#8E6EC5"/>
<stop offset="0.8131" stop-color="#8969C3"/>
<stop offset="1" stop-color="#B086CC"/>
</linearGradient>
<linearGradient id="paint1_linear_121_1355" x1="87.2753" y1="141.487" x2="14.2025" y2="191.217" gradientUnits="userSpaceOnUse">
<stop stop-color="#9F79C8"/>
<stop offset="0.1409" stop-color="#A27DCA"/>
<stop offset="0.2725" stop-color="#AC88CF"/>
<stop offset="0.4" stop-color="#BC9BD7"/>
<stop offset="0.5202" stop-color="#D1B4E3"/>
<stop offset="0.6493" stop-color="#DBC4E9"/>
<stop offset="0.8997" stop-color="#F4EDF8"/>
<stop offset="1" stop-color="white"/>
</linearGradient>
<linearGradient id="paint2_linear_121_1355" x1="66.6295" y1="159.424" x2="74.9268" y2="145.521" gradientUnits="userSpaceOnUse">
<stop stop-color="white"/>
<stop offset="1" stop-color="#8969C3"/>
</linearGradient>
<linearGradient id="paint3_linear_121_1355" x1="-75.3397" y1="-30.3143" x2="153.129" y2="168.009" gradientUnits="userSpaceOnUse">
<stop stop-color="#9F79C8"/>
<stop offset="0.1409" stop-color="#A27DCA"/>
<stop offset="0.2725" stop-color="#AC88CF"/>
<stop offset="0.4" stop-color="#BC9BD7"/>
<stop offset="0.5202" stop-color="#D1B4E3"/>
<stop offset="0.6493" stop-color="#DBC4E9"/>
<stop offset="0.8997" stop-color="#F4EDF8"/>
<stop offset="1" stop-color="white"/>
</linearGradient>
<linearGradient id="paint4_linear_121_1355" x1="141.253" y1="186.997" x2="-11.1414" y2="-6.30547" gradientUnits="userSpaceOnUse">
<stop offset="0.030303" stop-color="#7C1DC9"/>
<stop offset="0.2138" stop-color="#6E41D2"/>
<stop offset="0.6184" stop-color="#4C9BE8"/>
<stop offset="1" stop-color="#2AF6FF"/>
</linearGradient>
<linearGradient id="paint5_linear_121_1355" x1="165.28" y1="191.176" x2="52.9728" y2="11.8376" gradientUnits="userSpaceOnUse">
<stop offset="0.0555556" stop-color="#9F79B8"/>
<stop offset="0.2575" stop-color="#A17BBA"/>
<stop offset="0.3569" stop-color="#A783BF"/>
<stop offset="0.4338" stop-color="#B290C9"/>
<stop offset="0.4949" stop-color="#C1A1D5"/>
<stop offset="0.5067" stop-color="#C4A5D7"/>
<stop offset="0.5196" stop-color="#CDB3DD"/>
<stop offset="0.5329" stop-color="#DBC8E7"/>
<stop offset="0.5466" stop-color="#EFE7F4"/>
<stop offset="0.5556" stop-color="white"/>
<stop offset="0.5678" stop-color="#ECE0F3"/>
<stop offset="0.5801" stop-color="#DDC8EA"/>
<stop offset="0.5915" stop-color="#D4B9E5"/>
<stop offset="0.601" stop-color="#D1B4E3"/>
<stop offset="0.658" stop-color="#B395D6"/>
<stop offset="0.7155" stop-color="#9C7DCB"/>
<stop offset="0.7687" stop-color="#8E6EC5"/>
<stop offset="0.8131" stop-color="#8969C3"/>
<stop offset="1" stop-color="#B086CC"/>
</linearGradient>
<radialGradient id="paint6_radial_121_1355" cx="0" cy="0" r="1" gradientUnits="userSpaceOnUse" gradientTransform="translate(133.765 81.0733) scale(19.0991 19.1112)">
<stop stop-color="white"/>
<stop offset="1"/>
</radialGradient>
<linearGradient id="paint7_linear_121_1355" x1="34.6804" y1="122.606" x2="22.6278" y2="14.9546" gradientUnits="userSpaceOnUse">
<stop offset="0.0959596" stop-color="#45108A"/>
<stop offset="1" stop-color="#7C1DC9"/>
</linearGradient>
<linearGradient id="paint8_linear_121_1355" x1="53.1574" y1="120.538" x2="41.1049" y2="12.8858" gradientUnits="userSpaceOnUse">
<stop offset="0.0959596" stop-color="#45108A"/>
<stop offset="1" stop-color="#7C1DC9"/>
</linearGradient>
<linearGradient id="paint9_linear_121_1355" x1="71.6356" y1="118.469" x2="59.5831" y2="10.8171" gradientUnits="userSpaceOnUse">
<stop offset="0.0959596" stop-color="#45108A"/>
<stop offset="1" stop-color="#7C1DC9"/>
</linearGradient>
<linearGradient id="paint10_linear_121_1355" x1="90.1126" y1="116.4" x2="78.06" y2="8.7484" gradientUnits="userSpaceOnUse">
<stop offset="0.0959596" stop-color="#45108A"/>
<stop offset="1" stop-color="#7C1DC9"/>
</linearGradient>
<linearGradient id="paint11_linear_121_1355" x1="108.59" y1="114.331" x2="96.537" y2="6.67986" gradientUnits="userSpaceOnUse">
<stop offset="0.0959596" stop-color="#45108A"/>
<stop offset="1" stop-color="#7C1DC9"/>
</linearGradient>
</defs>
</svg>
