<svg width="198" height="202" viewBox="0 0 198 202" fill="none" xmlns="http://www.w3.org/2000/svg">
<g opacity="0.2">
<path opacity="0.090909" d="M27.8851 136.651L38.4451 130.695C38.7751 130.53 55.1101 121.431 55.4401 121.431C56.5951 120.769 57.7501 120.438 59.0701 120.107C60.5551 119.777 62.2051 119.611 63.8551 119.611C66.3301 119.611 68.9701 120.273 70.7851 121.431L107.25 142.442L112.365 145.419L154.275 169.243C156.75 170.732 158.235 173.048 158.235 175.529C158.235 178.342 156.42 180.989 153.45 182.643L142.89 188.599C142.56 188.764 126.225 197.863 125.895 197.863C124.74 198.525 123.585 198.856 122.265 199.187C120.78 199.518 119.13 199.683 117.48 199.683C115.005 199.683 112.365 199.021 110.55 197.863L73.9201 177.018L68.8051 174.04L26.8951 150.217C24.4201 148.728 22.9351 146.412 22.9351 143.931C23.1001 141.118 24.7501 138.471 27.8851 136.651Z" fill="black"/>
<path opacity="0.1818" d="M30.8551 137.314L40.9201 131.689C41.4151 131.358 56.5951 123.086 57.2551 123.251C58.2451 122.755 59.4001 122.424 60.7201 122.093C62.0401 121.762 63.8551 121.762 65.1751 121.762C67.4851 121.762 70.1251 122.59 71.6101 123.582L106.59 143.6L111.54 146.413L151.47 169.243C153.945 170.567 155.265 172.883 155.265 175.199C155.265 177.846 153.615 180.328 150.645 181.982L140.58 187.607C140.085 187.938 124.905 196.21 124.245 196.044C123.255 196.541 122.1 196.871 120.78 197.202C119.46 197.533 117.645 197.533 116.325 197.533C114.015 197.533 111.375 196.706 109.89 195.713L74.9101 175.695L69.9601 172.883L30.0301 150.218C27.5551 148.894 26.2351 146.578 26.2351 144.262C26.2351 141.45 28.0501 138.968 30.8551 137.314Z" fill="black"/>
<path opacity="0.2727" d="M33.99 137.975L43.56 132.681C44.385 132.185 58.245 124.906 59.07 125.071C60.06 124.575 61.215 124.41 62.37 124.079C63.525 123.748 65.34 123.913 66.66 123.913C68.64 123.913 71.445 124.906 72.765 125.733L105.93 144.758L110.55 147.405L148.5 169.078C150.81 170.401 152.13 172.552 152.13 174.703C152.13 177.184 150.48 179.5 147.675 181.155L138.105 186.449C137.28 186.945 123.42 194.224 122.595 194.059C121.605 194.555 120.45 194.721 119.295 195.052C118.14 195.382 116.325 195.217 115.005 195.217C113.025 195.217 110.22 194.224 108.9 193.397L75.735 174.372L71.115 171.725L33.165 150.052C30.855 148.729 29.535 146.578 29.535 144.428C29.535 141.946 31.185 139.63 33.99 137.975Z" fill="black"/>
<path opacity="0.3636" d="M36.96 138.636L46.035 133.673C47.025 133.012 59.73 126.559 60.885 126.89C61.875 126.559 62.865 126.394 64.02 126.229C65.01 126.063 66.99 126.229 67.98 126.229C69.795 126.229 72.435 127.221 73.755 128.048L105.27 146.081L109.725 148.563L145.695 169.077C147.84 170.401 149.16 172.386 148.995 174.537C148.995 176.853 147.51 179.003 144.705 180.658L135.63 185.621C134.64 186.283 121.935 192.735 120.78 192.404C119.79 192.735 118.8 192.9 117.645 193.066C116.655 193.231 114.675 193.066 113.685 193.066C111.87 193.066 109.23 192.073 107.91 191.246L76.395 173.213L71.94 170.731L36.135 150.217C33.99 148.894 32.67 146.908 32.835 144.758C32.835 142.442 34.32 140.291 36.96 138.636Z" fill="black"/>
<path opacity="0.4545" d="M40.0951 139.299L48.6751 134.666C49.9951 133.839 61.3801 128.214 62.8651 128.711C63.8551 128.38 64.8451 128.38 65.8351 128.214C66.6601 128.049 68.6401 128.38 69.6301 128.38C71.1151 128.38 73.9201 129.538 75.0751 130.199L104.775 147.24L108.9 149.556L142.89 168.912C145.035 170.07 146.19 172.055 146.025 174.041C146.025 176.191 144.54 178.342 142.065 179.831L133.485 184.463C132.165 185.29 120.78 190.915 119.295 190.419C118.305 190.75 117.315 190.75 116.325 190.915C115.5 191.081 113.52 190.75 112.53 190.75C111.045 190.75 108.24 189.592 107.085 188.93L77.3851 171.89L73.2601 169.574L39.2701 150.217C37.1251 149.059 35.9701 147.074 36.1351 145.089C36.1351 142.938 37.6201 140.787 40.0951 139.299Z" fill="black"/>
<path opacity="0.5455" d="M43.2301 139.96L51.3151 135.659C52.8001 134.832 63.1951 130.034 64.8451 130.365C65.6701 130.199 66.6601 130.365 67.6501 130.034C68.3101 129.703 70.2901 130.365 71.1151 130.365C72.4351 130.365 75.2401 131.688 76.2301 132.185L104.28 148.232L108.24 150.383L140.25 168.747C142.23 169.905 143.22 171.559 143.22 173.544C143.22 175.53 141.735 177.515 139.425 178.838L131.34 183.14C129.855 183.967 119.46 188.765 117.81 188.434C116.985 188.599 115.995 188.599 115.005 188.765C114.18 188.93 112.365 188.434 111.54 188.434C110.22 188.434 107.415 187.11 106.425 186.614L78.3751 170.566L74.4151 168.416L42.4051 150.217C40.4251 149.059 39.4351 147.405 39.4351 145.42C39.4351 143.435 40.7551 141.449 43.2301 139.96Z" fill="black"/>
<path opacity="0.6364" d="M46.2001 140.622L53.7901 136.651C55.6051 135.659 64.6801 131.688 66.4951 132.184C67.3201 132.019 68.1451 132.019 69.1351 132.184C69.7951 132.019 71.7751 132.681 72.2701 132.681C73.2601 132.681 76.2301 134.17 76.8901 134.501L103.125 149.555L106.755 151.706L136.95 168.912C138.93 170.07 139.755 171.559 139.755 173.379C139.755 175.198 138.435 177.018 136.125 178.342L128.535 182.312C126.72 183.305 117.645 187.275 115.83 186.779C115.005 186.944 114.18 186.944 113.19 186.779C112.53 186.944 110.55 186.283 110.055 186.283C109.065 186.283 106.095 184.794 105.435 184.463L79.2001 169.408L75.5701 167.257L45.3751 150.217C43.3951 149.059 42.5701 147.57 42.5701 145.75C42.7351 143.765 44.0551 141.945 46.2001 140.622Z" fill="black"/>
<path opacity="0.7273" d="M49.335 141.45L56.43 137.81C58.575 136.652 66.33 133.509 68.475 134.17C69.3 134.17 70.125 134.17 70.785 134.336C71.28 134.17 73.26 134.998 73.755 134.998C74.58 134.998 77.55 136.487 78.045 136.817L102.63 150.88L106.095 152.865L134.145 168.912C135.96 169.905 136.785 171.394 136.785 173.048C136.62 174.703 135.465 176.523 133.32 177.681L126.225 181.32C124.08 182.478 116.325 185.622 114.18 184.96C113.355 184.96 112.53 184.96 111.87 184.794C111.375 184.96 109.395 184.133 108.9 184.133C108.075 184.133 105.105 182.644 104.61 182.313L80.025 168.251L76.56 166.265L48.51 150.218C46.695 149.225 45.87 147.736 45.87 146.082C46.035 144.262 47.19 142.608 49.335 141.45Z" fill="black"/>
<path opacity="0.8182" d="M52.4701 142.111L59.0701 138.637C61.3801 137.313 67.9801 135.163 70.4551 135.824C71.2801 135.824 71.9401 135.99 72.6001 136.155C72.9301 136.155 74.9101 136.982 75.2401 136.982C75.7351 136.982 78.8701 138.637 79.2001 138.802L101.97 151.872L105.105 153.692L131.175 168.581C132.825 169.574 133.65 170.897 133.65 172.386C133.485 173.875 132.495 175.53 130.35 176.688L123.75 180.162C121.44 181.485 114.84 183.636 112.365 182.974C111.54 182.974 110.88 182.809 110.22 182.643C109.89 182.643 107.91 181.816 107.58 181.816C107.085 181.816 103.95 180.162 103.62 179.996L80.8501 166.927L77.5501 165.107L51.4801 150.217C49.8301 149.225 49.0051 147.901 49.0051 146.412C49.3351 144.758 50.3251 143.269 52.4701 142.111Z" fill="black"/>
<path opacity="0.9091" d="M55.4401 142.773L61.5451 139.63C64.1851 138.141 69.4651 136.817 72.1051 137.644C72.7651 137.81 73.5901 137.975 74.0851 138.141C74.2501 138.141 76.3951 139.299 76.5601 139.299C76.8901 139.299 80.0251 141.119 80.1901 141.119L101.145 153.196L104.115 154.85L128.205 168.581C129.855 169.574 130.515 170.732 130.35 172.056C130.185 173.545 129.195 174.868 127.215 176.026L121.11 179.169C118.47 180.658 113.19 181.982 110.55 181.155C109.89 180.989 109.065 180.824 108.57 180.658C108.405 180.658 106.26 179.5 106.095 179.5C105.765 179.5 102.63 177.681 102.465 177.681L81.5101 165.604L78.5401 163.949L54.4501 150.218C52.8001 149.225 52.1401 148.067 52.3051 146.744C52.4701 145.255 53.6251 143.766 55.4401 142.773Z" fill="black"/>
<path d="M107.085 178.673L82.3351 164.445L57.5851 150.217C54.6151 148.398 54.9451 145.42 58.4101 143.434L64.0201 140.622C67.4851 138.637 72.7651 138.306 75.7351 140.126L100.485 154.353L125.235 168.581C128.205 170.401 127.875 173.379 124.41 175.364L118.8 178.177C115.335 180.162 110.055 180.493 107.085 178.673Z" fill="black"/>
</g>
<path d="M130.185 112.498C126.885 110.513 123.75 109.52 120.945 109.355C120.945 109.189 120.945 109.024 120.945 108.693C120.945 80.4029 100.98 45.9918 76.395 31.7641C56.595 20.3489 39.93 25.4775 34.155 42.683C32.67 41.525 31.02 40.3669 29.535 39.5397C13.2 30.1097 0 37.7199 0 56.249C0 74.9435 13.2 97.6085 29.37 107.038C37.455 111.836 120.45 159.813 130.185 165.438C142.89 172.717 153.12 166.927 153.12 152.369C153.12 137.81 142.89 119.943 130.185 112.498Z" fill="url(#paint0_linear_121_1155)"/>
<path d="M140.415 159.979C138.765 159.979 136.62 159.317 134.475 157.993L33.66 99.5938C20.13 91.8182 8.58002 71.9656 8.58002 56.249C8.58002 51.6167 9.57002 44.0066 16.17 44.0066C18.645 44.0066 21.78 44.9992 25.08 46.819C26.235 47.4808 27.39 48.3079 28.875 49.3006C33.495 52.9402 40.425 50.7895 42.24 45.1646C44.715 37.7199 49.5 34.0803 56.43 34.0803C61.05 34.0803 66.495 35.7346 72.105 39.0434C93.72 51.9476 112.2 83.5463 112.2 108.693V109.52C112.2 113.987 115.665 117.792 120.285 118.123C121.935 118.288 123.915 118.95 125.895 120.108C135.795 125.898 144.54 140.953 144.54 152.369C144.54 155.346 143.88 157.663 142.89 158.986C142.395 159.482 141.9 159.979 140.415 159.979Z" fill="url(#paint1_linear_121_1155)"/>
<path d="M43.56 43.6757C44.22 41.6904 45.045 40.036 46.035 38.5471C44.385 40.3669 43.065 42.683 42.075 45.4955C41.91 46.1572 41.58 46.6536 41.25 47.1499C42.24 46.3227 43.065 45.1646 43.56 43.6757Z" fill="url(#paint2_linear_121_1155)"/>
<path d="M141.9 158.159C140.25 158.159 138.105 157.497 135.96 156.174L35.145 97.7739C21.45 89.9983 10.065 70.1458 10.065 54.5946C10.065 51.9476 10.395 48.4734 11.88 45.8264C9.07502 48.3079 8.58002 53.1056 8.58002 56.4144C8.58002 71.9656 20.13 91.8182 33.66 99.7592L134.475 158.159C136.785 159.482 138.93 160.144 140.415 160.144C141.9 160.144 142.395 159.648 142.89 159.151C143.22 158.821 143.385 158.49 143.55 157.993C143.22 157.993 142.56 158.159 141.9 158.159Z" fill="url(#paint3_linear_121_1155)"/>
<path d="M198 126.23C198 111.671 187.77 93.8036 175.065 86.5244C171.765 84.5391 168.63 83.5465 165.825 83.381C165.825 83.2156 165.825 83.0502 165.825 82.7193C165.825 54.4294 145.86 20.0182 121.275 5.79054C107.415 -2.1505 95.535 -1.15787 86.955 4.46703L72.765 12.5735C64.68 8.43755 57.585 8.43755 52.47 11.9117L9.90002 36.7275C15.015 34.4113 21.945 35.2385 29.37 39.5399C31.02 40.5326 32.505 41.5252 33.99 42.6832C39.765 25.4777 56.595 20.3491 76.23 31.7643C100.815 45.992 120.78 80.4031 120.78 108.693C120.78 108.859 120.78 109.024 120.78 109.355C123.585 109.52 126.72 110.513 130.02 112.498C142.725 119.777 152.955 137.645 152.955 152.203C152.955 158.325 151.14 162.957 148.005 165.769L190.41 141.45C195.195 139.134 198 133.84 198 126.23Z" fill="url(#paint4_linear_121_1155)"/>
<path d="M28.545 40.6978C30.195 41.6904 31.68 42.683 33.165 43.8411C33.495 42.8485 33.825 41.8558 34.32 41.0286C33.165 40.2015 32.01 39.3743 30.69 38.7125C20.625 32.7567 11.55 33.5839 6.27002 39.7051C11.715 35.5692 19.635 35.5692 28.545 40.6978Z" fill="url(#paint5_radial_121_1155)"/>
<path d="M131.67 111.671C128.37 109.686 125.235 108.693 122.43 108.527C122.43 108.362 122.43 108.197 122.43 107.866C122.43 79.5758 102.465 45.1646 77.88 30.9369C62.7 22.1687 49.335 23.1613 41.25 31.7641C49.335 25.1466 61.71 24.9812 75.57 33.0876C100.155 47.3153 120.12 81.7265 120.12 110.016C120.12 110.182 120.12 110.347 120.12 110.678C122.925 110.844 126.06 111.836 129.36 113.821C142.065 121.101 152.295 138.968 152.295 153.527C152.295 158.821 150.975 162.791 148.665 165.604C152.295 162.957 154.44 158.159 154.44 151.376C154.605 136.817 144.375 118.95 131.67 111.671Z" fill="url(#paint6_radial_121_1155)"/>
<path d="M87.78 83.0499L87.45 82.8845V73.7854C87.45 67.9951 83.325 60.8812 78.21 57.9033L71.94 54.2637C66.825 51.2858 62.7 53.6019 62.7 59.5577V68.6568L62.37 68.4914C60.06 67.1679 58.08 68.1605 58.08 70.9729V92.4799C58.08 95.1269 60.06 98.4357 62.37 99.9246L87.615 114.483C89.925 115.807 91.905 114.814 91.905 112.002V90.4947C92.07 87.6822 90.09 84.3734 87.78 83.0499ZM76.725 93.8034V100.917L73.59 99.0974V91.9836C72.27 90.4946 71.445 88.6748 71.445 86.855C71.445 84.5389 73.095 83.5462 75.24 84.7043C77.22 85.8624 79.035 88.8403 79.035 91.1564C78.87 92.8108 78.045 93.8034 76.725 93.8034ZM82.17 79.7412L68.145 71.6347V64.3554C68.145 61.0467 70.455 59.7231 73.425 61.3775L77.055 63.5282C79.86 65.1826 82.335 69.1531 82.335 72.6273V79.7412H82.17Z" fill="url(#paint7_linear_121_1155)"/>
<defs>
<linearGradient id="paint0_linear_121_1155" x1="146.963" y1="61.7111" x2="-38.604" y2="169.431" gradientUnits="userSpaceOnUse">
<stop stop-color="#BF9DD4"/>
<stop offset="0.26" stop-color="#B999D3"/>
<stop offset="0.5905" stop-color="#AA8CD2"/>
<stop offset="0.6667" stop-color="#A588D1"/>
<stop offset="0.9394" stop-color="#B086CC"/>
<stop offset="0.9633" stop-color="#B289CD"/>
<stop offset="0.979" stop-color="#B891D2"/>
<stop offset="0.9848" stop-color="#BC97D5"/>
</linearGradient>
<linearGradient id="paint1_linear_121_1155" x1="117.178" y1="188.033" x2="29.3096" y2="10.7341" gradientUnits="userSpaceOnUse">
<stop offset="0.030303" stop-color="#7C1DC9"/>
<stop offset="0.2138" stop-color="#6E41D2"/>
<stop offset="0.6184" stop-color="#4C9BE8"/>
<stop offset="1" stop-color="#2AF6FF"/>
</linearGradient>
<linearGradient id="paint2_linear_121_1155" x1="50.0171" y1="39.1989" x2="33.7281" y2="48.6545" gradientUnits="userSpaceOnUse">
<stop stop-color="#25054D"/>
<stop offset="0.5" stop-color="#45108A"/>
<stop offset="1" stop-color="#25054D"/>
</linearGradient>
<linearGradient id="paint3_linear_121_1155" x1="124.936" y1="74.675" x2="-12.3969" y2="154.395" gradientUnits="userSpaceOnUse">
<stop stop-color="#25054D"/>
<stop offset="0.5" stop-color="#45108A"/>
<stop offset="1" stop-color="#25054D"/>
</linearGradient>
<linearGradient id="paint4_linear_121_1155" x1="62.0692" y1="5.88086" x2="155.363" y2="160.127" gradientUnits="userSpaceOnUse">
<stop stop-color="#BF9DD4"/>
<stop offset="0.0104137" stop-color="#C3A3D6"/>
<stop offset="0.0236534" stop-color="#CDB2DD"/>
<stop offset="0.030303" stop-color="#D4BDE2"/>
<stop offset="0.0537703" stop-color="#D3BBE1"/>
<stop offset="0.0622217" stop-color="#CEB4DE"/>
<stop offset="0.0682265" stop-color="#C6A9D9"/>
<stop offset="0.0707071" stop-color="#C1A1D5"/>
<stop offset="0.0891286" stop-color="#C8ABDA"/>
<stop offset="0.1206" stop-color="#DAC6E6"/>
<stop offset="0.1611" stop-color="#F7F2F9"/>
<stop offset="0.1717" stop-color="white"/>
<stop offset="0.1997" stop-color="#F9F5FB"/>
<stop offset="0.2467" stop-color="#E9DBF2"/>
<stop offset="0.303" stop-color="#D1B4E3"/>
<stop offset="0.3898" stop-color="#B395D6"/>
<stop offset="0.4775" stop-color="#9C7DCB"/>
<stop offset="0.5586" stop-color="#8E6EC5"/>
<stop offset="0.6263" stop-color="#8969C3"/>
<stop offset="0.6493" stop-color="#8B6BC4"/>
<stop offset="0.6575" stop-color="#9172C7"/>
<stop offset="0.6634" stop-color="#9B7DCC"/>
<stop offset="0.6667" stop-color="#A588D1"/>
<stop offset="0.7778" stop-color="#E3CEF0"/>
<stop offset="0.8035" stop-color="#D7BDE8"/>
<stop offset="0.8588" stop-color="#C29FD9"/>
<stop offset="0.906" stop-color="#B58DCF"/>
<stop offset="0.9394" stop-color="#B086CC"/>
<stop offset="0.9633" stop-color="#B289CD"/>
<stop offset="0.979" stop-color="#B891D2"/>
<stop offset="0.9848" stop-color="#BC97D5"/>
</linearGradient>
<radialGradient id="paint5_radial_121_1155" cx="0" cy="0" r="1" gradientUnits="userSpaceOnUse" gradientTransform="translate(22.1424 41.9273) scale(10.4391 10.4668)">
<stop stop-color="white"/>
<stop offset="1"/>
</radialGradient>
<radialGradient id="paint6_radial_121_1155" cx="0" cy="0" r="1" gradientUnits="userSpaceOnUse" gradientTransform="translate(91.3055 70.3039) scale(63.7672 63.9366)">
<stop stop-color="white"/>
<stop offset="1"/>
</radialGradient>
<linearGradient id="paint7_linear_121_1155" x1="97.1878" y1="127.481" x2="13.0132" y2="-29.0251" gradientUnits="userSpaceOnUse">
<stop offset="0.0959596" stop-color="#45108A"/>
<stop offset="1" stop-color="#7C1DC9"/>
</linearGradient>
</defs>
</svg>
