<svg width="509" height="56" viewBox="0 0 509 56" fill="none" xmlns="http://www.w3.org/2000/svg">
<mask id="path-1-outside-1_340_307" maskUnits="userSpaceOnUse" x="-0.995117" y="0" width="509" height="56" fill="black">
<rect fill="white" x="-0.995117" width="509" height="56"/>
<path fill-rule="evenodd" clip-rule="evenodd" d="M14.0551 48.5161L20.3808 53.0309C21.2285 53.6359 22.244 53.9611 23.2855 53.9611H44.4617H87.3822H169.256C169.256 53.9611 169.256 53.9612 169.256 53.9613V53.9613C169.256 53.9614 169.256 53.9615 169.256 53.9615H197.049C198.961 53.9615 200.512 52.4112 200.512 50.4989V50.4989C200.512 48.5866 202.062 47.0363 203.974 47.0363H226.741C228.653 47.0363 230.203 48.5866 230.203 50.4989V50.4989C230.203 52.4112 231.753 53.9615 233.666 53.9615H495.339C497.737 53.9615 499.797 52.2599 500.25 49.9056L504.465 27.9809L505.934 19.3496C506.258 17.4473 505.458 15.5285 503.879 14.4194L493.95 7.44539L487.624 2.93061C486.776 2.32558 485.761 2.00037 484.719 2.00037H463.543H420.623H173.223C173.223 2.00037 173.223 2.00028 173.223 2.00018V2.00018C173.223 2.00008 173.223 2 173.223 2H12.6655C10.2681 2 8.20811 3.7016 7.75541 6.05584L3.53949 27.9806L2.07102 36.6119C1.74738 38.5142 2.54726 40.4329 4.12628 41.5421L14.0551 48.5161Z"/>
</mask>
<path d="M14.0551 48.5161L15.2047 46.8795L15.2108 46.8838L15.2169 46.8882L14.0551 48.5161ZM504.465 27.9809L506.437 28.3164L506.433 28.3375L506.429 28.3586L504.465 27.9809ZM493.95 7.44539L492.8 9.08201L492.794 9.07768L492.788 9.0733L493.95 7.44539ZM3.53949 27.9806L1.56781 27.6451L1.57141 27.624L1.57547 27.6029L3.53949 27.9806ZM2.07101 36.6119L4.04269 36.9474L2.07101 36.6119ZM4.12628 41.5421L2.97672 43.1787L4.12628 41.5421ZM7.7554 6.05584L5.79138 5.67818L7.7554 6.05584ZM487.624 2.93061L488.786 1.3027L487.624 2.93061ZM20.3808 53.0309L21.5427 51.403L20.3808 53.0309ZM19.2189 54.6588L12.8932 50.144L15.2169 46.8882L21.5427 51.403L19.2189 54.6588ZM44.4617 55.9611H23.2855V51.9611H44.4617V55.9611ZM87.3822 55.9611H44.4617V51.9611H87.3822V55.9611ZM169.256 55.9611H87.3822V51.9611H169.256V55.9611ZM197.049 55.9615H169.256V51.9615H197.049V55.9615ZM226.741 49.0363H203.974V45.0363H226.741V49.0363ZM495.339 55.9615H233.666V51.9615H495.339V55.9615ZM506.429 28.3586L502.214 50.2833L498.285 49.528L502.501 27.6033L506.429 28.3586ZM507.906 19.685L506.437 28.3164L502.494 27.6455L503.962 19.0141L507.906 19.685ZM495.099 5.80878L505.028 12.7828L502.729 16.056L492.8 9.08201L495.099 5.80878ZM488.786 1.3027L495.112 5.81749L492.788 9.0733L486.462 4.55851L488.786 1.3027ZM463.543 0.000366211H484.719V4.00037H463.543V0.000366211ZM420.623 0.000366211H463.543V4.00037H420.623V0.000366211ZM173.223 0.000366211H420.623V4.00037H173.223V0.000366211ZM12.6655 0H173.223V4H12.6655V0ZM1.57547 27.6029L5.79138 5.67818L9.71942 6.4335L5.50351 28.3582L1.57547 27.6029ZM0.0993652 36.2765L1.56781 27.6451L5.51117 28.316L4.04269 36.9474L0.0993652 36.2765ZM12.9055 50.1527L2.97672 43.1787L5.27585 39.9054L15.2047 46.8795L12.9055 50.1527ZM4.04269 36.9474C3.84851 38.0887 4.32843 39.24 5.27585 39.9054L2.97672 43.1787C0.766083 41.6259 -0.35376 38.9397 0.0993652 36.2765L4.04269 36.9474ZM12.6655 4C11.227 4 9.99106 5.02096 9.71942 6.4335L5.79138 5.67818C6.42517 2.38224 9.30914 0 12.6655 0V4ZM171.223 2.00018C171.223 3.15213 172.167 4 173.223 4V0C174.28 0 175.223 0.848037 175.223 2.00018H171.223ZM486.462 4.55851C485.954 4.1955 485.344 4.00037 484.719 4.00037V0.000366211C486.178 0.000366211 487.599 0.455668 488.786 1.3027L486.462 4.55851ZM503.962 19.0141C504.156 17.8728 503.676 16.7215 502.729 16.056L505.028 12.7828C507.239 14.3356 508.359 17.0218 507.906 19.685L503.962 19.0141ZM495.339 51.9615C496.778 51.9615 498.014 50.9405 498.285 49.528L502.214 50.2833C501.58 53.5792 498.696 55.9615 495.339 55.9615V51.9615ZM232.203 50.4989C232.203 51.3067 232.858 51.9615 233.666 51.9615V55.9615C230.649 55.9615 228.203 53.5158 228.203 50.4989H232.203ZM226.741 45.0363C229.757 45.0363 232.203 47.482 232.203 50.4989H228.203C228.203 49.6911 227.548 49.0363 226.741 49.0363V45.0363ZM198.512 50.4989C198.512 47.482 200.957 45.0363 203.974 45.0363V49.0363C203.166 49.0363 202.512 49.6911 202.512 50.4989H198.512ZM173.223 4.00037C172.119 4.00037 171.223 3.10485 171.223 2.00018H175.223C175.223 0.895715 174.328 0.000366211 173.223 0.000366211V4.00037ZM197.049 51.9615C197.857 51.9615 198.512 51.3067 198.512 50.4989H202.512C202.512 53.5158 200.066 55.9615 197.049 55.9615V51.9615ZM169.256 51.9611C170.36 51.9611 171.256 52.8566 171.256 53.9613H167.256C167.256 55.0658 168.151 55.9611 169.256 55.9611V51.9611ZM171.256 53.9613C171.256 52.8644 170.368 51.9615 169.256 51.9615V55.9615C168.144 55.9615 167.256 55.0584 167.256 53.9613H171.256ZM21.5427 51.403C22.0513 51.766 22.6606 51.9611 23.2855 51.9611V55.9611C21.8274 55.9611 20.4057 55.5058 19.2189 54.6588L21.5427 51.403Z" fill="url(#paint0_linear_340_307)" mask="url(#path-1-outside-1_340_307)"/>
<defs>
<linearGradient id="paint0_linear_340_307" x1="50.7917" y1="2.00021" x2="210.228" y2="119.662" gradientUnits="userSpaceOnUse">
<stop stop-color="#FF127F"/>
<stop offset="0.5" stop-color="#FF449A"/>
<stop offset="1" stop-color="#FF1580"/>
</linearGradient>
</defs>
</svg>
