<svg width="1281" height="395" viewBox="0 0 1281 395" fill="none" xmlns="http://www.w3.org/2000/svg">
<path d="M21 48.092L37.1243 38.7826C41.1641 36.4502 44.2906 35.5578 46.5038 36.1055C48.752 36.5922 49.8762 38.6204 49.8762 42.19C49.8762 46.9359 48.0143 51.114 44.2906 54.7242C46.3281 54.2374 48.0143 54.4808 49.3492 55.4543C50.6841 56.3873 51.3516 58.3141 51.3516 61.2346C51.3516 63.5468 50.9125 65.7879 50.0343 67.9581C49.156 70.0877 47.9616 71.9942 46.4511 73.6775C44.9757 75.3406 43.4475 76.8111 41.8667 78.0888C40.321 79.3463 38.6524 80.4922 36.8608 81.5266L21 90.6839L21 48.092ZM43.4475 64.8245C43.4475 61.1738 41.3574 60.5552 37.177 62.9687L28.8514 67.7755L28.8514 78.7277L36.7554 74.1643C38.828 72.9677 40.4616 71.6392 41.6559 70.1789C42.8503 68.7186 43.4475 66.9338 43.4475 64.8245ZM42.0248 48.305C42.0248 45.0599 40.163 44.5123 36.4393 46.6621L28.9041 51.0126L28.9041 60.7479L36.8608 56.154C38.4065 55.2616 39.6536 54.136 40.6021 52.7771C41.5506 51.3777 42.0248 49.887 42.0248 48.305Z" fill="#2785C2"/>
<path d="M69.2485 62.8276L56.0751 70.4332L56.0751 41.2274L63.3995 36.9986L63.3995 46.1255L69.2485 42.7485C72.4453 40.9029 74.9395 40.4161 76.731 41.2882C78.5578 42.0995 79.4711 43.9655 79.4711 46.886C79.4711 49.8066 78.5578 52.7475 76.731 55.7086C74.9395 58.6089 72.4453 60.9819 69.2485 62.8276ZM63.3468 52.2404L63.3468 60.1504L67.4569 57.7774C68.8972 56.9458 70.0038 55.9622 70.7766 54.8264C71.5495 53.6906 71.9359 52.494 71.9359 51.2365C71.9359 49.979 71.5495 49.2286 70.7766 48.9852C70.0038 48.7418 68.8972 49.0359 67.4569 49.8675L63.3468 52.2404ZM90.9057 50.3238L83.5812 54.5526L83.5812 25.3467L90.9057 21.118L90.9057 50.3238Z" fill="#2785C2"/>
<path d="M704.448 82.8592C701.345 80.0442 699.794 74.9842 699.794 67.6791C699.794 60.374 701.345 53.5459 704.448 47.1947C707.591 40.7736 712.286 35.7601 718.531 32.1541C724.777 28.5481 729.451 28.1526 732.554 30.9676C735.697 33.7128 737.269 38.738 737.269 46.0431C737.269 53.3481 735.697 60.2112 732.554 66.6322C729.451 72.9834 724.777 77.962 718.531 81.568C712.286 85.174 707.591 85.6044 704.448 82.8592ZM718.531 72.3553C724.979 68.6329 728.202 61.607 728.202 51.2776C728.202 40.9481 724.979 37.6445 718.531 41.3669C712.084 45.0892 708.86 52.1151 708.86 62.4446C708.86 72.774 712.084 76.0776 718.531 72.3553Z" fill="#852DEE"/>
<path d="M743.679 22.6603C747.749 16.9605 752.463 12.5635 757.823 9.46927C762.215 6.93343 765.801 6.04938 768.581 6.81711C771.402 7.56158 772.812 10.237 772.812 14.8434C772.812 18.4261 771.805 22.0787 769.79 25.801C767.816 29.4535 765.116 33.4318 761.691 37.7357C757.661 42.8074 755.183 46.0993 754.256 47.6115C753.168 49.4494 752.604 50.9151 752.564 52.0085L773.115 40.0738L773.115 49.0772L742.289 66.8746L742.289 62.1984C742.289 59.6393 742.611 57.15 743.256 54.7305C743.941 52.2877 745.029 49.8216 746.52 47.3323C748.051 44.8198 749.32 42.8772 750.328 41.5046C751.335 40.0854 752.866 38.0847 754.921 35.5023C755.042 35.3395 755.143 35.2115 755.224 35.1184C755.304 35.0254 755.405 34.8974 755.526 34.7346C755.647 34.5717 755.747 34.4438 755.828 34.3507C756.07 34.025 756.573 33.4085 757.339 32.5012C758.145 31.5241 758.669 30.8727 758.911 30.547C759.152 30.2213 759.575 29.6745 760.18 28.9068C760.784 28.0925 761.207 27.4993 761.449 27.1271C761.691 26.7083 761.993 26.1616 762.356 25.4869C762.759 24.789 763.041 24.2074 763.202 23.7421C763.363 23.2768 763.504 22.7533 763.625 22.1717C763.746 21.5901 763.806 21.0201 763.806 20.4618C763.806 18.7402 763.202 17.7863 761.993 17.6002C760.784 17.3676 759.112 17.8678 756.976 19.1008C752.383 21.753 747.95 26.1965 743.679 32.4314L743.679 22.6603Z" fill="#852DEE"/>
<path d="M126 143L475.619 313L805.703 143L1152 313" stroke="#F5F5F5" stroke-width="12" stroke-miterlimit="10"/>
<g filter="url(#filter0_d_960_9)">
<path d="M569.137 311.911L500.762 350.257C486.186 358.437 462.505 358.437 447.851 350.257L379.041 311.911C371.654 307.792 367.98 302.377 368 297V304.627C368 310.004 371.674 315.401 379.06 319.519L447.87 357.865C462.525 366.045 486.206 366.045 500.781 357.865L569.137 319.519C576.366 315.458 580 310.138 580 304.818V297.191C580 302.53 576.366 307.85 569.137 311.911Z" fill="#FF127F"/>
</g>
<path d="M568.95 280.776C583.624 289.174 583.683 302.811 569.128 311.229L500.756 350.687C486.182 359.104 462.502 359.104 447.848 350.687L379.042 311.229C364.389 302.811 364.31 289.174 378.865 280.776L447.216 241.298C461.791 232.901 485.471 232.901 500.124 241.298L568.95 280.776Z" fill="#F6F5FF"/>
<g filter="url(#filter1_d_960_9)">
<path d="M1245.12 311.911L1176.76 350.257C1162.21 358.437 1138.51 358.437 1123.85 350.257L1055.04 311.911C1047.67 307.792 1043.98 302.377 1044 297V304.627C1044 310.004 1047.67 315.401 1055.04 319.519L1123.85 357.865C1138.51 366.045 1162.21 366.045 1176.76 357.865L1245.12 319.519C1252.37 315.458 1255.98 310.138 1256 304.818V297.191C1255.98 302.53 1252.37 307.85 1245.12 311.911Z" fill="#9E00FF"/>
</g>
<path d="M1244.96 280.776C1259.61 289.174 1259.69 302.811 1245.12 311.229L1176.76 350.687C1162.21 359.104 1138.51 359.104 1123.85 350.687L1055.04 311.229C1040.39 302.811 1040.31 289.174 1054.87 280.776L1123.24 241.298C1137.8 232.901 1161.48 232.901 1176.15 241.298L1244.96 280.776Z" fill="#FFF5F9"/>
<g filter="url(#filter2_d_960_9)">
<path d="M900.188 143.558L832.135 183.618C817.648 192.163 794.079 192.163 779.493 183.618L711.008 143.558C703.656 139.255 700 133.598 700 128V135.968C700 141.586 703.656 147.223 710.988 151.526L779.474 191.606C794.079 200.131 817.648 200.131 832.135 191.606L900.188 151.526C907.382 147.283 910.98 141.745 910.999 136.187V128.219C911.058 133.757 907.382 139.315 900.188 143.558Z" fill="#852DEE"/>
</g>
<path d="M900.009 113.148C914.595 121.635 914.673 135.365 900.186 143.852L832.133 183.635C817.646 192.122 794.077 192.122 779.491 183.635L711.006 143.852C696.4 135.365 696.322 121.635 710.829 113.148L778.862 73.3651C793.369 64.8783 816.938 64.8783 831.524 73.3651L900.009 113.148Z" fill="#F5F0FA"/>
<g filter="url(#filter3_d_960_9)">
<path d="M224.239 143.558L156.522 183.618C142.102 192.163 118.623 192.163 104.105 183.618L35.9374 143.558C28.6393 139.255 24.9805 133.598 25.0001 128V135.968C25.0001 141.586 28.6393 147.223 35.9374 151.526L104.085 191.606C118.603 200.131 142.082 200.131 156.502 191.606L224.219 151.526C231.4 147.283 234.98 141.745 235 136.187V128.219C235 133.757 231.419 139.315 224.239 143.558Z" fill="#2785C2"/>
</g>
<path d="M224.064 113.148C238.58 121.635 238.658 135.365 224.22 143.852L156.51 183.635C142.092 192.122 118.615 192.122 104.099 183.635L35.9388 143.852C21.4225 135.365 21.3442 121.635 35.7627 113.148L103.492 73.3651C117.911 64.8783 141.368 64.8783 155.904 73.3651L224.064 113.148Z" fill="#F5FBFF"/>
<path d="M1045.87 256.278C1042.77 253.463 1041.22 248.403 1041.22 241.098C1041.22 233.793 1042.77 226.965 1045.87 220.614C1049.01 214.193 1053.71 209.179 1059.95 205.573C1066.2 201.967 1070.87 201.572 1073.98 204.387C1077.12 207.132 1078.69 212.157 1078.69 219.462C1078.69 226.767 1077.12 233.63 1073.98 240.051C1070.87 246.402 1066.2 251.381 1059.95 254.987C1053.71 258.593 1049.01 259.023 1045.87 256.278ZM1059.95 245.774C1066.4 242.052 1069.63 235.026 1069.63 224.697C1069.63 214.367 1066.4 211.064 1059.95 214.786C1053.51 218.508 1050.28 225.534 1050.28 235.864C1050.28 246.193 1053.51 249.497 1059.95 245.774Z" fill="#9E00FF"/>
<path d="M1113.15 187.983C1113.15 190.403 1112.58 192.845 1111.45 195.312C1110.37 197.708 1108.86 199.86 1106.92 201.767C1109.22 201.232 1111.11 201.558 1112.6 202.745C1114.09 203.885 1114.84 206.083 1114.84 209.34C1114.84 211.76 1114.38 214.167 1113.45 216.564C1112.56 218.89 1111.33 221.042 1109.76 223.02C1108.19 224.997 1106.44 226.8 1104.5 228.429C1102.61 230.08 1100.58 231.534 1098.4 232.791C1093.36 235.699 1088.61 237.374 1084.13 237.816L1084.13 228.115C1088.08 228.394 1092.6 227.021 1097.67 223.997C1100.21 222.531 1102.27 220.833 1103.84 218.902C1105.41 216.971 1106.2 214.958 1106.2 212.865C1106.2 209.189 1103.82 208.724 1099.06 211.469L1092.29 215.377L1092.35 206.409L1098.04 203.198C1100.09 202.012 1101.68 200.674 1102.81 199.185C1103.98 197.626 1104.56 196.033 1104.56 194.404C1104.56 192.683 1103.92 191.729 1102.63 191.543C1101.34 191.31 1099.47 191.903 1097.01 193.322C1092.94 195.672 1088.89 199.429 1084.86 204.594L1084.86 194.893C1088.81 190.147 1093.28 186.331 1098.28 183.447C1102.71 180.887 1106.3 179.957 1109.04 180.655C1111.78 181.353 1113.15 183.796 1113.15 187.983Z" fill="#9E00FF"/>
<path d="M361 256.283C357.897 253.468 356.346 248.408 356.346 241.103C356.346 233.798 357.897 226.969 361 220.618C364.143 214.197 368.837 209.184 375.083 205.578C381.329 201.972 386.003 201.576 389.106 204.391C392.249 207.136 393.82 212.162 393.82 219.467C393.82 226.772 392.249 233.635 389.106 240.056C386.003 246.407 381.329 251.386 375.083 254.992C368.837 258.598 364.143 259.028 361 256.283ZM375.083 245.779C381.53 242.057 384.754 235.031 384.754 224.701C384.754 214.372 381.53 211.068 375.083 214.79C368.636 218.513 365.412 225.539 365.412 235.868C365.412 246.198 368.636 249.501 375.083 245.779Z" fill="#FF127F"/>
<path d="M409.478 186.697L416.067 182.893L416.067 221.349L422.957 217.371L422.957 226.374L399.505 239.914L399.505 230.911L407.242 226.444L407.242 198.457L399.505 206.274L399.505 196.852L409.478 186.697Z" fill="#FF127F"/>
<path fill-rule="evenodd" clip-rule="evenodd" d="M166.063 107.459C185.867 118.893 185.867 137.432 166.063 148.866C146.258 160.3 114.149 160.3 94.3448 148.866C74.5404 137.432 74.5405 118.893 94.3448 107.459C114.149 96.0254 146.258 96.0254 166.063 107.459ZM164.939 148.217C184.122 137.141 184.122 119.184 164.939 108.108C145.755 97.0328 114.652 97.0328 95.4689 108.108C76.2854 119.184 76.2854 137.141 95.4689 148.217C114.652 159.292 145.755 159.292 164.939 148.217ZM167.222 110.944C182.299 121.721 181.163 137.552 163.815 147.567C146.468 157.583 119.047 158.239 100.381 149.534L107.196 145.599C122.114 152.097 143.423 151.423 157.014 143.576C170.604 135.729 171.773 123.427 160.518 114.814L167.222 110.944ZM164.602 148.022C183.6 137.054 183.6 119.271 164.602 108.303C145.605 97.3347 114.804 97.3347 95.807 108.303C76.8098 119.271 76.8098 137.054 95.807 148.022C114.804 158.99 145.605 158.99 164.602 148.022ZM116.903 113.646C115.864 114.245 115.864 115.217 116.903 115.817C117.941 116.416 119.625 116.416 120.663 115.817C121.204 115.504 121.464 115.091 121.441 114.681C130.487 112.551 141.255 113.606 148.596 117.844C158.179 123.376 158.365 132.279 149.154 137.943L146.887 136.634C154.862 131.69 154.758 123.98 146.53 119.163C146.979 118.596 146.799 117.905 145.991 117.439C144.953 116.839 143.269 116.839 142.231 117.439C141.192 118.038 141.192 119.01 142.231 119.61C143.105 120.114 144.435 120.194 145.454 119.85C152.994 124.304 153.091 131.405 145.754 135.98L142.42 134.055C143.334 133.756 144.194 133.382 144.973 132.932C149.626 130.246 149.61 125.881 144.937 123.183C142.386 121.71 138.974 121.039 135.645 121.17L128.593 117.099L127.46 117.753L133.679 121.343C133.074 121.426 132.479 121.537 131.9 121.676L124.334 117.308L123.201 117.962L130.39 122.112C129.555 122.398 128.769 122.748 128.051 123.163C125.232 124.79 124.127 127.034 124.732 129.149L126.315 128.235C126.217 126.662 127.206 125.072 129.282 123.873C130.934 122.919 133.016 122.363 135.171 122.204L135.208 122.226L135.256 122.198C138.261 121.992 141.4 122.556 143.711 123.891C147.704 126.196 147.718 129.926 143.742 132.222C141.666 133.421 138.912 133.991 136.186 133.935L134.603 134.848C136.705 135.049 138.879 134.925 140.883 134.475L148.596 138.929L149.163 139.256L149.729 138.929C160.127 132.926 160.127 123.193 149.729 117.19C141.938 112.692 130.518 111.564 120.908 113.808C120.834 113.751 120.753 113.697 120.663 113.646C119.625 113.046 117.941 113.046 116.903 113.646ZM111.183 118.292C101.972 123.955 102.158 132.858 111.74 138.391C119.082 142.629 129.851 143.684 138.897 141.553C138.874 141.144 139.133 140.73 139.674 140.418C140.713 139.818 142.397 139.818 143.435 140.418C144.474 141.017 144.474 141.99 143.435 142.589C142.397 143.189 140.713 143.189 139.674 142.589C139.585 142.538 139.504 142.483 139.43 142.427C129.819 144.671 118.399 143.543 110.608 139.045C100.21 133.042 100.21 123.309 110.608 117.306L111.174 116.979L111.74 117.306L119.454 121.76C121.458 121.31 123.633 121.186 125.734 121.386L124.151 122.3C121.425 122.244 118.672 122.814 116.595 124.013C112.619 126.309 112.633 130.038 116.626 132.344C118.938 133.679 122.077 134.243 125.082 134.037L125.13 134.009L125.167 134.03C127.322 133.872 129.403 133.315 131.056 132.362C133.132 131.163 134.12 129.573 134.022 127.999L135.605 127.086C136.21 129.201 135.105 131.445 132.286 133.072C131.569 133.486 130.783 133.836 129.948 134.122L137.137 138.273L136.004 138.927L128.439 134.559C127.859 134.697 127.263 134.808 126.659 134.892L132.878 138.482L131.745 139.136L124.693 135.065C121.364 135.196 117.952 134.524 115.4 133.051C110.728 130.354 110.712 125.989 115.365 123.302C116.143 122.853 117.003 122.479 117.917 122.18L114.583 120.256C107.247 124.83 107.344 131.931 114.884 136.385C115.903 136.04 117.233 136.12 118.107 136.625C119.145 137.224 119.145 138.197 118.107 138.796C117.068 139.396 115.385 139.396 114.346 138.796C113.539 138.33 113.359 137.638 113.807 137.072C105.58 132.255 105.476 124.546 113.45 119.601L111.183 118.292ZM156.227 112.943C170.661 121.277 170.661 134.788 156.227 143.122C141.793 151.455 118.39 151.455 103.956 143.122C89.5216 134.788 89.5216 121.277 103.956 112.943C118.39 104.61 141.793 104.61 156.227 112.943ZM106.647 148.274C106.261 148.446 105.927 148.681 105.635 148.975C105.359 149.253 105.206 149.534 105.177 149.795C105.141 150.068 105.206 150.316 105.374 150.538C105.541 150.761 105.774 150.963 106.072 151.143C106.37 151.324 106.727 151.479 107.134 151.614C107.731 151.807 108.335 151.92 108.954 151.95L109.892 150.979C109.441 151.038 108.91 150.967 108.277 150.761C107.869 150.627 107.586 150.454 107.426 150.244C107.265 150.034 107.295 149.807 107.527 149.572C107.789 149.303 108.117 149.148 108.532 149.11C108.939 149.076 109.361 149.127 109.783 149.261C110.293 149.421 110.656 149.639 110.882 149.904L111.799 148.954C111.428 148.665 110.94 148.425 110.343 148.232C109.943 148.11 109.536 148.018 109.121 147.971C108.706 147.925 108.284 147.925 107.862 147.959C107.447 147.997 107.033 148.102 106.647 148.274ZM113.887 153.252L111.886 152.87L113.902 149.37L116.71 149.908C117.06 149.975 117.358 150.055 117.627 150.152C117.896 150.248 118.129 150.366 118.326 150.505C118.522 150.643 118.653 150.811 118.697 151.005C118.74 151.198 118.704 151.412 118.573 151.639C118.282 152.135 117.736 152.416 116.936 152.483L117.795 154.004L115.59 153.58L114.942 152.307L114.476 152.215L113.887 153.252ZM115.357 150.69L114.971 151.349L115.743 151.5C115.932 151.534 116.099 151.538 116.245 151.496C116.39 151.454 116.492 151.387 116.55 151.286C116.608 151.185 116.601 151.097 116.528 151.013C116.448 150.933 116.317 150.874 116.135 150.837L115.357 150.69ZM122.073 154.441L124.139 154.601L124.423 153.361L127.399 151.139L125.042 150.954L123.637 152.252L122.873 150.786L120.516 150.601L122.357 153.193L122.073 154.441ZM129.197 151.118L131.984 151.013C133.883 150.942 134.894 151.357 134.996 152.265C135.098 153.172 134.196 153.66 132.297 153.731L131.613 153.756L131.722 154.718L129.619 154.798L129.197 151.118ZM132.908 152.345C132.879 152.101 132.602 151.992 132.071 152.013L131.402 152.038L131.482 152.756L132.151 152.731C132.682 152.71 132.93 152.584 132.908 152.345ZM141.814 149.958L136.459 150.74L136.917 151.778L138.576 151.534L139.689 154.076L141.72 153.777L140.606 151.236L142.265 150.992L141.814 149.958ZM146.457 152.404C145.649 152.223 145.038 151.878 144.623 151.37C144.216 150.866 144.15 150.374 144.427 149.896C144.703 149.417 145.344 149.047 146.341 148.774C147.338 148.501 148.24 148.459 149.055 148.644C149.863 148.824 150.474 149.169 150.889 149.677C151.296 150.181 151.362 150.673 151.085 151.152C150.809 151.631 150.168 152 149.171 152.273C148.167 152.542 147.265 152.584 146.457 152.404ZM149.062 150.841C149.157 150.652 149.113 150.442 148.924 150.206C148.735 149.971 148.487 149.82 148.167 149.744C147.854 149.664 147.512 149.677 147.141 149.774C146.777 149.875 146.544 150.017 146.443 150.211C146.348 150.4 146.392 150.61 146.581 150.845C146.77 151.08 147.017 151.232 147.338 151.307C147.65 151.387 147.992 151.374 148.364 151.278C148.727 151.177 148.968 151.03 149.062 150.841ZM155.072 146.984C155.232 147.253 155.494 147.513 155.879 147.77C156.243 148.013 156.643 148.194 157.08 148.303C157.509 148.417 157.938 148.463 158.361 148.446C158.783 148.429 159.19 148.37 159.583 148.27C159.976 148.169 160.354 148.026 160.704 147.85C161.213 147.589 161.606 147.295 161.861 146.971L160.594 146.131C160.544 146.396 160.238 146.665 159.692 146.938C159.343 147.114 158.964 147.207 158.564 147.228C158.164 147.249 157.808 147.152 157.502 146.95C157.145 146.719 157.014 146.484 157.087 146.249C157.167 146.009 157.385 145.799 157.749 145.614C158.186 145.388 158.659 145.266 159.168 145.232L157.931 144.417C157.327 144.522 156.782 144.703 156.258 144.963C155.916 145.136 155.639 145.329 155.421 145.539C155.202 145.749 155.05 145.98 154.97 146.219C154.89 146.459 154.926 146.715 155.072 146.984ZM165.34 144.93L164.03 145.904L160.436 142.56L161.818 141.527L168.323 142.695L167.014 143.669L166.177 143.497L164.823 144.505L165.34 144.93ZM163.128 143.056L163.936 143.741L164.7 143.174L163.346 142.896C163.077 142.842 162.83 142.775 162.582 142.691C162.757 142.791 162.939 142.913 163.128 143.056ZM169.91 141.165L170.841 140.073L169.153 139.586L169.371 139.334L171.649 139.136L172.675 137.939L169.953 138.216C169.939 137.746 169.531 137.393 168.724 137.162C168.345 137.053 167.981 137.002 167.647 137.002C167.305 137.006 167.006 137.053 166.737 137.149C166.468 137.246 166.235 137.363 166.039 137.502C165.835 137.645 165.66 137.805 165.493 137.994L164.176 139.527L169.91 141.165ZM167.727 139.191L166.65 138.88L167.006 138.464C167.094 138.355 167.217 138.292 167.363 138.258C167.516 138.229 167.668 138.233 167.836 138.279C168.003 138.326 168.105 138.393 168.156 138.481C168.2 138.573 168.178 138.67 168.091 138.771L167.727 139.191ZM173.068 135.872C172.311 136.116 171.46 136.17 170.528 136.028C169.589 135.889 168.891 135.603 168.44 135.175C167.981 134.751 167.887 134.225 168.171 133.608C168.447 132.994 168.964 132.562 169.728 132.322C170.484 132.079 171.336 132.024 172.267 132.167C173.206 132.305 173.904 132.591 174.356 133.02C174.814 133.444 174.909 133.969 174.625 134.587C174.348 135.2 173.832 135.624 173.068 135.872ZM172.653 133.717C172.464 133.549 172.151 133.436 171.722 133.373C171.292 133.31 170.921 133.322 170.623 133.41C170.317 133.503 170.113 133.662 170.012 133.889C169.91 134.116 169.953 134.309 170.142 134.477C170.332 134.645 170.645 134.759 171.074 134.822C171.503 134.885 171.874 134.872 172.173 134.784C172.478 134.692 172.682 134.532 172.784 134.305C172.886 134.078 172.842 133.885 172.653 133.717ZM169.698 127.155L169.596 128.365L173.38 128.474C173.94 128.487 174.209 128.659 174.18 128.995C174.151 129.331 173.86 129.482 173.3 129.47L169.494 129.365L169.4 130.579L173.3 130.688C173.773 130.701 174.195 130.667 174.551 130.579C174.901 130.495 175.192 130.369 175.403 130.213C175.614 130.049 175.781 129.877 175.883 129.684C175.992 129.486 176.05 129.276 176.072 129.045C176.094 128.814 176.072 128.6 175.992 128.402C175.919 128.209 175.788 128.024 175.607 127.852C175.425 127.68 175.163 127.545 174.821 127.44C174.479 127.335 174.071 127.277 173.598 127.264L169.698 127.155ZM171.372 125.802C170.732 125.852 170.215 125.764 169.808 125.52C169.407 125.281 169.153 124.949 169.044 124.533C168.92 124.016 168.978 123.554 169.24 123.151L171.045 123C170.724 123.412 170.623 123.832 170.739 124.26C170.79 124.474 170.906 124.575 171.096 124.558C171.183 124.55 171.248 124.512 171.299 124.441C171.35 124.369 171.394 124.277 171.416 124.172C171.426 124.134 171.436 124.094 171.447 124.053L171.447 124.053L171.473 123.954C171.485 123.909 171.497 123.863 171.51 123.815C171.539 123.68 171.59 123.55 171.663 123.416C171.736 123.281 171.823 123.155 171.932 123.042C172.042 122.928 172.216 122.828 172.434 122.744C172.653 122.66 172.907 122.605 173.206 122.575C174.567 122.462 175.382 122.916 175.636 123.937C175.774 124.495 175.702 124.991 175.403 125.432L173.519 125.588C173.904 125.113 174.043 124.647 173.933 124.197C173.897 124.042 173.846 123.937 173.781 123.882C173.715 123.827 173.628 123.802 173.526 123.811C173.424 123.819 173.351 123.869 173.293 123.962C173.235 124.054 173.191 124.172 173.162 124.306C173.14 124.445 173.089 124.592 173.024 124.756C172.951 124.916 172.871 125.071 172.755 125.214C172.653 125.357 172.478 125.483 172.231 125.592C172.012 125.701 171.721 125.777 171.372 125.802ZM166.796 119.118L168.302 121.769L174.378 120.614L172.85 117.933L171.249 118.236L172.115 119.761L171.394 119.899L170.645 118.584L169.168 118.866L169.917 120.181L169.219 120.315L168.375 118.82L166.796 119.118ZM165.892 117.925L164.903 116.849L168.919 115.614L167.639 114.228L169.261 113.728L171.532 116.19L165.892 117.925ZM153.306 107.717C153.691 107.545 154.026 107.31 154.317 107.016C154.594 106.738 154.746 106.457 154.775 106.197C154.812 105.923 154.746 105.676 154.579 105.453C154.412 105.23 154.179 105.029 153.88 104.848C153.582 104.667 153.226 104.512 152.818 104.377C152.221 104.184 151.617 104.071 150.999 104.041L150.06 105.012C150.511 104.953 151.043 105.024 151.676 105.23C152.083 105.365 152.367 105.537 152.527 105.747C152.687 105.957 152.658 106.184 152.425 106.419C152.163 106.688 151.836 106.843 151.421 106.881C151.013 106.915 150.591 106.864 150.169 106.73C149.66 106.57 149.296 106.352 149.071 106.087L148.154 107.037C148.525 107.327 149.012 107.566 149.609 107.759C150.009 107.881 150.417 107.974 150.832 108.02C151.246 108.066 151.668 108.066 152.09 108.032C152.505 107.995 152.92 107.89 153.306 107.717ZM146.065 102.739L148.066 103.121L146.05 106.621L143.242 106.083C142.892 106.016 142.594 105.936 142.325 105.839C142.056 105.743 141.823 105.625 141.626 105.487C141.43 105.348 141.299 105.18 141.255 104.987C141.212 104.793 141.248 104.579 141.379 104.352C141.67 103.857 142.216 103.575 143.016 103.508L142.157 101.987L144.362 102.411L145.01 103.684L145.476 103.777L146.065 102.739ZM144.595 105.302L144.981 104.642L144.209 104.491C144.02 104.457 143.853 104.453 143.707 104.495C143.562 104.537 143.46 104.604 143.402 104.705C143.344 104.806 143.351 104.894 143.424 104.978C143.504 105.058 143.635 105.117 143.817 105.155L144.595 105.302ZM137.879 101.55L135.812 101.39L135.528 102.63L132.552 104.852L134.91 105.037L136.314 103.739L137.078 105.205L139.436 105.39L137.595 102.798L137.879 101.55ZM130.755 104.873L127.968 104.978C126.069 105.05 125.058 104.634 124.956 103.726C124.854 102.819 125.756 102.331 127.655 102.26L128.339 102.235L128.23 101.273L130.333 101.193L130.755 104.873ZM127.044 103.646C127.073 103.89 127.35 103.999 127.881 103.978L128.55 103.953L128.47 103.235L127.801 103.26C127.27 103.281 127.022 103.407 127.044 103.646ZM118.137 106.033L123.493 105.251L123.035 104.214L121.375 104.457L120.262 101.916L118.232 102.214L119.345 104.756L117.686 104.999L118.137 106.033ZM113.494 103.588C114.302 103.768 114.913 104.113 115.328 104.621C115.736 105.125 115.801 105.617 115.525 106.096C115.248 106.575 114.608 106.944 113.611 107.217C112.614 107.49 111.712 107.532 110.897 107.348C110.089 107.167 109.478 106.822 109.063 106.314C108.655 105.81 108.59 105.318 108.866 104.84C109.143 104.361 109.783 103.991 110.78 103.718C111.784 103.449 112.687 103.407 113.494 103.588ZM110.889 105.15C110.795 105.339 110.838 105.55 111.028 105.785C111.217 106.02 111.464 106.171 111.784 106.247C112.097 106.327 112.439 106.314 112.81 106.218C113.174 106.117 113.407 105.974 113.509 105.781C113.604 105.592 113.56 105.382 113.371 105.146C113.181 104.911 112.934 104.76 112.614 104.684C112.301 104.604 111.959 104.617 111.588 104.714C111.224 104.814 110.984 104.961 110.889 105.15ZM104.879 109.007C104.719 108.738 104.457 108.478 104.072 108.221C103.708 107.978 103.308 107.797 102.871 107.688C102.442 107.574 102.012 107.528 101.59 107.545C101.168 107.562 100.761 107.621 100.368 107.721C99.9751 107.822 99.5967 107.965 99.2474 108.142C98.738 108.402 98.3451 108.696 98.0904 109.02L99.3565 109.86C99.4075 109.595 99.7131 109.326 100.259 109.053C100.608 108.877 100.986 108.784 101.387 108.763C101.787 108.742 102.143 108.839 102.449 109.041C102.806 109.272 102.937 109.507 102.864 109.742C102.784 109.982 102.566 110.192 102.202 110.377C101.765 110.603 101.292 110.725 100.783 110.759L102.02 111.574C102.624 111.469 103.169 111.288 103.693 111.028C104.035 110.856 104.312 110.662 104.53 110.452C104.748 110.242 104.901 110.011 104.981 109.772C105.061 109.532 105.025 109.276 104.879 109.007ZM94.612 111.061L95.9218 110.087L99.5164 113.431L98.1339 114.464L91.6286 113.296L92.9384 112.322L93.7752 112.494L95.1287 111.486L94.612 111.061ZM96.8241 112.935L96.0164 112.25L95.2524 112.818L96.6058 113.095C96.875 113.149 97.1224 113.217 97.3698 113.301C97.1952 113.2 97.0133 113.078 96.8241 112.935ZM90.0424 114.826L89.111 115.918L90.7991 116.405L90.5808 116.657L88.3033 116.855L87.2773 118.052L89.9987 117.775C90.0133 118.245 90.4207 118.598 91.2284 118.829C91.6068 118.939 91.9707 118.989 92.3054 118.989C92.6474 118.985 92.9457 118.939 93.2149 118.842C93.4842 118.745 93.717 118.628 93.9135 118.489C94.1172 118.346 94.2919 118.187 94.4592 117.998L95.7763 116.464L90.0424 114.826ZM92.2253 116.8L93.3023 117.111L92.9457 117.527C92.8584 117.636 92.7347 117.699 92.5892 117.733C92.4364 117.762 92.2835 117.758 92.1162 117.712C91.9488 117.666 91.847 117.598 91.796 117.51C91.7524 117.418 91.7742 117.321 91.8615 117.22L92.2253 116.8ZM86.8843 120.119C87.6411 119.875 88.4925 119.821 89.4239 119.964C90.3625 120.102 91.0611 120.388 91.5123 120.816C91.9707 121.241 92.0653 121.766 91.7815 122.383C91.505 122.997 90.9883 123.43 90.2243 123.669C89.4675 123.913 88.6162 123.967 87.6848 123.824C86.7461 123.686 86.0475 123.4 85.5964 122.972C85.138 122.547 85.0434 122.022 85.3271 121.405C85.6037 120.791 86.1203 120.367 86.8843 120.119ZM87.2991 122.274C87.4883 122.442 87.8012 122.556 88.2305 122.619C88.6598 122.682 89.0309 122.669 89.3293 122.581C89.6349 122.488 89.8386 122.329 89.9405 122.102C90.0424 121.875 89.9987 121.682 89.8095 121.514C89.6203 121.346 89.3074 121.232 88.8781 121.169C88.4488 121.106 88.0777 121.119 87.7794 121.207C87.4737 121.3 87.27 121.459 87.1681 121.686C87.0663 121.913 87.1099 122.106 87.2991 122.274ZM90.2536 128.836L90.3554 127.626L86.5716 127.517C86.0113 127.505 85.7421 127.332 85.7712 126.996C85.8003 126.66 86.0913 126.509 86.6516 126.522L90.4573 126.627L90.5519 125.412L86.6516 125.303C86.1787 125.291 85.7566 125.324 85.4001 125.412C85.0508 125.497 84.7597 125.623 84.5487 125.778C84.3377 125.942 84.1703 126.114 84.0685 126.307C83.9593 126.505 83.9011 126.715 83.8793 126.946C83.8574 127.177 83.8793 127.391 83.9593 127.589C84.0321 127.782 84.163 127.967 84.345 128.139C84.5269 128.311 84.7888 128.446 85.1308 128.551C85.4728 128.656 85.8803 128.715 86.3533 128.727L90.2536 128.836ZM88.5799 130.189C89.2202 130.139 89.7369 130.227 90.1444 130.471C90.5446 130.71 90.7993 131.042 90.9084 131.458C91.0321 131.975 90.9739 132.437 90.7119 132.84L88.9073 132.991C89.2275 132.58 89.3294 132.16 89.213 131.731C89.162 131.517 89.0456 131.416 88.8564 131.433C88.7691 131.441 88.7036 131.479 88.6527 131.55C88.6017 131.622 88.5581 131.714 88.5362 131.819C88.5261 131.857 88.516 131.896 88.5055 131.937L88.5053 131.938L88.5052 131.938L88.5052 131.938C88.4857 132.013 88.4652 132.092 88.4416 132.176C88.4125 132.311 88.3616 132.441 88.2888 132.576C88.2161 132.71 88.1288 132.836 88.0196 132.949C87.9105 133.063 87.7358 133.164 87.5175 133.248C87.2992 133.332 87.0445 133.386 86.7462 133.416C85.3855 133.529 84.5705 133.075 84.3158 132.055C84.1776 131.496 84.2503 131 84.5487 130.559L86.4333 130.404C86.0476 130.878 85.9094 131.345 86.0185 131.794C86.0549 131.95 86.1059 132.055 86.1713 132.109C86.2368 132.164 86.3242 132.189 86.426 132.181C86.5279 132.172 86.6007 132.122 86.6589 132.029C86.7171 131.937 86.7607 131.819 86.7899 131.685C86.8117 131.546 86.8626 131.399 86.9281 131.235C87.0009 131.076 87.0809 130.92 87.1973 130.777C87.2992 130.635 87.4739 130.509 87.7213 130.399C87.9396 130.29 88.2306 130.214 88.5799 130.189ZM93.1569 136.873L91.6507 134.222L85.5747 135.378L87.1028 138.058L88.7037 137.755L87.8377 136.23L88.5581 136.092L89.3076 137.407L90.7848 137.125L90.0353 135.81L90.7338 135.676L91.5779 137.172L93.1569 136.873ZM94.0591 138.066L95.0487 139.142L91.0321 140.377L92.3127 141.763L90.6901 142.263L88.4198 139.801L94.0591 138.066ZM161.454 111.548C162.509 110.938 162.509 109.95 161.454 109.341C160.399 108.732 158.688 108.732 157.632 109.341C156.577 109.95 156.577 110.938 157.632 111.548C158.688 112.157 160.399 112.157 161.454 111.548ZM101.427 143.998C102.482 144.607 102.482 145.595 101.427 146.204C100.371 146.814 98.6602 146.814 97.6048 146.204C96.5494 145.595 96.5494 144.607 97.6048 143.998C98.6602 143.389 100.371 143.389 101.427 143.998Z" fill="#2785C2"/>
<path d="M454.343 297.827L462.847 292.918L465.386 294.384L459.52 297.748L461.961 299.361C462.459 298.922 462.971 298.551 463.496 298.248C464.94 297.414 466.462 296.937 468.063 296.816C469.677 296.687 471.212 297.043 472.669 297.884C474.139 298.733 474.71 299.691 474.381 300.759C474.04 301.82 473.069 302.812 471.468 303.737C469.841 304.676 468.102 305.332 466.252 305.703L463.516 304.123C465.34 303.888 467.02 303.328 468.555 302.441C469.474 301.911 470.044 301.392 470.267 300.884C470.504 300.369 470.307 299.93 469.677 299.566C468.365 298.808 466.619 299.058 464.441 300.316C463.26 300.998 462.328 301.756 461.646 302.589L454.343 297.827Z" fill="#FF127F"/>
<path d="M484.831 297.067L482.863 298.204L474.773 284.237L476.741 283.1L484.831 297.067ZM471.111 288.441C472.384 288.388 473.552 288.669 474.615 289.282C475.678 289.896 476.17 290.574 476.091 291.317C475.999 292.052 475.455 292.707 474.458 293.283C473.447 293.866 472.299 294.188 471.013 294.249C469.727 294.294 468.552 294.01 467.489 293.396C466.426 292.783 465.941 292.108 466.033 291.374C466.125 290.623 466.676 289.957 467.686 289.373C468.684 288.798 469.825 288.487 471.111 288.441ZM469.064 291.374C469.103 291.654 469.313 291.904 469.694 292.124C470.075 292.343 470.508 292.465 470.993 292.487C471.492 292.502 471.971 292.377 472.43 292.112C472.863 291.862 473.06 291.597 473.021 291.317C472.994 291.029 472.791 290.775 472.41 290.555C472.03 290.336 471.59 290.218 471.092 290.203C470.606 290.18 470.147 290.294 469.714 290.544C469.254 290.809 469.038 291.086 469.064 291.374ZM488.532 287.112C489.805 287.059 490.973 287.339 492.035 287.953C493.098 288.566 493.591 289.245 493.512 289.987C493.42 290.722 492.875 291.377 491.878 291.953C490.868 292.537 489.719 292.859 488.433 292.919C487.147 292.965 485.973 292.68 484.91 292.067C483.847 291.453 483.361 290.779 483.453 290.044C483.545 289.294 484.096 288.627 485.107 288.044C486.104 287.468 487.246 287.157 488.532 287.112ZM486.485 290.044C486.524 290.324 486.734 290.574 487.114 290.794C487.495 291.014 487.928 291.135 488.414 291.158C488.912 291.173 489.391 291.048 489.851 290.783C490.284 290.533 490.48 290.267 490.441 289.987C490.415 289.699 490.211 289.445 489.831 289.226C489.45 289.006 489.011 288.888 488.512 288.873C488.026 288.851 487.567 288.964 487.134 289.214C486.675 289.479 486.458 289.756 486.485 290.044Z" fill="#FF127F"/>
<g filter="url(#filter4_d_960_9)">
<path fill-rule="evenodd" clip-rule="evenodd" d="M509.301 273.999C528.507 285.088 528.507 303.066 509.301 314.154C490.096 325.243 458.957 325.243 439.751 314.154C420.545 303.066 420.545 285.088 439.751 273.999C458.957 262.911 490.096 262.911 509.301 273.999ZM508.211 313.525C526.815 302.784 526.815 285.37 508.211 274.629C489.607 263.888 459.445 263.888 440.841 274.629C422.237 285.37 422.237 302.784 440.841 313.525C459.445 324.266 489.607 324.266 508.211 313.525ZM510.425 277.379C525.046 287.83 523.944 303.183 507.121 312.896C490.298 322.609 463.706 323.244 445.604 314.803L452.214 310.987C466.681 317.288 487.346 316.634 500.526 309.025C513.706 301.415 514.839 289.484 503.924 281.132L510.425 277.379ZM507.884 274.818C526.307 285.454 526.307 302.7 507.884 313.336C489.461 323.973 459.591 323.973 441.168 313.336C422.745 302.7 422.745 285.454 441.168 274.818C459.591 264.181 489.461 264.181 507.884 274.818ZM499.763 279.318C513.761 287.399 513.761 300.503 499.763 308.584C485.765 316.666 463.069 316.666 449.071 308.584C435.073 300.503 435.073 287.399 449.071 279.318C463.069 271.236 485.765 271.236 499.763 279.318ZM451.681 313.581C451.307 313.748 450.982 313.976 450.7 314.261C450.432 314.53 450.284 314.803 450.255 315.056C450.22 315.32 450.284 315.561 450.446 315.777C450.608 315.993 450.834 316.188 451.123 316.363C451.413 316.539 451.759 316.689 452.154 316.82C452.732 317.007 453.318 317.117 453.918 317.146L454.828 316.204C454.391 316.261 453.876 316.192 453.262 315.993C452.866 315.862 452.591 315.695 452.436 315.491C452.281 315.288 452.309 315.068 452.535 314.84C452.789 314.579 453.106 314.428 453.509 314.391C453.904 314.359 454.313 314.408 454.722 314.538C455.216 314.693 455.569 314.905 455.788 315.161L456.677 314.241C456.317 313.96 455.844 313.727 455.266 313.54C454.878 313.422 454.482 313.332 454.08 313.287C453.678 313.242 453.269 313.242 452.859 313.275C452.457 313.312 452.055 313.414 451.681 313.581ZM458.702 318.408L456.762 318.038L458.716 314.644L461.44 315.165C461.779 315.231 462.068 315.308 462.329 315.402C462.591 315.495 462.816 315.61 463.007 315.744C463.197 315.878 463.324 316.041 463.367 316.229C463.409 316.416 463.374 316.624 463.247 316.844C462.965 317.325 462.435 317.598 461.659 317.663L462.492 319.138L460.354 318.726L459.726 317.492L459.274 317.402L458.702 318.408ZM460.128 315.923L459.754 316.563L460.502 316.71C460.685 316.742 460.848 316.746 460.989 316.705C461.13 316.665 461.229 316.6 461.285 316.502C461.342 316.404 461.334 316.318 461.264 316.237C461.186 316.16 461.059 316.103 460.883 316.066L460.128 315.923ZM466.641 319.562L468.645 319.716L468.92 318.514L471.807 316.359L469.52 316.18L468.158 317.439L467.417 316.017L465.131 315.838L466.916 318.351L466.641 319.562ZM473.55 316.339L476.252 316.237C478.094 316.168 479.075 316.571 479.174 317.451C479.273 318.331 478.398 318.804 476.556 318.873L475.892 318.897L475.998 319.83L473.959 319.908L473.55 316.339ZM477.149 317.528C477.12 317.292 476.852 317.186 476.337 317.207L475.688 317.231L475.765 317.928L476.415 317.903C476.93 317.883 477.17 317.761 477.149 317.528ZM485.786 315.214L480.592 315.972L481.037 316.979L482.646 316.742L483.725 319.207L485.694 318.918L484.614 316.453L486.223 316.217L485.786 315.214ZM490.288 317.586C489.505 317.41 488.912 317.076 488.51 316.583C488.115 316.094 488.051 315.618 488.319 315.153C488.587 314.689 489.208 314.33 490.175 314.065C491.142 313.801 492.017 313.76 492.807 313.939C493.591 314.114 494.183 314.448 494.586 314.941C494.981 315.43 495.044 315.907 494.776 316.371C494.508 316.836 493.887 317.194 492.92 317.459C491.946 317.72 491.071 317.761 490.288 317.586ZM492.814 316.07C492.906 315.887 492.864 315.683 492.68 315.455C492.497 315.227 492.257 315.08 491.946 315.007C491.643 314.929 491.311 314.941 490.951 315.035C490.599 315.133 490.373 315.271 490.274 315.459C490.182 315.642 490.225 315.846 490.408 316.074C490.592 316.302 490.831 316.449 491.142 316.522C491.445 316.6 491.777 316.587 492.137 316.494C492.49 316.396 492.723 316.253 492.814 316.07ZM498.643 312.33C498.798 312.591 499.052 312.843 499.426 313.092C499.779 313.328 500.167 313.503 500.591 313.609C501.007 313.719 501.423 313.764 501.833 313.748C502.242 313.731 502.637 313.674 503.018 313.577C503.399 313.479 503.766 313.34 504.105 313.169C504.599 312.917 504.98 312.631 505.227 312.318L503.999 311.503C503.95 311.759 503.653 312.02 503.124 312.285C502.785 312.456 502.418 312.546 502.03 312.566C501.642 312.586 501.296 312.493 501 312.297C500.654 312.073 500.527 311.845 500.598 311.617C500.675 311.385 500.887 311.181 501.24 311.002C501.663 310.782 502.122 310.663 502.616 310.631L501.416 309.84C500.831 309.942 500.301 310.118 499.793 310.37C499.462 310.537 499.194 310.725 498.982 310.928C498.77 311.132 498.622 311.356 498.544 311.588C498.467 311.821 498.502 312.069 498.643 312.33ZM508.6 310.338L507.33 311.283L503.844 308.04L505.185 307.037L511.493 308.17L510.223 309.115L509.412 308.948L508.099 309.926L508.6 310.338ZM506.455 308.52L507.238 309.185L507.979 308.635L506.667 308.366C506.405 308.313 506.166 308.248 505.926 308.166C506.095 308.264 506.271 308.382 506.455 308.52ZM513.032 306.687L513.935 305.628L512.298 305.155L512.509 304.911L514.718 304.719L515.713 303.558L513.074 303.827C513.06 303.371 512.665 303.028 511.881 302.804C511.514 302.698 511.162 302.65 510.837 302.65C510.505 302.654 510.216 302.698 509.955 302.792C509.694 302.886 509.468 303 509.277 303.134C509.08 303.273 508.911 303.428 508.748 303.611L507.471 305.098L513.032 306.687ZM510.915 304.772L509.87 304.471L510.216 304.067C510.301 303.961 510.421 303.9 510.562 303.868C510.71 303.839 510.858 303.843 511.02 303.888C511.183 303.933 511.282 303.998 511.331 304.084C511.373 304.173 511.352 304.267 511.267 304.365L510.915 304.772ZM516.094 301.554C515.36 301.79 514.535 301.843 513.632 301.704C512.721 301.57 512.044 301.293 511.606 300.877C511.162 300.466 511.07 299.957 511.345 299.358C511.613 298.763 512.114 298.343 512.855 298.111C513.589 297.875 514.415 297.822 515.318 297.96C516.228 298.095 516.906 298.372 517.343 298.787C517.788 299.199 517.88 299.708 517.605 300.307C517.336 300.902 516.835 301.313 516.094 301.554ZM515.692 299.464C515.509 299.301 515.205 299.191 514.789 299.13C514.373 299.068 514.013 299.081 513.723 299.166C513.427 299.256 513.229 299.411 513.131 299.631C513.032 299.851 513.074 300.038 513.258 300.201C513.441 300.364 513.745 300.474 514.161 300.535C514.577 300.596 514.937 300.584 515.226 300.498C515.523 300.409 515.72 300.254 515.819 300.034C515.918 299.814 515.876 299.627 515.692 299.464ZM512.827 293.1L512.728 294.273L516.398 294.379C516.941 294.391 517.202 294.558 517.174 294.884C517.146 295.21 516.863 295.357 516.32 295.345L512.629 295.243L512.538 296.42L516.32 296.526C516.779 296.538 517.188 296.506 517.534 296.42C517.873 296.339 518.155 296.216 518.36 296.066C518.564 295.907 518.726 295.74 518.825 295.552C518.931 295.361 518.988 295.157 519.009 294.933C519.03 294.709 519.009 294.501 518.931 294.31C518.861 294.122 518.734 293.943 518.557 293.776C518.381 293.609 518.127 293.479 517.795 293.377C517.463 293.275 517.068 293.218 516.609 293.206L512.827 293.1ZM514.45 291.788C513.829 291.837 513.328 291.751 512.933 291.515C512.545 291.283 512.298 290.961 512.192 290.557C512.072 290.056 512.128 289.608 512.382 289.217L514.133 289.07C513.822 289.47 513.723 289.877 513.836 290.293C513.886 290.5 513.998 290.598 514.182 290.582C514.267 290.574 514.33 290.537 514.38 290.468C514.429 290.399 514.471 290.309 514.492 290.207C514.502 290.17 514.512 290.132 514.523 290.092L514.523 290.092C514.541 290.019 514.561 289.942 514.584 289.861C514.612 289.73 514.662 289.604 514.732 289.474C514.803 289.343 514.888 289.221 514.993 289.111C515.099 289.001 515.269 288.903 515.48 288.822C515.692 288.74 515.939 288.687 516.228 288.659C517.548 288.549 518.338 288.989 518.585 289.979C518.719 290.521 518.649 291.002 518.359 291.429L516.532 291.58C516.906 291.12 517.04 290.667 516.934 290.231C516.899 290.081 516.849 289.979 516.786 289.926C516.722 289.873 516.638 289.849 516.539 289.857C516.44 289.865 516.37 289.914 516.313 290.003C516.257 290.093 516.214 290.207 516.186 290.337C516.165 290.472 516.115 290.614 516.052 290.773C515.981 290.928 515.904 291.079 515.791 291.217C515.692 291.356 515.523 291.478 515.283 291.584C515.071 291.69 514.789 291.763 514.45 291.788ZM510.011 285.306L511.472 287.877L517.365 286.756L515.883 284.157L514.33 284.45L515.17 285.929L514.471 286.064L513.744 284.788L512.312 285.061L513.039 286.337L512.361 286.467L511.543 285.017L510.011 285.306ZM509.136 284.149L508.177 283.106L512.072 281.908L510.83 280.563L512.404 280.079L514.605 282.466L509.136 284.149ZM496.929 274.25C497.303 274.083 497.628 273.855 497.91 273.569C498.178 273.301 498.326 273.028 498.355 272.775C498.39 272.51 498.326 272.27 498.164 272.054C498.002 271.838 497.776 271.642 497.487 271.467C497.197 271.292 496.852 271.141 496.456 271.011C495.878 270.823 495.292 270.713 494.692 270.685L493.782 271.626C494.219 271.569 494.735 271.638 495.348 271.838C495.744 271.968 496.019 272.135 496.174 272.339C496.329 272.543 496.301 272.763 496.075 272.991C495.821 273.252 495.504 273.402 495.102 273.439C494.706 273.472 494.297 273.423 493.888 273.292C493.394 273.138 493.041 272.926 492.822 272.669L491.933 273.59C492.293 273.871 492.766 274.103 493.344 274.291C493.733 274.409 494.128 274.498 494.53 274.543C494.932 274.588 495.341 274.588 495.751 274.555C496.153 274.519 496.555 274.417 496.929 274.25ZM489.908 269.422L491.848 269.793L489.894 273.186L487.17 272.665C486.831 272.6 486.542 272.522 486.281 272.429C486.02 272.335 485.794 272.221 485.603 272.086C485.413 271.952 485.286 271.789 485.243 271.602C485.201 271.414 485.236 271.206 485.363 270.986C485.646 270.506 486.175 270.233 486.951 270.168L486.118 268.693L488.256 269.104L488.885 270.339L489.336 270.428L489.908 269.422ZM488.482 271.907L488.856 271.268L488.108 271.121C487.925 271.088 487.763 271.084 487.621 271.125C487.48 271.166 487.381 271.231 487.325 271.329C487.269 271.426 487.276 271.512 487.346 271.593C487.424 271.671 487.551 271.728 487.727 271.765L488.482 271.907ZM481.969 268.269L479.965 268.114L479.69 269.316L476.803 271.471L479.09 271.65L480.452 270.392L481.193 271.813L483.479 271.993L481.694 269.479L481.969 268.269ZM475.061 271.492L472.358 271.594C470.516 271.663 469.535 271.259 469.436 270.379C469.338 269.499 470.213 269.027 472.054 268.958L472.718 268.933L472.612 268L474.651 267.923L475.061 271.492ZM471.462 270.302C471.49 270.538 471.758 270.644 472.273 270.624L472.922 270.599L472.845 269.903L472.196 269.927C471.68 269.948 471.44 270.07 471.462 270.302ZM462.824 272.616L468.018 271.858L467.573 270.852L465.964 271.088L464.885 268.623L462.916 268.913L463.996 271.378L462.387 271.614L462.824 272.616ZM458.322 270.245C459.105 270.42 459.698 270.754 460.1 271.247C460.495 271.736 460.559 272.213 460.291 272.677C460.023 273.142 459.402 273.5 458.435 273.765C457.468 274.03 456.593 274.071 455.803 273.891C455.02 273.716 454.427 273.382 454.025 272.889C453.629 272.4 453.566 271.923 453.834 271.459C454.102 270.995 454.723 270.636 455.69 270.371C456.664 270.11 457.539 270.07 458.322 270.245ZM455.796 271.761C455.704 271.944 455.746 272.148 455.93 272.376C456.113 272.604 456.353 272.751 456.664 272.824C456.967 272.901 457.299 272.889 457.659 272.795C458.012 272.698 458.237 272.559 458.336 272.372C458.428 272.188 458.386 271.985 458.202 271.756C458.019 271.528 457.779 271.382 457.468 271.308C457.165 271.231 456.833 271.243 456.473 271.337C456.12 271.435 455.887 271.577 455.796 271.761ZM449.967 275.501C449.812 275.24 449.558 274.987 449.184 274.739C448.831 274.502 448.443 274.327 448.019 274.221C447.603 274.111 447.187 274.067 446.777 274.083C446.368 274.099 445.973 274.156 445.592 274.254C445.211 274.352 444.844 274.49 444.505 274.661C444.011 274.914 443.63 275.199 443.383 275.513L444.611 276.328C444.66 276.071 444.957 275.81 445.486 275.545C445.825 275.374 446.192 275.285 446.58 275.264C446.968 275.244 447.314 275.338 447.61 275.533C447.956 275.757 448.083 275.985 448.012 276.214C447.935 276.446 447.723 276.65 447.37 276.829C446.947 277.049 446.488 277.167 445.994 277.2L447.194 277.99C447.779 277.888 448.309 277.713 448.817 277.46C449.148 277.293 449.417 277.106 449.628 276.902C449.84 276.698 449.988 276.474 450.066 276.242C450.143 276.01 450.108 275.761 449.967 275.501ZM440.01 277.493L441.28 276.548L444.766 279.791L443.425 280.793L437.117 279.66L438.387 278.715L439.198 278.882L440.511 277.904L440.01 277.493ZM442.155 279.31L441.372 278.646L440.631 279.196L441.943 279.465C442.205 279.518 442.444 279.583 442.684 279.664C442.515 279.567 442.339 279.449 442.155 279.31ZM435.578 281.143L434.675 282.203L436.312 282.675L436.101 282.92L433.892 283.111L432.897 284.272L435.536 284.003C435.55 284.46 435.945 284.802 436.729 285.026C437.096 285.132 437.448 285.181 437.773 285.181C438.105 285.177 438.394 285.132 438.655 285.038C438.916 284.945 439.142 284.83 439.333 284.696C439.53 284.558 439.7 284.403 439.862 284.219L441.139 282.732L435.578 281.143ZM437.695 283.058L438.74 283.36L438.394 283.763C438.309 283.869 438.189 283.93 438.048 283.963C437.9 283.991 437.752 283.987 437.59 283.942C437.427 283.898 437.328 283.832 437.279 283.747C437.237 283.657 437.258 283.563 437.343 283.466L437.695 283.058ZM432.516 286.277C433.25 286.04 434.075 285.988 434.978 286.126C435.889 286.26 436.566 286.538 437.004 286.953C437.448 287.365 437.54 287.874 437.265 288.473C436.997 289.068 436.496 289.487 435.755 289.719C435.021 289.956 434.195 290.009 433.292 289.87C432.382 289.736 431.704 289.459 431.267 289.043C430.822 288.632 430.73 288.122 431.006 287.523C431.274 286.929 431.775 286.517 432.516 286.277ZM432.918 288.367C433.101 288.53 433.405 288.64 433.821 288.701C434.237 288.762 434.597 288.75 434.887 288.664C435.183 288.575 435.381 288.42 435.479 288.2C435.578 287.98 435.536 287.792 435.352 287.629C435.169 287.466 434.866 287.356 434.449 287.295C434.033 287.234 433.673 287.246 433.384 287.332C433.087 287.422 432.89 287.576 432.791 287.796C432.692 288.016 432.734 288.204 432.918 288.367ZM435.783 294.731L435.882 293.557L432.212 293.451C431.669 293.439 431.408 293.272 431.436 292.946C431.464 292.62 431.747 292.474 432.29 292.486L435.981 292.588L436.072 291.41L432.29 291.304C431.831 291.292 431.422 291.325 431.076 291.41C430.737 291.492 430.455 291.614 430.251 291.765C430.046 291.924 429.884 292.091 429.785 292.278C429.679 292.47 429.623 292.673 429.601 292.897C429.58 293.121 429.601 293.329 429.679 293.521C429.75 293.708 429.877 293.887 430.053 294.054C430.229 294.221 430.483 294.352 430.815 294.454C431.147 294.556 431.542 294.613 432.001 294.625L435.783 294.731ZM434.16 296.043C434.781 295.994 435.282 296.079 435.677 296.316C436.065 296.548 436.312 296.87 436.418 297.273C436.538 297.774 436.482 298.222 436.228 298.613L434.477 298.76C434.788 298.361 434.887 297.953 434.774 297.538C434.724 297.33 434.612 297.232 434.428 297.249C434.343 297.257 434.28 297.293 434.231 297.363C434.181 297.432 434.139 297.522 434.118 297.623C434.108 297.66 434.098 297.698 434.088 297.737L434.088 297.738L434.087 297.739L434.087 297.739C434.069 297.811 434.049 297.888 434.026 297.97C433.998 298.1 433.948 298.226 433.878 298.357C433.807 298.487 433.722 298.609 433.617 298.719C433.511 298.829 433.341 298.927 433.13 299.009C432.918 299.09 432.671 299.143 432.382 299.172C431.062 299.282 430.272 298.842 430.025 297.852C429.891 297.31 429.961 296.829 430.251 296.401L432.078 296.25C431.704 296.711 431.57 297.163 431.676 297.599C431.711 297.75 431.761 297.852 431.824 297.905C431.888 297.958 431.972 297.982 432.071 297.974C432.17 297.966 432.241 297.917 432.297 297.827C432.353 297.738 432.396 297.623 432.424 297.493C432.445 297.359 432.495 297.216 432.558 297.057C432.629 296.902 432.706 296.752 432.819 296.613C432.918 296.475 433.087 296.352 433.327 296.246C433.539 296.14 433.821 296.067 434.16 296.043ZM438.599 302.525L437.138 299.954L431.246 301.074L432.727 303.674L434.28 303.38L433.44 301.901L434.139 301.767L434.866 303.042L436.298 302.769L435.571 301.494L436.249 301.364L437.067 302.814L438.599 302.525ZM439.474 303.682L440.433 304.725L436.538 305.922L437.78 307.267L436.206 307.752L434.005 305.364L439.474 303.682ZM504.832 277.964C505.855 277.374 505.855 276.415 504.832 275.825C503.808 275.234 502.149 275.234 501.125 275.825C500.102 276.415 500.102 277.374 501.125 277.964C502.149 278.555 503.808 278.555 504.832 277.964ZM446.619 309.434C447.642 310.025 447.642 310.983 446.619 311.574C445.595 312.165 443.936 312.165 442.912 311.574C441.889 310.983 441.889 310.025 442.912 309.434C443.936 308.843 445.595 308.843 446.619 309.434Z" fill="#FF127F"/>
</g>
<path d="M796.686 128.686C797.369 129.08 797.782 129.53 797.927 130.038C798.071 130.531 797.94 131.023 797.533 131.515C798.504 131.212 799.521 131.087 800.584 131.14C801.634 131.186 802.618 131.474 803.536 132.004C804.219 132.398 804.672 132.834 804.895 133.311C805.118 133.773 805.124 134.239 804.914 134.709C804.704 135.179 804.357 135.637 803.871 136.084C803.412 136.531 802.828 136.959 802.119 137.368C800.479 138.315 798.629 139.035 796.568 139.528L793.832 137.948C795.84 137.622 797.658 136.974 799.285 136.005C800.111 135.527 800.636 135.057 800.859 134.595C801.083 134.133 800.899 133.732 800.308 133.391C799.272 132.792 797.979 132.94 796.431 133.834L794.226 135.107L791.726 133.641L793.596 132.584C794.265 132.197 794.666 131.83 794.797 131.481C794.928 131.118 794.764 130.803 794.305 130.538C793.819 130.258 793.235 130.163 792.553 130.254C791.857 130.337 791.109 130.61 790.309 131.072C788.983 131.837 788.065 132.83 787.553 134.05L784.817 132.47C785.407 131.326 786.516 130.284 788.144 129.345C789.587 128.511 791.076 128.023 792.612 127.879C794.147 127.735 795.505 128.004 796.686 128.686Z" fill="#852DEE"/>
<path d="M815.243 130.837L813.274 131.973L805.184 118.006L807.153 116.87L815.243 130.837ZM801.523 122.211C802.796 122.158 803.964 122.439 805.027 123.052C806.09 123.666 806.582 124.344 806.503 125.086C806.411 125.821 805.866 126.477 804.869 127.053C803.859 127.636 802.71 127.958 801.424 128.019C800.138 128.064 798.964 127.78 797.901 127.166C796.838 126.553 796.353 125.878 796.444 125.143C796.536 124.393 797.087 123.727 798.098 123.143C799.095 122.567 800.237 122.257 801.523 122.211ZM799.476 125.143C799.515 125.424 799.725 125.674 800.106 125.893C800.486 126.113 800.919 126.234 801.405 126.257C801.903 126.272 802.382 126.147 802.842 125.882C803.275 125.632 803.472 125.367 803.432 125.086C803.406 124.799 803.203 124.545 802.822 124.325C802.441 124.105 802.002 123.988 801.503 123.973C801.018 123.95 800.558 124.064 800.125 124.314C799.666 124.579 799.449 124.855 799.476 125.143ZM818.943 120.882C820.216 120.829 821.384 121.109 822.447 121.723C823.51 122.336 824.002 123.014 823.923 123.757C823.832 124.492 823.287 125.147 822.29 125.723C821.279 126.306 820.131 126.628 818.845 126.689C817.559 126.734 816.384 126.45 815.321 125.837C814.258 125.223 813.773 124.549 813.865 123.814C813.957 123.064 814.508 122.397 815.518 121.813C816.516 121.238 817.657 120.927 818.943 120.882ZM816.896 123.814C816.936 124.094 817.145 124.344 817.526 124.564C817.907 124.783 818.34 124.905 818.825 124.927C819.324 124.943 819.803 124.818 820.262 124.552C820.695 124.302 820.892 124.037 820.853 123.757C820.826 123.469 820.623 123.215 820.242 122.995C819.862 122.776 819.422 122.658 818.924 122.643C818.438 122.62 817.979 122.734 817.546 122.984C817.086 123.249 816.87 123.526 816.896 123.814Z" fill="#852DEE"/>
<g filter="url(#filter5_d_960_9)">
<path fill-rule="evenodd" clip-rule="evenodd" d="M839.579 107.847C858.785 118.935 858.785 136.913 839.579 148.002C820.373 159.09 789.234 159.09 770.028 148.002C750.822 136.913 750.822 118.935 770.028 107.847C789.234 96.7583 820.373 96.7583 839.579 107.847ZM838.489 147.372C857.092 136.632 857.092 119.217 838.489 108.476C819.885 97.7353 789.722 97.7353 771.118 108.476C752.515 119.217 752.515 136.632 771.118 147.372C789.722 158.113 819.885 158.113 838.489 147.372ZM840.702 111.226C855.323 121.678 854.222 137.03 837.398 146.743C820.575 156.456 793.984 157.092 775.881 148.651L782.491 144.834C796.958 151.136 817.623 150.482 830.803 142.872C843.983 135.263 845.116 123.332 834.202 114.979L840.702 111.226ZM838.162 108.665C856.585 119.302 856.585 136.547 838.162 147.184C819.738 157.82 789.869 157.82 771.445 147.184C753.022 136.547 753.022 119.302 771.445 108.665C789.869 98.0284 819.738 98.0284 838.162 108.665ZM830.04 113.165C844.038 121.247 844.038 134.35 830.04 142.432C816.042 150.513 793.347 150.513 779.349 142.432C765.351 134.35 765.351 121.247 779.349 113.165C793.347 105.083 816.042 105.083 830.04 113.165ZM781.958 147.428C781.584 147.595 781.26 147.823 780.977 148.108C780.709 148.377 780.561 148.65 780.533 148.903C780.498 149.168 780.561 149.408 780.723 149.624C780.886 149.84 781.111 150.036 781.401 150.211C781.69 150.386 782.036 150.537 782.431 150.667C783.01 150.854 783.595 150.964 784.195 150.993L785.106 150.052C784.668 150.109 784.153 150.04 783.539 149.84C783.144 149.71 782.869 149.543 782.713 149.339C782.558 149.135 782.586 148.915 782.812 148.687C783.066 148.426 783.384 148.275 783.786 148.239C784.181 148.206 784.59 148.255 785 148.385C785.494 148.54 785.847 148.752 786.065 149.009L786.954 148.088C786.595 147.807 786.122 147.575 785.543 147.387C785.155 147.269 784.76 147.18 784.358 147.135C783.955 147.09 783.546 147.09 783.137 147.123C782.735 147.159 782.332 147.261 781.958 147.428ZM788.98 152.256L787.039 151.885L788.994 148.491L791.718 149.013C792.056 149.078 792.346 149.155 792.607 149.249C792.868 149.343 793.094 149.457 793.284 149.591C793.475 149.726 793.602 149.889 793.644 150.076C793.686 150.264 793.651 150.471 793.524 150.691C793.242 151.172 792.713 151.445 791.936 151.51L792.769 152.985L790.631 152.574L790.003 151.339L789.551 151.25L788.98 152.256ZM790.405 149.771L790.031 150.41L790.779 150.557C790.963 150.59 791.125 150.594 791.266 150.553C791.407 150.512 791.506 150.447 791.562 150.349C791.619 150.251 791.612 150.166 791.541 150.084C791.464 150.007 791.337 149.95 791.16 149.913L790.405 149.771ZM796.918 153.409L798.922 153.564L799.198 152.362L802.084 150.207L799.798 150.027L798.436 151.286L797.695 149.864L795.408 149.685L797.194 152.199L796.918 153.409ZM803.827 150.186L806.53 150.084C808.371 150.015 809.352 150.418 809.451 151.298C809.55 152.179 808.675 152.651 806.833 152.72L806.17 152.745L806.276 153.678L804.236 153.755L803.827 150.186ZM807.426 151.376C807.398 151.14 807.129 151.034 806.614 151.054L805.965 151.078L806.043 151.775L806.692 151.751C807.207 151.73 807.447 151.608 807.426 151.376ZM816.063 149.062L810.869 149.82L811.314 150.826L812.923 150.59L814.003 153.055L815.971 152.765L814.892 150.3L816.501 150.064L816.063 149.062ZM820.565 151.433C819.782 151.258 819.189 150.924 818.787 150.431C818.392 149.942 818.328 149.465 818.597 149.001C818.865 148.536 819.486 148.178 820.453 147.913C821.419 147.648 822.294 147.607 823.085 147.787C823.868 147.962 824.461 148.296 824.863 148.789C825.258 149.278 825.322 149.754 825.053 150.219C824.785 150.683 824.164 151.042 823.198 151.307C822.224 151.567 821.349 151.608 820.565 151.433ZM823.092 149.917C823.183 149.734 823.141 149.53 822.958 149.302C822.774 149.074 822.534 148.927 822.224 148.854C821.92 148.777 821.589 148.789 821.229 148.883C820.876 148.98 820.65 149.119 820.551 149.306C820.46 149.49 820.502 149.693 820.685 149.921C820.869 150.15 821.109 150.296 821.419 150.37C821.723 150.447 822.054 150.435 822.414 150.341C822.767 150.243 823 150.101 823.092 149.917ZM828.92 146.177C829.076 146.438 829.33 146.691 829.704 146.939C830.057 147.175 830.445 147.351 830.868 147.457C831.284 147.567 831.701 147.611 832.11 147.595C832.519 147.579 832.915 147.522 833.296 147.424C833.677 147.326 834.044 147.188 834.382 147.017C834.876 146.764 835.257 146.479 835.504 146.165L834.276 145.35C834.227 145.607 833.931 145.868 833.401 146.132C833.063 146.304 832.696 146.393 832.308 146.414C831.92 146.434 831.574 146.34 831.277 146.145C830.932 145.921 830.805 145.692 830.875 145.464C830.953 145.232 831.164 145.028 831.517 144.849C831.941 144.629 832.399 144.511 832.893 144.478L831.694 143.688C831.108 143.79 830.579 143.965 830.071 144.218C829.739 144.385 829.471 144.572 829.259 144.776C829.047 144.979 828.899 145.204 828.822 145.436C828.744 145.668 828.779 145.916 828.92 146.177ZM838.877 144.185L837.607 145.13L834.121 141.887L835.462 140.885L841.771 142.018L840.501 142.963L839.689 142.796L838.376 143.773L838.877 144.185ZM836.732 142.368L837.516 143.032L838.256 142.482L836.944 142.213C836.683 142.16 836.443 142.095 836.203 142.013C836.372 142.111 836.549 142.229 836.732 142.368ZM843.309 140.535L844.212 139.475L842.575 139.003L842.787 138.758L844.996 138.567L845.991 137.406L843.351 137.674C843.337 137.218 842.942 136.876 842.159 136.652C841.792 136.546 841.439 136.497 841.114 136.497C840.783 136.501 840.493 136.546 840.232 136.64C839.971 136.733 839.745 136.847 839.555 136.982C839.357 137.12 839.188 137.275 839.026 137.459L837.748 138.946L843.309 140.535ZM841.192 138.62L840.148 138.318L840.493 137.915C840.578 137.809 840.698 137.748 840.839 137.715C840.987 137.687 841.136 137.691 841.298 137.736C841.46 137.78 841.559 137.846 841.608 137.931C841.651 138.021 841.629 138.114 841.545 138.212L841.192 138.62ZM846.372 135.401C845.638 135.637 844.812 135.69 843.909 135.552C842.999 135.417 842.321 135.14 841.884 134.725C841.439 134.313 841.347 133.804 841.623 133.205C841.891 132.61 842.392 132.191 843.133 131.958C843.867 131.722 844.692 131.669 845.595 131.808C846.506 131.942 847.183 132.219 847.621 132.635C848.065 133.046 848.157 133.556 847.882 134.154C847.614 134.749 847.113 135.161 846.372 135.401ZM845.969 133.311C845.786 133.148 845.483 133.038 845.066 132.977C844.65 132.916 844.29 132.928 844.001 133.014C843.704 133.103 843.507 133.258 843.408 133.478C843.309 133.698 843.351 133.886 843.535 134.048C843.718 134.211 844.022 134.321 844.438 134.383C844.855 134.444 845.214 134.431 845.504 134.346C845.8 134.256 845.998 134.101 846.097 133.881C846.195 133.661 846.153 133.474 845.969 133.311ZM843.104 126.947L843.006 128.121L846.675 128.226C847.218 128.239 847.48 128.406 847.451 128.732C847.423 129.058 847.141 129.204 846.597 129.192L842.907 129.09L842.815 130.268L846.597 130.374C847.056 130.386 847.465 130.353 847.811 130.268C848.15 130.186 848.432 130.064 848.637 129.913C848.842 129.754 849.004 129.587 849.103 129.4C849.208 129.208 849.265 129.005 849.286 128.781C849.307 128.556 849.286 128.349 849.208 128.157C849.138 127.97 849.011 127.79 848.834 127.623C848.658 127.456 848.404 127.326 848.072 127.224C847.741 127.122 847.345 127.065 846.887 127.053L843.104 126.947ZM844.727 125.635C844.106 125.684 843.605 125.599 843.21 125.362C842.822 125.13 842.575 124.808 842.469 124.405C842.349 123.904 842.406 123.456 842.66 123.064L844.41 122.918C844.099 123.317 844.001 123.724 844.113 124.14C844.163 124.348 844.276 124.446 844.459 124.429C844.544 124.421 844.607 124.384 844.657 124.315C844.706 124.246 844.749 124.156 844.77 124.054C844.78 124.017 844.79 123.979 844.8 123.939L844.8 123.939C844.819 123.866 844.839 123.79 844.862 123.708C844.89 123.578 844.939 123.451 845.01 123.321C845.08 123.191 845.165 123.069 845.271 122.958C845.377 122.848 845.546 122.751 845.758 122.669C845.969 122.588 846.216 122.535 846.506 122.506C847.825 122.396 848.616 122.836 848.863 123.826C848.997 124.368 848.926 124.849 848.637 125.277L846.809 125.427C847.183 124.967 847.317 124.515 847.211 124.079C847.176 123.928 847.127 123.826 847.063 123.773C847 123.72 846.915 123.696 846.816 123.704C846.717 123.712 846.647 123.761 846.59 123.851C846.534 123.94 846.492 124.054 846.463 124.185C846.442 124.319 846.393 124.462 846.329 124.621C846.259 124.776 846.181 124.926 846.068 125.065C845.969 125.203 845.8 125.326 845.56 125.432C845.348 125.537 845.066 125.611 844.727 125.635ZM840.289 119.153L841.75 121.724L847.642 120.604L846.16 118.004L844.608 118.298L845.447 119.777L844.749 119.911L844.022 118.636L842.589 118.909L843.316 120.184L842.639 120.314L841.82 118.864L840.289 119.153ZM839.414 117.996L838.454 116.953L842.349 115.755L841.107 114.411L842.681 113.926L844.883 116.314L839.414 117.996ZM827.207 108.097C827.581 107.93 827.905 107.702 828.187 107.417C828.456 107.148 828.604 106.875 828.632 106.622C828.667 106.358 828.604 106.117 828.441 105.901C828.279 105.685 828.053 105.49 827.764 105.315C827.475 105.139 827.129 104.989 826.734 104.858C826.155 104.671 825.569 104.561 824.97 104.532L824.059 105.474C824.497 105.416 825.012 105.486 825.626 105.685C826.021 105.816 826.296 105.983 826.451 106.186C826.607 106.39 826.578 106.61 826.353 106.838C826.099 107.099 825.781 107.25 825.379 107.287C824.984 107.319 824.574 107.27 824.165 107.14C823.671 106.985 823.318 106.773 823.1 106.516L822.21 107.437C822.57 107.718 823.043 107.951 823.622 108.138C824.01 108.256 824.405 108.346 824.807 108.391C825.209 108.435 825.619 108.435 826.028 108.403C826.43 108.366 826.833 108.264 827.207 108.097ZM820.185 103.269L822.126 103.64L820.171 107.034L817.447 106.512C817.108 106.447 816.819 106.37 816.558 106.276C816.297 106.182 816.071 106.068 815.881 105.934C815.69 105.799 815.563 105.636 815.521 105.449C815.478 105.262 815.514 105.054 815.641 104.834C815.923 104.353 816.452 104.08 817.228 104.015L816.396 102.54L818.534 102.952L819.162 104.186L819.614 104.276L820.185 103.269ZM818.76 105.755L819.134 105.115L818.386 104.968C818.202 104.936 818.04 104.932 817.899 104.972C817.758 105.013 817.659 105.078 817.602 105.176C817.546 105.274 817.553 105.359 817.624 105.441C817.701 105.518 817.828 105.575 818.005 105.612L818.76 105.755ZM812.246 102.116L810.242 101.962L809.967 103.163L807.081 105.319L809.367 105.498L810.729 104.239L811.47 105.661L813.756 105.84L811.971 103.326L812.246 102.116ZM805.338 105.339L802.635 105.441C800.793 105.51 799.813 105.107 799.714 104.227C799.615 103.347 800.49 102.874 802.332 102.805L802.995 102.78L802.889 101.847L804.929 101.77L805.338 105.339ZM801.739 104.149C801.767 104.386 802.035 104.492 802.551 104.471L803.2 104.447L803.122 103.75L802.473 103.775C801.958 103.795 801.718 103.917 801.739 104.149ZM793.102 106.464L798.295 105.706L797.851 104.699L796.242 104.936L795.162 102.471L793.193 102.76L794.273 105.225L792.664 105.461L793.102 106.464ZM788.599 104.092C789.383 104.268 789.975 104.602 790.378 105.095C790.773 105.583 790.836 106.06 790.568 106.525C790.3 106.989 789.679 107.348 788.712 107.612C787.746 107.877 786.87 107.918 786.08 107.739C785.297 107.564 784.704 107.229 784.302 106.736C783.907 106.248 783.843 105.771 784.111 105.306C784.379 104.842 785 104.483 785.967 104.219C786.941 103.958 787.816 103.917 788.599 104.092ZM786.073 105.608C785.981 105.791 786.024 105.995 786.207 106.223C786.391 106.451 786.631 106.598 786.941 106.671C787.245 106.749 787.576 106.736 787.936 106.643C788.289 106.545 788.515 106.406 788.613 106.219C788.705 106.036 788.663 105.832 788.479 105.604C788.296 105.376 788.056 105.229 787.746 105.156C787.442 105.078 787.11 105.091 786.751 105.184C786.398 105.282 786.165 105.425 786.073 105.608ZM780.244 109.348C780.089 109.087 779.835 108.835 779.461 108.586C779.108 108.35 778.72 108.175 778.297 108.069C777.88 107.959 777.464 107.914 777.055 107.93C776.645 107.947 776.25 108.004 775.869 108.101C775.488 108.199 775.121 108.338 774.782 108.509C774.288 108.761 773.907 109.047 773.66 109.36L774.888 110.175C774.938 109.918 775.234 109.658 775.763 109.393C776.102 109.222 776.469 109.132 776.857 109.112C777.245 109.091 777.591 109.185 777.887 109.381C778.233 109.605 778.36 109.833 778.29 110.061C778.212 110.293 778 110.497 777.647 110.676C777.224 110.896 776.765 111.014 776.271 111.047L777.471 111.837C778.057 111.736 778.586 111.56 779.094 111.308C779.426 111.141 779.694 110.953 779.906 110.75C780.117 110.546 780.265 110.322 780.343 110.09C780.421 109.857 780.385 109.609 780.244 109.348ZM770.287 111.34L771.557 110.395L775.043 113.638L773.703 114.64L767.394 113.508L768.664 112.563L769.476 112.73L770.788 111.752L770.287 111.34ZM772.432 113.157L771.649 112.493L770.908 113.043L772.221 113.312C772.482 113.365 772.722 113.43 772.962 113.512C772.792 113.414 772.616 113.296 772.432 113.157ZM765.856 114.991L764.953 116.05L766.59 116.523L766.378 116.767L764.169 116.959L763.174 118.12L765.813 117.851C765.828 118.307 766.223 118.649 767.006 118.873C767.373 118.979 767.726 119.028 768.05 119.028C768.382 119.024 768.671 118.979 768.932 118.886C769.194 118.792 769.419 118.678 769.61 118.543C769.808 118.405 769.977 118.25 770.139 118.067L771.416 116.58L765.856 114.991ZM767.973 116.906L769.017 117.207L768.671 117.61C768.587 117.716 768.467 117.778 768.326 117.81C768.177 117.839 768.029 117.835 767.867 117.79C767.705 117.745 767.606 117.68 767.556 117.594C767.514 117.505 767.535 117.411 767.62 117.313L767.973 116.906ZM762.793 120.124C763.527 119.888 764.353 119.835 765.256 119.973C766.166 120.108 766.844 120.385 767.281 120.801C767.726 121.212 767.817 121.721 767.542 122.32C767.274 122.915 766.773 123.335 766.032 123.567C765.298 123.803 764.472 123.856 763.569 123.718C762.659 123.583 761.981 123.306 761.544 122.891C761.099 122.479 761.008 121.97 761.283 121.371C761.551 120.776 762.052 120.365 762.793 120.124ZM763.195 122.214C763.379 122.377 763.682 122.487 764.098 122.548C764.515 122.609 764.875 122.597 765.164 122.512C765.46 122.422 765.658 122.267 765.757 122.047C765.856 121.827 765.813 121.64 765.63 121.477C765.446 121.314 765.143 121.204 764.727 121.143C764.31 121.082 763.95 121.094 763.661 121.179C763.365 121.269 763.167 121.424 763.068 121.644C762.969 121.864 763.012 122.051 763.195 122.214ZM766.06 128.578L766.159 127.405L762.49 127.299C761.946 127.287 761.685 127.12 761.713 126.794C761.742 126.468 762.024 126.321 762.567 126.333L766.258 126.435L766.35 125.258L762.567 125.152C762.109 125.14 761.699 125.172 761.354 125.258C761.015 125.339 760.733 125.461 760.528 125.612C760.323 125.771 760.161 125.938 760.062 126.125C759.956 126.317 759.9 126.521 759.879 126.745C759.858 126.969 759.879 127.177 759.956 127.368C760.027 127.556 760.154 127.735 760.33 127.902C760.507 128.069 760.761 128.199 761.092 128.301C761.424 128.403 761.819 128.46 762.278 128.472L766.06 128.578ZM764.437 129.89C765.058 129.841 765.559 129.927 765.954 130.163C766.343 130.395 766.59 130.717 766.695 131.12C766.815 131.622 766.759 132.07 766.505 132.461L764.755 132.608C765.065 132.208 765.164 131.801 765.051 131.385C765.002 131.178 764.889 131.08 764.705 131.096C764.621 131.104 764.557 131.141 764.508 131.21C764.458 131.279 764.416 131.369 764.395 131.471C764.385 131.508 764.375 131.545 764.365 131.584L764.365 131.586L764.365 131.586L764.365 131.586C764.346 131.659 764.326 131.735 764.303 131.817C764.275 131.948 764.226 132.074 764.155 132.204C764.084 132.335 764 132.457 763.894 132.567C763.788 132.677 763.619 132.775 763.407 132.856C763.195 132.938 762.948 132.991 762.659 133.019C761.339 133.129 760.549 132.689 760.302 131.699C760.168 131.157 760.239 130.676 760.528 130.249L762.356 130.098C761.982 130.558 761.847 131.01 761.953 131.446C761.989 131.597 762.038 131.699 762.102 131.752C762.165 131.805 762.25 131.829 762.349 131.821C762.447 131.813 762.518 131.764 762.574 131.675C762.631 131.585 762.673 131.471 762.701 131.34C762.723 131.206 762.772 131.063 762.835 130.905C762.906 130.75 762.984 130.599 763.097 130.46C763.195 130.322 763.365 130.2 763.605 130.094C763.816 129.988 764.099 129.915 764.437 129.89ZM768.876 136.372L767.415 133.801L761.523 134.922L763.005 137.521L764.557 137.228L763.718 135.749L764.416 135.614L765.143 136.889L766.576 136.617L765.849 135.341L766.526 135.211L767.345 136.661L768.876 136.372ZM769.751 137.529L770.711 138.572L766.815 139.77L768.057 141.114L766.484 141.599L764.282 139.212L769.751 137.529ZM835.109 111.812C836.133 111.221 836.133 110.263 835.109 109.672C834.086 109.081 832.426 109.081 831.403 109.672C830.379 110.263 830.379 111.221 831.403 111.812C832.426 112.403 834.086 112.403 835.109 111.812ZM776.896 143.281C777.92 143.872 777.92 144.83 776.896 145.421C775.872 146.012 774.213 146.012 773.19 145.421C772.166 144.83 772.166 143.872 773.19 143.281C774.213 142.69 775.872 142.69 776.896 143.281Z" fill="#852DEE"/>
</g>
<path d="M1132.62 298.422L1134.76 297.183L1145.61 303.445L1147.85 302.149L1150.39 303.615L1142.75 308.025L1140.22 306.559L1142.73 305.104L1134.84 300.547L1133.27 302.547L1130.61 301.013L1132.62 298.422Z" fill="#9E00FF"/>
<path d="M1158.07 300.547L1156.1 301.684L1148.01 287.717L1149.98 286.58L1158.07 300.547ZM1144.35 291.922C1145.62 291.869 1146.79 292.149 1147.85 292.763C1148.91 293.376 1149.41 294.054 1149.33 294.797C1149.24 295.532 1148.69 296.187 1147.69 296.763C1146.68 297.346 1145.54 297.668 1144.25 297.729C1142.96 297.774 1141.79 297.49 1140.73 296.877C1139.66 296.263 1139.18 295.589 1139.27 294.854C1139.36 294.104 1139.91 293.437 1140.92 292.854C1141.92 292.278 1143.06 291.967 1144.35 291.922ZM1142.3 294.854C1142.34 295.134 1142.55 295.384 1142.93 295.604C1143.31 295.824 1143.74 295.945 1144.23 295.967C1144.73 295.983 1145.21 295.858 1145.67 295.592C1146.1 295.342 1146.3 295.077 1146.26 294.797C1146.23 294.509 1146.03 294.255 1145.65 294.035C1145.27 293.816 1144.83 293.698 1144.33 293.683C1143.84 293.66 1143.38 293.774 1142.95 294.024C1142.49 294.289 1142.27 294.566 1142.3 294.854ZM1161.77 290.592C1163.04 290.539 1164.21 290.819 1165.27 291.433C1166.33 292.047 1166.83 292.725 1166.75 293.467C1166.66 294.202 1166.11 294.858 1165.11 295.433C1164.1 296.017 1162.96 296.339 1161.67 296.399C1160.38 296.445 1159.21 296.161 1158.15 295.547C1157.08 294.933 1156.6 294.259 1156.69 293.524C1156.78 292.774 1157.33 292.107 1158.34 291.524C1159.34 290.948 1160.48 290.637 1161.77 290.592ZM1159.72 293.524C1159.76 293.804 1159.97 294.054 1160.35 294.274C1160.73 294.494 1161.16 294.615 1161.65 294.638C1162.15 294.653 1162.63 294.528 1163.09 294.263C1163.52 294.013 1163.72 293.748 1163.68 293.467C1163.65 293.179 1163.45 292.926 1163.07 292.706C1162.69 292.486 1162.25 292.369 1161.75 292.354C1161.26 292.331 1160.8 292.444 1160.37 292.694C1159.91 292.96 1159.69 293.236 1159.72 293.524Z" fill="#9E00FF"/>
<g filter="url(#filter6_d_960_9)">
<path fill-rule="evenodd" clip-rule="evenodd" d="M1185.06 276.025C1204.26 287.114 1204.26 305.092 1185.06 316.18C1165.85 327.269 1134.71 327.269 1115.51 316.18C1096.3 305.092 1096.3 287.114 1115.51 276.025C1134.71 264.937 1165.85 264.937 1185.06 276.025ZM1183.97 315.551C1202.57 304.81 1202.57 287.396 1183.97 276.655C1165.36 265.914 1135.2 265.914 1116.6 276.655C1097.99 287.396 1097.99 304.81 1116.6 315.551C1135.2 326.292 1165.36 326.292 1183.97 315.551ZM1186.18 279.405C1200.8 289.856 1199.7 305.209 1182.88 314.922C1166.05 324.634 1139.46 325.27 1121.36 316.829L1127.97 313.013C1142.44 319.314 1163.1 318.66 1176.28 311.051C1189.46 303.441 1190.59 291.51 1179.68 283.158L1186.18 279.405ZM1183.64 276.844C1202.06 287.48 1202.06 304.725 1183.64 315.362C1165.22 325.999 1135.35 325.999 1116.92 315.362C1098.5 304.725 1098.5 287.48 1116.92 276.844C1135.35 266.207 1165.22 266.207 1183.64 276.844ZM1175.52 281.344C1189.52 289.425 1189.52 302.528 1175.52 310.61C1161.52 318.692 1138.82 318.692 1124.83 310.61C1110.83 302.528 1110.83 289.425 1124.83 281.344C1138.82 273.262 1161.52 273.262 1175.52 281.344ZM1127.44 315.607C1127.06 315.774 1126.74 316.002 1126.45 316.287C1126.19 316.556 1126.04 316.829 1126.01 317.081C1125.98 317.346 1126.04 317.587 1126.2 317.803C1126.36 318.018 1126.59 318.214 1126.88 318.389C1127.17 318.564 1127.51 318.715 1127.91 318.846C1128.49 319.033 1129.07 319.143 1129.67 319.171L1130.58 318.23C1130.15 318.287 1129.63 318.218 1129.02 318.018C1128.62 317.888 1128.35 317.721 1128.19 317.517C1128.04 317.314 1128.06 317.094 1128.29 316.865C1128.54 316.605 1128.86 316.454 1129.26 316.417C1129.66 316.385 1130.07 316.434 1130.48 316.564C1130.97 316.719 1131.32 316.931 1131.54 317.187L1132.43 316.267C1132.07 315.985 1131.6 315.753 1131.02 315.566C1130.63 315.448 1130.24 315.358 1129.84 315.313C1129.43 315.268 1129.02 315.268 1128.61 315.301C1128.21 315.338 1127.81 315.439 1127.44 315.607ZM1134.46 320.434L1132.52 320.064L1134.47 316.67L1137.2 317.191C1137.53 317.257 1137.82 317.334 1138.08 317.428C1138.35 317.521 1138.57 317.635 1138.76 317.77C1138.95 317.904 1139.08 318.067 1139.12 318.255C1139.16 318.442 1139.13 318.65 1139 318.87C1138.72 319.351 1138.19 319.624 1137.41 319.689L1138.25 321.164L1136.11 320.752L1135.48 319.518L1135.03 319.428L1134.46 320.434ZM1135.88 317.949L1135.51 318.589L1136.26 318.735C1136.44 318.768 1136.6 318.772 1136.74 318.731C1136.88 318.691 1136.98 318.625 1137.04 318.528C1137.1 318.43 1137.09 318.344 1137.02 318.263C1136.94 318.185 1136.81 318.128 1136.64 318.092L1135.88 317.949ZM1142.4 321.587L1144.4 321.742L1144.68 320.54L1147.56 318.385L1145.28 318.206L1143.91 319.465L1143.17 318.043L1140.89 317.864L1142.67 320.377L1142.4 321.587ZM1149.3 318.365L1152.01 318.263C1153.85 318.194 1154.83 318.597 1154.93 319.477C1155.03 320.357 1154.15 320.83 1152.31 320.899L1151.65 320.923L1151.75 321.856L1149.71 321.934L1149.3 318.365ZM1152.9 319.554C1152.88 319.318 1152.61 319.212 1152.09 319.233L1151.44 319.257L1151.52 319.954L1152.17 319.929C1152.68 319.909 1152.92 319.787 1152.9 319.554ZM1161.54 317.24L1156.35 317.998L1156.79 319.004L1158.4 318.768L1159.48 321.233L1161.45 320.944L1160.37 318.479L1161.98 318.243L1161.54 317.24ZM1166.04 319.611C1165.26 319.436 1164.67 319.102 1164.26 318.609C1163.87 318.12 1163.81 317.644 1164.07 317.179C1164.34 316.715 1164.96 316.356 1165.93 316.091C1166.9 315.827 1167.77 315.786 1168.56 315.965C1169.35 316.14 1169.94 316.474 1170.34 316.967C1170.74 317.456 1170.8 317.933 1170.53 318.397C1170.26 318.862 1169.64 319.22 1168.68 319.485C1167.7 319.746 1166.83 319.787 1166.04 319.611ZM1168.57 318.096C1168.66 317.913 1168.62 317.709 1168.44 317.481C1168.25 317.252 1168.01 317.106 1167.7 317.032C1167.4 316.955 1167.07 316.967 1166.71 317.061C1166.35 317.159 1166.13 317.297 1166.03 317.485C1165.94 317.668 1165.98 317.872 1166.16 318.1C1166.35 318.328 1166.59 318.475 1166.9 318.548C1167.2 318.625 1167.53 318.613 1167.89 318.52C1168.24 318.422 1168.48 318.279 1168.57 318.096ZM1174.4 314.356C1174.55 314.616 1174.81 314.869 1175.18 315.118C1175.53 315.354 1175.92 315.529 1176.35 315.635C1176.76 315.745 1177.18 315.79 1177.59 315.774C1178 315.757 1178.39 315.7 1178.77 315.602C1179.15 315.505 1179.52 315.366 1179.86 315.195C1180.35 314.942 1180.73 314.657 1180.98 314.343L1179.75 313.529C1179.7 313.785 1179.41 314.046 1178.88 314.311C1178.54 314.482 1178.17 314.572 1177.79 314.592C1177.4 314.612 1177.05 314.519 1176.75 314.323C1176.41 314.099 1176.28 313.871 1176.35 313.643C1176.43 313.41 1176.64 313.207 1176.99 313.028C1177.42 312.808 1177.88 312.689 1178.37 312.657L1177.17 311.866C1176.59 311.968 1176.06 312.143 1175.55 312.396C1175.22 312.563 1174.95 312.75 1174.74 312.954C1174.53 313.158 1174.38 313.382 1174.3 313.614C1174.22 313.846 1174.26 314.095 1174.4 314.356ZM1184.36 312.363L1183.08 313.309L1179.6 310.066L1180.94 309.063L1187.25 310.196L1185.98 311.141L1185.17 310.974L1183.85 311.952L1184.36 312.363ZM1182.21 310.546L1182.99 311.21L1183.73 310.66L1182.42 310.392C1182.16 310.339 1181.92 310.273 1181.68 310.192C1181.85 310.29 1182.03 310.408 1182.21 310.546ZM1188.79 308.713L1189.69 307.654L1188.05 307.181L1188.26 306.937L1190.47 306.745L1191.47 305.584L1188.83 305.853C1188.81 305.397 1188.42 305.054 1187.64 304.83C1187.27 304.724 1186.92 304.675 1186.59 304.675C1186.26 304.68 1185.97 304.724 1185.71 304.818C1185.45 304.912 1185.22 305.026 1185.03 305.16C1184.83 305.299 1184.67 305.454 1184.5 305.637L1183.23 307.124L1188.79 308.713ZM1186.67 306.798L1185.63 306.497L1185.97 306.093C1186.06 305.987 1186.18 305.926 1186.32 305.894C1186.46 305.865 1186.61 305.869 1186.78 305.914C1186.94 305.959 1187.04 306.024 1187.09 306.11C1187.13 306.199 1187.11 306.293 1187.02 306.391L1186.67 306.798ZM1191.85 303.58C1191.12 303.816 1190.29 303.869 1189.39 303.73C1188.48 303.596 1187.8 303.319 1187.36 302.903C1186.92 302.492 1186.82 301.982 1187.1 301.384C1187.37 300.789 1187.87 300.369 1188.61 300.137C1189.34 299.901 1190.17 299.848 1191.07 299.986C1191.98 300.121 1192.66 300.398 1193.1 300.813C1193.54 301.225 1193.63 301.734 1193.36 302.333C1193.09 302.928 1192.59 303.339 1191.85 303.58ZM1191.45 301.49C1191.26 301.327 1190.96 301.217 1190.54 301.155C1190.13 301.094 1189.77 301.107 1189.48 301.192C1189.18 301.282 1188.98 301.437 1188.89 301.657C1188.79 301.877 1188.83 302.064 1189.01 302.227C1189.2 302.39 1189.5 302.5 1189.92 302.561C1190.33 302.622 1190.69 302.61 1190.98 302.524C1191.28 302.435 1191.48 302.28 1191.57 302.06C1191.67 301.84 1191.63 301.652 1191.45 301.49ZM1188.58 295.126L1188.48 296.299L1192.15 296.405C1192.7 296.417 1192.96 296.584 1192.93 296.91C1192.9 297.236 1192.62 297.383 1192.08 297.37L1188.38 297.269L1188.29 298.446L1192.08 298.552C1192.53 298.564 1192.94 298.532 1193.29 298.446C1193.63 298.365 1193.91 298.242 1194.11 298.092C1194.32 297.933 1194.48 297.766 1194.58 297.578C1194.69 297.387 1194.74 297.183 1194.76 296.959C1194.78 296.735 1194.76 296.527 1194.69 296.336C1194.62 296.148 1194.49 295.969 1194.31 295.802C1194.14 295.635 1193.88 295.505 1193.55 295.403C1193.22 295.301 1192.82 295.244 1192.36 295.232L1188.58 295.126ZM1190.2 293.814C1189.58 293.863 1189.08 293.777 1188.69 293.541C1188.3 293.308 1188.05 292.987 1187.95 292.583C1187.83 292.082 1187.88 291.634 1188.14 291.243L1189.89 291.096C1189.58 291.495 1189.48 291.903 1189.59 292.318C1189.64 292.526 1189.75 292.624 1189.94 292.608C1190.02 292.6 1190.09 292.563 1190.13 292.494C1190.18 292.424 1190.23 292.335 1190.25 292.233C1190.26 292.196 1190.27 292.157 1190.28 292.118L1190.28 292.117C1190.3 292.045 1190.32 291.968 1190.34 291.887C1190.37 291.756 1190.42 291.63 1190.49 291.5C1190.56 291.369 1190.64 291.247 1190.75 291.137C1190.85 291.027 1191.02 290.929 1191.24 290.848C1191.45 290.766 1191.69 290.713 1191.98 290.685C1193.3 290.575 1194.09 291.015 1194.34 292.005C1194.47 292.547 1194.4 293.027 1194.11 293.455L1192.29 293.606C1192.66 293.146 1192.79 292.693 1192.69 292.257C1192.65 292.107 1192.6 292.005 1192.54 291.952C1192.48 291.899 1192.39 291.874 1192.29 291.883C1192.19 291.891 1192.12 291.94 1192.07 292.029C1192.01 292.119 1191.97 292.233 1191.94 292.363C1191.92 292.498 1191.87 292.64 1191.81 292.799C1191.74 292.954 1191.66 293.105 1191.55 293.243C1191.45 293.382 1191.28 293.504 1191.04 293.61C1190.83 293.716 1190.54 293.789 1190.2 293.814ZM1185.77 287.332L1187.23 289.903L1193.12 288.782L1191.64 286.183L1190.09 286.476L1190.92 287.955L1190.23 288.09L1189.5 286.814L1188.07 287.087L1188.79 288.362L1188.12 288.493L1187.3 287.042L1185.77 287.332ZM1184.89 286.175L1183.93 285.132L1187.83 283.934L1186.58 282.589L1188.16 282.105L1190.36 284.492L1184.89 286.175ZM1172.68 276.276C1173.06 276.109 1173.38 275.881 1173.66 275.595C1173.93 275.326 1174.08 275.053 1174.11 274.801C1174.14 274.536 1174.08 274.296 1173.92 274.08C1173.76 273.864 1173.53 273.668 1173.24 273.493C1172.95 273.318 1172.61 273.167 1172.21 273.037C1171.63 272.849 1171.05 272.739 1170.45 272.711L1169.54 273.652C1169.97 273.595 1170.49 273.664 1171.1 273.864C1171.5 273.994 1171.77 274.161 1171.93 274.365C1172.08 274.569 1172.06 274.789 1171.83 275.017C1171.58 275.278 1171.26 275.428 1170.86 275.465C1170.46 275.498 1170.05 275.449 1169.64 275.318C1169.15 275.163 1168.8 274.952 1168.58 274.695L1167.69 275.616C1168.05 275.897 1168.52 276.129 1169.1 276.316C1169.49 276.435 1169.88 276.524 1170.28 276.569C1170.69 276.614 1171.1 276.614 1171.51 276.581C1171.91 276.545 1172.31 276.443 1172.68 276.276ZM1165.66 271.448L1167.6 271.819L1165.65 275.212L1162.92 274.691C1162.59 274.626 1162.3 274.548 1162.04 274.455C1161.77 274.361 1161.55 274.247 1161.36 274.112C1161.17 273.978 1161.04 273.815 1161 273.628C1160.96 273.44 1160.99 273.232 1161.12 273.012C1161.4 272.532 1161.93 272.259 1162.71 272.193L1161.87 270.719L1164.01 271.13L1164.64 272.365L1165.09 272.454L1165.66 271.448ZM1164.24 273.933L1164.61 273.293L1163.86 273.147C1163.68 273.114 1163.52 273.11 1163.38 273.151C1163.24 273.192 1163.14 273.257 1163.08 273.355C1163.02 273.452 1163.03 273.538 1163.1 273.619C1163.18 273.697 1163.31 273.754 1163.48 273.79L1164.24 273.933ZM1157.72 270.295L1155.72 270.14L1155.44 271.342L1152.56 273.497L1154.84 273.676L1156.21 272.417L1156.95 273.839L1159.23 274.019L1157.45 271.505L1157.72 270.295ZM1150.82 273.518L1148.11 273.619C1146.27 273.689 1145.29 273.285 1145.19 272.405C1145.09 271.525 1145.97 271.053 1147.81 270.983L1148.47 270.959L1148.37 270.026L1150.41 269.949L1150.82 273.518ZM1147.22 272.328C1147.24 272.564 1147.51 272.67 1148.03 272.65L1148.68 272.625L1148.6 271.929L1147.95 271.953C1147.44 271.973 1147.2 272.096 1147.22 272.328ZM1138.58 274.642L1143.77 273.884L1143.33 272.878L1141.72 273.114L1140.64 270.649L1138.67 270.939L1139.75 273.403L1138.14 273.64L1138.58 274.642ZM1134.08 272.271C1134.86 272.446 1135.45 272.78 1135.86 273.273C1136.25 273.762 1136.31 274.239 1136.05 274.703C1135.78 275.168 1135.16 275.526 1134.19 275.791C1133.22 276.056 1132.35 276.096 1131.56 275.917C1130.77 275.742 1130.18 275.408 1129.78 274.915C1129.38 274.426 1129.32 273.949 1129.59 273.485C1129.86 273.02 1130.48 272.662 1131.44 272.397C1132.42 272.136 1133.29 272.096 1134.08 272.271ZM1131.55 273.786C1131.46 273.97 1131.5 274.173 1131.68 274.402C1131.87 274.63 1132.11 274.776 1132.42 274.85C1132.72 274.927 1133.05 274.915 1133.41 274.821C1133.77 274.723 1133.99 274.585 1134.09 274.398C1134.18 274.214 1134.14 274.01 1133.96 273.782C1133.77 273.554 1133.53 273.408 1133.22 273.334C1132.92 273.257 1132.59 273.269 1132.23 273.363C1131.88 273.46 1131.64 273.603 1131.55 273.786ZM1125.72 277.527C1125.57 277.266 1125.31 277.013 1124.94 276.765C1124.59 276.528 1124.2 276.353 1123.77 276.247C1123.36 276.137 1122.94 276.092 1122.53 276.109C1122.12 276.125 1121.73 276.182 1121.35 276.28C1120.97 276.378 1120.6 276.516 1120.26 276.687C1119.77 276.94 1119.38 277.225 1119.14 277.539L1120.37 278.354C1120.42 278.097 1120.71 277.836 1121.24 277.571C1121.58 277.4 1121.95 277.311 1122.33 277.29C1122.72 277.27 1123.07 277.364 1123.36 277.559C1123.71 277.783 1123.84 278.011 1123.77 278.239C1123.69 278.472 1123.48 278.675 1123.12 278.855C1122.7 279.075 1122.24 279.193 1121.75 279.225L1122.95 280.016C1123.53 279.914 1124.06 279.739 1124.57 279.486C1124.9 279.319 1125.17 279.132 1125.38 278.928C1125.59 278.724 1125.74 278.5 1125.82 278.268C1125.9 278.036 1125.86 277.787 1125.72 277.527ZM1115.76 279.519L1117.03 278.574L1120.52 281.817L1119.18 282.819L1112.87 281.686L1114.14 280.741L1114.95 280.908L1116.27 279.93L1115.76 279.519ZM1117.91 281.336L1117.13 280.672L1116.39 281.222L1117.7 281.491C1117.96 281.544 1118.2 281.609 1118.44 281.69C1118.27 281.593 1118.09 281.474 1117.91 281.336ZM1111.33 283.169L1110.43 284.229L1112.07 284.701L1111.86 284.946L1109.65 285.137L1108.65 286.298L1111.29 286.029C1111.31 286.486 1111.7 286.828 1112.48 287.052C1112.85 287.158 1113.2 287.207 1113.53 287.207C1113.86 287.203 1114.15 287.158 1114.41 287.064C1114.67 286.97 1114.9 286.856 1115.09 286.722C1115.29 286.583 1115.45 286.429 1115.62 286.245L1116.89 284.758L1111.33 283.169ZM1113.45 285.084L1114.49 285.386L1114.15 285.789C1114.06 285.895 1113.94 285.956 1113.8 285.989C1113.65 286.017 1113.51 286.013 1113.34 285.968C1113.18 285.923 1113.08 285.858 1113.03 285.773C1112.99 285.683 1113.01 285.589 1113.1 285.492L1113.45 285.084ZM1108.27 288.303C1109 288.066 1109.83 288.013 1110.73 288.152C1111.64 288.286 1112.32 288.563 1112.76 288.979C1113.2 289.39 1113.29 289.9 1113.02 290.499C1112.75 291.093 1112.25 291.513 1111.51 291.745C1110.78 291.982 1109.95 292.035 1109.05 291.896C1108.14 291.762 1107.46 291.485 1107.02 291.069C1106.58 290.658 1106.49 290.148 1106.76 289.549C1107.03 288.955 1107.53 288.543 1108.27 288.303ZM1108.67 290.393C1108.86 290.556 1109.16 290.666 1109.58 290.727C1109.99 290.788 1110.35 290.776 1110.64 290.69C1110.94 290.6 1111.14 290.446 1111.23 290.226C1111.33 290.006 1111.29 289.818 1111.11 289.655C1110.92 289.492 1110.62 289.382 1110.2 289.321C1109.79 289.26 1109.43 289.272 1109.14 289.358C1108.84 289.448 1108.64 289.602 1108.55 289.822C1108.45 290.042 1108.49 290.23 1108.67 290.393ZM1111.54 296.757L1111.64 295.583L1107.97 295.477C1107.42 295.465 1107.16 295.298 1107.19 294.972C1107.22 294.646 1107.5 294.5 1108.04 294.512L1111.74 294.614L1111.83 293.436L1108.04 293.33C1107.59 293.318 1107.18 293.351 1106.83 293.436C1106.49 293.518 1106.21 293.64 1106.01 293.791C1105.8 293.949 1105.64 294.117 1105.54 294.304C1105.43 294.495 1105.38 294.699 1105.36 294.923C1105.34 295.147 1105.36 295.355 1105.43 295.547C1105.5 295.734 1105.63 295.913 1105.81 296.08C1105.98 296.247 1106.24 296.378 1106.57 296.48C1106.9 296.581 1107.3 296.638 1107.76 296.651L1111.54 296.757ZM1109.91 298.069C1110.54 298.02 1111.04 298.105 1111.43 298.342C1111.82 298.574 1112.07 298.896 1112.17 299.299C1112.29 299.8 1112.24 300.248 1111.98 300.639L1110.23 300.786C1110.54 300.387 1110.64 299.979 1110.53 299.564C1110.48 299.356 1110.37 299.258 1110.18 299.274C1110.1 299.283 1110.03 299.319 1109.99 299.389C1109.94 299.458 1109.89 299.547 1109.87 299.649C1109.86 299.686 1109.85 299.724 1109.84 299.763L1109.84 299.764L1109.84 299.764L1109.84 299.764C1109.82 299.837 1109.8 299.914 1109.78 299.996C1109.75 300.126 1109.7 300.252 1109.63 300.383C1109.56 300.513 1109.48 300.635 1109.37 300.745C1109.27 300.855 1109.1 300.953 1108.88 301.035C1108.67 301.116 1108.43 301.169 1108.14 301.197C1106.82 301.308 1106.03 300.867 1105.78 299.877C1105.65 299.336 1105.72 298.855 1106.01 298.427L1107.83 298.276C1107.46 298.737 1107.33 299.189 1107.43 299.625C1107.47 299.776 1107.52 299.877 1107.58 299.93C1107.64 299.983 1107.73 300.008 1107.83 300C1107.92 299.992 1108 299.943 1108.05 299.853C1108.11 299.763 1108.15 299.649 1108.18 299.519C1108.2 299.384 1108.25 299.242 1108.31 299.083C1108.38 298.928 1108.46 298.777 1108.57 298.639C1108.67 298.5 1108.84 298.378 1109.08 298.272C1109.29 298.166 1109.58 298.093 1109.91 298.069ZM1114.35 304.551L1112.89 301.98L1107 303.1L1108.48 305.699L1110.03 305.406L1109.2 303.927L1109.89 303.793L1110.62 305.068L1112.05 304.795L1111.33 303.52L1112 303.389L1112.82 304.84L1114.35 304.551ZM1115.23 305.708L1116.19 306.751L1112.29 307.948L1113.53 309.293L1111.96 309.778L1109.76 307.39L1115.23 305.708ZM1180.59 279.99C1181.61 279.399 1181.61 278.441 1180.59 277.85C1179.56 277.26 1177.9 277.26 1176.88 277.85C1175.86 278.441 1175.86 279.399 1176.88 279.99C1177.9 280.581 1179.56 280.581 1180.59 279.99ZM1122.37 311.46C1123.4 312.051 1123.4 313.009 1122.37 313.6C1121.35 314.191 1119.69 314.191 1118.67 313.6C1117.64 313.009 1117.64 312.051 1118.67 311.46C1119.69 310.869 1121.35 310.869 1122.37 311.46Z" fill="#9E00FF"/>
</g>
<defs>
<filter id="filter0_d_960_9" x="343" y="278" width="262" height="117" filterUnits="userSpaceOnUse" color-interpolation-filters="sRGB">
<feFlood flood-opacity="0" result="BackgroundImageFix"/>
<feColorMatrix in="SourceAlpha" type="matrix" values="0 0 0 0 0 0 0 0 0 0 0 0 0 0 0 0 0 0 127 0" result="hardAlpha"/>
<feOffset dy="6"/>
<feGaussianBlur stdDeviation="12.5"/>
<feComposite in2="hardAlpha" operator="out"/>
<feColorMatrix type="matrix" values="0 0 0 0 1 0 0 0 0 0.0705882 0 0 0 0 0.498039 0 0 0 1 0"/>
<feBlend mode="normal" in2="BackgroundImageFix" result="effect1_dropShadow_960_9"/>
<feBlend mode="normal" in="SourceGraphic" in2="effect1_dropShadow_960_9" result="shape"/>
</filter>
<filter id="filter1_d_960_9" x="1019" y="278" width="262" height="117" filterUnits="userSpaceOnUse" color-interpolation-filters="sRGB">
<feFlood flood-opacity="0" result="BackgroundImageFix"/>
<feColorMatrix in="SourceAlpha" type="matrix" values="0 0 0 0 0 0 0 0 0 0 0 0 0 0 0 0 0 0 127 0" result="hardAlpha"/>
<feOffset dy="6"/>
<feGaussianBlur stdDeviation="12.5"/>
<feComposite in2="hardAlpha" operator="out"/>
<feColorMatrix type="matrix" values="0 0 0 0 0.920833 0 0 0 0 0.556337 0 0 0 0 0.884384 0 0 0 1 0"/>
<feBlend mode="normal" in2="BackgroundImageFix" result="effect1_dropShadow_960_9"/>
<feBlend mode="normal" in="SourceGraphic" in2="effect1_dropShadow_960_9" result="shape"/>
</filter>
<filter id="filter2_d_960_9" x="675" y="109" width="261" height="120" filterUnits="userSpaceOnUse" color-interpolation-filters="sRGB">
<feFlood flood-opacity="0" result="BackgroundImageFix"/>
<feColorMatrix in="SourceAlpha" type="matrix" values="0 0 0 0 0 0 0 0 0 0 0 0 0 0 0 0 0 0 127 0" result="hardAlpha"/>
<feOffset dy="6"/>
<feGaussianBlur stdDeviation="12.5"/>
<feComposite in2="hardAlpha" operator="out"/>
<feColorMatrix type="matrix" values="0 0 0 0 0.689443 0 0 0 0 0.429167 0 0 0 0 1 0 0 0 1 0"/>
<feBlend mode="normal" in2="BackgroundImageFix" result="effect1_dropShadow_960_9"/>
<feBlend mode="normal" in="SourceGraphic" in2="effect1_dropShadow_960_9" result="shape"/>
</filter>
<filter id="filter3_d_960_9" x="0" y="109" width="260" height="120" filterUnits="userSpaceOnUse" color-interpolation-filters="sRGB">
<feFlood flood-opacity="0" result="BackgroundImageFix"/>
<feColorMatrix in="SourceAlpha" type="matrix" values="0 0 0 0 0 0 0 0 0 0 0 0 0 0 0 0 0 0 127 0" result="hardAlpha"/>
<feOffset dy="6"/>
<feGaussianBlur stdDeviation="12.5"/>
<feComposite in2="hardAlpha" operator="out"/>
<feColorMatrix type="matrix" values="0 0 0 0 0.521569 0 0 0 0 0.811765 0 0 0 0 1 0 0 0 1 0"/>
<feBlend mode="normal" in2="BackgroundImageFix" result="effect1_dropShadow_960_9"/>
<feBlend mode="normal" in="SourceGraphic" in2="effect1_dropShadow_960_9" result="shape"/>
</filter>
<filter id="filter4_d_960_9" x="402.347" y="242.683" width="144.359" height="102.788" filterUnits="userSpaceOnUse" color-interpolation-filters="sRGB">
<feFlood flood-opacity="0" result="BackgroundImageFix"/>
<feColorMatrix in="SourceAlpha" type="matrix" values="0 0 0 0 0 0 0 0 0 0 0 0 0 0 0 0 0 0 127 0" result="hardAlpha"/>
<feOffset/>
<feGaussianBlur stdDeviation="11.5"/>
<feComposite in2="hardAlpha" operator="out"/>
<feColorMatrix type="matrix" values="0 0 0 0 1 0 0 0 0 1 0 0 0 0 1 0 0 0 0.5 0"/>
<feBlend mode="normal" in2="BackgroundImageFix" result="effect1_dropShadow_960_9"/>
<feBlend mode="normal" in="SourceGraphic" in2="effect1_dropShadow_960_9" result="shape"/>
</filter>
<filter id="filter5_d_960_9" x="732.624" y="76.5305" width="144.359" height="102.788" filterUnits="userSpaceOnUse" color-interpolation-filters="sRGB">
<feFlood flood-opacity="0" result="BackgroundImageFix"/>
<feColorMatrix in="SourceAlpha" type="matrix" values="0 0 0 0 0 0 0 0 0 0 0 0 0 0 0 0 0 0 127 0" result="hardAlpha"/>
<feOffset/>
<feGaussianBlur stdDeviation="11.5"/>
<feComposite in2="hardAlpha" operator="out"/>
<feColorMatrix type="matrix" values="0 0 0 0 1 0 0 0 0 1 0 0 0 0 1 0 0 0 0.5 0"/>
<feBlend mode="normal" in2="BackgroundImageFix" result="effect1_dropShadow_960_9"/>
<feBlend mode="normal" in="SourceGraphic" in2="effect1_dropShadow_960_9" result="shape"/>
</filter>
<filter id="filter6_d_960_9" x="1078.1" y="244.709" width="144.359" height="102.788" filterUnits="userSpaceOnUse" color-interpolation-filters="sRGB">
<feFlood flood-opacity="0" result="BackgroundImageFix"/>
<feColorMatrix in="SourceAlpha" type="matrix" values="0 0 0 0 0 0 0 0 0 0 0 0 0 0 0 0 0 0 127 0" result="hardAlpha"/>
<feOffset/>
<feGaussianBlur stdDeviation="11.5"/>
<feComposite in2="hardAlpha" operator="out"/>
<feColorMatrix type="matrix" values="0 0 0 0 1 0 0 0 0 1 0 0 0 0 1 0 0 0 0.5 0"/>
<feBlend mode="normal" in2="BackgroundImageFix" result="effect1_dropShadow_960_9"/>
<feBlend mode="normal" in="SourceGraphic" in2="effect1_dropShadow_960_9" result="shape"/>
</filter>
</defs>
</svg>
