<svg width="603" height="301" viewBox="0 0 603 301" fill="none" xmlns="http://www.w3.org/2000/svg">
<g style="mix-blend-mode:overlay">
<path d="M37.9995 196.1C34.3995 183.5 32.5995 169.8 32.5995 155C32.5995 140.2 34.3995 126.6 37.9995 114.2C41.7995 101.6 47.3995 90.3 54.7995 80.2999C62.3995 70.2999 72.4996 62.4999 85.0996 56.8999C97.8996 51.0999 112.6 48.2 129.2 48.2C145.8 48.2 160.4 51.0999 173 56.8999C185.6 62.4999 195.6 70.2999 203 80.2999C210.6 90.3 216.2 101.6 219.8 114.2C223.6 126.6 225.5 140.2 225.5 155C225.5 169.8 223.6 183.5 219.8 196.1C216.2 208.5 210.6 219.7 203 229.7C195.6 239.7 185.6 247.6 173 253.4C160.4 259 145.8 261.8 129.2 261.8C112.6 261.8 97.8996 259 85.0996 253.4C72.4996 247.6 62.3995 239.7 54.7995 229.7C47.3995 219.7 41.7995 208.5 37.9995 196.1ZM149.9 191C154.3 183.4 156.5 171.4 156.5 155C156.5 138.6 154.3 126.7 149.9 119.3C145.5 111.7 138.6 107.9 129.2 107.9C119.6 107.9 112.6 111.6 108.2 119C103.8 126.4 101.6 138.4 101.6 155C101.6 171.6 103.8 183.6 108.2 191C112.6 198.4 119.6 202.1 129.2 202.1C138.6 202.1 145.5 198.4 149.9 191Z" fill="white"/>
<path d="M251.609 70.1C274.609 55.4999 300.109 48.2 328.109 48.2C351.309 48.2 370.509 53.6 385.709 64.4C401.109 75.2 408.809 91.8 408.809 114.2C408.809 127.6 405.409 138.8 398.609 147.8C392.009 156.8 382.709 165.3 370.709 173.3C368.709 174.5 365.009 176.9 359.609 180.5C354.409 184.1 350.709 186.6 348.509 188C346.509 189.4 344.009 191.3 341.009 193.7C338.009 196.1 335.809 198.3 334.409 200.3H409.109V256.7H245.309V228.8C245.309 218.8 246.609 209.9 249.209 202.1C252.009 194.3 256.809 187 263.609 180.2C270.409 173.4 275.609 168.7 279.209 166.1C282.809 163.3 289.509 158.7 299.309 152.3C299.709 151.9 300.009 151.7 300.209 151.7C300.409 151.5 300.709 151.3 301.109 151.1C301.509 150.7 301.809 150.4 302.009 150.2C302.409 150 302.809 149.8 303.209 149.6C306.409 147.4 310.609 144.8 315.809 141.8C321.209 138.6 325.109 136.2 327.509 134.6C330.109 133 332.409 130.9 334.409 128.3C336.609 125.7 337.709 122.9 337.709 119.9C337.709 111.3 331.209 107 318.209 107C296.809 107 274.609 115.6 251.609 132.8V70.1Z" fill="white"/>
</g>
<mask id="path-2-inside-1_5_294" fill="white">
<path fill-rule="evenodd" clip-rule="evenodd" d="M581.53 11.8842L570.312 1.35443C569.385 0.484317 568.161 0 566.89 0H531.069H459.841H317.384L5.52356 3.92415e-06C2.76214 3.9589e-06 0.52356 2.23859 0.52356 5.00001V73.0613C0.52356 73.2059 0.406357 73.3231 0.26178 73.3231V73.3231C0.117203 73.3231 0 73.4403 0 73.5849V186.732V243.437V266.885C0 268.28 0.582634 269.611 1.60719 270.558L20.7673 288.257L31.9851 298.787C32.9121 299.657 34.1357 300.142 35.4071 300.142H71.2281H142.456H247.486C247.619 300.142 247.727 300.25 247.727 300.383V300.383C247.727 300.516 247.836 300.625 247.969 300.625H597.297C600.058 300.625 602.297 298.386 602.297 295.625V187.215V130.511V104.875V73.806L602.297 56.7046V33.2567C602.297 31.8619 601.714 30.5305 600.69 29.584L581.53 11.8842Z"/>
</mask>
<path d="M581.53 11.8842L580.172 13.3533L580.167 13.3479L580.161 13.3424L581.53 11.8842ZM317.384 0V-2V0ZM20.7673 288.257L22.1244 286.788L22.1302 286.794L22.1361 286.799L20.7673 288.257ZM602.297 73.806L604.297 73.806V73.806H602.297ZM602.297 56.7046L600.297 56.7046V56.7046H602.297ZM600.69 29.584L602.047 28.1149L600.69 29.584ZM31.9851 298.787L33.3539 297.329L31.9851 298.787ZM1.60719 270.558L0.250072 272.027L1.60719 270.558ZM570.312 1.35443L571.681 -0.103792L570.312 1.35443ZM571.681 -0.103792L582.898 10.426L580.161 13.3424L568.943 2.81266L571.681 -0.103792ZM531.069 -2H566.89V2H531.069V-2ZM459.841 -2H531.069V2H459.841V-2ZM317.384 -2H459.841V2H317.384V-2ZM5.52356 -2L317.384 -2L317.384 2L5.52356 2L5.52356 -2ZM-1.47644 73.0613V5.00001H2.52356V73.0613H-1.47644ZM-2 186.732V73.5849H2V186.732H-2ZM-2 243.437V186.732H2V243.437H-2ZM-2 266.885V243.437H2V266.885H-2ZM19.4102 289.727L0.250072 272.027L2.96432 269.089L22.1244 286.788L19.4102 289.727ZM30.6163 300.245L19.3985 289.716L22.1361 286.799L33.3539 297.329L30.6163 300.245ZM71.2281 302.142H35.4071V298.142H71.2281V302.142ZM142.456 302.142H71.2281V298.142H142.456V302.142ZM247.486 302.142H142.456V298.142H247.486V302.142ZM597.297 302.625H247.969V298.625H597.297V302.625ZM604.297 187.215V295.625H600.297V187.215H604.297ZM604.297 130.511V187.215H600.297V130.511H604.297ZM604.297 104.875V130.511H600.297V104.875H604.297ZM604.297 73.806V104.875H600.297V73.806H604.297ZM604.297 56.7046L604.297 73.806L600.297 73.806L600.297 56.7046L604.297 56.7046ZM604.297 33.2567V56.7046H600.297V33.2567H604.297ZM582.887 10.4151L602.047 28.1149L599.332 31.0531L580.172 13.3533L582.887 10.4151ZM247.486 298.142C248.724 298.142 249.727 299.145 249.727 300.383H245.727C245.727 301.354 246.515 302.142 247.486 302.142V298.142ZM600.297 33.2567C600.297 32.4198 599.947 31.621 599.332 31.0531L602.047 28.1149C603.481 29.44 604.297 31.304 604.297 33.2567H600.297ZM33.3539 297.329C33.9101 297.851 34.6442 298.142 35.4071 298.142V302.142C33.6272 302.142 31.9141 301.464 30.6163 300.245L33.3539 297.329ZM0.26178 75.3231C1.22174 75.3231 2 74.5449 2 73.5849H-2C-2 72.3357 -0.987338 71.3231 0.26178 71.3231V75.3231ZM597.297 298.625C598.954 298.625 600.297 297.281 600.297 295.625H604.297C604.297 299.491 601.163 302.625 597.297 302.625V298.625ZM2.52356 73.0613C2.52356 74.3105 1.51093 75.3231 0.26178 75.3231V71.3231C-0.698213 71.3231 -1.47644 72.1013 -1.47644 73.0613H2.52356ZM2 266.885C2 267.722 2.34958 268.521 2.96432 269.089L0.250072 272.027C-1.18431 270.702 -2 268.838 -2 266.885H2ZM249.727 300.383C249.727 299.412 248.94 298.625 247.969 298.625V302.625C246.731 302.625 245.727 301.621 245.727 300.383H249.727ZM5.52356 2C3.86671 2 2.52356 3.34315 2.52356 5.00001H-1.47644C-1.47644 1.13402 1.65756 -2 5.52356 -2L5.52356 2ZM568.943 2.81266C568.387 2.29059 567.653 2 566.89 2V-2C568.67 -2 570.383 -1.32196 571.681 -0.103792L568.943 2.81266Z" fill="url(#paint0_linear_5_294)" mask="url(#path-2-inside-1_5_294)"/>
<defs>
<linearGradient id="paint0_linear_5_294" x1="-1.79498e-05" y1="4.85785e-05" x2="627.68" y2="231.929" gradientUnits="userSpaceOnUse">
<stop offset="0.302083" stop-color="#FF127F"/>
<stop offset="0.458285" stop-color="#FF89BF"/>
<stop offset="0.625" stop-color="#FF1580"/>
</linearGradient>
</defs>
</svg>
