<svg width="603" height="301" viewBox="0 0 603 301" fill="none" xmlns="http://www.w3.org/2000/svg">
<g style="mix-blend-mode:overlay">
<path d="M37.9995 195.1C34.3995 182.5 32.5995 168.8 32.5995 154C32.5995 139.2 34.3995 125.6 37.9995 113.2C41.7995 100.6 47.3995 89.3 54.7995 79.3C62.3995 69.3 72.4996 61.5 85.0996 55.9C97.8996 50.1 112.6 47.2 129.2 47.2C145.8 47.2 160.4 50.1 173 55.9C185.6 61.5 195.6 69.3 203 79.3C210.6 89.3 216.2 100.6 219.8 113.2C223.6 125.6 225.5 139.2 225.5 154C225.5 168.8 223.6 182.5 219.8 195.1C216.2 207.5 210.6 218.7 203 228.7C195.6 238.7 185.6 246.6 173 252.4C160.4 258 145.8 260.8 129.2 260.8C112.6 260.8 97.8996 258 85.0996 252.4C72.4996 246.6 62.3995 238.7 54.7995 228.7C47.3995 218.7 41.7995 207.5 37.9995 195.1ZM149.9 190C154.3 182.4 156.5 170.4 156.5 154C156.5 137.6 154.3 125.7 149.9 118.3C145.5 110.7 138.6 106.9 129.2 106.9C119.6 106.9 112.6 110.6 108.2 118C103.8 125.4 101.6 137.4 101.6 154C101.6 170.6 103.8 182.6 108.2 190C112.6 197.4 119.6 201.1 129.2 201.1C138.6 201.1 145.5 197.4 149.9 190Z" fill="white"/>
<path d="M336.509 52H404.309V175H429.809V228.7H404.309V256H341.909V228.7H240.509V173.5L336.509 52ZM341.909 175V127.3L303.809 175H341.909Z" fill="white"/>
</g>
<mask id="path-2-inside-1_5_306" fill="white">
<path fill-rule="evenodd" clip-rule="evenodd" d="M581.53 289.116L570.312 299.646C569.385 300.516 568.161 301 566.89 301H531.069H459.841H317.384L5.52356 301C2.76214 301 0.52356 298.761 0.52356 296V227.939C0.52356 227.794 0.406357 227.677 0.26178 227.677V227.677C0.117203 227.677 0 227.56 0 227.415V114.268V57.563V34.1151C0 32.7203 0.582634 31.3889 1.60719 30.4424L20.7673 12.7426L31.9851 2.21283C32.9121 1.34272 34.1357 0.858398 35.4071 0.858398H71.2281H142.456H247.486C247.619 0.858398 247.727 0.750295 247.727 0.616943V0.616943C247.727 0.483591 247.836 0.375488 247.969 0.375488H597.297C600.058 0.375488 602.297 2.61407 602.297 5.37549V113.785V170.489V196.125V227.194L602.297 244.295V267.743C602.297 269.138 601.714 270.47 600.69 271.416L581.53 289.116Z"/>
</mask>
<path d="M581.53 289.116L580.172 287.647L580.167 287.652L580.161 287.658L581.53 289.116ZM317.384 301V303V301ZM20.7673 12.7426L22.1244 14.2117L22.1302 14.2063L22.1361 14.2008L20.7673 12.7426ZM602.297 227.194L604.297 227.194V227.194H602.297ZM602.297 244.295L600.297 244.295V244.295H602.297ZM600.69 271.416L602.047 272.885L600.69 271.416ZM31.9851 2.21283L33.3539 3.67106L31.9851 2.21283ZM1.60719 30.4424L0.250072 28.9733L1.60719 30.4424ZM570.312 299.646L571.681 301.104L570.312 299.646ZM571.681 301.104L582.898 290.574L580.161 287.658L568.943 298.187L571.681 301.104ZM531.069 303H566.89V299H531.069V303ZM459.841 303H531.069V299H459.841V303ZM317.384 303H459.841V299H317.384V303ZM5.52356 303L317.384 303L317.384 299L5.52356 299L5.52356 303ZM-1.47644 227.939V296H2.52356V227.939H-1.47644ZM-2 114.268V227.415H2V114.268H-2ZM-2 57.563V114.268H2V57.563H-2ZM-2 34.1151V57.563H2V34.1151H-2ZM19.4102 11.2735L0.250072 28.9733L2.96432 31.9115L22.1244 14.2117L19.4102 11.2735ZM30.6163 0.754605L19.3985 11.2844L22.1361 14.2008L33.3539 3.67106L30.6163 0.754605ZM71.2281 -1.1416H35.4071V2.8584H71.2281V-1.1416ZM142.456 -1.1416H71.2281V2.8584H142.456V-1.1416ZM247.486 -1.1416H142.456V2.8584H247.486V-1.1416ZM597.297 -1.62451H247.969V2.37549H597.297V-1.62451ZM604.297 113.785V5.37549H600.297V113.785H604.297ZM604.297 170.489V113.785H600.297V170.489H604.297ZM604.297 196.125V170.489H600.297V196.125H604.297ZM604.297 227.194V196.125H600.297V227.194H604.297ZM604.297 244.295L604.297 227.194L600.297 227.194L600.297 244.295L604.297 244.295ZM604.297 267.743V244.295H600.297V267.743H604.297ZM582.887 290.585L602.047 272.885L599.332 269.947L580.172 287.647L582.887 290.585ZM247.486 2.8584C248.724 2.8584 249.727 1.85486 249.727 0.616943H245.727C245.727 -0.354274 246.515 -1.1416 247.486 -1.1416V2.8584ZM600.297 267.743C600.297 268.58 599.947 269.379 599.332 269.947L602.047 272.885C603.481 271.56 604.297 269.696 604.297 267.743H600.297ZM33.3539 3.67106C33.9101 3.14899 34.6442 2.8584 35.4071 2.8584V-1.1416C33.6272 -1.1416 31.9141 -0.463558 30.6163 0.754605L33.3539 3.67106ZM0.26178 225.677C1.22174 225.677 2 226.455 2 227.415H-2C-2 228.664 -0.987338 229.677 0.26178 229.677V225.677ZM597.297 2.37549C598.954 2.37549 600.297 3.71864 600.297 5.37549H604.297C604.297 1.5095 601.163 -1.62451 597.297 -1.62451V2.37549ZM2.52356 227.939C2.52356 226.69 1.51093 225.677 0.26178 225.677V229.677C-0.698213 229.677 -1.47644 228.899 -1.47644 227.939H2.52356ZM2 34.1151C2 33.2782 2.34958 32.4794 2.96432 31.9115L0.250072 28.9733C-1.18431 30.2984 -2 32.1624 -2 34.1151H2ZM249.727 0.616943C249.727 1.58817 248.94 2.37549 247.969 2.37549V-1.62451C246.731 -1.62451 245.727 -0.620985 245.727 0.616943H249.727ZM5.52356 299C3.86671 299 2.52356 297.657 2.52356 296H-1.47644C-1.47644 299.866 1.65756 303 5.52356 303L5.52356 299ZM568.943 298.187C568.387 298.709 567.653 299 566.89 299V303C568.67 303 570.383 302.322 571.681 301.104L568.943 298.187Z" fill="url(#paint0_linear_5_306)" mask="url(#path-2-inside-1_5_306)"/>
<defs>
<linearGradient id="paint0_linear_5_306" x1="-1.79498e-05" y1="301" x2="627.68" y2="69.0711" gradientUnits="userSpaceOnUse">
<stop offset="0.302083" stop-color="#FF127F"/>
<stop offset="0.458285" stop-color="#FF89BF"/>
<stop offset="0.625" stop-color="#FF1580"/>
</linearGradient>
</defs>
</svg>
