<svg width="530" height="82" viewBox="0 0 530 82" fill="none" xmlns="http://www.w3.org/2000/svg">
<path d="M492.764 1.47697C491.825 0.531644 490.548 0 489.216 0H40.7851C39.4525 0 38.1751 0.531929 37.2363 1.47771L1.49316 37.4891C-0.440733 39.4375 -0.442032 42.5807 1.49025 44.5308L37.1517 80.5194C38.0907 81.4669 39.3694 82 40.7034 82H489.215C490.547 82 491.825 81.4681 492.764 80.5223L528.503 44.5145C530.439 42.5647 530.438 39.4187 528.503 37.4692L492.764 1.47697ZM490.157 74.3693C489.218 75.3161 487.94 75.8487 486.607 75.8487H43.2267C41.8924 75.8487 40.6136 75.3154 39.6746 74.3676L10.1193 44.5325C8.18682 42.5817 8.18912 39.4375 10.1244 37.4896L39.7595 7.66114C40.6981 6.71641 41.9748 6.18515 43.3065 6.18515H486.705C488.04 6.18515 489.319 6.71877 490.258 7.66719L519.768 37.471C521.698 39.4205 521.697 42.5614 519.766 44.5095L490.157 74.3693Z" fill="url(#paint0_linear_327_576)"/>
<defs>
<linearGradient id="paint0_linear_327_576" x1="-0.946442" y1="6.41732" x2="4.5752" y2="110.011" gradientUnits="userSpaceOnUse">
<stop stop-color="#FF127F"/>
<stop offset="1" stop-color="#7C1DC9"/>
</linearGradient>
</defs>
</svg>
