<svg width="302" height="245" viewBox="0 0 302 245" fill="none" xmlns="http://www.w3.org/2000/svg">
<path d="M21.1707 13H4C2.34315 13 1 14.3431 1 16V241C1 242.657 2.34315 244 4 244H108.515C109.52 244 110.459 243.496 111.015 242.658L118.244 231.754C118.8 230.916 119.739 230.412 120.744 230.412H168.196C170.589 230.412 172.019 233.075 170.697 235.07L167.864 239.342C166.542 241.336 167.972 244 170.364 244H289C290.657 244 292 242.657 292 241V149.5C292 147.843 293.343 146.5 295 146.5H298C299.657 146.5 301 145.157 301 143.5V37.0909C301 35.4341 299.657 34.0909 298 34.0909H276.5C274.843 34.0909 273.5 32.7478 273.5 31.0909V19.5C273.5 17.8431 272.157 16.5 270.5 16.5H259.233" stroke="#FF127F"/>
<path d="M21.9605 5.35192C22.286 2.8622 24.4075 1 26.9184 1H43.3039C46.3226 1 48.653 3.65476 48.2617 6.64808L46.0395 23.6481C45.714 26.1378 43.5925 28 41.0816 28H24.6961C21.6774 28 19.347 25.3452 19.7383 22.3519L21.9605 5.35192Z" stroke="#FF127F"/>
<path d="M34.2725 9.86328V19.136" stroke="white"/>
<path d="M29.9092 14.2269H39.1819" stroke="white"/>
<path fill-rule="evenodd" clip-rule="evenodd" d="M252 16.405L257.405 21.8101H260.267L254.861 16.405L260.267 11H257.405L252 16.405Z" fill="#FF127F"/>
<path fill-rule="evenodd" clip-rule="evenodd" d="M257.087 16.405L262.492 21.8101H265.354L259.949 16.405L265.354 11H262.492L257.087 16.405Z" fill="#FF127F"/>
</svg>