<svg width="222" height="42" viewBox="0 0 222 42" fill="none" xmlns="http://www.w3.org/2000/svg">
<path d="M63.1538 38.9083L43 1H169.5H196.75H199.697C200.807 1 201.825 1.61219 202.346 2.59172L220.156 36.0917C221.219 38.0899 219.77 40.5 217.507 40.5H65.8027C64.6933 40.5 63.6745 39.8878 63.1538 38.9083Z" fill="#1B183A"/>
<path d="M0 1H10.75H21.5H43M43 1L63.1538 38.9083C63.6745 39.8878 64.6933 40.5 65.8027 40.5H217.507C219.77 40.5 221.219 38.0899 220.156 36.0917L202.346 2.59172C201.825 1.61219 200.807 1 199.697 1L196.75 1H169.5L43 1Z" stroke="#FF127F" stroke-width="2"/>
</svg>
