<svg width="214" height="42" viewBox="0 0 214 42" fill="none" xmlns="http://www.w3.org/2000/svg">
<path d="M63.1538 38.9083L43 1H173H191.697C192.807 1 193.825 1.61219 194.346 2.59172L212.156 36.0917C213.219 38.0899 211.77 40.5 209.507 40.5H65.8027C64.6933 40.5 63.6745 39.8878 63.1538 38.9083Z" fill="#1B183A"/>
<path d="M0 1H10.75H21.5H43M43 1L63.1538 38.9083C63.6745 39.8878 64.6933 40.5 65.8027 40.5H209.507C211.77 40.5 213.219 38.0899 212.156 36.0917L194.346 2.59172C193.825 1.61219 192.807 1 191.697 1H173H192.5H43Z" stroke="#FF127F" stroke-width="2"/>
</svg>
