<svg width="184" height="42" viewBox="0 0 184 42" fill="none" xmlns="http://www.w3.org/2000/svg">
<path d="M63.1538 38.9083L43 1H110.5H137.75H161.197C162.307 1 163.325 1.61219 163.846 2.59172L181.656 36.0917C182.719 38.0899 181.27 40.5 179.007 40.5H65.8027C64.6933 40.5 63.6745 39.8878 63.1538 38.9083Z" fill="#1B183A"/>
<path d="M0 1H10.75H21.5H43M43 1L63.1538 38.9083C63.6745 39.8878 64.6933 40.5 65.8027 40.5H179.007C181.27 40.5 182.719 38.0899 181.656 36.0917L163.846 2.59172C163.325 1.61219 162.307 1 161.197 1H137.75H110.5L43 1Z" stroke="#FF127F" stroke-width="2"/>
</svg>
