<svg width="27" height="27" viewBox="0 0 27 27" fill="none" xmlns="http://www.w3.org/2000/svg">
<path d="M8.25 1H18.75C22.75 1 26 4.25 26 8.25V18.75C26 20.6728 25.2362 22.5169 23.8765 23.8765C22.5169 25.2362 20.6728 26 18.75 26H8.25C4.25 26 1 22.75 1 18.75V8.25C1 6.32718 1.76384 4.48311 3.12348 3.12348C4.48311 1.76384 6.32718 1 8.25 1ZM8 3.5C6.80653 3.5 5.66193 3.97411 4.81802 4.81802C3.97411 5.66193 3.5 6.80653 3.5 8V19C3.5 21.4875 5.5125 23.5 8 23.5H19C20.1935 23.5 21.3381 23.0259 22.182 22.182C23.0259 21.3381 23.5 20.1935 23.5 19V8C23.5 5.5125 21.4875 3.5 19 3.5H8ZM20.0625 5.375C20.4769 5.375 20.8743 5.53962 21.1674 5.83265C21.4604 6.12567 21.625 6.5231 21.625 6.9375C21.625 7.3519 21.4604 7.74933 21.1674 8.04235C20.8743 8.33538 20.4769 8.5 20.0625 8.5C19.6481 8.5 19.2507 8.33538 18.9576 8.04235C18.6646 7.74933 18.5 7.3519 18.5 6.9375C18.5 6.5231 18.6646 6.12567 18.9576 5.83265C19.2507 5.53962 19.6481 5.375 20.0625 5.375ZM13.5 7.25C15.1576 7.25 16.7473 7.90848 17.9194 9.08058C19.0915 10.2527 19.75 11.8424 19.75 13.5C19.75 15.1576 19.0915 16.7473 17.9194 17.9194C16.7473 19.0915 15.1576 19.75 13.5 19.75C11.8424 19.75 10.2527 19.0915 9.08058 17.9194C7.90848 16.7473 7.25 15.1576 7.25 13.5C7.25 11.8424 7.90848 10.2527 9.08058 9.08058C10.2527 7.90848 11.8424 7.25 13.5 7.25ZM13.5 9.75C12.5054 9.75 11.5516 10.1451 10.8483 10.8483C10.1451 11.5516 9.75 12.5054 9.75 13.5C9.75 14.4946 10.1451 15.4484 10.8483 16.1517C11.5516 16.8549 12.5054 17.25 13.5 17.25C14.4946 17.25 15.4484 16.8549 16.1517 16.1517C16.8549 15.4484 17.25 14.4946 17.25 13.5C17.25 12.5054 16.8549 11.5516 16.1517 10.8483C15.4484 10.1451 14.4946 9.75 13.5 9.75Z" fill="#85CFFF"/>
<path d="M8.25 1H18.75C22.75 1 26 4.25 26 8.25V18.75C26 20.6728 25.2362 22.5169 23.8765 23.8765C22.5169 25.2362 20.6728 26 18.75 26H8.25C4.25 26 1 22.75 1 18.75V8.25C1 6.32718 1.76384 4.48311 3.12348 3.12348C4.48311 1.76384 6.32718 1 8.25 1M13.5 7.25C15.1576 7.25 16.7473 7.90848 17.9194 9.08058C19.0915 10.2527 19.75 11.8424 19.75 13.5C19.75 15.1576 19.0915 16.7473 17.9194 17.9194C16.7473 19.0915 15.1576 19.75 13.5 19.75C11.8424 19.75 10.2527 19.0915 9.08058 17.9194C7.90848 16.7473 7.25 15.1576 7.25 13.5C7.25 11.8424 7.90848 10.2527 9.08058 9.08058C10.2527 7.90848 11.8424 7.25 13.5 7.25M8 3.5C6.80653 3.5 5.66193 3.97411 4.81802 4.81802C3.97411 5.66193 3.5 6.80653 3.5 8V19C3.5 21.4875 5.5125 23.5 8 23.5H19C20.1935 23.5 21.3381 23.0259 22.182 22.182C23.0259 21.3381 23.5 20.1935 23.5 19V8C23.5 5.5125 21.4875 3.5 19 3.5H8ZM20.0625 5.375C20.4769 5.375 20.8743 5.53962 21.1674 5.83265C21.4604 6.12567 21.625 6.5231 21.625 6.9375C21.625 7.3519 21.4604 7.74933 21.1674 8.04235C20.8743 8.33538 20.4769 8.5 20.0625 8.5C19.6481 8.5 19.2507 8.33538 18.9576 8.04235C18.6646 7.74933 18.5 7.3519 18.5 6.9375C18.5 6.5231 18.6646 6.12567 18.9576 5.83265C19.2507 5.53962 19.6481 5.375 20.0625 5.375ZM13.5 9.75C12.5054 9.75 11.5516 10.1451 10.8483 10.8483C10.1451 11.5516 9.75 12.5054 9.75 13.5C9.75 14.4946 10.1451 15.4484 10.8483 16.1517C11.5516 16.8549 12.5054 17.25 13.5 17.25C14.4946 17.25 15.4484 16.8549 16.1517 16.1517C16.8549 15.4484 17.25 14.4946 17.25 13.5C17.25 12.5054 16.8549 11.5516 16.1517 10.8483C15.4484 10.1451 14.4946 9.75 13.5 9.75Z" stroke="#1E193D" stroke-width="0.5"/>
</svg>
