<svg width="20" height="26" viewBox="0 0 20 26" fill="none" xmlns="http://www.w3.org/2000/svg">
<path d="M19 5V3.66667C19 2.95942 18.7291 2.28115 18.2468 1.78105C17.7646 1.28095 17.1106 1 16.4286 1H3.57143C2.88944 1 2.23539 1.28095 1.75315 1.78105C1.27092 2.28115 1 2.95942 1 3.66667V22.3333C1 23.0406 1.27092 23.7189 1.75315 24.219C2.23539 24.719 2.88944 25 3.57143 25H16.4286C17.1106 25 17.7646 24.719 18.2468 24.219C18.7291 23.7189 19 23.0406 19 22.3333V21" stroke="#85CFFF" stroke-width="1.5" stroke-linecap="round" stroke-linejoin="round"/>
<path d="M10 13H19M19 13L15.1429 17M19 13L15.1429 9" stroke="#85CFFF" stroke-width="1.5" stroke-linecap="round" stroke-linejoin="round"/>
</svg>
