<svg width="28" height="25" viewBox="0 0 28 25" fill="none" xmlns="http://www.w3.org/2000/svg">
<path d="M25.0696 1.00239C24.7486 1.02575 24.4335 1.10106 24.1366 1.22539H24.1326C23.8476 1.33839 22.4926 1.90839 20.4326 2.77239L13.0506 5.88139C7.75363 8.11139 2.54663 10.3074 2.54663 10.3074L2.60863 10.2834C2.60863 10.2834 2.24963 10.4014 1.87463 10.6584C1.64296 10.8058 1.4436 10.9987 1.28863 11.2254C1.10463 11.4954 0.95663 11.9084 1.01163 12.3354C1.10163 13.0574 1.56963 13.4904 1.90563 13.7294C2.24563 13.9714 2.56963 14.0844 2.56963 14.0844H2.57763L7.46063 15.7294C7.67963 16.4324 8.94863 20.6044 9.25363 21.5654C9.43363 22.1394 9.60863 22.4984 9.82763 22.7724C9.93363 22.9124 10.0576 23.0294 10.2066 23.1234C10.2841 23.1684 10.3667 23.204 10.4526 23.2294L10.4026 23.2174C10.4176 23.2214 10.4296 23.2334 10.4406 23.2374C10.4806 23.2484 10.5076 23.2524 10.5586 23.2604C11.3316 23.4944 11.9526 23.0144 11.9526 23.0144L11.9876 22.9864L14.8706 20.3614L19.7026 24.0684L19.8126 24.1154C20.8196 24.5574 21.8396 24.3114 22.3786 23.8774C22.9216 23.4404 23.1326 22.8814 23.1326 22.8814L23.1676 22.7914L26.9016 3.66239C27.0076 3.19039 27.0346 2.74839 26.9176 2.31939C26.797 1.88522 26.5184 1.5118 26.1366 1.27239C25.8161 1.07751 25.4443 0.983439 25.0696 1.00239ZM24.9686 3.05239C24.9646 3.11539 24.9766 3.10839 24.9486 3.22939V3.24039L21.2496 22.1704C21.2336 22.1974 21.2066 22.2564 21.1326 22.3154C21.0546 22.3774 20.9926 22.4164 20.6676 22.2874L14.7576 17.7564L11.1876 21.0104L11.9376 16.2204L21.5936 7.22039C21.9916 6.85039 21.8586 6.77239 21.8586 6.77239C21.8866 6.31839 21.2576 6.63939 21.2576 6.63939L9.08163 14.1824L9.07763 14.1624L3.24163 12.1974V12.1934L3.22663 12.1904C3.23686 12.187 3.24688 12.183 3.25663 12.1784L3.28863 12.1624L3.31963 12.1514C3.31963 12.1514 8.53063 9.95539 13.8276 7.72539C16.4796 6.60839 19.1516 5.48339 21.2066 4.61539C22.4254 4.10239 23.6454 3.59239 24.8666 3.08539C24.9486 3.05339 24.9096 3.05239 24.9686 3.05239Z" fill="#85CFFF" stroke="#1E193D" stroke-width="0.5"/>
</svg>
