<svg width="26" height="27" viewBox="0 0 26 27" fill="none" xmlns="http://www.w3.org/2000/svg">
<path d="M18.6737 15.9519C18.3696 15.7956 16.8544 15.0535 16.5726 14.953C16.2907 14.847 16.0843 14.7968 15.8806 15.1093C15.6741 15.419 15.0881 16.1081 14.9039 16.3174C14.7253 16.5238 14.544 16.5489 14.2398 16.3955C12.4317 15.4915 11.2457 14.7829 10.0543 12.7378C9.73894 12.1938 10.3696 12.2328 10.9583 11.0582C11.0588 10.8518 11.0086 10.676 10.9304 10.5198C10.8523 10.3635 10.2384 8.85134 9.9817 8.23476C9.73336 7.63491 9.47665 7.71861 9.28969 7.70745C9.11111 7.69629 8.90741 7.69629 8.70092 7.69629C8.49443 7.69629 8.16238 7.77441 7.88055 8.07852C7.59872 8.38821 6.80347 9.13313 6.80347 10.6453C6.80347 12.1575 7.90566 13.6222 8.05634 13.8287C8.21261 14.0351 10.2245 17.1376 13.3134 18.474C15.2667 19.3166 16.0312 19.3891 17.0079 19.2441C17.6022 19.1548 18.8272 18.5019 19.0811 17.7793C19.335 17.0595 19.335 16.4429 19.2597 16.3146C19.1844 16.1779 18.9779 16.0997 18.6737 15.9519Z" fill="#85CFFF" stroke="#1E193D" stroke-width="0.5"/>
<path d="M24.5998 8.65625C23.9805 7.15792 23.0926 5.81306 21.9609 4.65792C20.8291 3.50558 19.5083 2.59877 18.034 1.97098C16.5268 1.32645 14.9265 1 13.2768 1H13.222C11.5613 1.00837 9.95278 1.34319 8.44012 2.00167C6.97953 2.63783 5.66966 3.54185 4.54887 4.6942C3.42808 5.84654 2.54844 7.18583 1.94009 8.67857C1.30981 10.2243 0.991935 11.8677 1.00016 13.5586C1.00838 15.495 1.46327 17.4174 2.31551 19.1362V23.3772C2.31551 24.0859 2.88001 24.6607 3.57606 24.6607H7.74408C9.43212 25.5285 11.3202 25.9916 13.222 26H13.2795C14.921 26 16.5131 25.6763 18.0121 25.043C19.4781 24.4208 20.7962 23.5279 21.9252 22.3867C23.057 21.2455 23.9476 19.9118 24.5696 18.4247C25.2164 16.8845 25.5452 15.2467 25.5534 13.5558C25.5616 11.8566 25.2383 10.2076 24.5998 8.65625ZM20.4592 20.8772C18.5382 22.8136 15.9897 23.8795 13.2768 23.8795H13.2302C11.5778 23.8711 9.93634 23.4526 8.48671 22.6657L8.25652 22.5402H4.39815V18.6116L4.27484 18.3772C3.50207 16.9012 3.09102 15.2299 3.0828 13.5474C3.07184 10.7656 4.1159 8.15402 6.03138 6.18694C7.94413 4.21987 10.5008 3.1317 13.2329 3.12054H13.2795C14.6497 3.12054 15.9787 3.39118 17.2311 3.9269C18.4533 4.44866 19.5494 5.19922 20.492 6.15904C21.432 7.11607 22.1719 8.23493 22.6843 9.47935C23.2159 10.7684 23.4817 12.1356 23.4763 13.5474C23.4598 16.3265 22.3883 18.9297 20.4592 20.8772Z" fill="#85CFFF" stroke="#1E193D" stroke-width="0.5"/>
</svg>
