<svg width="237" height="216" viewBox="0 0 237 216" fill="none" xmlns="http://www.w3.org/2000/svg">
<path d="M90.5315 214.223H90.5262H45.2631H20.541C18.3318 214.223 16.541 212.432 16.541 210.223V154.982C16.541 153.501 15.9932 152.072 15.0031 150.971L2.02528 136.534C1.36519 135.8 1 134.847 1 133.86V107.612V5C1 2.79086 2.79086 1 5 1H83.5328H197.565H218.448H219.567C221.776 1 223.567 2.79086 223.567 5V38.5213C223.567 39.9767 224.096 41.3826 225.056 42.4769L235.008 53.8272C235.647 54.5568 236 55.494 236 56.4643V108.388V210.973C236 213.191 234.196 214.985 231.979 214.973L90.5315 214.223Z" stroke="url(#paint0_linear_637_890)" stroke-width="2"/>
<defs>
<linearGradient id="paint0_linear_637_890" x1="237" y1="3.49039e-05" x2="-32.667" y2="54.5699" gradientUnits="userSpaceOnUse">
<stop offset="0.302083" stop-color="#FF127F"/>
<stop offset="0.458285" stop-color="#FF89BF"/>
<stop offset="0.625" stop-color="#FF1580"/>
</linearGradient>
</defs>
</svg>
