<svg width="365" height="395" viewBox="0 0 365 395" fill="none" xmlns="http://www.w3.org/2000/svg">
<g clip-path="url(#clip0_121_1273)">
<g opacity="0.2">
<path opacity="0.090909" d="M121.559 182.607C127.702 179.046 135.461 177.103 143.543 177.103C146.776 177.103 149.686 177.427 152.595 178.074C155.505 178.722 159.061 180.341 161.648 181.636L352.392 291.718C358.857 295.603 362.414 301.431 362.09 307.906C362.09 309.849 361.444 311.468 360.797 313.41C359.181 317.943 354.331 323.123 349.159 326.037L241.501 388.525C240.208 389.173 238.268 390.144 236.975 390.791C231.803 393.058 225.983 394.029 219.841 394.029C213.051 394.029 206.909 392.734 202.059 389.82L10.9921 279.091C4.52618 275.205 0.969931 269.377 1.29323 262.578C1.29323 260.959 1.61652 259.341 2.26311 258.046C3.87959 253.189 8.72901 248.009 14.225 244.771L121.559 182.607Z" fill="#101315"/>
<path opacity="0.1818" d="M121.882 183.578C128.025 180.016 136.107 178.074 143.543 178.397C146.776 178.397 149.686 179.045 152.595 179.693C155.182 180.34 159.384 181.959 161.324 183.254L351.098 293.012C357.564 296.897 360.797 302.725 359.827 309.201C359.504 310.82 359.181 312.762 358.211 314.381C356.594 318.59 351.098 323.77 346.249 326.361L240.855 387.229C239.562 387.877 237.622 388.848 236.329 389.496C231.156 391.762 225.337 392.734 219.517 393.057C212.728 393.057 206.585 391.762 202.059 388.848L11.3153 278.443C4.84944 274.557 1.61649 268.729 2.58638 262.254C2.90967 260.635 3.23297 259.34 3.87956 257.721C5.49603 253.188 10.992 247.684 16.1648 244.77L121.882 183.578Z" fill="#101315"/>
<path opacity="0.2727" d="M122.529 184.55C128.671 180.988 136.754 179.046 144.19 179.369C147.422 179.369 150.332 180.017 152.919 180.664C155.182 181.312 159.708 183.255 161.647 184.55L350.775 293.984C357.241 297.869 360.151 303.697 358.857 309.849C358.534 311.468 357.887 313.086 357.241 314.705C355.624 318.267 349.482 323.771 345.279 326.361L241.178 386.582C240.208 387.23 237.945 388.201 236.652 388.849C231.802 391.115 225.983 392.41 220.164 392.41C213.698 392.41 207.555 391.115 202.706 388.525L11.9619 277.472C5.49601 273.586 2.58636 267.759 4.20283 261.607C4.52613 260.312 5.17272 258.693 5.49601 257.398C7.11249 253.513 13.5784 247.685 17.7812 245.095L122.529 184.55Z" fill="#101315"/>
<path opacity="0.3636" d="M122.852 185.197C128.995 181.636 137.077 180.017 144.513 180.341C147.746 180.341 150.655 181.312 153.242 181.959C155.182 182.607 160.031 184.873 161.971 185.845L350.452 294.632C356.918 298.517 359.181 304.345 357.564 310.173C357.241 311.791 356.271 313.086 355.624 314.705C354.008 317.943 347.219 323.771 343.663 325.714L241.178 385.287C240.208 385.935 237.945 387.23 236.975 387.554C232.126 389.82 226.63 391.115 220.81 391.115C214.345 391.115 208.202 389.82 203.676 387.23L12.2852 276.824C5.81926 272.939 3.5562 267.111 5.17267 260.959C5.49597 259.664 6.14256 258.369 6.78915 257.074C8.08233 253.836 15.5181 247.361 19.3977 245.095L122.852 185.197Z" fill="#101315"/>
<path opacity="0.4545" d="M123.499 186.169C129.641 182.607 137.724 180.988 145.159 181.312C148.392 181.636 151.302 182.284 153.888 182.931C155.828 183.579 161.001 186.169 162.294 186.816L350.128 295.279C356.594 298.841 358.534 304.993 356.594 310.82C355.948 312.439 354.978 313.734 354.331 315.353C353.038 317.943 345.279 324.095 342.046 326.038L241.178 384.316C240.531 384.64 237.622 386.259 236.975 386.583C232.126 388.849 226.63 390.144 221.134 390.144C214.668 390.468 208.849 389.173 204.322 386.583L12.6085 275.853C6.14265 271.968 4.20288 266.14 6.46594 260.312C6.78924 259.017 7.75912 257.722 8.40571 256.427C9.69889 253.513 17.7813 247.038 21.3375 245.095L123.499 186.169Z" fill="#101315"/>
<path opacity="0.5455" d="M123.822 186.816C129.965 183.255 138.047 181.636 145.483 182.284C148.716 182.607 151.302 183.255 154.212 184.226C155.828 184.55 161.324 187.464 162.617 188.435L349.482 296.574C355.948 300.136 357.564 305.964 355.301 311.792C354.655 313.087 354.008 314.706 352.715 316.001C352.068 318.267 343.016 324.419 340.43 326.038L241.178 383.669C240.531 383.993 237.622 385.611 236.975 385.935C232.126 387.878 226.953 389.497 221.457 389.82C215.314 390.144 209.172 388.849 204.969 386.259L13.2551 274.882C6.78924 270.997 5.17277 265.169 7.75913 259.341C8.40572 258.046 9.05231 257.075 10.0222 255.779C10.6688 253.189 20.3676 246.714 22.954 245.095L123.822 186.816Z" fill="#101315"/>
<path opacity="0.7273" d="M124.792 188.435C130.934 184.874 139.017 183.255 146.129 184.226C149.362 184.55 151.949 185.521 154.535 186.492C155.505 186.816 161.971 190.378 162.941 190.702L348.512 297.87C354.978 301.431 355.948 307.259 352.715 312.763C352.068 314.058 350.775 315.353 349.482 316.324C349.159 317.62 338.49 324.419 336.873 325.39L240.531 381.079C240.208 381.402 236.975 383.021 236.652 383.345C232.126 385.288 226.953 386.906 221.78 387.23C215.638 387.554 209.818 386.583 205.616 383.992L14.225 273.263C7.75908 269.378 6.7892 263.55 10.3454 258.046C10.992 257.074 11.9619 255.779 12.9318 254.808C13.2551 253.189 24.5704 246.066 26.5102 245.095L124.792 188.435Z" fill="#101315"/>
<path opacity="0.8182" d="M125.438 189.406C131.581 185.844 139.663 184.549 146.776 185.197C150.009 185.521 152.595 186.492 155.182 187.463C155.828 187.787 162.941 191.672 163.264 191.996L348.189 298.84C354.331 302.402 355.301 308.23 351.422 313.41C350.452 314.705 349.482 315.676 348.189 316.648C347.865 317.619 336.55 324.742 335.257 325.066L240.531 379.783C240.208 379.783 236.975 381.725 236.652 382.049C232.126 383.992 227.276 385.611 221.78 385.935C215.961 386.258 210.142 385.287 205.939 382.697L14.5483 272.615C8.08236 269.053 7.43577 262.902 11.6386 257.721C12.6085 256.75 13.5784 255.779 14.5483 254.807C14.8716 253.836 27.1568 246.389 28.1266 245.742L125.438 189.406Z" fill="#101315"/>
<path opacity="0.9091" d="M125.762 190.377C131.904 186.816 139.987 185.521 147.099 186.492C150.332 186.816 152.919 188.111 155.505 189.082C155.828 189.082 163.264 193.291 163.587 193.615L347.542 300.136C353.685 303.697 354.655 309.525 350.128 314.382C349.159 315.353 347.865 316.648 346.572 317.619C346.572 317.943 334.287 325.39 333.64 325.714L240.208 379.783L236.329 382.05C232.126 383.992 226.953 385.611 221.78 385.935C215.961 386.259 210.465 385.287 206.262 383.021L15.1949 271.644C8.72899 268.082 8.0824 261.931 12.9318 257.074C13.9017 256.103 14.8716 255.132 16.1648 254.484C16.1648 253.836 29.4199 246.066 30.0665 245.742L125.762 190.377Z" fill="#101315"/>
<path d="M206.909 381.402L15.5181 270.996C8.08235 266.787 9.05223 259.017 17.7812 253.836L126.408 191.025C135.137 185.845 148.392 185.521 155.828 189.73L347.219 300.459C354.655 304.668 353.685 312.439 344.956 317.619L236.329 380.431C227.6 385.287 214.668 385.935 206.909 381.402Z" fill="#101315"/>
</g>
<path d="M206.909 381.402L15.5182 270.673C12.2852 268.73 10.3455 266.14 10.3455 263.55V254.16C10.3455 250.923 12.9318 256.75 17.4579 253.836L126.408 191.025C135.137 185.845 148.392 185.521 155.828 189.73L347.219 300.459C349.805 302.078 351.422 295.603 352.068 297.545C352.392 298.193 352.068 306.935 352.068 307.582C352.068 310.82 349.805 314.705 344.956 317.295L236.329 380.107C227.6 385.287 214.668 385.611 206.909 381.402Z" fill="#161B4B"/>
<path d="M206.909 372.013L15.5181 261.283C8.08235 257.074 9.05223 249.304 17.7812 244.123L126.408 181.312C135.137 176.132 148.392 175.808 155.828 180.017L347.219 290.746C354.655 294.955 353.685 302.726 344.956 307.906L236.329 370.718C227.6 375.898 214.668 376.222 206.909 372.013Z" fill="url(#paint0_linear_121_1273)"/>
<path d="M219.841 371.041C215.638 371.041 211.758 370.07 208.849 368.451L17.4579 258.045C16.1647 257.398 14.225 255.779 14.225 253.836C14.225 251.894 16.1647 249.304 19.3977 247.361L128.025 184.55C131.904 182.283 137.4 180.988 142.896 180.988C147.099 180.988 150.979 181.959 153.888 183.578L345.279 294.308C346.572 294.955 348.512 296.574 348.512 298.517C348.512 300.459 346.572 303.05 343.339 304.992L234.712 367.804C230.509 369.746 225.013 371.041 219.841 371.041Z" fill="#24276B"/>
<g filter="url(#filter0_d_121_1273)">
<path d="M344.956 306.287L236.329 369.099C227.6 374.279 214.345 374.603 206.909 370.394L15.5181 259.664C12.2852 257.722 10.6687 255.455 10.3454 252.865C10.0221 256.103 11.6386 259.017 15.5181 261.283L206.909 372.013C214.345 376.222 227.6 375.898 236.329 370.718L344.956 307.906C350.128 304.992 352.391 301.107 352.068 297.545C351.745 300.783 349.482 304.021 344.956 306.287Z" fill="#FF127F"/>
</g>
<path d="M230.584 329.663L75.4023 239.979C72.1694 238.036 72.8159 235.122 76.3722 232.856L134.565 199.184C138.122 197.241 143.618 196.918 146.85 198.536L302.355 288.221C305.588 290.163 304.942 293.077 301.385 295.344L243.192 329.016C239.313 331.282 233.817 331.606 230.584 329.663Z" fill="#1E183B"/>
<path d="M137.798 205.661L147.82 211.489C149.113 212.136 151.053 212.136 152.346 211.489C153.64 210.841 153.64 209.546 152.346 208.898L142.324 203.07C141.031 202.423 139.091 202.423 137.798 203.07C136.505 203.718 136.505 205.013 137.798 205.661ZM154.933 215.698L159.782 218.288C161.075 218.935 163.015 218.935 164.308 218.288C165.602 217.64 165.602 216.345 164.308 215.698L159.459 213.107C158.166 212.46 156.226 212.46 154.933 213.107C153.64 213.755 153.64 214.726 154.933 215.698ZM166.895 222.497L171.744 225.087C173.037 225.734 174.977 225.734 176.27 225.087C177.563 224.439 177.563 223.144 176.27 222.497L171.421 219.907C170.128 219.259 168.188 219.259 166.895 219.907C165.602 220.554 165.602 221.525 166.895 222.497ZM178.533 229.296L183.383 231.886C184.676 232.534 186.616 232.534 187.909 231.886C189.202 231.239 189.202 229.943 187.909 229.296L183.059 226.706C181.766 226.058 179.827 226.058 178.533 226.706C177.24 227.353 177.24 228.325 178.533 229.296ZM190.495 236.095L195.345 238.685C196.638 239.333 198.578 239.333 199.871 238.685C201.164 238.038 201.164 236.743 199.871 236.095L195.021 233.505C193.728 232.857 191.788 232.857 190.495 233.505C189.202 234.152 189.202 235.448 190.495 236.095ZM202.134 242.894L206.983 245.484C208.276 246.132 210.216 246.132 211.509 245.484C212.803 244.837 212.803 243.542 211.509 242.894L206.66 240.304C205.367 239.657 203.427 239.657 202.134 240.304C200.841 240.952 200.841 242.247 202.134 242.894ZM214.096 249.693L218.945 252.284C220.238 252.931 222.178 252.931 223.471 252.284C224.764 251.636 224.764 250.341 223.471 249.693L218.622 247.103C217.329 246.456 215.389 246.456 214.096 247.103C212.803 247.751 212.803 249.046 214.096 249.693ZM225.734 256.493L230.584 259.083C231.877 259.73 233.817 259.73 235.11 259.083C236.403 258.435 236.403 257.14 235.11 256.493L230.261 253.902C228.967 253.255 227.028 253.255 225.734 253.902C224.441 254.55 224.441 255.845 225.734 256.493ZM237.696 263.292L242.546 265.882C243.839 266.529 245.779 266.529 247.072 265.882C248.365 265.234 248.365 263.939 247.072 263.292L242.222 260.702C240.929 260.054 238.989 260.054 237.696 260.702C236.403 261.349 236.403 262.644 237.696 263.292ZM249.335 270.091L254.184 272.681C255.478 273.329 257.417 273.329 258.71 272.681C260.004 272.034 260.004 270.739 258.71 270.091L253.861 267.501C252.568 266.853 250.628 266.853 249.335 267.501C248.042 268.148 248.042 269.443 249.335 270.091ZM261.297 276.89L266.146 279.48C267.439 280.128 269.379 280.128 270.672 279.48C271.966 278.833 271.966 277.538 270.672 276.89L265.823 274.3C264.53 273.652 262.59 273.652 261.297 274.3C260.004 274.948 260.004 276.243 261.297 276.89ZM272.935 283.689L277.785 286.28C279.078 286.927 281.018 286.927 282.311 286.28C283.604 285.632 283.604 284.337 282.311 283.689L277.462 281.099C276.168 280.452 274.229 280.452 272.935 281.099C271.642 281.747 271.642 283.042 272.935 283.689ZM285.221 290.812L290.07 293.402C291.363 294.05 293.303 294.05 294.596 293.402C295.889 292.755 295.889 291.46 294.596 290.812L289.747 288.222C288.454 287.575 286.514 287.575 285.221 288.222C283.927 288.87 283.927 290.165 285.221 290.812ZM127.453 212.136L131.656 214.402C132.949 215.374 135.535 215.374 136.828 214.402L141.031 212.136C142.324 211.165 142.324 209.87 141.031 209.222L136.828 206.956C135.535 205.984 132.949 205.984 131.656 206.956L127.453 209.222C125.836 209.87 125.836 211.489 127.453 212.136ZM148.467 221.525L152.67 219.259C153.963 218.288 153.963 216.993 152.67 216.345L148.467 214.079C147.174 213.107 144.587 213.107 143.294 214.079L139.091 216.345C137.798 217.316 137.798 218.611 139.091 219.259L143.294 221.525C144.587 222.173 146.85 222.173 148.467 221.525ZM151.053 225.734L155.256 228.001C156.549 228.972 159.136 228.972 160.429 228.001L164.632 225.734C165.925 224.763 165.925 223.468 164.632 222.82L160.429 220.554C159.136 219.583 156.549 219.583 155.256 220.554L151.053 222.82C149.437 223.792 149.437 225.087 151.053 225.734ZM162.692 232.534L166.895 234.8C168.188 235.771 170.774 235.771 172.067 234.8L176.27 232.534C177.563 231.562 177.563 230.267 176.27 229.62L172.067 227.353C170.774 226.382 168.188 226.382 166.895 227.353L162.692 229.62C161.399 230.591 161.399 231.886 162.692 232.534ZM187.909 236.419L183.706 234.152C182.413 233.181 179.827 233.181 178.533 234.152L174.33 236.419C173.037 237.39 173.037 238.685 174.33 239.333L178.533 241.599C179.827 242.57 182.413 242.57 183.706 241.599L187.909 239.333C189.202 238.685 189.202 237.39 187.909 236.419ZM199.547 243.218L195.345 240.952C194.051 239.98 191.465 239.98 190.172 240.952L185.969 243.218C184.676 244.189 184.676 245.484 185.969 246.132L190.172 248.398C191.465 249.37 194.051 249.37 195.345 248.398L199.547 246.132C201.164 245.484 201.164 244.189 199.547 243.218ZM211.509 250.017L207.307 247.751C206.013 246.78 203.427 246.78 202.134 247.751L197.931 250.017C196.638 250.989 196.638 252.284 197.931 252.931L202.134 255.198C203.427 256.169 206.013 256.169 207.307 255.198L211.509 252.931C212.803 252.284 212.803 250.989 211.509 250.017ZM223.148 257.14L219.268 254.55C217.975 253.579 215.389 253.579 214.096 254.55L209.893 256.816C208.6 257.788 208.6 259.083 209.893 259.73L214.096 261.997C215.389 262.968 217.975 262.968 219.268 261.997L223.471 259.73C224.764 259.083 224.764 257.788 223.148 257.14ZM235.11 263.939L230.907 261.673C229.614 260.702 227.028 260.702 225.734 261.673L221.855 263.939C220.562 264.911 220.562 266.206 221.855 266.853L226.058 269.12C227.351 270.091 229.937 270.091 231.23 269.12L235.433 266.853C236.403 265.882 236.403 264.587 235.11 263.939ZM246.749 270.739L242.546 268.472C241.253 267.501 238.666 267.501 237.373 268.472L233.17 270.739C231.877 271.71 231.877 273.005 233.17 273.652L237.373 275.919C238.666 276.89 241.253 276.89 242.546 275.919L246.749 273.652C248.365 272.681 248.365 271.386 246.749 270.739ZM245.455 280.452L249.658 282.718C250.951 283.689 253.538 283.689 254.831 282.718L259.034 280.452C260.327 279.48 260.327 278.185 259.034 277.538L254.831 275.271C253.538 274.3 250.951 274.3 249.658 275.271L245.455 277.538C243.839 278.185 243.839 279.48 245.455 280.452ZM270.349 284.337L266.146 282.07C264.853 281.099 262.267 281.099 260.974 282.07L256.771 284.337C255.478 285.308 255.478 286.603 256.771 287.251L260.974 289.517C262.267 290.489 264.853 290.489 266.146 289.517L270.349 287.251C271.966 286.603 271.966 284.984 270.349 284.337ZM287.807 294.374L278.431 288.87C277.138 287.898 274.552 287.898 273.259 288.87L269.056 291.136C267.763 292.107 267.763 293.402 269.056 294.05L278.431 299.554C279.725 300.525 282.311 300.525 283.604 299.554L287.807 297.288C289.1 296.64 289.1 295.021 287.807 294.374ZM116.461 218.611L125.836 224.116C127.129 225.087 129.716 225.087 131.009 224.116L135.212 221.849C136.505 220.878 136.505 219.583 135.212 218.935L125.513 213.107C124.22 212.136 121.633 212.136 120.34 213.107L116.461 215.374C114.844 216.345 114.844 217.64 116.461 218.611ZM133.272 228.325L137.475 230.591C138.768 231.562 141.354 231.562 142.648 230.591L146.85 228.325C148.144 227.353 148.144 226.058 146.85 225.411L142.648 223.144C141.354 222.173 138.768 222.173 137.475 223.144L133.272 225.411C131.979 226.058 131.979 227.677 133.272 228.325ZM149.437 237.714C150.73 238.685 153.316 238.685 154.609 237.714L158.812 235.448C160.105 234.476 160.105 233.181 158.812 232.534L154.609 229.943C153.316 228.972 150.73 228.972 149.437 229.943L145.234 232.21C143.941 233.181 143.941 234.476 145.234 235.124L149.437 237.714ZM161.075 244.513C162.369 245.484 164.955 245.484 166.248 244.513L170.451 242.247C171.744 241.275 171.744 239.98 170.451 239.333L166.248 237.066C164.955 236.095 162.369 236.095 161.075 237.066L156.873 239.333C155.579 240.304 155.579 241.599 156.873 242.247L161.075 244.513ZM173.037 243.542L168.834 245.808C167.541 246.78 167.541 248.075 168.834 248.722L173.037 250.989C174.33 251.96 176.917 251.96 178.21 250.989L182.413 248.722C183.706 247.751 183.706 246.456 182.413 245.808L178.21 243.542C176.594 242.57 174.33 242.57 173.037 243.542ZM184.999 250.341L180.473 252.931C179.18 253.579 179.18 254.874 180.473 255.521L184.999 258.111C186.292 258.759 188.555 258.759 189.849 258.111L194.375 255.521C195.668 254.874 195.668 253.579 194.375 252.931L189.849 250.341C188.232 249.37 186.292 249.37 184.999 250.341ZM196.638 257.14L192.112 259.73C190.819 260.378 190.819 261.673 192.112 262.32L196.638 264.911C197.931 265.558 200.194 265.558 201.487 264.911L206.013 262.32C207.307 261.673 207.307 260.378 206.013 259.73L201.487 257.14C200.194 256.169 197.931 256.169 196.638 257.14ZM208.6 263.939L204.074 266.53C202.78 267.177 202.78 268.472 204.074 269.12L208.6 271.71C209.893 272.357 212.156 272.357 213.449 271.71L217.975 269.12C219.268 268.472 219.268 267.177 217.975 266.53L213.126 263.939C211.833 262.968 209.893 262.968 208.6 263.939ZM220.238 270.739L215.712 273.329C214.419 273.976 214.419 275.271 215.712 275.919L220.238 278.509C221.532 279.157 223.795 279.157 225.088 278.509L229.614 275.919C230.907 275.271 230.907 273.976 229.614 273.329L225.088 270.739C223.795 269.767 221.532 269.767 220.238 270.739ZM232.2 277.538L227.674 280.128C226.381 280.775 226.381 282.07 227.674 282.718L232.2 285.308C233.493 285.956 235.757 285.956 237.05 285.308L241.576 282.718C242.869 282.07 242.869 280.775 241.576 280.128L237.05 277.538C235.433 276.89 233.493 276.89 232.2 277.538ZM248.688 292.431L253.214 289.841C254.508 289.193 254.508 287.898 253.214 287.251L248.688 284.661C247.395 284.013 245.132 284.013 243.839 284.661L239.313 287.251C238.02 287.898 238.02 289.193 239.313 289.841L243.839 292.431C245.455 293.079 247.395 293.079 248.688 292.431ZM260.65 299.23L265.176 296.64C266.47 295.993 266.47 294.698 265.176 294.05L260.65 291.46C259.357 290.812 257.094 290.812 255.801 291.46L251.275 294.05C249.982 294.698 249.982 295.993 251.275 296.64L255.801 299.23C257.094 299.878 259.357 299.878 260.65 299.23ZM277.138 300.849L272.612 298.259C271.319 297.611 269.056 297.611 267.763 298.259L263.237 300.849C261.943 301.497 261.943 302.792 263.237 303.439L267.763 306.029C269.056 306.677 271.319 306.677 272.612 306.029L277.138 303.439C278.431 302.792 278.431 301.497 277.138 300.849ZM105.145 224.763L120.017 233.181C121.31 233.829 123.573 233.829 124.866 233.181L129.392 230.591C130.686 229.943 130.686 228.648 129.392 228.001L114.521 219.583C113.228 218.935 110.965 218.935 109.671 219.583L105.145 221.849C103.852 222.82 103.852 223.792 105.145 224.763ZM127.129 237.39L131.656 239.98C132.949 240.628 135.212 240.628 136.505 239.98L141.031 237.39C142.324 236.743 142.324 235.448 141.031 234.8L136.505 232.21C135.212 231.562 132.949 231.562 131.656 232.21L127.129 234.8C125.836 235.448 125.836 236.743 127.129 237.39ZM139.091 244.189L143.617 246.779C144.911 247.427 147.174 247.427 148.467 246.779L152.993 244.189C154.286 243.542 154.286 242.247 152.993 241.599L148.144 239.009C146.85 238.361 144.587 238.361 143.294 239.009L138.768 241.599C137.798 242.247 137.798 243.542 139.091 244.189ZM150.73 250.989L155.256 253.579C156.549 254.226 158.812 254.226 160.106 253.579L164.632 250.989C165.925 250.341 165.925 249.046 164.632 248.398L160.106 245.808C158.812 245.161 156.549 245.161 155.256 245.808L150.73 248.398C149.437 249.046 149.437 250.341 150.73 250.989ZM172.067 260.702L176.594 258.111C177.887 257.464 177.887 256.169 176.594 255.521L172.067 252.931C170.774 252.284 168.511 252.284 167.218 252.931L162.692 255.521C161.399 256.169 161.399 257.464 162.692 258.111L167.218 260.702C168.511 261.349 170.774 261.349 172.067 260.702ZM183.706 267.501L188.232 264.911C189.525 264.263 189.525 262.968 188.232 262.32L183.706 259.407C182.413 258.759 180.15 258.759 178.857 259.407L174.33 261.997C173.037 262.644 173.037 263.939 174.33 264.587L178.857 267.177C180.473 268.148 182.413 268.148 183.706 267.501ZM195.668 274.3L200.194 271.71C201.487 271.062 201.487 269.767 200.194 269.12L195.668 266.53C194.375 265.882 192.112 265.882 190.819 266.53L186.292 269.12C184.999 269.767 184.999 271.062 186.292 271.71L190.819 274.3C192.112 274.948 194.375 274.948 195.668 274.3ZM207.307 281.099L211.833 278.509C213.126 277.861 213.126 276.566 211.833 275.919L207.307 273.329C206.013 272.681 203.75 272.681 202.457 273.329L197.931 275.919C196.638 276.566 196.638 277.861 197.931 278.509L202.457 281.099C204.074 281.747 206.013 281.747 207.307 281.099ZM219.268 287.898L223.795 285.308C225.088 284.661 225.088 283.366 223.795 282.718L219.268 280.128C217.975 279.48 215.712 279.48 214.419 280.128L209.893 282.718C208.6 283.366 208.6 284.661 209.893 285.308L214.419 287.898C215.712 288.546 217.975 288.546 219.268 287.898ZM230.907 294.698L235.433 292.107C236.726 291.46 236.726 290.165 235.433 289.517L230.907 286.603C229.614 285.956 227.351 285.956 226.058 286.603L221.532 289.193C220.238 289.841 220.238 291.136 221.532 291.784L226.058 294.374C227.674 295.345 229.614 295.345 230.907 294.698ZM233.493 298.907L238.02 301.497C239.313 302.144 241.576 302.144 242.869 301.497L247.395 298.907C248.688 298.259 248.688 296.964 247.395 296.316L242.869 293.726C241.576 293.079 239.313 293.079 238.02 293.726L233.493 296.316C232.2 296.964 232.2 298.259 233.493 298.907ZM266.146 307.001L254.508 300.202C253.214 299.554 250.951 299.554 249.658 300.202L245.132 303.116C243.839 303.763 243.839 305.058 245.132 305.706L256.771 312.505C258.064 313.152 260.327 313.152 261.62 312.505L266.146 309.915C267.439 308.943 267.439 307.972 266.146 307.001ZM94.1533 231.239L115.168 243.542C116.784 244.513 119.047 244.513 120.34 243.542L124.22 241.275C125.836 240.304 125.513 239.009 124.22 238.361L103.206 226.058C101.589 225.087 99.3261 225.087 98.0329 226.058L94.1533 228.325C92.8602 228.972 92.8602 230.591 94.1533 231.239ZM123.25 248.075L127.129 250.341C128.746 251.312 131.009 251.312 132.302 250.341L136.182 248.075C137.798 247.103 137.475 245.808 136.182 245.161L132.302 242.894C130.686 241.923 128.423 241.923 127.129 242.894L123.25 245.161C121.633 245.808 121.633 247.103 123.25 248.075ZM134.889 254.874L138.768 257.14C140.385 258.111 142.648 258.111 143.941 257.14L147.82 254.874C149.437 253.902 149.113 252.607 147.82 251.96L143.941 249.693C142.324 248.722 140.061 248.722 138.768 249.693L134.889 251.96C133.595 252.607 133.595 253.902 134.889 254.874ZM146.85 261.673L150.73 263.939C152.346 264.911 154.609 264.911 155.903 263.939L159.782 261.673C161.399 260.702 161.075 259.407 159.782 258.759L155.903 256.493C154.286 255.521 152.023 255.521 150.73 256.493L146.85 258.759C145.234 259.407 145.234 260.702 146.85 261.673ZM158.489 268.472L162.369 270.739C163.985 271.71 166.248 271.71 167.541 270.739L171.421 268.472C173.037 267.501 172.714 266.206 171.421 265.558L167.541 263.292C165.925 262.32 163.662 262.32 162.369 263.292L158.489 265.558C157.196 266.206 157.196 267.501 158.489 268.472ZM170.451 275.271L174.33 277.538C175.947 278.509 178.21 278.509 179.503 277.538L183.383 275.271C184.999 274.3 184.676 273.005 183.383 272.357L179.503 270.091C177.887 269.12 175.624 269.12 174.33 270.091L170.451 272.357C168.834 273.005 168.834 274.624 170.451 275.271ZM182.09 282.07L185.969 284.337C187.586 285.308 189.849 285.308 191.142 284.337L195.021 282.07C196.638 281.099 196.315 279.804 195.021 279.157L191.465 276.89C189.849 275.919 187.586 275.919 186.292 276.89L182.413 279.157C180.796 279.804 180.796 281.423 182.09 282.07ZM194.051 288.87L197.931 291.136C199.548 292.107 201.811 292.107 203.104 291.136L206.983 288.87C208.6 287.898 208.276 286.603 206.983 285.956L203.104 283.689C201.487 282.718 199.224 282.718 197.931 283.689L194.051 285.956C192.435 286.603 192.435 288.222 194.051 288.87ZM205.69 295.669L209.57 297.935C211.186 298.907 213.449 298.907 214.742 297.935L218.622 295.669C220.238 294.698 219.915 293.402 218.622 292.755L214.742 290.489C213.126 289.517 210.863 289.517 209.57 290.489L205.69 292.755C204.397 293.726 204.397 295.021 205.69 295.669ZM217.652 302.792L221.532 305.058C223.148 306.029 225.411 306.029 226.704 305.058L230.584 302.792C232.2 301.82 231.877 300.525 230.584 299.878L226.704 297.611C225.088 296.64 222.825 296.64 221.532 297.611L217.652 299.554C216.036 300.525 216.036 301.82 217.652 302.792ZM229.291 309.591L233.17 311.857C234.787 312.829 237.05 312.829 238.343 311.857L242.222 309.591C243.839 308.62 243.516 307.325 242.222 306.677L238.666 304.087C237.05 303.116 234.787 303.116 233.493 304.087L229.614 306.353C227.997 307.325 227.997 308.62 229.291 309.591ZM254.831 313.476L250.951 311.21C249.335 310.239 247.072 310.239 245.779 311.21L241.899 313.476C240.283 314.448 240.606 315.743 241.899 316.39L245.779 318.657C247.395 319.628 249.658 319.628 250.951 318.657L254.831 316.39C256.124 315.743 256.124 314.124 254.831 313.476ZM101.912 237.714L92.5369 232.534C90.9204 231.562 88.6573 231.562 87.3641 232.534L83.4846 234.476C81.8681 235.448 82.1914 236.743 83.4846 237.39L92.5369 242.57C94.1533 243.542 96.4164 243.542 97.7096 242.57L101.589 240.304C103.206 239.98 103.206 238.361 101.912 237.714ZM113.551 244.513L109.671 242.247C108.055 241.275 105.792 241.275 104.499 242.247L100.296 244.513C98.6795 245.484 99.0028 246.78 100.296 247.427L104.175 249.693C105.792 250.665 108.055 250.665 109.348 249.693L113.228 247.427C115.168 246.78 115.168 245.484 113.551 244.513ZM125.513 251.312L121.633 249.046C120.017 248.075 117.754 248.075 116.461 249.046L112.581 251.312C110.965 252.284 111.288 253.579 112.581 254.226L116.461 256.493C118.077 257.464 120.34 257.464 121.633 256.493L125.513 254.226C126.806 253.579 126.806 252.284 125.513 251.312ZM207.953 299.23L133.272 255.845C131.656 254.874 129.392 254.874 128.099 255.845L124.22 258.111C122.603 259.083 122.927 260.378 124.22 261.025L198.901 304.411C200.517 305.382 202.78 305.382 204.074 304.411L207.953 302.144C209.57 301.173 209.57 299.878 207.953 299.23ZM219.915 306.029L216.036 303.763C214.419 302.792 212.156 302.792 210.863 303.763L206.66 306.029C205.043 307.001 205.367 308.296 206.66 308.943L210.54 311.21C212.156 312.181 214.419 312.181 215.712 311.21L219.592 308.943C221.208 308.296 221.208 306.677 219.915 306.029ZM231.554 312.829L227.674 310.562C226.058 309.591 223.795 309.591 222.501 310.562L218.622 312.829C217.005 313.8 217.329 315.095 218.622 315.743L222.501 318.009C224.118 318.98 226.381 318.98 227.674 318.009L231.554 315.743C233.17 315.095 233.17 313.476 231.554 312.829ZM243.839 319.628L239.959 317.361C238.343 316.39 236.08 316.39 234.787 317.361L230.907 319.628C229.291 320.599 229.614 321.894 230.907 322.542L234.787 324.808C236.403 325.78 238.666 325.78 239.959 324.808L243.839 322.542C245.132 321.894 245.132 320.599 243.839 319.628Z" fill="#6BFAFB"/>
<path d="M343.986 289.451L159.708 182.93C152.595 178.721 146.776 167.713 146.776 158.324V13.2746C146.776 3.88521 152.595 -0.64758 159.708 3.56144L343.986 110.082C351.098 114.291 356.918 125.299 356.918 134.688V279.414C356.918 289.127 351.098 293.66 343.986 289.451Z" fill="#24276B"/>
<path d="M345.926 282.005L163.264 176.456C157.445 172.894 153.888 165.447 153.888 158.001V12.6278C153.888 11.0089 155.828 9.71385 157.445 10.6852C157.768 10.6852 157.768 11.0089 157.768 11.0089L340.43 116.558C347.219 120.443 349.805 127.566 349.805 135.013V280.062C349.805 282.005 347.865 283.3 345.926 282.005Z" fill="#1E183B"/>
<g filter="url(#filter1_d_121_1273)">
<path d="M340.43 116.558L158.091 10.6848C158.091 10.6848 157.768 10.6848 157.768 10.3611C156.151 9.38975 154.212 10.6848 154.212 12.3037V157.677C154.212 165.123 157.768 172.57 163.587 176.132L345.926 282.004C345.926 282.004 346.249 282.004 346.249 282.328C347.865 283.3 349.805 282.004 349.805 280.062V135.013C349.805 127.566 347.219 120.443 340.43 116.558ZM348.189 280.062C348.189 280.709 347.542 281.033 347.219 281.033C346.895 281.033 346.895 281.033 346.572 281.033L164.234 175.16C159.061 171.923 155.505 165.123 155.505 158V12.6275C155.505 11.9799 155.828 11.6561 156.475 11.6561H156.798L339.783 117.529C346.895 121.738 348.512 129.185 348.512 134.689V280.062H348.189Z" fill="url(#paint1_linear_121_1273)" shape-rendering="crispEdges"/>
</g>
<path d="M347.865 108.14L163.587 1.61924C160.678 0.000384226 158.091 -0.323386 156.151 0.647925C155.828 0.647925 152.272 2.59055 151.949 2.91432C154.212 1.94301 156.798 1.94301 160.031 3.88563L344.309 110.406C351.422 114.615 357.241 125.623 357.241 135.013V279.738C357.241 285.566 354.978 289.775 351.422 290.746C351.745 290.746 352.068 290.746 352.715 290.422C353.038 290.422 356.918 288.156 356.918 288.156C359.504 286.537 360.797 282.976 360.797 278.119V133.07C360.797 123.357 354.978 112.349 347.865 108.14Z" fill="#1C1D4D"/>
<path d="M344.632 109.759L160.354 3.23838C157.445 1.61952 154.858 1.29575 152.595 2.26707C154.535 1.9433 156.475 2.26707 158.738 3.88592L343.016 110.406C350.128 114.615 355.948 125.624 355.948 135.013V279.738C355.948 285.242 354.008 289.128 350.775 290.423C354.655 289.775 357.564 285.566 357.564 279.091V134.689C357.564 124.976 351.745 113.968 344.632 109.759Z" fill="#FF1580"/>
<ellipse rx="10.7889" ry="10.7896" transform="matrix(0.866 0.500072 -2.20267e-08 1 244.368 92.7026)" stroke="#85CFFF" stroke-width="2"/>
<ellipse rx="10.7889" ry="10.7896" transform="matrix(0.866 0.500072 -2.20267e-08 1 207.93 84.0705)" stroke="#85CFFF" stroke-width="2"/>
<ellipse rx="10.7889" ry="10.7896" transform="matrix(0.866 0.500072 -2.20267e-08 1 280.807 126.151)" stroke="#85CFFF" stroke-width="2"/>
<ellipse rx="31.8273" ry="31.8286" transform="matrix(0.866 0.500072 -2.20267e-08 1 244.368 166.072)" stroke="#85CFFF" stroke-width="2"/>
<ellipse rx="10.7889" ry="10.7893" transform="matrix(0.866 0.500091 -2.20258e-08 1 244.368 160.138)" stroke="#85CFFF" stroke-width="2"/>
<path d="M261.653 200.87C261.653 189.846 253.915 176.441 244.368 170.929C234.822 165.416 227.083 169.884 227.083 180.907" stroke="#85CFFF" stroke-width="2"/>
<path d="M244.368 109.426L239.376 116.227L249.361 122.625L244.368 109.426ZM245.233 128.323L245.233 118.98L243.504 117.872L243.504 127.215L245.233 128.323Z" fill="#85CFFF"/>
<path d="M207.463 100.794L202.463 107.906L212.463 113.681L207.463 100.794ZM208.505 119.524L207.847 119.795L208.505 119.524ZM213.726 128.037L209.163 119.253L207.847 119.795L212.411 128.579L213.726 128.037ZM208.329 116.168L208.329 110.294L206.597 109.294L206.597 115.168L208.329 116.168ZM209.163 119.253C208.624 118.217 208.329 117.123 208.329 116.168L206.597 115.168C206.597 116.6 207.04 118.241 207.847 119.795L209.163 119.253Z" fill="#85CFFF"/>
<path d="M281.274 143.414L286.274 156.301L276.274 150.527L281.274 143.414ZM280.232 160.94L280.889 161.971L280.232 160.94ZM275.01 163.423L279.574 159.91L280.889 161.971L276.326 165.484L275.01 163.423ZM280.408 157.788L280.408 151.914L282.14 152.914L282.14 158.789L280.408 157.788ZM279.574 159.91C280.112 159.496 280.408 158.743 280.408 157.788L282.14 158.789C282.14 160.221 281.696 161.35 280.889 161.971L279.574 159.91Z" fill="#85CFFF"/>
<path d="M227.901 102.075L227.901 110.437" stroke="#FF127F" stroke-width="2"/>
<path d="M224.28 104.165L231.521 108.346" stroke="#FF127F" stroke-width="2"/>
<path d="M261.537 121.497L261.537 129.859" stroke="#FF127F" stroke-width="2"/>
<path d="M257.916 123.588L265.157 127.769" stroke="#FF127F" stroke-width="2"/>
</g>
<defs>
<filter id="filter0_d_121_1273" x="4.30518" y="246.865" width="353.793" height="134.047" filterUnits="userSpaceOnUse" color-interpolation-filters="sRGB">
<feFlood flood-opacity="0" result="BackgroundImageFix"/>
<feColorMatrix in="SourceAlpha" type="matrix" values="0 0 0 0 0 0 0 0 0 0 0 0 0 0 0 0 0 0 127 0" result="hardAlpha"/>
<feOffset/>
<feGaussianBlur stdDeviation="3"/>
<feComposite in2="hardAlpha" operator="out"/>
<feColorMatrix type="matrix" values="0 0 0 0 1 0 0 0 0 0.404167 0 0 0 0 0.6782 0 0 0 1 0"/>
<feBlend mode="normal" in2="BackgroundImageFix" result="effect1_dropShadow_121_1273"/>
<feBlend mode="normal" in="SourceGraphic" in2="effect1_dropShadow_121_1273" result="shape"/>
</filter>
<filter id="filter1_d_121_1273" x="150.212" y="6.02649" width="203.593" height="280.632" filterUnits="userSpaceOnUse" color-interpolation-filters="sRGB">
<feFlood flood-opacity="0" result="BackgroundImageFix"/>
<feColorMatrix in="SourceAlpha" type="matrix" values="0 0 0 0 0 0 0 0 0 0 0 0 0 0 0 0 0 0 127 0" result="hardAlpha"/>
<feOffset/>
<feGaussianBlur stdDeviation="2"/>
<feComposite in2="hardAlpha" operator="out"/>
<feColorMatrix type="matrix" values="0 0 0 0 0.854167 0 0 0 0 0.942623 0 0 0 0 1 0 0 0 1 0"/>
<feBlend mode="normal" in2="BackgroundImageFix" result="effect1_dropShadow_121_1273"/>
<feBlend mode="normal" in="SourceGraphic" in2="effect1_dropShadow_121_1273" result="shape"/>
</filter>
<linearGradient id="paint0_linear_121_1273" x1="158.5" y1="276" x2="135" y2="177" gradientUnits="userSpaceOnUse">
<stop stop-color="#FF127F"/>
<stop offset="1" stop-color="#FF127F" stop-opacity="0"/>
</linearGradient>
<linearGradient id="paint1_linear_121_1273" x1="345.5" y1="283" x2="146.5" y2="5.50012" gradientUnits="userSpaceOnUse">
<stop stop-color="#6BFAFB"/>
<stop offset="1" stop-color="#6BFAFB" stop-opacity="0"/>
</linearGradient>
<clipPath id="clip0_121_1273">
<rect width="365" height="395" fill="white"/>
</clipPath>
</defs>
</svg>
