<svg width="259" height="42" viewBox="0 0 259 42" fill="none" xmlns="http://www.w3.org/2000/svg">
<path d="M63.1538 38.9083L43 1H192.5H219.75H236.197C237.307 1 238.325 1.61219 238.846 2.59172L256.656 36.0917C257.719 38.0899 256.27 40.5 254.007 40.5H65.8027C64.6933 40.5 63.6745 39.8878 63.1538 38.9083Z" fill="#1B183A"/>
<path d="M0 1H10.75H21.5H43M43 1L63.1538 38.9083C63.6745 39.8878 64.6933 40.5 65.8027 40.5H254.007C256.27 40.5 257.719 38.0899 256.656 36.0917L238.846 2.59172C238.325 1.61219 237.307 1 236.197 1H219.75H192.5H43Z" stroke="#FF127F" stroke-width="2"/>
</svg>
