<svg width="31" height="30" viewBox="0 0 31 30" fill="none" xmlns="http://www.w3.org/2000/svg">
<path fill-rule="evenodd" clip-rule="evenodd" d="M17.8875 16.4279C16.6905 18.0988 14.7374 19.1868 12.5313 19.1868C8.88969 19.1868 5.93758 16.2221 5.93758 12.565C5.93758 8.9079 8.88969 5.94322 12.5313 5.94322C14.7375 5.94322 16.6907 7.03138 17.8876 8.70243H16.649C15.6206 7.59727 14.1563 6.90645 12.5313 6.90645C9.41941 6.90645 6.89673 9.43988 6.89673 12.565C6.89673 15.6902 9.41941 18.2236 12.5313 18.2236C14.1562 18.2236 15.6204 17.5329 16.6487 16.4279H17.8875Z" fill="#85CFFF"/>
<path fill-rule="evenodd" clip-rule="evenodd" d="M12.2342 13.5721C13.4312 11.9012 15.3843 10.8132 17.5904 10.8132C21.232 10.8132 24.1841 13.7779 24.1841 17.435C24.1841 21.0921 21.232 24.0568 17.5904 24.0568C15.3842 24.0568 13.431 22.9686 12.2341 21.2976H13.4727C14.5011 22.4027 15.9654 23.0935 17.5904 23.0935C20.7023 23.0935 23.225 20.5601 23.225 17.435C23.225 14.3098 20.7023 11.7764 17.5904 11.7764C15.9655 11.7764 14.5013 12.4671 13.473 13.5721H12.2342Z" fill="#85CFFF"/>
<path d="M4.57449 16.0461C4.57449 16.8589 3.91562 17.5177 3.10286 17.5177C2.2901 17.5177 1.63123 16.8589 1.63123 16.0461C1.63123 15.2333 2.2901 14.5745 3.10286 14.5745C3.91562 14.5745 4.57449 15.2333 4.57449 16.0461Z" fill="#85CFFF"/>
<path d="M11.9149 28.5284C11.9149 29.3412 11.2561 30 10.4433 30C9.63055 30 8.97168 29.3412 8.97168 28.5284C8.97168 27.7156 9.63055 27.0568 10.4433 27.0568C11.2561 27.0568 11.9149 27.7156 11.9149 28.5284Z" fill="#85CFFF"/>
<path fill-rule="evenodd" clip-rule="evenodd" d="M3.47515 14.7518C3.47515 8.57538 8.51337 3.56383 14.734 3.56383V2.67731C8.02885 2.67731 2.58862 8.0807 2.58862 14.7518H3.47515Z" fill="#85CFFF"/>
<path fill-rule="evenodd" clip-rule="evenodd" d="M0.886525 14.7518C0.886525 7.25234 6.84814 1.14529 14.2908 0.911246V6.96812H15.1773V0.461024V0.0177612H14.734C6.59666 0.0177612 0 6.61442 0 14.7518C0 21.7681 4.90417 27.6389 11.4716 29.1234V28.2128C5.39815 26.7461 0.886525 21.2758 0.886525 14.7518Z" fill="#85CFFF"/>
<path d="M25.5472 13.954C25.5472 13.1412 26.2061 12.4823 27.0188 12.4823C27.8316 12.4823 28.4905 13.1412 28.4905 13.954C28.4905 14.7667 27.8316 15.4256 27.0188 15.4256C26.2061 15.4256 25.5472 14.7667 25.5472 13.954Z" fill="#85CFFF"/>
<path d="M18.2068 1.47173C18.2068 0.658968 18.8656 9.65931e-05 19.6784 9.65931e-05C20.4912 9.65931e-05 21.15 0.658968 21.15 1.47173C21.15 2.28449 20.4912 2.94336 19.6784 2.94336C18.8656 2.94336 18.2068 2.28449 18.2068 1.47173Z" fill="#85CFFF"/>
<path fill-rule="evenodd" clip-rule="evenodd" d="M26.6466 15.2483C26.6466 21.4247 21.6083 26.4362 15.3877 26.4362V27.3228C22.0929 27.3228 27.5331 21.9194 27.5331 15.2483H26.6466Z" fill="#85CFFF"/>
<path fill-rule="evenodd" clip-rule="evenodd" d="M29.2352 15.2483C29.2352 22.7477 23.2736 28.8548 15.8309 29.0888V23.0319H14.9444V29.539V29.9823H15.3877C23.525 29.9823 30.1217 23.3856 30.1217 15.2483C30.1217 8.23199 25.2175 2.36116 18.6501 0.876639V1.78724C24.7235 3.25398 29.2352 8.72424 29.2352 15.2483Z" fill="#85CFFF"/>
<path fill-rule="evenodd" clip-rule="evenodd" d="M10.0178 24.61V18.5461H10.9043V24.61H10.0178Z" fill="#85CFFF"/>
<path fill-rule="evenodd" clip-rule="evenodd" d="M20.1039 5.39009V11.4539H19.2174V5.39009H20.1039Z" fill="#85CFFF"/>
<path fill-rule="evenodd" clip-rule="evenodd" d="M8.20923 23.0851V17.0213H9.09575V23.0851H8.20923Z" fill="#85CFFF"/>
<path fill-rule="evenodd" clip-rule="evenodd" d="M21.9124 6.91493V12.9788H21.0259V6.91493H21.9124Z" fill="#85CFFF"/>
</svg>
