<svg width="1920" height="91" viewBox="0 0 1920 91" fill="none" xmlns="http://www.w3.org/2000/svg">
<path d="M-18 62.5H381.536C383.363 62.5 385.045 61.5029 385.922 59.8995L415.078 6.60049C415.955 4.99712 417.637 4 419.464 4L1252.57 4C1256.36 4 1258.78 8.0675 1256.95 11.3995L1233.05 55.1005C1231.22 58.4325 1233.64 62.5 1237.43 62.5H1375.04C1376.86 62.5 1378.55 61.5029 1379.42 59.8995L1408.58 6.60049C1409.45 4.99712 1411.14 4 1412.96 4L1925.5 4" stroke="#FF127F" stroke-width="2"/>
<g filter="url(#filter0_d_734_431)">
<path d="M228 74.5H390.536C392.363 74.5 394.045 73.5029 394.922 71.8995L424.078 18.6005C424.955 16.9971 426.637 16 428.464 16L714.5 16" stroke="url(#paint0_linear_734_431)" stroke-width="2"/>
</g>
<defs>
<filter id="filter0_d_734_431" x="213" y="0" width="516.5" height="90.5" filterUnits="userSpaceOnUse" color-interpolation-filters="sRGB">
<feFlood flood-opacity="0" result="BackgroundImageFix"/>
<feColorMatrix in="SourceAlpha" type="matrix" values="0 0 0 0 0 0 0 0 0 0 0 0 0 0 0 0 0 0 127 0" result="hardAlpha"/>
<feOffset/>
<feGaussianBlur stdDeviation="7.5"/>
<feComposite in2="hardAlpha" operator="out"/>
<feColorMatrix type="matrix" values="0 0 0 0 1 0 0 0 0 0.404167 0 0 0 0 0.6782 0 0 0 1 0"/>
<feBlend mode="normal" in2="BackgroundImageFix" result="effect1_dropShadow_734_431"/>
<feBlend mode="normal" in="SourceGraphic" in2="effect1_dropShadow_734_431" result="shape"/>
</filter>
<linearGradient id="paint0_linear_734_431" x1="714.5" y1="16" x2="542.617" y2="279.628" gradientUnits="userSpaceOnUse">
<stop offset="0.302083" stop-color="#FF127F"/>
<stop offset="0.458285" stop-color="#FF89BF"/>
<stop offset="0.625" stop-color="#FF1580"/>
</linearGradient>
</defs>
</svg>
