<svg width="1234" height="1290" viewBox="0 0 1234 1290" fill="none" xmlns="http://www.w3.org/2000/svg">
<path d="M88.2514 5.34541C88.5798 2.8586 90.7 1 93.2084 1H131.297C134.318 1 136.65 3.65917 136.254 6.65458L131.151 45.2972C130.823 47.784 128.703 49.6426 126.194 49.6426H88.1055C85.0841 49.6426 82.753 46.9835 83.1486 43.988L88.2514 5.34541Z" stroke="#FF127F" stroke-width="2"/>
<path d="M85.9108 23.8322H6C3.23857 23.8322 1 26.0708 1 28.8322V1284C1 1286.76 3.23858 1289 6 1289H457.561C459.308 1289 460.929 1288.09 461.835 1286.6L475.791 1263.61C476.697 1262.12 478.318 1261.2 480.065 1261.2H698.426C702.324 1261.2 704.723 1265.47 702.7 1268.8L695.046 1281.41C693.023 1284.74 695.422 1289 699.32 1289H1228C1230.76 1289 1233 1286.76 1233 1284V944C1233 941.239 1230.76 939 1228 939H1226.58C1223.82 939 1221.58 936.762 1221.58 934V745.915C1221.58 743.154 1223.82 740.915 1226.58 740.915H1228C1230.76 740.915 1233 738.677 1233 735.915V156.699C1233 153.938 1230.76 151.699 1228 151.699H1172.94" stroke="#FF127F" stroke-width="2"/>
<path fill-rule="evenodd" clip-rule="evenodd" d="M1150 151.688L1159.38 142.304H1164.35L1154.97 151.688H1150ZM1150 151.688L1159.38 161.072H1164.35L1154.97 151.688H1150Z" fill="#FF127F"/>
<path fill-rule="evenodd" clip-rule="evenodd" d="M1158.83 151.688L1168.22 161.072H1173.18L1163.8 151.688H1158.83ZM1158.83 151.688L1168.22 142.304H1173.18L1163.8 151.688H1158.83Z" fill="#FF127F"/>
<path d="M110.198 16.8833V33.7593" stroke="white" stroke-width="2"/>
<path d="M102.256 24.825H119.132" stroke="white" stroke-width="2"/>
</svg>
