<svg width="302" height="1363" viewBox="0 0 302 1363" fill="none" xmlns="http://www.w3.org/2000/svg">
<path d="M22.9605 5.35192C23.286 2.8622 25.4075 1 27.9184 1H44.3039C47.3226 1 49.653 3.65476 49.2617 6.64808L47.0395 23.6481C46.714 26.1378 44.5925 28 42.0816 28H25.6961C22.6774 28 20.347 25.3452 20.7383 22.3519L22.9605 5.35192Z" stroke="#FF127F"/>
<path d="M35.2725 9.86328V19.136" stroke="white" stroke-width="2"/>
<path d="M30.9092 14.2269H40.1819" stroke="white" stroke-width="2"/>
<path d="M21.1707 13H4.00005C2.34319 13 1.00005 14.3431 1.00005 16L1 1359C1 1360.66 2.34315 1362 4 1362H108.515C109.52 1362 110.459 1361.5 111.015 1360.66L118.244 1349.75C118.8 1348.92 119.739 1348.41 120.744 1348.41H168.196C170.589 1348.41 172.019 1351.08 170.697 1353.07L167.864 1357.34C166.542 1359.34 167.972 1362 170.364 1362H289C290.657 1362 292 1360.66 292 1359L292 149.5C292 147.843 293.343 146.5 295 146.5H298C299.657 146.5 301 145.157 301 143.5V37.0909C301 35.4341 299.657 34.0909 298 34.0909H276.5C274.843 34.0909 273.5 32.7478 273.5 31.0909V19.5C273.5 17.8431 272.157 16.5 270.5 16.5H259.233" stroke="#FF127F"/>
<path fill-rule="evenodd" clip-rule="evenodd" d="M247 16.405L252.405 21.8101H255.267L249.861 16.405L255.267 11H252.405L247 16.405Z" fill="#FF127F"/>
<path fill-rule="evenodd" clip-rule="evenodd" d="M252.087 16.405L257.492 21.8101H260.354L254.949 16.405L260.354 11H257.492L252.087 16.405Z" fill="#FF127F"/>
</svg>
