<svg width="189" height="193" viewBox="0 0 189 193" fill="none" xmlns="http://www.w3.org/2000/svg">
<g clip-path="url(#clip0_121_1184)">
<g opacity="0.2">
<path opacity="0.090909" d="M50.3333 108.08C50.3333 108.08 55 106.234 55.1666 106.066C58.1666 104.388 60.5 101.367 63 102.71L122.167 135.1L127 137.785L181.5 167.49C184.5 169.169 186.833 172.357 186.833 175.378C186.833 175.714 186.833 176.05 186.833 176.385C186.667 179.574 184.667 182.427 181.167 184.441C181.167 184.441 179.667 185.28 177.667 186.287C173 188.637 164.833 192.161 162.167 191.993C159 191.993 155.667 190.986 153.5 189.643L99.1666 157.589L44.8333 125.534C41.8333 123.856 39.6666 120.835 39.6666 117.646C39.5 114.29 46.5 110.262 50.3333 108.08Z" fill="black"/>
<path opacity="0.1818" d="M51.3333 109.59C51.3333 109.59 55.6667 107.744 56 107.744C59 106.234 61.3333 103.381 63.6667 104.723L121.333 136.275L126 138.792L179 167.826C181.667 169.337 184.333 172.525 184.333 175.21C184.333 175.546 184.5 175.882 184.333 176.05C184.167 179.07 182.667 181.923 179.167 183.937C179.167 183.937 177.5 184.777 175.833 185.783C171.333 187.965 163.5 191.322 160.833 190.986C158 190.986 154.5 189.811 152.5 188.637L100 157.421L47.5 126.373C44.8333 124.863 42.5 121.674 42.1667 118.989C42 115.632 47.5 111.772 51.3333 109.59Z" fill="black"/>
<path opacity="0.2727" d="M52.1667 110.933C52.1667 110.933 56.1667 109.255 56.8333 109.087C59.6667 107.577 62.1667 105.059 64.3333 106.402L120.5 137.114L125 139.631L176.667 167.826C179 169.169 182.167 172.357 182.167 174.707C182.167 174.875 182.333 175.378 182.333 175.546C182.333 178.399 181.167 181.252 177.667 183.266C177.667 183.266 176 184.273 174.333 185.112C170 187.294 162.5 190.147 159.833 189.811C157.333 189.811 153.667 188.469 151.833 187.294L101 157.253L50.1667 127.212C47.8333 125.87 45.1667 122.681 44.8333 120.331C44.5 117.143 48.5 113.115 52.1667 110.933Z" fill="black"/>
<path opacity="0.3636" d="M53 112.443C53 112.443 56.8334 110.933 57.5 110.765C60.3334 109.423 62.6667 107.241 64.8334 108.416L119.5 138.289L124 140.638L174.333 167.994C176.333 169.169 180 172.357 180 174.539C180 174.707 180.167 175.043 180.167 175.378C180.833 178.063 179.333 180.917 176 182.93C176 182.93 174.167 183.937 172.833 184.609C168.667 186.79 161.667 189.308 158.833 188.804C156.667 188.804 152.667 187.126 151.167 186.287L102 157.085L52.6667 127.883C50.6667 126.709 47.6667 123.52 47.3334 121.338C46.8334 118.485 49.5 114.625 53 112.443Z" fill="black"/>
<path opacity="0.4545" d="M53.8333 113.954C53.8333 113.954 57.3333 112.611 58.3333 112.276C61 111.101 63.5 109.087 65.5 110.262L118.667 139.296L123 141.645L171.833 168.162C173.667 169.169 177.667 172.357 177.667 174.203C177.667 174.371 178 174.707 178 174.875C179 177.392 177.667 180.245 174.333 182.091C174.333 182.091 172.5 183.266 171.333 183.77C167.333 185.783 160.667 188.133 158 187.462C156.167 187.462 152 185.616 150.667 184.777L102.833 156.75L55.3333 128.723C53.5 127.716 50 124.527 50 122.681C48.8333 119.996 50.3333 115.968 53.8333 113.954Z" fill="black"/>
<path opacity="0.5455" d="M54.8333 115.464C54.8333 115.464 58 114.122 59.1667 113.954C61.8333 112.947 64.3333 111.101 66.1667 112.276L117.833 140.303L122 142.652L169.5 168.497C171 169.337 175.333 172.693 175.333 174.203C175.333 174.371 175.667 174.707 175.667 174.875C177 177.224 175.833 180.077 172.5 181.923C172.5 181.923 170.667 183.098 169.667 183.602C165.833 185.616 159.5 187.462 156.833 186.623C155.333 186.623 151 184.609 149.833 183.937L103.833 156.582L58 129.562C56.5 128.723 52.5 125.534 52.5 124.023C51.1667 121.506 51.3333 117.478 54.8333 115.464Z" fill="black"/>
<path opacity="0.6364" d="M55.6666 116.974C55.6666 116.974 58.5 115.8 59.8333 115.632C62.3333 114.625 65 113.282 66.6666 114.289L116.833 141.477L120.833 143.659L167 168.665C168.167 169.336 173 172.693 173 173.867C173 174.035 173.5 174.371 173.5 174.539C175 176.72 174 179.574 170.833 181.42C170.833 181.42 168.833 182.762 168 183.098C164.167 184.944 158.333 186.622 155.667 185.615C154.5 185.615 149.833 183.266 149 182.762L104.833 156.414L60.6666 130.233C59.5 129.561 55.1666 126.373 55.1666 125.03C53.5 122.848 52.3333 118.82 55.6666 116.974Z" fill="black"/>
<path opacity="0.7273" d="M56.5 118.318C56.5 118.318 59.1667 117.311 60.6667 116.975C63.1667 116.136 65.6667 114.961 67.3334 115.968L116 142.317L120 144.499L164.833 168.666C165.667 169.169 171 172.526 171 173.532C171 173.7 171.5 174.036 171.5 174.036C173.333 176.05 172.5 178.735 169.333 180.581C169.333 180.581 167.333 181.924 166.667 182.259C163 184.106 157.5 185.448 154.833 184.273C153.833 184.273 149.167 181.756 148.5 181.42L105.833 156.246L63.3334 131.072C62.5 130.569 57.8334 127.212 57.8334 126.373C55.8334 124.359 53.1667 120.332 56.5 118.318Z" fill="black"/>
<path opacity="0.8182" d="M57.3333 119.828C57.3333 119.828 59.6666 118.989 61.3333 118.653C63.6666 117.982 66.3333 116.975 67.8333 117.982L115 143.491L118.833 145.505L162.167 169.001C162.833 169.337 168.5 172.693 168.5 173.364L169 173.868C171 175.714 170.333 178.399 167.333 180.245C167.333 180.245 165.167 181.588 164.833 181.923C161.333 183.77 156.167 184.609 153.5 183.434C152.833 183.434 147.833 180.749 147.5 180.413L106.667 156.078L65.8333 131.911C65.1666 131.576 60.1666 128.219 60.1666 127.716C58.1666 125.702 54.1666 121.674 57.3333 119.828Z" fill="black"/>
<path opacity="0.9091" d="M58.3333 121.339C58.3333 121.339 60.3333 120.667 62.1666 120.164C64.4999 119.493 67.1666 118.989 68.4999 119.828L114.333 144.499L118 146.513L160 169.169C160.333 169.337 166.333 172.861 166.333 173.029C166.333 173.029 167 173.365 167 173.533C169.333 175.211 168.833 177.896 165.833 179.742C165.833 179.742 163.667 181.253 163.5 181.42C160.167 183.099 155.333 183.77 152.667 182.427C152.333 182.427 147.167 179.406 147 179.406L107.667 155.743L68.4999 132.751C68.1666 132.583 62.8333 129.226 62.8333 128.891C60.4999 127.213 55.1666 123.185 58.3333 121.339Z" fill="black"/>
<path d="M151.667 181.084L108.5 155.575L65.5 130.065C62.8333 128.555 56.1666 124.527 59.1666 122.849C59.1666 122.849 66.5 120.163 69.1666 121.674L117 147.351L164.833 173.029C167.5 174.539 167.167 177.224 164.167 179.07L161.833 180.581C158.833 182.427 154.333 182.595 151.667 181.084Z" fill="black"/>
</g>
<path d="M104.833 27.1878V36.4183L43 0.503497C40.8333 -0.839112 38 0.839149 38 3.35654V117.982L156 187.126C158.833 188.804 162.167 188.637 165 186.958L167.5 185.448C169.833 183.937 171.167 181.42 171.167 178.735V65.2844C171.167 62.0957 169.5 59.0748 166.667 57.5644L109.833 24.3348C107.667 22.9922 104.833 24.6705 104.833 27.1878Z" fill="url(#paint0_linear_121_1184)"/>
<path d="M41.6666 1.51044L103.5 37.4252V35.5791L43 0.335657C41.5 -0.503474 39.5 4.40329e-06 38.6666 1.34261C39.5 1.00696 40.6666 1.00696 41.6666 1.51044Z" fill="url(#paint1_radial_121_1184)"/>
<path d="M166.833 57.3965L109.833 24.3348C108.333 23.4957 106.333 23.9992 105.5 25.3418C106.333 25.0061 107.5 24.8383 108.5 25.5096L165.5 58.7392C168.333 60.4174 170 63.2705 170 66.4591V179.742C170 181.756 169.167 183.77 167.833 185.28C170 183.77 171.333 181.42 171.333 178.735V65.2844C171.333 62.0957 169.667 59.0748 166.833 57.3965Z" fill="url(#paint2_radial_121_1184)"/>
<path d="M32 107.744L165.333 185.28V83.4096L32 5.87393V107.744Z" fill="white"/>
<path opacity="0.7" d="M32 111.101L162.833 187.294V91.9687L32 15.9435V111.101Z" fill="#C7BCD6"/>
<path d="M33 115.297L156.333 186.958C158.833 188.469 162 188.469 164.667 187.126L165.5 186.623L164.667 186.958C162.667 187.797 160.5 186.287 160.5 184.105V98.8496C160.5 95.6609 158.833 92.64 156 91.1296L32.1666 18.9643C30 17.6217 27.1666 19.3 27.1666 21.8174V105.059C27.3333 109.423 29.5 113.115 33 115.297Z" fill="url(#paint3_linear_121_1184)"/>
<path d="M164.667 186.958C162.667 187.797 160.5 186.287 160.5 184.105V98.8496C160.5 95.6609 158.833 92.64 156 91.1295L32.1667 18.9643C30.6667 18.1252 29 18.6287 28 19.6356C28.8333 19.3 30 19.3 30.8333 19.8035L154.667 91.8009C157.5 93.4791 159.167 96.3322 159.167 99.5209V184.777C159.167 186.455 160.333 187.63 161.833 187.797C163 187.797 163.833 187.63 164.667 186.958L165.5 186.623L164.667 186.958Z" fill="url(#paint4_radial_121_1184)"/>
<path d="M128.833 93.1435C118.167 87.1017 107.667 77.2 98.9999 65.1165H98.8332C90.1665 67.1304 79.6665 64.7809 68.9999 58.4035L68.6665 58.2357L62.9999 61.4243L69.4999 65.7878C71.4999 92.9757 81.9999 115.297 98.9999 141.813L99.3332 141.981C102.333 140.806 97.8332 143.491 100.333 142.149C100.5 142.149 107.833 138.121 107.833 138.121C119.667 131.24 126.833 120.835 128.5 100.696L129 93.647L128.833 93.1435Z" fill="url(#paint5_linear_121_1184)"/>
<path d="M128.833 93.1435C118.167 87.1017 107.667 77.2 98.9998 65.1165H98.8332H98.6665L77.1665 77.5357L121.167 97.8426L129.167 93.3113L128.833 93.1435Z" fill="url(#paint6_linear_121_1184)"/>
<path d="M123.833 95.8287C113.167 89.787 102.667 79.8852 94 67.8017H93.8333C85.1666 69.8157 74.6666 67.4661 64 61.0887L63.6666 60.9209L64.1666 68.6409C66.1666 95.8287 76.6666 118.15 93.6666 144.666L94 144.834C111 138.121 121.5 128.051 123.5 103.213L124 96.1643L123.833 95.8287Z" fill="url(#paint7_radial_121_1184)"/>
<path d="M123 96.1644C112.333 90.1226 101.833 80.2209 93.1666 68.1374H92.9999C84.3333 70.1513 73.8333 67.8017 63.1666 61.4244L62.8333 61.2565L63.3333 68.9765C65.3333 96.1644 75.8333 118.485 92.8333 145.002L93.1666 145.17C110.167 138.457 120.667 128.387 122.667 103.549L123.167 96.5L123 96.1644Z" fill="url(#paint8_linear_121_1184)"/>
<path d="M123 96.1644C122.833 95.9965 122.667 95.9965 122.5 95.8287L122 102.877C120 127.716 109.5 137.785 92.6666 144.498C92.8333 144.666 92.8333 144.834 93 145.002L93.3333 145.17C110.333 138.457 120.833 128.387 122.833 103.549L123.333 96.5L123 96.1644Z" fill="url(#paint9_radial_121_1184)"/>
<path d="M94.4999 141.142C79.1665 117.143 68.6665 95.3252 66.6665 68.6409L66.4999 66.9626C73.4999 70.3191 80.3332 71.9974 86.6665 71.9974C88.3332 71.9974 89.9999 71.8296 91.6665 71.6617C100.167 82.9061 109.833 92.1365 120 98.1783L119.667 103.213C117.667 126.037 108.667 135.1 94.4999 141.142Z" fill="url(#paint10_linear_121_1184)"/>
<path opacity="0.2" d="M68.8333 68.3052V67.9696C68.1666 67.6339 67.3333 67.2983 66.6666 66.9626L66.8333 68.6409C68.8333 95.3252 79.3333 116.975 94.5 140.974C95.1666 140.638 95.8333 140.47 96.3333 140.135C81.1666 116.471 70.8333 94.8217 68.8333 68.3052Z" fill="url(#paint11_radial_121_1184)"/>
<path d="M96.4999 123.017L89.3333 118.989V86.2626L96.4999 90.2905V123.017Z" fill="url(#paint12_linear_121_1184)"/>
<path opacity="0.7" d="M91.4999 117.646V87.4374L89.3333 86.2626V118.989L96.4999 123.017V120.499L91.4999 117.646Z" fill="url(#paint13_linear_121_1184)"/>
<g opacity="0.2">
<path opacity="0.090909" d="M91.9999 123.017C91.9999 123.017 88.6665 121.674 88.4999 121.674C87.4999 121.17 83.9999 123.52 80.3332 126.373C76.1665 129.897 71.1665 134.261 70.3332 134.764L44.6665 149.365L41.3332 151.211L12.3332 167.826C10.6665 168.833 9.33321 170.344 8.83321 171.854C8.66655 172.357 8.49988 172.861 8.49988 173.532C8.49988 176.05 9.99988 178.399 12.6665 180.077C12.6665 180.077 14.1665 180.917 15.9999 181.756C19.4999 183.434 24.4999 185.616 26.3332 185.616C27.4999 185.616 28.6665 185.448 29.8332 185.112C30.8332 184.944 31.8332 184.441 32.6665 183.937L58.3332 167.658L63.6665 164.302L83.9999 151.211C86.1665 149.869 87.6665 147.855 87.6665 145.505C87.6665 144.498 88.8332 141.31 89.8332 137.617C91.4999 131.576 93.8332 124.024 91.9999 123.017Z" fill="black"/>
<path opacity="0.1818" d="M88.9999 125.701C88.9999 125.701 85.8332 124.359 85.6666 124.359C84.4999 123.855 81.1666 125.869 77.9999 128.554C74.1666 131.575 69.3332 135.939 68.4999 136.442L44.1666 150.372L40.9999 152.218L13.4999 167.994C11.9999 168.833 10.6666 170.343 10.1666 171.854C9.99991 172.357 9.83324 172.861 9.83324 173.364C9.66658 175.714 11.1666 178.063 13.8332 179.574C13.8332 179.574 15.3332 180.413 16.9999 181.252C20.1666 182.762 24.9999 184.944 26.8332 184.776C27.9999 184.776 28.9999 184.608 29.9999 184.273C30.8332 184.105 31.8332 183.601 32.6666 183.266L56.8332 167.658L61.8332 164.469L80.9999 152.05C82.9999 150.875 84.4999 148.861 84.4999 146.847C84.4999 146.008 85.8332 142.82 86.6666 139.631C88.3332 133.757 90.8332 126.708 88.9999 125.701Z" fill="black"/>
<path opacity="0.2727" d="M85.9999 128.554C85.9999 128.554 83.1666 127.38 82.9999 127.38C81.8333 126.876 78.6666 128.554 75.6666 131.072C72.3333 133.757 67.3333 137.953 66.6666 138.288L43.6666 151.379L40.6666 153.057L14.8333 167.994C13.4999 168.833 12.1666 170.175 11.6666 171.518C11.4999 172.021 11.3333 172.357 11.3333 172.861C11.1666 175.042 12.4999 177.224 14.9999 178.734C14.9999 178.734 16.4999 179.574 17.9999 180.245C20.9999 181.755 25.4999 183.601 27.1666 183.434C28.1666 183.434 29.3333 183.266 30.1666 182.93C30.9999 182.762 31.9999 182.259 32.6666 181.923L55.3333 167.322L60 164.301L77.9999 152.554C79.6666 151.547 81.4999 149.533 81.4999 147.687C81.4999 147.015 82.9999 143.827 83.8333 140.974C85.1666 135.939 87.8333 129.561 85.9999 128.554Z" fill="black"/>
<path opacity="0.3636" d="M82.9999 131.24C82.9999 131.24 80.4999 130.233 80.1666 130.065C78.9999 129.562 75.9999 131.072 73.1666 133.254C70.1666 135.603 65.1666 139.631 64.6666 139.967L43.1666 152.386L40.4999 153.896L16.1666 167.826C14.9999 168.497 13.4999 170.008 13.1666 171.015C12.9999 171.35 12.8333 171.854 12.8333 172.357C12.4999 174.371 13.6666 176.385 16.1666 177.896C16.1666 177.896 17.6666 178.735 18.8333 179.406C21.6666 180.749 25.6666 182.427 27.4999 182.427C28.4999 182.427 29.4999 182.259 30.3333 181.923C30.9999 181.756 31.9999 181.252 32.4999 180.916L53.6666 167.155L57.9999 164.302L74.8333 153.393C76.3333 152.554 78.1666 150.54 78.1666 148.862C78.1666 148.19 79.6666 145.337 80.4999 142.82C81.8333 138.121 84.8333 132.247 82.9999 131.24Z" fill="black"/>
<path opacity="0.4545" d="M79.9999 133.925C79.9999 133.925 77.6665 132.918 77.3332 132.918C76.1665 132.415 73.1665 133.589 70.6665 135.603C68.1665 137.617 63.1665 141.477 62.6665 141.813L42.4999 153.393L39.9999 154.903L17.1665 167.826C16.1665 168.329 14.6665 169.84 14.3332 170.679C14.1665 171.015 13.9999 171.518 13.9999 171.854C13.6665 173.7 14.6665 175.714 16.9999 176.889C16.9999 176.889 18.4999 177.728 19.4999 178.231C22.1665 179.574 25.8332 180.916 27.4999 180.916C28.4999 180.916 29.3332 180.749 30.1665 180.413C30.6665 180.245 31.8332 179.742 32.1665 179.406L51.8332 166.651L55.8332 163.966L71.4999 153.729C72.8332 152.889 74.6665 151.043 74.6665 149.701C74.6665 149.197 76.3332 146.344 77.1665 144.163C78.6665 140.303 81.8332 134.932 79.9999 133.925Z" fill="black"/>
<path opacity="0.5455" d="M76.9998 136.61C76.9998 136.61 74.9998 135.771 74.4998 135.603C73.3332 135.099 70.4998 136.106 68.3332 137.785C66.1665 139.463 61.1665 143.155 60.6665 143.491L41.9998 154.399L39.6665 155.742L18.4998 167.825C17.6665 168.329 15.9998 169.672 15.6665 170.511C15.4998 170.846 15.3332 171.182 15.1665 171.518C14.6665 173.196 15.6665 175.042 17.8332 176.217C17.8332 176.217 19.1665 177.056 20.1665 177.559C22.4998 178.734 25.9998 180.077 27.6665 179.909C28.4998 179.909 29.3332 179.741 30.1665 179.405C30.6665 179.238 31.6665 178.734 31.9998 178.566L50.1665 166.651L53.8332 164.133L68.3332 154.735C69.4998 154.064 71.4998 152.218 71.4998 151.043C71.4998 150.539 73.3332 147.854 73.9998 146.176C75.4998 142.484 78.8332 137.785 76.9998 136.61Z" fill="black"/>
<path opacity="0.6364" d="M74 139.463C74 139.463 72.3334 138.791 71.6667 138.624C70.3334 138.12 67.8334 138.791 65.8334 140.47C64.1667 141.812 59.1667 145.337 58.6667 145.504L41.3333 155.406L39.1667 156.749L19.6667 167.825C19 168.161 17.1667 169.504 17 170.175C16.8334 170.511 16.6667 170.846 16.5 171.182C16 172.692 16.8334 174.371 18.8334 175.545C18.8334 175.545 20.1667 176.384 21 176.72C23.1667 177.895 26.3334 178.902 27.8334 178.734C28.6667 178.734 29.3334 178.398 30 178.231C30.3334 178.063 31.3334 177.559 31.6667 177.391L48.3334 166.483L51.8334 164.301L65.1667 155.574C66 155.071 68.1667 153.224 68.1667 152.218C68.1667 151.882 70.1667 149.364 70.8334 147.854C72.1667 144.665 75.8334 140.47 74 139.463Z" fill="black"/>
<path opacity="0.7273" d="M70.9999 142.148C70.9999 142.148 69.4999 141.645 68.8333 141.477C67.4999 140.974 64.9999 141.477 63.3333 142.82C61.9999 143.827 56.9999 147.183 56.6666 147.351L40.6666 156.414L38.6666 157.588L20.9999 167.826C20.4999 168.161 18.6666 169.336 18.4999 169.84C18.3333 170.175 18.1666 170.343 17.9999 170.679C17.4999 172.021 18.1666 173.7 19.9999 174.707C19.9999 174.707 21.3333 175.546 21.9999 175.881C23.9999 176.888 26.6666 177.727 28.3333 177.56C28.9999 177.56 29.6666 177.224 30.3333 177.056C30.6666 176.888 31.6666 176.385 31.8333 176.217L47.1666 166.147L50.3333 164.134L62.4999 156.078C63.1666 155.742 65.3333 153.896 65.3333 153.225C65.3333 152.889 67.4999 150.54 67.9999 149.533C68.9999 146.847 72.8333 143.155 70.9999 142.148Z" fill="black"/>
<path opacity="0.8182" d="M68.0001 144.833C68.0001 144.833 66.8334 144.33 66.0001 144.162C64.6667 143.826 62.3334 143.826 61.0001 145.001C60.1667 145.672 55.0001 148.861 54.8334 149.029L40.3334 157.252L38.5001 158.259L22.0001 167.658C21.6667 167.825 19.6667 169.168 19.6667 169.504C19.5001 169.672 19.1667 170.007 19.1667 170.175C18.5001 171.35 19.1667 172.86 20.8334 173.867C20.8334 173.867 22.1667 174.706 22.5001 174.874C24.3334 175.713 26.6667 176.552 28.1667 176.217C28.8334 176.217 29.5001 175.881 30.0001 175.713C30.1667 175.713 31.1667 175.042 31.3334 174.874L45.1667 165.812L48.0001 163.965L59.0001 156.749C59.5001 156.413 61.8334 154.735 61.8334 154.232C61.8334 154.064 64.3334 151.882 64.6667 151.043C66.3334 149.197 69.8334 145.84 68.0001 144.833Z" fill="black"/>
<path opacity="0.9091" d="M65 147.687C65 147.687 64 147.351 63.1667 147.183C61.8333 146.847 59.6667 146.68 58.5 147.519C58 147.854 53 150.875 52.8333 151.043L39.6667 158.595L38 159.602L23.1667 167.994C23 168.161 21 169.336 20.8333 169.504C20.6667 169.672 20.3333 169.84 20.1667 170.175C19.5 171.182 20 172.525 21.5 173.532C21.5 173.532 22.8333 174.371 23 174.539C24.5 175.378 26.6667 175.881 28.1667 175.546C28.8333 175.378 29.3333 175.21 29.8333 175.042C30 175.042 31 174.371 31 174.371L43.3333 166.147L45.8333 164.469L55.6667 157.924C55.8333 157.756 58.3333 156.078 58.3333 155.742C58.3333 155.574 61 153.561 61.1667 153.225C63.1667 151.547 66.8333 148.694 65 147.687Z" fill="black"/>
<path d="M30.1665 173.531L44.1665 163.965L58.1665 154.399C59.6665 153.56 63.6665 151.211 61.8332 150.204C61.8332 150.204 57.4998 148.693 55.9998 149.532L39.1665 159.098L22.3332 168.664C20.8332 169.504 20.9998 171.182 22.8332 172.189L24.1665 173.028C25.9998 174.371 28.6665 174.538 30.1665 173.531Z" fill="black"/>
</g>
<path d="M93.1666 88.4443L42.1666 117.478V147.687L93.3333 117.814L94.8333 112.611L96.1666 90.2904L93.1666 88.4443Z" fill="url(#paint14_linear_121_1184)"/>
<path d="M96.1666 90.2904L45.3333 119.324V149.365L96.1666 119.828V90.2904Z" fill="url(#paint15_linear_121_1184)"/>
<path d="M96.1666 96.8356L52.6666 121.842V136.61L96.1666 111.604V96.8356Z" fill="url(#paint16_linear_121_1184)"/>
<path d="M96.1666 110.094L52.6666 135.1V136.61L96.1666 111.604V110.094Z" fill="#7A52C3"/>
<path d="M47.3333 103.717L42.3333 101.199C41.1666 100.36 39.4999 100.528 37.6666 101.535L16.3333 113.954C12.8333 115.968 9.83325 121.003 9.83325 125.198V169.169C9.83325 171.518 10.8333 173.029 12.1666 173.532L17.1666 176.217V173.7C17.3333 173.7 17.3333 173.532 17.4999 173.532L38.9999 161.113C42.4999 159.099 45.4999 154.064 45.4999 149.869V105.898C45.4999 105.73 45.4999 105.395 45.4999 105.227L47.3333 103.717ZM31.3333 146.848C31.3333 150.54 28.6666 155.071 25.4999 157.085L24.3333 157.757C21.1666 159.603 18.4999 158.092 18.4999 154.4V148.526L22.6666 124.023C23.1666 123.52 23.8333 123.017 24.3333 122.681L25.4999 122.01C28.6666 120.163 31.3333 121.674 31.3333 125.366V146.848Z" fill="url(#paint17_linear_121_1184)"/>
<path d="M42.6666 104.052L21.1666 116.471C17.6666 118.485 14.6666 123.52 14.6666 127.716V171.686C14.6666 175.882 17.5 177.392 21.1666 175.378L42.6666 162.959C46.1666 160.945 49.1666 155.91 49.1666 151.715V107.744C49.1666 103.716 46.3333 102.038 42.6666 104.052ZM35.1666 148.694C35.1666 152.386 32.5 156.917 29.3333 158.931L28.1666 159.603C25 161.449 22.3333 159.938 22.3333 156.246V134.764C22.3333 131.072 25 126.541 28.1666 124.527L29.3333 123.856C32.5 122.01 35.1666 123.52 35.1666 127.212V148.694Z" fill="url(#paint18_linear_121_1184)"/>
<path d="M28.6666 159.603L29.8333 158.931C33 157.085 35.6666 152.554 35.6666 148.694V127.212C35.6666 124.695 34.5 123.352 32.8333 123.017C34 123.52 34.6666 124.863 34.6666 126.877V148.358C34.6666 152.05 32 156.582 28.8333 158.596L27.6666 159.267C26.5 159.938 25.5 160.106 24.6666 160.106C25.6666 160.61 27.1666 160.61 28.6666 159.603Z" fill="url(#paint19_radial_121_1184)"/>
<path d="M15.4999 171.686V127.716C15.4999 123.52 18.3333 118.485 21.9999 116.471L43.3333 104.052C44.6666 103.381 45.8333 103.045 46.6666 103.213C45.4999 102.71 43.9999 102.71 42.3333 103.717L20.8333 116.136C17.3333 118.15 14.3333 123.184 14.3333 127.38V171.35C14.3333 174.036 15.4999 175.714 17.3333 175.882C16.3333 175.378 15.4999 173.868 15.4999 171.686Z" fill="url(#paint20_radial_121_1184)"/>
<path d="M96.1666 99.3531C94.4999 100.696 93.3333 103.045 93.3333 105.059C93.3333 107.073 94.4999 108.08 96.1666 107.577V99.3531Z" fill="url(#paint21_linear_121_1184)"/>
<path d="M68.6667 114.793C66.6667 115.968 65 118.821 65 121.17C65 123.52 66.6667 124.359 68.6667 123.184C70.6667 122.01 72.3333 119.157 72.3333 116.807C72.3333 114.625 70.6667 113.618 68.6667 114.793Z" fill="url(#paint22_linear_121_1184)"/>
<path d="M59.3333 120.163C57.3333 121.338 55.6666 124.191 55.6666 126.54C55.6666 128.89 57.3333 129.729 59.3333 128.554C61.3333 127.38 63 124.527 63 122.177C63 119.995 61.3333 119.156 59.3333 120.163Z" fill="url(#paint23_linear_121_1184)"/>
<path d="M87.4999 104.052C85.4999 105.227 83.8333 108.08 83.8333 110.43C83.8333 112.779 85.4999 113.618 87.4999 112.443C89.4999 111.269 91.1666 108.416 91.1666 106.066C91.1666 103.884 89.6666 102.877 87.4999 104.052Z" fill="url(#paint24_linear_121_1184)"/>
<path d="M78.1665 109.423C76.1665 110.598 74.4999 113.451 74.4999 115.8C74.4999 118.15 76.1665 118.989 78.1665 117.814C80.1665 116.639 81.8332 113.786 81.8332 111.437C81.8332 109.255 80.1665 108.248 78.1665 109.423Z" fill="url(#paint25_linear_121_1184)"/>
</g>
<defs>
<linearGradient id="paint0_linear_121_1184" x1="104.597" y1="92.5554" x2="117.754" y2="-83.1918" gradientUnits="userSpaceOnUse">
<stop offset="0.030303" stop-color="#7C1DC9"/>
<stop offset="0.2138" stop-color="#6E41D2"/>
<stop offset="0.6184" stop-color="#4C9BE8"/>
<stop offset="1" stop-color="#2AF6FF"/>
</linearGradient>
<radialGradient id="paint1_radial_121_1184" cx="0" cy="0" r="1" gradientUnits="userSpaceOnUse" gradientTransform="translate(71.1008 18.7811) scale(26.4552 26.6392)">
<stop stop-color="white"/>
<stop offset="1"/>
</radialGradient>
<radialGradient id="paint2_radial_121_1184" cx="0" cy="0" r="1" gradientUnits="userSpaceOnUse" gradientTransform="translate(124.866 76.8036) scale(47.6898 48.0216)">
<stop stop-color="white"/>
<stop offset="1"/>
</radialGradient>
<linearGradient id="paint3_linear_121_1184" x1="34.0355" y1="349.912" x2="129.969" y2="-23.0848" gradientUnits="userSpaceOnUse">
<stop offset="0.030303" stop-color="#7C1DC9"/>
<stop offset="0.2138" stop-color="#6E41D2"/>
<stop offset="0.6184" stop-color="#4C9BE8"/>
<stop offset="1" stop-color="#2AF6FF"/>
</linearGradient>
<radialGradient id="paint4_radial_121_1184" cx="0" cy="0" r="1" gradientUnits="userSpaceOnUse" gradientTransform="translate(78.0912 103.752) scale(76.8067 77.341)">
<stop stop-color="white"/>
<stop offset="1"/>
</radialGradient>
<linearGradient id="paint5_linear_121_1184" x1="117.492" y1="128.966" x2="83.7736" y2="55.1872" gradientUnits="userSpaceOnUse">
<stop offset="0.030303" stop-color="#7C1DC9"/>
<stop offset="0.2138" stop-color="#6E41D2"/>
<stop offset="0.6184" stop-color="#4C9BE8"/>
<stop offset="1" stop-color="#2AF6FF"/>
</linearGradient>
<linearGradient id="paint6_linear_121_1184" x1="97.6902" y1="117.788" x2="106.229" y2="68.1963" gradientUnits="userSpaceOnUse">
<stop offset="0.030303" stop-color="#7C1DC9"/>
<stop offset="0.2138" stop-color="#6E41D2"/>
<stop offset="0.6184" stop-color="#4C9BE8"/>
<stop offset="1" stop-color="#2AF6FF"/>
</linearGradient>
<radialGradient id="paint7_radial_121_1184" cx="0" cy="0" r="1" gradientUnits="userSpaceOnUse" gradientTransform="translate(116.285 90.6558) scale(49.011 49.3519)">
<stop offset="0.3636" stop-color="white"/>
<stop offset="0.4269" stop-color="#E1E1E1"/>
<stop offset="0.6404" stop-color="#828282"/>
<stop offset="0.8134" stop-color="#3C3C3C"/>
<stop offset="0.9372" stop-color="#111111"/>
<stop offset="1"/>
</radialGradient>
<linearGradient id="paint8_linear_121_1184" x1="66.1893" y1="153.233" x2="129.393" y2="-2.48843" gradientUnits="userSpaceOnUse">
<stop offset="0.030303" stop-color="#7C1DC9"/>
<stop offset="0.2138" stop-color="#6E41D2"/>
<stop offset="0.6184" stop-color="#4C9BE8"/>
<stop offset="1" stop-color="#2AF6FF"/>
</linearGradient>
<radialGradient id="paint9_radial_121_1184" cx="0" cy="0" r="1" gradientUnits="userSpaceOnUse" gradientTransform="translate(118.405 144.959) scale(20.4142 20.5562)">
<stop stop-color="#FF63CE"/>
<stop offset="1"/>
</radialGradient>
<linearGradient id="paint10_linear_121_1184" x1="54.244" y1="182.717" x2="114.659" y2="39.5318" gradientUnits="userSpaceOnUse">
<stop offset="0.030303" stop-color="#7C1DC9"/>
<stop offset="0.2138" stop-color="#6E41D2"/>
<stop offset="0.6184" stop-color="#4C9BE8"/>
<stop offset="1" stop-color="#2AF6FF"/>
</linearGradient>
<radialGradient id="paint11_radial_121_1184" cx="0" cy="0" r="1" gradientUnits="userSpaceOnUse" gradientTransform="translate(77.066 115.765) scale(28.0605 46.961)">
<stop offset="0.1364" stop-color="#25166D"/>
<stop offset="0.2167" stop-color="#2C1D72"/>
<stop offset="0.3354" stop-color="#3E317E"/>
<stop offset="0.4779" stop-color="#5D5293"/>
<stop offset="0.6389" stop-color="#887FAF"/>
<stop offset="0.8154" stop-color="#BEBAD4"/>
<stop offset="1" stop-color="white"/>
</radialGradient>
<linearGradient id="paint12_linear_121_1184" x1="109.638" y1="116.066" x2="81.8272" y2="97.399" gradientUnits="userSpaceOnUse">
<stop stop-color="#9F79C8"/>
<stop offset="0.1409" stop-color="#A27DCA"/>
<stop offset="0.2725" stop-color="#AC88CF"/>
<stop offset="0.4" stop-color="#BC9BD7"/>
<stop offset="0.5202" stop-color="#D1B4E3"/>
<stop offset="0.6493" stop-color="#DBC4E9"/>
<stop offset="0.8997" stop-color="#F4EDF8"/>
<stop offset="1" stop-color="white"/>
</linearGradient>
<linearGradient id="paint13_linear_121_1184" x1="91.7429" y1="104.961" x2="146.705" y2="90.1366" gradientUnits="userSpaceOnUse">
<stop offset="0.030303" stop-color="#7C1DC9"/>
<stop offset="0.2138" stop-color="#6E41D2"/>
<stop offset="0.6184" stop-color="#4C9BE8"/>
<stop offset="1" stop-color="#2AF6FF"/>
</linearGradient>
<linearGradient id="paint14_linear_121_1184" x1="11.6458" y1="137.51" x2="120.431" y2="100.199" gradientUnits="userSpaceOnUse">
<stop stop-color="#9F79C8"/>
<stop offset="0.1409" stop-color="#A27DCA"/>
<stop offset="0.2725" stop-color="#AC88CF"/>
<stop offset="0.4" stop-color="#BC9BD7"/>
<stop offset="0.5202" stop-color="#D1B4E3"/>
<stop offset="0.6493" stop-color="#DBC4E9"/>
<stop offset="0.8997" stop-color="#F4EDF8"/>
<stop offset="1" stop-color="white"/>
</linearGradient>
<linearGradient id="paint15_linear_121_1184" x1="56.1791" y1="130.284" x2="198.321" y2="27.2598" gradientUnits="userSpaceOnUse">
<stop stop-color="#9F79C8"/>
<stop offset="0.1409" stop-color="#A27DCA"/>
<stop offset="0.2725" stop-color="#AC88CF"/>
<stop offset="0.4" stop-color="#BC9BD7"/>
<stop offset="0.5202" stop-color="#D1B4E3"/>
<stop offset="0.6493" stop-color="#DBC4E9"/>
<stop offset="0.8997" stop-color="#F4EDF8"/>
<stop offset="1" stop-color="white"/>
</linearGradient>
<linearGradient id="paint16_linear_121_1184" x1="47.6683" y1="87.0443" x2="88.9522" y2="132.231" gradientUnits="userSpaceOnUse">
<stop stop-color="#9F79C8"/>
<stop offset="0.1409" stop-color="#A27DCA"/>
<stop offset="0.2725" stop-color="#AC88CF"/>
<stop offset="0.4" stop-color="#BC9BD7"/>
<stop offset="0.5202" stop-color="#D1B4E3"/>
<stop offset="0.6493" stop-color="#DBC4E9"/>
<stop offset="0.8997" stop-color="#F4EDF8"/>
<stop offset="1" stop-color="white"/>
</linearGradient>
<linearGradient id="paint17_linear_121_1184" x1="49.4233" y1="193.192" x2="9.32419" y2="86.5498" gradientUnits="userSpaceOnUse">
<stop stop-color="#9F79C8"/>
<stop offset="0.1409" stop-color="#A27DCA"/>
<stop offset="0.2725" stop-color="#AC88CF"/>
<stop offset="0.4" stop-color="#BC9BD7"/>
<stop offset="0.5202" stop-color="#D1B4E3"/>
<stop offset="0.6493" stop-color="#DBC4E9"/>
<stop offset="0.8997" stop-color="#F4EDF8"/>
<stop offset="1" stop-color="white"/>
</linearGradient>
<linearGradient id="paint18_linear_121_1184" x1="43.9575" y1="134.042" x2="130.259" y2="93.195" gradientUnits="userSpaceOnUse">
<stop stop-color="#9F79C8"/>
<stop offset="0.1409" stop-color="#A27DCA"/>
<stop offset="0.2725" stop-color="#AC88CF"/>
<stop offset="0.4" stop-color="#BC9BD7"/>
<stop offset="0.5202" stop-color="#D1B4E3"/>
<stop offset="0.6493" stop-color="#DBC4E9"/>
<stop offset="0.8997" stop-color="#F4EDF8"/>
<stop offset="1" stop-color="white"/>
</linearGradient>
<radialGradient id="paint19_radial_121_1184" cx="0" cy="0" r="1" gradientUnits="userSpaceOnUse" gradientTransform="translate(41.9296 154.512) scale(13.6882 13.7834)">
<stop stop-color="white"/>
<stop offset="1"/>
</radialGradient>
<radialGradient id="paint20_radial_121_1184" cx="0" cy="0" r="1" gradientUnits="userSpaceOnUse" gradientTransform="translate(26.1983 121.794) scale(28.0732 28.2685)">
<stop stop-color="white"/>
<stop offset="1"/>
</radialGradient>
<linearGradient id="paint21_linear_121_1184" x1="41.3557" y1="130.694" x2="120.506" y2="91.8477" gradientUnits="userSpaceOnUse">
<stop offset="0.0959596" stop-color="#45108A"/>
<stop offset="1" stop-color="#7C1DC9"/>
</linearGradient>
<linearGradient id="paint22_linear_121_1184" x1="42.1483" y1="132.312" x2="121.301" y2="93.4651" gradientUnits="userSpaceOnUse">
<stop offset="0.0959596" stop-color="#45108A"/>
<stop offset="1" stop-color="#7C1DC9"/>
</linearGradient>
<linearGradient id="paint23_linear_121_1184" x1="42.4225" y1="132.87" x2="121.575" y2="94.0229" gradientUnits="userSpaceOnUse">
<stop offset="0.0959596" stop-color="#45108A"/>
<stop offset="1" stop-color="#7C1DC9"/>
</linearGradient>
<linearGradient id="paint24_linear_121_1184" x1="41.6007" y1="131.196" x2="120.753" y2="92.349" gradientUnits="userSpaceOnUse">
<stop offset="0.0959596" stop-color="#45108A"/>
<stop offset="1" stop-color="#7C1DC9"/>
</linearGradient>
<linearGradient id="paint25_linear_121_1184" x1="41.8746" y1="131.755" x2="121.027" y2="92.9076" gradientUnits="userSpaceOnUse">
<stop offset="0.0959596" stop-color="#45108A"/>
<stop offset="1" stop-color="#7C1DC9"/>
</linearGradient>
<clipPath id="clip0_121_1184">
<rect width="189" height="193" fill="white"/>
</clipPath>
</defs>
</svg>
