<svg width="26" height="26" viewBox="0 0 26 26" fill="none" xmlns="http://www.w3.org/2000/svg">
<path d="M25 15.4H15.4V25H25V15.4ZM6.4 1L11.8 10.6H1L6.4 1ZM20.2 10.6C21.473 10.6 22.6939 10.0943 23.5941 9.19411C24.4943 8.29394 25 7.07304 25 5.8C25 4.52696 24.4943 3.30606 23.5941 2.40589C22.6939 1.50571 21.473 1 20.2 1C18.927 1 17.7061 1.50571 16.8059 2.40589C15.9057 3.30606 15.4 4.52696 15.4 5.8C15.4 7.07304 15.9057 8.29394 16.8059 9.19411C17.7061 10.0943 18.927 10.6 20.2 10.6Z" stroke="#85CFFF" stroke-width="1.5" stroke-linejoin="round"/>
<path d="M1 15.3999L10.6 24.9999M10.6 15.3999L1 24.9999" stroke="#85CFFF" stroke-width="1.5" stroke-linecap="round" stroke-linejoin="round"/>
</svg>
