<svg width="293" height="100" viewBox="0 0 293 100" fill="none" xmlns="http://www.w3.org/2000/svg">
<path fill-rule="evenodd" clip-rule="evenodd" d="M37.2032 70.5159L43.0293 74.9423C43.8992 75.6031 44.9616 75.9609 46.0541 75.9609H65.768H106.089H106.171C106.171 75.9609 106.171 75.961 106.171 75.9611C106.171 75.9612 106.171 75.9613 106.171 75.9613H208.903C210.815 75.9613 212.366 74.411 212.366 72.4986C212.366 70.5862 213.916 69.0359 215.828 69.0359H236.796C238.708 69.0359 240.259 70.5862 240.259 72.4986C240.259 74.411 241.809 75.9613 243.721 75.9613H256.706C259.124 75.9613 261.196 74.2302 261.626 71.8501L265.577 49.9807L266.977 41.219C267.27 39.3842 266.522 37.5381 265.034 36.4255L255.698 29.4452L249.872 25.0189C249.002 24.358 247.94 24.0002 246.847 24.0002H227.133H186.813H186.73C186.73 24.0002 186.73 24.0001 186.73 24C186.73 23.9999 186.73 23.9998 186.73 23.9998H36.1955C33.7769 23.9998 31.705 25.7309 31.2751 28.111L27.3245 49.9804L25.9242 58.7421C25.6309 60.5769 26.3793 62.423 27.8674 63.5356L37.2032 70.5159Z" fill="url(#paint0_linear_0_4)"/>
<g filter="url(#filter0_d_0_4)">
<path d="M188.34 16H232.67H254.228C255.493 16 256.71 16.4789 257.635 17.3403L264.075 23.3353L275.083 33.4207C276.285 34.5214 276.875 36.1385 276.664 37.7541L274.936 51" stroke="#FF127F" stroke-width="2"/>
</g>
<g filter="url(#filter1_d_0_4)">
<path d="M74.7748 84H40.1115C38.9362 84 37.7985 83.586 36.8981 82.8307L29.5476 76.6647L18.2594 67.5008C16.8628 66.367 16.1829 64.5705 16.4789 62.7961L18.7804 49" stroke="#FF127F" stroke-width="2"/>
</g>
<defs>
<filter id="filter0_d_0_4" x="173.34" y="0" width="119.366" height="66.1293" filterUnits="userSpaceOnUse" color-interpolation-filters="sRGB">
<feFlood flood-opacity="0" result="BackgroundImageFix"/>
<feColorMatrix in="SourceAlpha" type="matrix" values="0 0 0 0 0 0 0 0 0 0 0 0 0 0 0 0 0 0 127 0" result="hardAlpha"/>
<feOffset/>
<feGaussianBlur stdDeviation="7.5"/>
<feComposite in2="hardAlpha" operator="out"/>
<feColorMatrix type="matrix" values="0 0 0 0 1 0 0 0 0 0.404167 0 0 0 0 0.6782 0 0 0 1 0"/>
<feBlend mode="normal" in2="BackgroundImageFix" result="effect1_dropShadow_0_4"/>
<feBlend mode="normal" in="SourceGraphic" in2="effect1_dropShadow_0_4" result="shape"/>
</filter>
<filter id="filter1_d_0_4" x="0.410583" y="33.8354" width="89.3642" height="66.1646" filterUnits="userSpaceOnUse" color-interpolation-filters="sRGB">
<feFlood flood-opacity="0" result="BackgroundImageFix"/>
<feColorMatrix in="SourceAlpha" type="matrix" values="0 0 0 0 0 0 0 0 0 0 0 0 0 0 0 0 0 0 127 0" result="hardAlpha"/>
<feOffset/>
<feGaussianBlur stdDeviation="7.5"/>
<feComposite in2="hardAlpha" operator="out"/>
<feColorMatrix type="matrix" values="0 0 0 0 1 0 0 0 0 0.404167 0 0 0 0 0.6782 0 0 0 1 0"/>
<feBlend mode="normal" in2="BackgroundImageFix" result="effect1_dropShadow_0_4"/>
<feBlend mode="normal" in="SourceGraphic" in2="effect1_dropShadow_0_4" result="shape"/>
</filter>
<linearGradient id="paint0_linear_0_4" x1="71.6977" y1="23.9998" x2="227.952" y2="132.337" gradientUnits="userSpaceOnUse">
<stop stop-color="#FF127F"/>
<stop offset="0.5" stop-color="#FF449A"/>
<stop offset="1" stop-color="#FF1580"/>
</linearGradient>
</defs>
</svg>
