<svg width="185" height="42" viewBox="0 0 185 42" fill="none" xmlns="http://www.w3.org/2000/svg">
<path d="M63.1538 38.9083L43 1H111.5H138.75H162.197C163.307 1 164.325 1.61219 164.846 2.59172L182.656 36.0917C183.719 38.0899 182.27 40.5 180.007 40.5H65.8027C64.6933 40.5 63.6745 39.8878 63.1538 38.9083Z" fill="#1B183A"/>
<path d="M0 1H10.75H21.5H43M43 1L63.1538 38.9083C63.6745 39.8878 64.6933 40.5 65.8027 40.5H180.007C182.27 40.5 183.719 38.0899 182.656 36.0917L164.846 2.59172C164.325 1.61219 163.307 1 162.197 1H138.75H111.5H43Z" stroke="#FF127F" stroke-width="2"/>
</svg>
