<svg width="276" height="42" viewBox="0 0 276 42" fill="none" xmlns="http://www.w3.org/2000/svg">
<path d="M63.1538 38.9083L43 1H192.5H219.75H253.697C254.807 1 255.825 1.61219 256.346 2.59172L274.156 36.0917C275.219 38.0899 273.77 40.5 271.507 40.5H65.8027C64.6933 40.5 63.6745 39.8878 63.1538 38.9083Z" fill="#1B183A"/>
<path d="M0 1H10.75H21.5H43M43 1L63.1538 38.9083C63.6745 39.8878 64.6933 40.5 65.8027 40.5H271.507C273.77 40.5 275.219 38.0899 274.156 36.0917L256.346 2.59172C255.825 1.61219 254.807 1 253.697 1H219.75H192.5H43Z" stroke="#FF127F" stroke-width="2"/>
</svg>
