<svg width="25" height="15" viewBox="0 0 25 15" fill="none" xmlns="http://www.w3.org/2000/svg">
<path d="M1.96 14H0.14L6.24 -9.53674e-07H8.1L14.18 14H12.38L10.94 10.62H3.4L1.96 14ZM6.94 2.26L4.06 9.06H10.28L7.38 2.26C7.35333 2.19333 7.28 2.01333 7.16 1.72C7.04 2.02667 6.96667 2.20667 6.94 2.26ZM23.4792 12C23.4792 12.4933 23.7259 12.74 24.2192 12.74C24.4326 12.74 24.6792 12.6933 24.9592 12.6V13.9C24.5592 14.0467 24.1592 14.12 23.7592 14.12C22.8392 14.12 22.2526 13.7333 21.9992 12.96C20.9726 13.8133 19.7259 14.24 18.2592 14.24C17.3259 14.24 16.5259 13.9933 15.8592 13.5C15.2059 12.9933 14.8792 12.2667 14.8792 11.32C14.8792 10.1867 15.2992 9.36667 16.1392 8.86C16.9926 8.34 18.0192 8.08 19.2192 8.08C20.0992 8.08 20.9859 8.18 21.8792 8.38V8.04C21.8792 7.30667 21.6392 6.72667 21.1592 6.3C20.6792 5.86 20.0059 5.64 19.1392 5.64C17.9259 5.64 16.7592 5.88 15.6392 6.36V4.8C16.8926 4.37333 18.1126 4.16 19.2992 4.16C20.6059 4.16 21.6259 4.51333 22.3592 5.22C23.1059 5.91333 23.4792 6.92 23.4792 8.24V12ZM16.5192 11.24C16.5192 11.7733 16.7192 12.18 17.1192 12.46C17.5326 12.7267 18.0259 12.86 18.5992 12.86C19.9192 12.86 21.0126 12.3933 21.8792 11.46V9.7C20.9726 9.51333 20.1592 9.42 19.4392 9.42C18.6259 9.42 17.9326 9.56667 17.3592 9.86C16.7992 10.14 16.5192 10.6 16.5192 11.24Z" fill="#85CFFF"/>
</svg>
