<svg width="153" height="152" viewBox="0 0 153 152" fill="none" xmlns="http://www.w3.org/2000/svg">
<g filter="url(#filter0_d_277_1750)">
<path fill-rule="evenodd" clip-rule="evenodd" d="M129.5 76C129.5 105.271 105.771 129 76.5 129C47.2289 129 23.5 105.271 23.5 76C23.5 46.7289 47.2289 23 76.5 23C105.771 23 129.5 46.7289 129.5 76ZM76.5 127.339C104.854 127.339 127.839 104.354 127.839 76C127.839 47.6465 104.854 24.6614 76.5 24.6614C48.1465 24.6614 25.1614 47.6465 25.1614 76C25.1614 104.354 48.1465 127.339 76.5 127.339ZM125.896 81.3167C123.243 106.253 102.14 125.677 76.5 125.677C50.8601 125.677 29.7572 106.253 27.104 81.3167H37.1778C39.885 100.658 56.4958 115.542 76.5831 115.542C96.6704 115.542 113.281 100.658 115.988 81.3167H125.896ZM76.5 126.84C104.578 126.84 127.34 104.078 127.34 76C127.34 47.9218 104.578 25.1599 76.5 25.1599C48.4217 25.1599 25.6598 47.9218 25.6598 76C25.6598 104.078 48.4217 126.84 76.5 126.84ZM85.2521 47.5894C83.7172 47.5894 82.4729 48.8337 82.4729 50.3686C82.4729 51.9035 83.7172 53.1478 85.2521 53.1478C86.0519 53.1478 86.7727 52.8099 87.2798 52.2692C96.6915 56.2277 103.3 65.5349 103.3 76.3856C103.3 90.5483 92.0414 102.082 77.9859 102.524V99.1734C90.2079 98.7374 100 88.7923 100.085 76.5463C101.141 76.1526 101.894 75.1348 101.894 73.9413C101.894 72.4064 100.649 71.1621 99.1145 71.1621C97.5796 71.1621 96.3353 72.4064 96.3353 73.9413C96.3353 75.2328 97.2162 76.3185 98.4099 76.6304C98.2811 87.9043 89.2638 97.0643 77.9859 97.498V92.5705C79.0437 92.8639 80.158 93.0207 81.3087 93.0207C88.1859 93.0207 93.761 87.4219 93.761 80.5154C93.761 76.7447 92.0992 73.3637 89.471 71.071V60.6481H87.7968V69.8395C87.2434 69.4996 86.6615 69.2019 86.0556 68.9508V57.7686H84.3814V68.3937C83.3986 68.1432 82.3691 68.01 81.3087 68.01C77.1425 68.01 73.4541 70.0648 71.1936 73.2204H73.5329C75.4749 71.1335 78.2402 69.8291 81.3087 69.8291C83.7509 69.8291 86.0009 70.6553 87.7968 72.0446V72.0997H87.8673C90.3527 74.0559 91.9496 77.0983 91.9496 80.5154C91.9496 86.4172 87.1855 91.2016 81.3087 91.2016C78.2399 91.2016 75.4745 89.897 73.5325 87.8099H71.1933C72.4895 89.6196 74.2554 91.0673 76.3117 91.9731V103.374V104.211H77.1488C92.5163 104.211 104.974 91.7531 104.974 76.3856C104.974 64.8694 97.9781 54.9872 88.0043 50.7573C88.0221 50.6303 88.0313 50.5005 88.0313 50.3686C88.0313 48.8337 86.787 47.5894 85.2521 47.5894ZM75.0775 49.3104C61.022 49.7524 49.7635 61.2856 49.7635 75.4484C49.7635 86.2991 56.372 95.6064 65.7837 99.5648C66.2908 99.0241 67.0117 98.6862 67.8115 98.6862C69.3464 98.6862 70.5906 99.9305 70.5906 101.465C70.5906 103 69.3464 104.245 67.8115 104.245C66.2766 104.245 65.0323 103 65.0323 101.465C65.0323 101.333 65.0415 101.204 65.0592 101.077C55.0853 96.8468 48.0893 86.9646 48.0893 75.4484C48.0893 60.0809 60.5471 47.6231 75.9146 47.6231H76.7517V48.4602V59.8608C78.808 60.7666 80.5738 62.2143 81.8701 64.024H79.5309C77.5888 61.9369 74.8234 60.6323 71.7546 60.6323C65.8778 60.6323 61.1137 65.4167 61.1137 71.3185C61.1137 74.7356 62.7108 77.7781 65.1961 79.7342H65.2667V79.7893C67.0625 81.1785 69.3125 82.0047 71.7546 82.0047C74.8232 82.0047 77.5884 80.7003 79.5304 78.6135H81.8698C79.6093 81.769 75.9209 83.8238 71.7546 83.8238C70.6942 83.8238 69.6648 83.6907 68.682 83.4402V94.0654H67.0078V82.8831C66.4019 82.632 65.82 82.3343 65.2667 81.9944V91.1858H63.5924V80.763C60.9642 78.4702 59.3023 75.0892 59.3023 71.3185C59.3023 64.412 64.8774 58.8132 71.7546 58.8132C72.9054 58.8132 74.0197 58.9699 75.0775 59.2634V54.3358C63.7997 54.7696 54.7824 63.9296 54.6535 75.2035C55.8473 75.5154 56.7282 76.6011 56.7282 77.8926C56.7282 79.4275 55.4839 80.6717 53.949 80.6717C52.4141 80.6717 51.1698 79.4275 51.1698 77.8926C51.1698 76.699 51.9222 75.6812 52.9785 75.2875C53.0635 63.0416 62.8556 53.0965 75.0775 52.6605V49.3104ZM115.212 75.7507C115.212 97.0847 97.9171 114.379 76.5831 114.379C55.2492 114.379 37.9546 97.0847 37.9546 75.7507C37.9546 54.4168 55.2492 37.1222 76.5831 37.1222C97.9171 37.1222 115.212 54.4168 115.212 75.7507ZM33.3484 84.3339C32.843 84.2693 32.2945 84.3231 31.7029 84.4844C31.1437 84.635 30.6705 84.8824 30.3156 85.1943C29.9391 85.5169 29.6703 85.8826 29.509 86.2913C29.3476 86.6999 29.2616 87.1301 29.2508 87.5818C29.2401 88.0336 29.3046 88.496 29.4337 88.9692C29.6273 89.6575 29.9284 90.2491 30.3478 90.7438L32.2837 90.1953C31.875 89.9372 31.5739 89.4532 31.3695 88.7219C31.2405 88.2486 31.2512 87.8185 31.4018 87.4313C31.5524 87.0441 31.8643 86.7752 32.3375 86.6462C32.8752 86.4956 33.3162 86.5386 33.6711 86.7967C34.0153 87.0549 34.2626 87.4313 34.4024 87.9153C34.5745 88.496 34.5638 89.0445 34.3917 89.55L36.2845 89.0123C36.3813 88.367 36.3276 87.7001 36.134 87.0118C35.9942 86.5601 35.8113 86.1407 35.564 85.775C35.3166 85.4094 35.0047 85.0975 34.6498 84.8286C34.2949 84.5705 33.8539 84.3984 33.3484 84.3339ZM32.3268 96.0566L31.3373 94.0885L37.3063 91.0986L38.6937 93.8626C38.8658 94.2068 38.9841 94.5294 39.0594 94.8521C39.1346 95.1747 39.1562 95.4974 39.1239 95.82C39.0916 96.1427 38.9733 96.4546 38.7582 96.7342C38.5431 97.0138 38.242 97.2612 37.8548 97.4548C37.0052 97.8742 36.2416 97.8312 35.564 97.3257L34.2519 99.9069L33.1657 97.7344L34.3165 95.6264L34.0906 95.164L32.3268 96.0566ZM36.6933 93.8626L35.564 94.4219L35.9404 95.1855C36.0372 95.3683 36.1555 95.4974 36.3169 95.5511C36.4782 95.6049 36.6395 95.5942 36.8116 95.5081C36.9837 95.4221 37.0912 95.3038 37.145 95.1425C37.188 94.9811 37.1665 94.8091 37.0805 94.6262L36.6933 93.8626ZM36.8545 103.628L38.1774 105.36L39.9735 103.983L45.0175 103.338L43.5118 101.359L40.8123 101.983L42.1244 99.5412L40.6188 97.5623L38.6614 102.241L36.8545 103.628ZM46.3727 104.639L48.5667 106.564C50.0616 107.876 50.2767 109.156 49.1905 110.393C48.1042 111.63 46.8137 111.587 45.3187 110.275L44.781 109.801L43.6302 111.114L41.9739 109.662L46.3727 104.639ZM47.545 108.952C47.8354 108.618 47.7708 108.274 47.3514 107.909L46.8244 107.446L45.964 108.425L46.491 108.887C46.9104 109.253 47.2546 109.274 47.545 108.952ZM57.1813 112.479L52.2233 109.522L51.2338 111.189L52.7718 112.103L50.3412 116.179L52.2233 117.298L54.6539 113.221L56.1918 114.136L57.1813 112.479ZM57.4825 119.04C57.1168 118.212 57.1061 117.319 57.4502 116.362C57.7944 115.416 58.3751 114.738 59.1925 114.329C60.0099 113.921 60.9563 113.921 62.0426 114.308C63.1288 114.695 63.8494 115.308 64.215 116.147C64.5807 116.975 64.5915 117.868 64.2473 118.825C63.9032 119.771 63.3224 120.449 62.505 120.858C61.6876 121.266 60.7412 121.266 59.655 120.879C58.5687 120.481 57.8482 119.868 57.4825 119.04ZM61.408 118.965C61.7199 118.793 61.9565 118.491 62.1178 118.051C62.2792 117.61 62.2899 117.233 62.1501 116.9C62.021 116.566 61.7522 116.33 61.3542 116.179C60.9563 116.039 60.6014 116.05 60.2788 116.222C59.9669 116.394 59.7303 116.695 59.5689 117.136C59.4076 117.577 59.3969 117.954 59.5367 118.287C59.6657 118.621 59.9346 118.857 60.3325 119.008C60.7305 119.148 61.0961 119.137 61.408 118.965ZM70.7863 118.47C70.5604 118.932 70.4206 119.459 70.3776 120.072C70.3346 120.653 70.3991 121.18 70.5819 121.642C70.754 122.105 71.0121 122.481 71.3455 122.772C71.6789 123.062 72.0554 123.288 72.4748 123.449C72.8942 123.611 73.3567 123.707 73.8407 123.74C74.5505 123.783 75.2173 123.697 75.8196 123.471L75.9594 121.46C75.583 121.761 75.013 121.879 74.2601 121.825C73.7761 121.793 73.3782 121.632 73.0556 121.363C72.7329 121.094 72.5931 120.707 72.6254 120.223C72.6576 119.664 72.862 119.266 73.2169 119.018C73.5826 118.771 74.0127 118.663 74.5182 118.696C75.1313 118.728 75.6367 118.922 76.0562 119.255L76.1852 117.298C75.6045 116.986 74.9699 116.814 74.2494 116.76C73.7761 116.728 73.3244 116.771 72.8942 116.878C72.464 116.986 72.0554 117.168 71.6897 117.416C71.324 117.663 71.0229 118.018 70.7863 118.47ZM81.0034 123.428L78.7879 123.707L80.4119 116.771L82.7565 116.469L86.069 122.772L83.8535 123.051L83.4556 122.213L81.1648 122.503L81.0034 123.428ZM81.767 119.395L81.4874 120.868L82.778 120.707L82.1327 119.352C82.0036 119.083 81.9068 118.814 81.8316 118.524C81.8316 118.782 81.8101 119.072 81.767 119.395ZM89.1986 121.987L91.2851 121.277L90.6613 119.405L91.1453 119.244L93.0811 120.675L95.3719 119.9L93.0059 118.244C93.5974 117.631 93.7479 116.878 93.4468 115.985C93.307 115.566 93.1026 115.233 92.8553 114.985C92.5972 114.738 92.3175 114.576 91.9949 114.501C91.6722 114.426 91.3496 114.404 91.027 114.437C90.6936 114.469 90.3601 114.544 89.9945 114.663L87.0584 115.652L89.1986 121.987ZM90.1128 117.846L89.7149 116.652L90.5107 116.383C90.7151 116.308 90.8871 116.319 91.0377 116.383C91.1883 116.459 91.2958 116.577 91.3604 116.76C91.4249 116.943 91.4141 117.104 91.3388 117.254C91.2528 117.405 91.113 117.513 90.9194 117.577L90.1128 117.846ZM98.308 117.545C97.4369 117.298 96.7378 116.738 96.2323 115.867C95.7161 114.996 95.5655 114.114 95.7806 113.232C95.985 112.35 96.5873 111.608 97.5875 111.028C98.5769 110.447 99.5126 110.275 100.384 110.533C101.255 110.78 101.954 111.339 102.459 112.211C102.976 113.082 103.126 113.964 102.911 114.846C102.707 115.727 102.105 116.47 101.104 117.05C100.115 117.631 99.1899 117.792 98.308 117.545ZM100.76 114.48C100.835 114.125 100.749 113.749 100.513 113.351C100.276 112.953 99.9858 112.695 99.6524 112.587C99.3082 112.479 98.9533 112.533 98.5877 112.748C98.222 112.963 98.0069 113.243 97.9316 113.598C97.8563 113.953 97.9424 114.329 98.179 114.727C98.4156 115.125 98.706 115.383 99.0394 115.491C99.3835 115.598 99.7384 115.545 100.104 115.33C100.47 115.114 100.685 114.835 100.76 114.48ZM106.976 103.897L105.353 105.37L108.009 108.306C108.407 108.737 108.385 109.156 107.934 109.565C107.482 109.973 107.073 109.952 106.675 109.522L103.997 106.575L102.373 108.059L105.116 111.081C105.449 111.447 105.804 111.716 106.181 111.866C106.546 112.017 106.923 112.071 107.278 112.028C107.643 111.974 107.987 111.877 108.31 111.705C108.644 111.533 108.955 111.307 109.267 111.027C109.579 110.748 109.837 110.457 110.031 110.146C110.224 109.844 110.364 109.511 110.45 109.156C110.536 108.801 110.515 108.436 110.397 108.048C110.278 107.661 110.052 107.285 109.719 106.919L106.976 103.897ZM109.945 103.402C109.407 102.994 109.138 102.499 109.149 101.886C109.16 101.283 109.396 100.67 109.848 100.057C110.418 99.3046 111.053 98.7561 111.762 98.4334L113.29 99.5735C112.526 99.8638 111.913 100.326 111.451 100.961C111.214 101.273 111.171 101.488 111.332 101.606C111.408 101.66 111.504 101.66 111.633 101.606C111.762 101.552 111.913 101.466 112.064 101.348C112.12 101.306 112.178 101.263 112.238 101.219L112.239 101.219C112.349 101.137 112.465 101.051 112.591 100.961C112.784 100.81 112.988 100.681 113.214 100.563C113.44 100.445 113.666 100.348 113.892 100.283C114.118 100.219 114.376 100.219 114.645 100.273C114.914 100.326 115.172 100.445 115.43 100.627C116.581 101.488 116.602 102.671 115.484 104.166C114.871 104.983 114.182 105.564 113.397 105.908L111.805 104.714C112.698 104.392 113.397 103.897 113.892 103.241C114.064 103.015 114.161 102.843 114.182 102.725C114.204 102.606 114.172 102.51 114.085 102.445C113.999 102.38 113.881 102.391 113.72 102.467C113.559 102.542 113.376 102.66 113.182 102.811C112.988 102.972 112.763 103.123 112.505 103.284C112.246 103.434 111.988 103.574 111.719 103.671C111.461 103.779 111.171 103.811 110.848 103.768C110.547 103.746 110.235 103.628 109.945 103.402ZM115.118 91.4644L112.838 95.9707L118.807 98.982L121.108 94.422L119.538 93.6261L118.226 96.218L117.516 95.8631L118.646 93.6261L117.194 92.8948L116.064 95.1318L115.376 94.7876L116.667 92.2495L115.118 91.4644ZM115.978 89.2704L116.624 87.1624L121.173 88.5498L122.001 85.8288L123.84 86.3881L122.367 91.217L115.978 89.2704ZM119.741 66.9025C120.247 66.9671 120.795 66.9133 121.387 66.752C121.946 66.6014 122.419 66.354 122.774 66.0422C123.151 65.7195 123.42 65.3538 123.581 64.9452C123.742 64.5365 123.828 64.1063 123.839 63.6546C123.85 63.2029 123.785 62.7404 123.656 62.2672C123.463 61.5789 123.161 60.9874 122.742 60.4926L120.806 61.0411C121.215 61.2992 121.516 61.7832 121.72 62.5145C121.849 62.9878 121.839 63.418 121.688 63.8051C121.537 64.1923 121.226 64.4612 120.752 64.5902C120.215 64.7408 119.774 64.6978 119.419 64.4397C119.075 64.1816 118.827 63.8051 118.687 63.3212C118.515 62.7404 118.526 62.1919 118.698 61.6864L116.805 62.2242C116.708 62.8695 116.762 63.5363 116.956 64.2246C117.096 64.6763 117.279 65.0957 117.526 65.4614C117.773 65.8271 118.085 66.139 118.44 66.4078C118.795 66.6659 119.236 66.838 119.741 66.9025ZM120.763 55.1797L121.753 57.1478L115.784 60.1377L114.396 57.3737C114.224 57.0295 114.106 56.7069 114.031 56.3842C113.955 56.0616 113.934 55.7389 113.966 55.4163C113.998 55.0936 114.117 54.7817 114.332 54.5021C114.547 54.2225 114.848 53.9751 115.235 53.7815C116.085 53.3621 116.848 53.4051 117.526 53.9106L118.838 51.3294L119.924 53.5019L118.773 55.6099L118.999 56.0723L120.763 55.1797ZM116.397 57.3737L117.526 56.8144L117.149 56.0508C117.053 55.868 116.934 55.7389 116.773 55.6852C116.612 55.6314 116.45 55.6421 116.278 55.7282C116.106 55.8142 115.999 55.9325 115.945 56.0938C115.902 56.2552 115.923 56.4272 116.009 56.6101L116.397 57.3737ZM116.235 47.6081L114.912 45.8766L113.116 47.2532L108.072 47.8985L109.578 49.8774L112.277 49.2536L110.965 51.695L112.471 53.6739L114.428 48.9955L116.235 47.6081ZM106.717 46.5973L104.523 44.6722C103.028 43.3601 102.813 42.0803 103.899 40.8435C104.986 39.6067 106.276 39.6497 107.771 40.9618L108.309 41.435L109.46 40.1229L111.116 41.5748L106.717 46.5973ZM105.545 42.2846C105.255 42.618 105.319 42.9622 105.739 43.3279L106.266 43.7903L107.126 42.8116L106.599 42.3492C106.179 41.9835 105.835 41.962 105.545 42.2846ZM95.9086 38.757L100.867 41.7146L101.856 40.0476L100.318 39.1334L102.749 35.0573L100.867 33.9388L98.436 38.0149L96.898 37.1008L95.9086 38.757ZM95.6074 32.1965C95.9731 33.0246 95.9838 33.9172 95.6397 34.8744C95.2955 35.8209 94.7147 36.4984 93.8974 36.9071C93.08 37.3158 92.1336 37.3158 91.0473 36.9286C89.9611 36.5414 89.2405 35.9284 88.8748 35.0895C88.5092 34.2614 88.4984 33.3687 88.8426 32.4116C89.1867 31.4651 89.7675 30.7876 90.5849 30.3789C91.4022 29.9702 92.3487 29.9702 93.4349 30.3574C94.5211 30.7553 95.2417 31.3683 95.6074 32.1965ZM91.6819 32.2717C91.37 32.4438 91.1334 32.745 90.972 33.1859C90.8107 33.6269 90.8 34.0033 90.9398 34.3367C91.0688 34.6701 91.3377 34.9067 91.7356 35.0573C92.1336 35.1971 92.4885 35.1863 92.8111 35.0142C93.123 34.8422 93.3596 34.541 93.521 34.1001C93.6823 33.6591 93.693 33.2827 93.5532 32.9493C93.4241 32.6159 93.1553 32.3793 92.7573 32.2287C92.3594 32.0889 91.9938 32.0997 91.6819 32.2717ZM82.3036 32.7665C82.5295 32.304 82.6693 31.777 82.7123 31.164C82.7553 30.5832 82.6908 30.0563 82.5079 29.5938C82.3359 29.1313 82.0778 28.7549 81.7444 28.4645C81.4109 28.1742 81.0345 27.9483 80.6151 27.787C80.1956 27.6257 79.7332 27.5289 79.2492 27.4966C78.5394 27.4536 77.8726 27.5396 77.2703 27.7655L77.1305 29.7766C77.5069 29.4755 78.0769 29.3572 78.8298 29.411C79.3137 29.4432 79.7117 29.6046 80.0343 29.8734C80.357 30.1423 80.4968 30.5295 80.4645 31.0134C80.4323 31.5727 80.2279 31.9706 79.873 32.218C79.5073 32.4654 79.0771 32.5729 78.5717 32.5406C77.9586 32.5084 77.4531 32.3148 77.0337 31.9814L76.9046 33.9388C77.4854 34.2507 78.1199 34.4227 78.8405 34.4765C79.3137 34.5088 79.7654 34.4658 80.1956 34.3582C80.6258 34.2507 81.0345 34.0678 81.4002 33.8205C81.7659 33.5731 82.067 33.2182 82.3036 32.7665ZM72.0864 27.8084L74.3019 27.5288L72.6779 34.4657L70.3333 34.7669L67.0208 28.4645L69.2363 28.1849L69.6343 29.0238L71.9251 28.7334L72.0864 27.8084ZM71.3228 31.8415L71.6024 30.3681L70.3118 30.5294L70.9571 31.8845C71.0862 32.1534 71.183 32.4223 71.2583 32.7127C71.2583 32.4546 71.2798 32.1642 71.3228 31.8415ZM63.8913 29.2497L61.8048 29.9595L62.4286 31.8308L61.9446 31.9922L60.0088 30.5618L57.718 31.3361L60.084 32.9924C59.4925 33.6054 59.3419 34.3582 59.6431 35.2509C59.7829 35.6703 59.9872 36.0037 60.2346 36.2511C60.4927 36.4985 60.7723 36.6598 61.095 36.7351C61.4176 36.8104 61.7403 36.8319 62.0629 36.7996C62.3963 36.7673 62.7297 36.6921 63.0954 36.5738L66.0315 35.5843L63.8913 29.2497ZM62.9771 33.3903L63.375 34.5841L62.5792 34.853C62.3748 34.9283 62.2028 34.9175 62.0522 34.853C61.9016 34.7777 61.7941 34.6594 61.7295 34.4765C61.665 34.2937 61.6758 34.1324 61.751 33.9818C61.8371 33.8313 61.9769 33.7237 62.1705 33.6592L62.9771 33.3903ZM54.7818 33.6913C55.6529 33.9386 56.352 34.4979 56.8575 35.369C57.3737 36.2402 57.5243 37.1221 57.3092 38.004C57.1048 38.8859 56.5026 39.628 55.5024 40.2087C54.5129 40.7895 53.5772 40.9616 52.7061 40.7034C51.8349 40.4561 51.1359 39.8968 50.6304 39.0257C50.1142 38.1545 49.9636 37.2726 50.1787 36.3907C50.383 35.5088 50.9853 34.7667 51.9855 34.186C52.975 33.6052 53.8999 33.4439 54.7818 33.6913ZM52.3297 36.7564C52.2544 37.1113 52.3404 37.4877 52.577 37.8857C52.8136 38.2836 53.104 38.5417 53.4374 38.6493C53.7816 38.7568 54.1365 38.703 54.5022 38.4879C54.8678 38.2728 55.0829 37.9932 55.1582 37.6383C55.2335 37.2834 55.1474 36.907 54.9108 36.509C54.6742 36.1111 54.3838 35.853 54.0504 35.7454C53.7063 35.6379 53.3514 35.6917 52.9857 35.9068C52.62 36.1219 52.4049 36.4015 52.3297 36.7564ZM46.1134 47.3393L47.7374 45.8659L45.0809 42.9298C44.683 42.4996 44.7045 42.0802 45.1562 41.6715C45.6079 41.2628 46.0166 41.2843 46.4145 41.7145L49.0925 44.6614L50.7165 43.1772L47.974 40.1551C47.6406 39.7894 47.2857 39.5205 46.9093 39.3699C46.5436 39.2194 46.1672 39.1656 45.8123 39.2086C45.4466 39.2624 45.1024 39.3592 44.7798 39.5313C44.4464 39.7033 44.1345 39.9292 43.8226 40.2088C43.5107 40.4885 43.2526 40.7788 43.059 41.0907C42.8654 41.3919 42.7256 41.7253 42.6396 42.0802C42.5535 42.4351 42.575 42.8008 42.6933 43.1879C42.8116 43.5751 43.0375 43.9515 43.3709 44.3172L46.1134 47.3393ZM43.145 47.8341C43.6827 48.2428 43.9516 48.7375 43.9408 49.3505C43.9301 49.9528 43.6935 50.5658 43.2418 51.1789C42.6717 51.9317 42.0372 52.4802 41.3274 52.8029L39.8002 51.6628C40.5638 51.3725 41.1768 50.91 41.6393 50.2755C41.8759 49.9636 41.9189 49.7485 41.7576 49.6302C41.6823 49.5764 41.5855 49.5764 41.4564 49.6302C41.3274 49.6839 41.1768 49.77 41.0263 49.8883C40.9702 49.9294 40.9129 49.9718 40.8538 50.0155L40.8518 50.0169L40.8514 50.0172L40.8514 50.0172C40.7411 50.0988 40.6247 50.1849 40.4993 50.2755C40.3057 50.426 40.1013 50.5551 39.8755 50.6734C39.6496 50.7917 39.4238 50.8885 39.1979 50.953C38.9721 51.0175 38.7139 51.0175 38.4451 50.9638C38.1762 50.91 37.9181 50.7917 37.66 50.6089C36.5092 49.7485 36.4877 48.5654 37.6062 47.0705C38.2192 46.2531 38.9075 45.6724 39.6926 45.3282L41.2844 46.522C40.3917 46.8446 39.6926 47.3394 39.1979 47.9954C39.0258 48.2213 38.929 48.3933 38.9075 48.5117C38.886 48.63 38.9183 48.7268 39.0043 48.7913C39.0904 48.8558 39.2087 48.8451 39.37 48.7698C39.5313 48.6945 39.7142 48.5762 39.9077 48.4256C40.1013 48.2643 40.3272 48.1137 40.5853 47.9524C40.8434 47.8018 41.1015 47.662 41.3704 47.5652C41.6285 47.4577 41.9189 47.4254 42.2416 47.4684C42.5427 47.4899 42.8546 47.6082 43.145 47.8341ZM37.9719 59.772L40.252 55.2657L34.283 52.2544L31.9815 56.8144L33.5517 57.6103L34.8638 55.0184L35.5736 55.3733L34.4443 57.6103L35.8962 58.3416L37.0255 56.1046L37.7138 56.4488L36.4232 58.9869L37.9719 59.772ZM37.1115 61.9659L36.4662 64.0739L31.9169 62.6865L31.0888 65.4075L29.2497 64.8482L30.7231 60.0193L37.1115 61.9659ZM120.86 77.8275C122.42 77.8275 123.685 76.563 123.685 75.0031C123.685 73.4432 122.42 72.1786 120.86 72.1786C119.301 72.1786 118.036 73.4432 118.036 75.0031C118.036 76.563 119.301 77.8275 120.86 77.8275ZM34.964 75.0031C34.964 76.563 33.6994 77.8275 32.1395 77.8275C30.5796 77.8275 29.315 76.563 29.315 75.0031C29.315 73.4432 30.5796 72.1786 32.1395 72.1786C33.6994 72.1786 34.964 73.4432 34.964 75.0031Z" fill="url(#paint0_linear_277_1750)"/>
</g>
<defs>
<filter id="filter0_d_277_1750" x="0.5" y="0" width="152" height="152" filterUnits="userSpaceOnUse" color-interpolation-filters="sRGB">
<feFlood flood-opacity="0" result="BackgroundImageFix"/>
<feColorMatrix in="SourceAlpha" type="matrix" values="0 0 0 0 0 0 0 0 0 0 0 0 0 0 0 0 0 0 127 0" result="hardAlpha"/>
<feOffset/>
<feGaussianBlur stdDeviation="11.5"/>
<feComposite in2="hardAlpha" operator="out"/>
<feColorMatrix type="matrix" values="0 0 0 0 1 0 0 0 0 1 0 0 0 0 1 0 0 0 0.5 0"/>
<feBlend mode="normal" in2="BackgroundImageFix" result="effect1_dropShadow_277_1750"/>
<feBlend mode="normal" in="SourceGraphic" in2="effect1_dropShadow_277_1750" result="shape"/>
</filter>
<linearGradient id="paint0_linear_277_1750" x1="25.1716" y1="60.5076" x2="129.786" y2="61.1735" gradientUnits="userSpaceOnUse">
<stop offset="0.593726" stop-color="white"/>
<stop offset="0.771696" stop-color="#8E8E8E"/>
<stop offset="0.951121" stop-color="#EDEDED"/>
</linearGradient>
</defs>
</svg>
