<svg   fill="none" xmlns="http://www.w3.org/2000/svg">
<path d="M88.8968 5.34541C89.2252 2.8586 91.3453 1 93.8537 1H132.296C135.318 1 137.649 3.65917 137.253 6.65458L132.103 45.6546C131.775 48.1414 129.655 50 127.146 50H88.7037C85.6823 50 83.3512 47.3408 83.7467 44.3454L88.8968 5.34541Z" stroke="#FF127F" stroke-width="2"/>
<path d="M86.5347 24H6C3.23858 24 1 26.2386 1 29V461C1 463.761 3.23858 466 6 466H460.936C462.683 466 464.304 465.088 465.21 463.595L479.29 440.405C480.196 438.912 481.817 438 483.564 438H703.615C707.513 438 709.912 442.263 707.889 445.595L700.111 458.405C698.088 461.737 700.487 466 704.385 466H1230C1232.76 466 1235 463.761 1235 461V418.5C1235 415.739 1232.76 413.5 1230 413.5H1228.5C1225.74 413.5 1223.5 411.261 1223.5 408.5V346.398C1223.5 343.636 1225.74 341.398 1228.5 341.398H1230C1232.76 341.398 1235 339.159 1235 336.398V271.636C1235 268.875 1232.76 266.636 1230 266.636H1174.5" stroke="#FF127F" stroke-width="2"/>
<path fill-rule="evenodd" clip-rule="evenodd" d="M1152 266.453L1161.45 257H1166.46L1157 266.453H1152ZM1152 266.453L1161.45 275.905H1166.46L1157 266.453H1152Z" fill="#FF127F"/>
<path fill-rule="evenodd" clip-rule="evenodd" d="M1160.9 266.453L1170.35 275.905H1175.35L1165.9 266.453H1160.9ZM1160.9 266.453L1170.35 257H1175.35L1165.9 266.453H1160.9Z" fill="#FF127F"/>
<path d="M111 17V34" stroke="white" stroke-width="2"/>
<path d="M103 25H120" stroke="white" stroke-width="2"/>
</svg>
