<svg width="30" height="23" viewBox="0 0 30 23" fill="none" xmlns="http://www.w3.org/2000/svg">
<path fill-rule="evenodd" clip-rule="evenodd" d="M22.5556 1H7.44445C5.73527 1 4.0961 1.64162 2.88754 2.78372C1.67897 3.92582 1 5.47483 1 7.09V15.91C1 19.27 3.88889 22 7.44445 22H22.5556C24.2647 22 25.9039 21.3584 27.1125 20.2163C28.321 19.0742 29 17.5252 29 15.91V7.09C29 3.73 26.1111 1 22.5556 1ZM4.3938 4.20714C5.14394 3.49825 6.16136 3.1 7.22223 3.1H22.7778C24.3946 3.1 25.7856 4.00386 26.4166 5.30665L17.3867 10.3509C16.2826 10.9677 14.9419 10.9864 13.821 10.4007L3.6899 5.10633C3.87439 4.77821 4.11068 4.47468 4.3938 4.20714ZM3.22222 7.68272V16.12C3.22222 18.2095 5.01111 19.9 7.22223 19.9H22.7778C23.8386 19.9 24.8561 19.5018 25.6062 18.7929C26.3563 18.084 26.7778 17.1225 26.7778 16.12V7.96851L18.6059 12.5335C16.7657 13.5615 14.5313 13.5926 12.6632 12.6164L3.22222 7.68272Z" fill="#85CFFF"/>
<path d="M27.1125 20.2163L27.2842 20.398L27.1125 20.2163ZM4.3938 4.20714L4.22209 4.02543H4.22209L4.3938 4.20714ZM26.4166 5.30665L26.5385 5.52491L26.7444 5.4099L26.6416 5.19768L26.4166 5.30665ZM17.3867 10.3509L17.5086 10.5692L17.3867 10.3509ZM13.821 10.4007L13.9368 10.1791L13.821 10.4007ZM3.6899 5.10633L3.47198 4.98381L3.34565 5.20851L3.57411 5.3279L3.6899 5.10633ZM3.22222 7.68272L3.33801 7.46115L2.97222 7.26999V7.68272H3.22222ZM25.6062 18.7929L25.7779 18.9746L25.6062 18.7929ZM26.7778 7.96851H27.0278V7.54249L26.6559 7.75025L26.7778 7.96851ZM18.6059 12.5335L18.484 12.3152L18.6059 12.5335ZM12.6632 12.6164L12.7789 12.3948H12.7789L12.6632 12.6164ZM7.44445 1.25H22.5556V0.75H7.44445V1.25ZM3.05924 2.96542C4.21999 1.86852 5.79716 1.25 7.44445 1.25V0.75C5.67339 0.75 3.97222 1.41472 2.71583 2.60202L3.05924 2.96542ZM1.25 7.09C1.25 5.54585 1.89898 4.06187 3.05924 2.96542L2.71583 2.60202C1.45895 3.78976 0.75 5.40382 0.75 7.09H1.25ZM1.25 15.91V7.09H0.75V15.91H1.25ZM7.44445 21.75C4.01345 21.75 1.25 19.1188 1.25 15.91H0.75C0.75 19.4212 3.76433 22.25 7.44445 22.25V21.75ZM22.5556 21.75H7.44445V22.25H22.5556V21.75ZM26.9408 20.0346C25.78 21.1315 24.2028 21.75 22.5556 21.75V22.25C24.3266 22.25 26.0278 21.5853 27.2842 20.398L26.9408 20.0346ZM28.75 15.91C28.75 17.4542 28.101 18.9381 26.9408 20.0346L27.2842 20.398C28.5411 19.2102 29.25 17.5962 29.25 15.91H28.75ZM28.75 7.09V15.91H29.25V7.09H28.75ZM22.5556 1.25C25.9866 1.25 28.75 3.88121 28.75 7.09H29.25C29.25 3.57879 26.2357 0.75 22.5556 0.75V1.25ZM7.22223 2.85C6.09948 2.85 5.02006 3.27135 4.22209 4.02543L4.56551 4.38884C5.26782 3.72515 6.22324 3.35 7.22223 3.35V2.85ZM22.7778 2.85H7.22223V3.35H22.7778V2.85ZM26.6416 5.19768C25.9678 3.80651 24.488 2.85 22.7778 2.85V3.35C24.3011 3.35 25.6034 4.2012 26.1916 5.41563L26.6416 5.19768ZM17.5086 10.5692L26.5385 5.52491L26.2947 5.0884L17.2648 10.1327L17.5086 10.5692ZM13.7052 10.6222C14.9009 11.247 16.3309 11.2271 17.5086 10.5692L17.2648 10.1327C16.2342 10.7084 14.983 10.7258 13.9368 10.1791L13.7052 10.6222ZM3.57411 5.3279L13.7052 10.6222L13.9368 10.1791L3.80569 4.88476L3.57411 5.3279ZM4.22209 4.02543C3.92082 4.31014 3.6689 4.63358 3.47198 4.98381L3.90782 5.22886C4.07988 4.92283 4.30054 4.63923 4.56551 4.38884L4.22209 4.02543ZM2.97222 7.68272V16.12H3.47222V7.68272H2.97222ZM2.97222 16.12C2.97222 18.3607 4.88656 20.15 7.22223 20.15V19.65C5.13567 19.65 3.47222 18.0583 3.47222 16.12H2.97222ZM7.22223 20.15H22.7778V19.65H7.22223V20.15ZM22.7778 20.15C23.9005 20.15 24.9799 19.7287 25.7779 18.9746L25.4345 18.6112C24.7322 19.2749 23.7768 19.65 22.7778 19.65V20.15ZM25.7779 18.9746C26.5764 18.22 27.0278 17.1935 27.0278 16.12H26.5278C26.5278 17.0515 26.1363 17.9479 25.4345 18.6112L25.7779 18.9746ZM27.0278 16.12V7.96851H26.5278V16.12H27.0278ZM26.6559 7.75025L18.484 12.3152L18.7278 12.7517L26.8997 8.18676L26.6559 7.75025ZM18.484 12.3152C16.7174 13.3021 14.5724 13.332 12.7789 12.3948L12.5474 12.8379C14.4902 13.8532 16.814 13.8208 18.7278 12.7517L18.484 12.3152ZM12.7789 12.3948L3.33801 7.46115L3.10644 7.90429L12.5474 12.8379L12.7789 12.3948Z" fill="#1E193D"/>
</svg>
