<svg width="24" height="24" viewBox="0 0 24 24" fill="none" xmlns="http://www.w3.org/2000/svg">
<path fill-rule="evenodd" clip-rule="evenodd" d="M14.2521 13.0891C13.2983 14.4204 11.7422 15.2874 9.98443 15.2874C7.0829 15.2874 4.73074 12.9252 4.73074 10.0113C4.73074 7.0974 7.0829 4.73523 9.98443 4.73523C11.7423 4.73523 13.2985 5.60224 14.2522 6.93369H13.2653C12.4459 6.05313 11.2792 5.50271 9.98443 5.50271C7.50497 5.50271 5.49497 7.52127 5.49497 10.0113C5.49497 12.5013 7.50497 14.5199 9.98443 14.5199C11.2791 14.5199 12.4457 13.9695 13.2651 13.0891H14.2521Z" fill="#FF127F"/>
<path fill-rule="evenodd" clip-rule="evenodd" d="M9.74795 10.8133C10.7017 9.48192 12.2578 8.61499 14.0156 8.61499C16.9171 8.61499 19.2693 10.9772 19.2693 13.8911C19.2693 16.8049 16.9171 19.1671 14.0156 19.1671C12.2577 19.1671 10.7015 18.3001 9.7478 16.9687H10.7347C11.5541 17.8492 12.7208 18.3996 14.0156 18.3996C16.495 18.3996 18.505 16.3811 18.505 13.8911C18.505 11.401 16.495 9.38247 14.0156 9.38247C12.7209 9.38247 11.5543 9.93281 10.7349 10.8133H9.74795Z" fill="#FF127F"/>
<path d="M3.64467 12.7846C3.64467 13.4322 3.1197 13.9572 2.47211 13.9572C1.82453 13.9572 1.29956 13.4322 1.29956 12.7846C1.29956 12.137 1.82453 11.6121 2.47211 11.6121C3.1197 11.6121 3.64467 12.137 3.64467 12.7846Z" fill="#FF127F"/>
<path d="M9.49354 22.7302C9.49354 23.3778 8.96857 23.9027 8.32099 23.9027C7.67341 23.9027 7.14844 23.3778 7.14844 22.7302C7.14844 22.0826 7.67341 21.5576 8.32099 21.5576C8.96857 21.5576 9.49354 22.0826 9.49354 22.7302Z" fill="#FF127F"/>
<path fill-rule="evenodd" clip-rule="evenodd" d="M2.76886 11.7533C2.76886 6.83211 6.78317 2.83905 11.7396 2.83905V2.13269C6.39711 2.13269 2.0625 6.43795 2.0625 11.7533H2.76886Z" fill="#FF127F"/>
<path fill-rule="evenodd" clip-rule="evenodd" d="M0.706357 11.7534C0.706357 5.77804 5.4564 0.912114 11.3865 0.725636V5.55157H12.0928V0.366912V0.0137329H11.7397C5.25602 0.0137329 0 5.26976 0 11.7534C0 17.3437 3.9075 22.0215 9.14026 23.2043V22.4787C4.30109 21.3101 0.706357 16.9515 0.706357 11.7534Z" fill="#FF127F"/>
<path d="M20.3553 11.118C20.3553 10.4705 20.8803 9.94548 21.5279 9.94548C22.1755 9.94548 22.7004 10.4705 22.7004 11.118C22.7004 11.7656 22.1755 12.2906 21.5279 12.2906C20.8803 12.2906 20.3553 11.7656 20.3553 11.118Z" fill="#FF127F"/>
<path d="M14.5065 1.17254C14.5065 0.524956 15.0314 -1.35899e-05 15.679 -1.35899e-05C16.3266 -1.35899e-05 16.8516 0.524956 16.8516 1.17254C16.8516 1.82012 16.3266 2.34509 15.679 2.34509C15.0314 2.34509 14.5065 1.82012 14.5065 1.17254Z" fill="#FF127F"/>
<path fill-rule="evenodd" clip-rule="evenodd" d="M21.2311 12.1494C21.2311 17.0706 17.2168 21.0637 12.2604 21.0637V21.77C17.6029 21.77 21.9375 17.4648 21.9375 12.1494H21.2311Z" fill="#FF127F"/>
<path fill-rule="evenodd" clip-rule="evenodd" d="M23.2936 12.1493C23.2936 18.1247 18.5436 22.9906 12.6135 23.1771V18.3511H11.9072V23.5358V23.889H12.2603C18.744 23.889 24 18.633 24 12.1493C24 6.55896 20.0925 1.88126 14.8597 0.698433V1.42397C19.6989 2.59263 23.2936 6.95118 23.2936 12.1493Z" fill="#FF127F"/>
<path fill-rule="evenodd" clip-rule="evenodd" d="M7.98193 19.608V14.7766H8.68829V19.608H7.98193Z" fill="#FF127F"/>
<path fill-rule="evenodd" clip-rule="evenodd" d="M16.0183 4.29468V9.12616H15.312V4.29468H16.0183Z" fill="#FF127F"/>
<path fill-rule="evenodd" clip-rule="evenodd" d="M6.54102 18.3936V13.5621H7.24737V18.3936H6.54102Z" fill="#FF127F"/>
<path fill-rule="evenodd" clip-rule="evenodd" d="M17.459 5.50909V10.3406H16.7526V5.50909H17.459Z" fill="#FF127F"/>
</svg>
