<svg width="19" height="15" viewBox="0 0 19 15" fill="none" xmlns="http://www.w3.org/2000/svg">
<path d="M16.7363 1.71691C16.8864 1.71691 17.0304 1.77655 17.1365 1.8827C17.2427 1.98886 17.3023 2.13283 17.3023 2.28295V12.4716C17.3023 12.6218 17.2427 12.7657 17.1365 12.8719C17.0304 12.978 16.8864 13.0377 16.7363 13.0377H2.01928C1.86916 13.0377 1.72518 12.978 1.61903 12.8719C1.51288 12.7657 1.45324 12.6218 1.45324 12.4716V2.28295C1.45324 2.13283 1.51288 1.98886 1.61903 1.8827C1.72518 1.77655 1.86916 1.71691 2.01928 1.71691H16.7363ZM2.01928 0.584839C1.56891 0.584839 1.13699 0.763747 0.818533 1.0822C0.500075 1.40066 0.321167 1.83258 0.321167 2.28295L0.321167 12.4716C0.321167 12.922 0.500075 13.3539 0.818533 13.6724C1.13699 13.9908 1.56891 14.1697 2.01928 14.1697H16.7363C17.1866 14.1697 17.6185 13.9908 17.937 13.6724C18.2555 13.3539 18.4344 12.922 18.4344 12.4716V2.28295C18.4344 1.83258 18.2555 1.40066 17.937 1.0822C17.6185 0.763747 17.1866 0.584839 16.7363 0.584839H2.01928Z" fill="#85CFFF"/>
<path d="M5.9818 7.37706C5.9818 7.22694 6.04144 7.08296 6.14759 6.97681C6.25374 6.87066 6.39772 6.81102 6.54784 6.81102H14.4724C14.6225 6.81102 14.7665 6.87066 14.8726 6.97681C14.9788 7.08296 15.0384 7.22694 15.0384 7.37706C15.0384 7.52718 14.9788 7.67116 14.8726 7.77731C14.7665 7.88346 14.6225 7.9431 14.4724 7.9431H6.54784C6.39772 7.9431 6.25374 7.88346 6.14759 7.77731C6.04144 7.67116 5.9818 7.52718 5.9818 7.37706ZM5.9818 4.54687C5.9818 4.39675 6.04144 4.25278 6.14759 4.14662C6.25374 4.04047 6.39772 3.98083 6.54784 3.98083H14.4724C14.6225 3.98083 14.7665 4.04047 14.8726 4.14662C14.9788 4.25278 15.0384 4.39675 15.0384 4.54687C15.0384 4.697 14.9788 4.84097 14.8726 4.94712C14.7665 5.05327 14.6225 5.11291 14.4724 5.11291H6.54784C6.39772 5.11291 6.25374 5.05327 6.14759 4.94712C6.04144 4.84097 5.9818 4.697 5.9818 4.54687ZM5.9818 10.2072C5.9818 10.0571 6.04144 9.91315 6.14759 9.807C6.25374 9.70085 6.39772 9.64121 6.54784 9.64121H14.4724C14.6225 9.64121 14.7665 9.70085 14.8726 9.807C14.9788 9.91315 15.0384 10.0571 15.0384 10.2072C15.0384 10.3574 14.9788 10.5013 14.8726 10.6075C14.7665 10.7137 14.6225 10.7733 14.4724 10.7733H6.54784C6.39772 10.7733 6.25374 10.7137 6.14759 10.6075C6.04144 10.5013 5.9818 10.3574 5.9818 10.2072ZM4.84973 4.54687C4.84973 4.697 4.79009 4.84097 4.68394 4.94712C4.57779 5.05327 4.43381 5.11291 4.28369 5.11291C4.13357 5.11291 3.98959 5.05327 3.88344 4.94712C3.77729 4.84097 3.71765 4.697 3.71765 4.54687C3.71765 4.39675 3.77729 4.25278 3.88344 4.14662C3.98959 4.04047 4.13357 3.98083 4.28369 3.98083C4.43381 3.98083 4.57779 4.04047 4.68394 4.14662C4.79009 4.25278 4.84973 4.39675 4.84973 4.54687ZM4.84973 7.37706C4.84973 7.52718 4.79009 7.67116 4.68394 7.77731C4.57779 7.88346 4.43381 7.9431 4.28369 7.9431C4.13357 7.9431 3.98959 7.88346 3.88344 7.77731C3.77729 7.67116 3.71765 7.52718 3.71765 7.37706C3.71765 7.22694 3.77729 7.08296 3.88344 6.97681C3.98959 6.87066 4.13357 6.81102 4.28369 6.81102C4.43381 6.81102 4.57779 6.87066 4.68394 6.97681C4.79009 7.08296 4.84973 7.22694 4.84973 7.37706ZM4.84973 10.2072C4.84973 10.3574 4.79009 10.5013 4.68394 10.6075C4.57779 10.7137 4.43381 10.7733 4.28369 10.7733C4.13357 10.7733 3.98959 10.7137 3.88344 10.6075C3.77729 10.5013 3.71765 10.3574 3.71765 10.2072C3.71765 10.0571 3.77729 9.91315 3.88344 9.807C3.98959 9.70085 4.13357 9.64121 4.28369 9.64121C4.43381 9.64121 4.57779 9.70085 4.68394 9.807C4.79009 9.91315 4.84973 10.0571 4.84973 10.2072Z" fill="#85CFFF"/>
</svg>
