<svg width="164" height="70" viewBox="0 0 164 70" fill="none" xmlns="http://www.w3.org/2000/svg">
<path fill-rule="evenodd" clip-rule="evenodd" d="M27.1283 47.3398L30.0986 49.5965C30.9685 50.2574 32.0309 50.6152 33.1234 50.6152H44.311H46.3969C46.397 50.6152 46.3971 50.6153 46.3971 50.6154C46.3971 50.6155 46.3972 50.6156 46.3974 50.6156H106.314C107.465 50.6156 108.397 49.6832 108.397 48.5329C108.397 47.3826 109.33 46.4502 110.48 46.4502H123.093C124.243 46.4502 125.176 47.3826 125.176 48.5329C125.176 49.6832 126.108 50.6156 127.259 50.6156H135.284C137.703 50.6156 139.774 48.8845 140.204 46.5045L142.285 34.9875L142.937 30.9061C143.23 29.0713 142.482 27.2252 140.994 26.1125L136.343 22.6347L133.372 20.378C132.502 19.7171 131.44 19.3593 130.347 19.3593H119.16H94.9056H81.3978C81.3976 19.3593 81.3975 19.3592 81.3975 19.3591C81.3975 19.359 81.3974 19.3589 81.3973 19.3589H28.1868C25.7682 19.3589 23.6964 21.09 23.2664 23.4701L21.186 34.987L20.5336 39.0685C20.2404 40.9033 20.9888 42.7494 22.4769 43.862L27.1283 47.3398Z" fill="url(#paint0_linear_328_15553)"/>
<g filter="url(#filter0_d_328_15553)">
<path d="M95 16H121.5H133.591C134.858 16 136.078 16.4813 137.004 17.3466L140.274 20.4012L146.092 25.7515C147.288 26.8516 147.875 28.4646 147.666 30.0764L146.766 37" stroke="#FF127F"/>
</g>
<g filter="url(#filter1_d_328_15553)">
<path d="M51 54H31.1047C29.9231 54 28.7796 53.5815 27.8772 52.8187L24.0675 49.5988L18.2399 44.8321C16.8543 43.6987 16.1803 41.9111 16.4727 40.1451L17.6557 33" stroke="#FF127F"/>
</g>
<path d="M69.268 38H67.468V33.668C67.468 33.244 67.48 32.86 67.504 32.516L63.592 38H61.9V29.6H63.7V33.932C63.7 34.356 63.688 34.74 63.664 35.084L67.576 29.6H69.268V38ZM72.5401 38H70.8721V32.24H75.2641V33.644H72.5401V38ZM77.6332 33.08C78.1052 32.408 78.8012 32.072 79.7212 32.072C80.5932 32.072 81.2772 32.372 81.7732 32.972C82.2772 33.564 82.5292 34.28 82.5292 35.12C82.5292 35.96 82.2772 36.68 81.7732 37.28C81.2772 37.872 80.5932 38.168 79.7212 38.168C78.9292 38.168 78.2972 37.908 77.8252 37.388V40.64H76.1572V32.24H77.6332V33.08ZM80.4172 36.296C80.6892 35.976 80.8252 35.584 80.8252 35.12C80.8252 34.656 80.6892 34.268 80.4172 33.956C80.1452 33.636 79.7772 33.476 79.3132 33.476C78.9692 33.476 78.6612 33.568 78.3892 33.752C78.1252 33.936 77.9332 34.164 77.8132 34.436V35.804C77.9332 36.076 78.1252 36.304 78.3892 36.488C78.6612 36.672 78.9692 36.764 79.3132 36.764C79.7772 36.764 80.1452 36.608 80.4172 36.296ZM88.7701 36.512C88.7701 36.768 88.9061 36.896 89.1781 36.896C89.2901 36.896 89.3941 36.88 89.4901 36.848V37.94C89.1861 38.052 88.8781 38.108 88.5661 38.108C87.9581 38.108 87.5341 37.892 87.2941 37.46C86.6941 37.932 86.0021 38.168 85.2181 38.168C84.6501 38.168 84.1701 38.012 83.7781 37.7C83.3941 37.38 83.2021 36.948 83.2021 36.404C83.2021 35.948 83.3381 35.568 83.6101 35.264C83.8821 34.96 84.1981 34.756 84.5581 34.652C84.9181 34.54 85.3101 34.484 85.7341 34.484C86.2061 34.484 86.6621 34.536 87.1021 34.64V34.436C87.1021 34.14 86.9861 33.904 86.7541 33.728C86.5221 33.552 86.1861 33.464 85.7461 33.464C85.1061 33.464 84.4261 33.608 83.7061 33.896V32.456C84.4741 32.2 85.2181 32.072 85.9381 32.072C87.8261 32.072 88.7701 32.94 88.7701 34.676V36.512ZM86.1181 35.48C85.7741 35.48 85.4861 35.544 85.2541 35.672C85.0221 35.8 84.9061 36 84.9061 36.272C84.9061 36.48 84.9901 36.652 85.1581 36.788C85.3341 36.916 85.5501 36.98 85.8061 36.98C86.3101 36.98 86.7421 36.824 87.1021 36.512V35.612C86.7341 35.524 86.4061 35.48 86.1181 35.48ZM93.1488 38H91.4928V33.644H89.6568V32.24H94.9848V33.644H93.1488V38ZM98.8799 38H95.8799V32.24H97.5479V34.04H98.8799C99.6079 34.04 100.176 34.228 100.584 34.604C101 34.972 101.208 35.444 101.208 36.02C101.208 36.596 101 37.072 100.584 37.448C100.176 37.816 99.6079 38 98.8799 38ZM97.5359 35.24V36.8H98.4719C98.7999 36.8 99.0519 36.732 99.2279 36.596C99.4039 36.46 99.4919 36.268 99.4919 36.02C99.4919 35.772 99.4039 35.58 99.2279 35.444C99.0519 35.308 98.7999 35.24 98.4719 35.24H97.5359Z" fill="white"/>
<defs>
<filter id="filter0_d_328_15553" x="80" y="0.5" width="83.2078" height="51.5645" filterUnits="userSpaceOnUse" color-interpolation-filters="sRGB">
<feFlood flood-opacity="0" result="BackgroundImageFix"/>
<feColorMatrix in="SourceAlpha" type="matrix" values="0 0 0 0 0 0 0 0 0 0 0 0 0 0 0 0 0 0 127 0" result="hardAlpha"/>
<feOffset/>
<feGaussianBlur stdDeviation="7.5"/>
<feComposite in2="hardAlpha" operator="out"/>
<feColorMatrix type="matrix" values="0 0 0 0 1 0 0 0 0 0.404167 0 0 0 0 0.6782 0 0 0 1 0"/>
<feBlend mode="normal" in2="BackgroundImageFix" result="effect1_dropShadow_328_15553"/>
<feBlend mode="normal" in="SourceGraphic" in2="effect1_dropShadow_328_15553" result="shape"/>
</filter>
<filter id="filter1_d_328_15553" x="0.905518" y="17.9185" width="65.0945" height="51.5815" filterUnits="userSpaceOnUse" color-interpolation-filters="sRGB">
<feFlood flood-opacity="0" result="BackgroundImageFix"/>
<feColorMatrix in="SourceAlpha" type="matrix" values="0 0 0 0 0 0 0 0 0 0 0 0 0 0 0 0 0 0 127 0" result="hardAlpha"/>
<feOffset/>
<feGaussianBlur stdDeviation="7.5"/>
<feComposite in2="hardAlpha" operator="out"/>
<feColorMatrix type="matrix" values="0 0 0 0 1 0 0 0 0 0.404167 0 0 0 0 0.6782 0 0 0 1 0"/>
<feBlend mode="normal" in2="BackgroundImageFix" result="effect1_dropShadow_328_15553"/>
<feBlend mode="normal" in="SourceGraphic" in2="effect1_dropShadow_328_15553" result="shape"/>
</filter>
<linearGradient id="paint0_linear_328_15553" x1="47.9802" y1="19.3589" x2="141.898" y2="84.3269" gradientUnits="userSpaceOnUse">
<stop stop-color="#FF127F"/>
<stop offset="0.5" stop-color="#FF449A"/>
<stop offset="1" stop-color="#FF1580"/>
</linearGradient>
</defs>
</svg>
