<svg width="34" height="24" viewBox="0 0 34 24" fill="none" xmlns="http://www.w3.org/2000/svg">
<path d="M32.8176 8.57247L29.5695 2.26879C29.3777 1.89518 29.0488 1.61288 28.6537 1.48271C28.2585 1.35254 27.8288 1.3849 27.4569 1.57284L24.2749 3.19226H21.8718L17.409 1.14456C17.0652 0.98498 16.6761 0.956468 16.3131 1.06426L9.68495 3.01827L6.54251 1.42562C6.17068 1.23768 5.7409 1.20532 5.34576 1.33549C4.95061 1.46566 4.62172 1.74796 4.42994 2.12157L1.18187 8.42525C1.08383 8.61529 1.02401 8.82318 1.00588 9.03684C0.987746 9.25051 1.01166 9.4657 1.07624 9.66992C1.21365 10.0769 1.50275 10.4131 1.88165 10.6068L5.10332 12.2396L12.2728 17.9276C12.451 18.0625 12.6526 18.1623 12.867 18.2221L20.5119 20.1493C20.6363 20.1859 20.7652 20.2039 20.8948 20.2028C21.1033 20.2056 21.3103 20.1655 21.5032 20.085C21.6961 20.0045 21.8709 19.8852 22.0171 19.7344L26.876 14.8092L26.9024 14.7825L28.9489 12.36L32.1178 10.754C32.3071 10.6572 32.4758 10.5234 32.614 10.3603C32.7522 10.1972 32.8573 10.0081 32.9232 9.80376C32.9882 9.60187 33.0123 9.38877 32.9941 9.1772C32.976 8.96564 32.9159 8.75996 32.8176 8.57247ZM26.427 13.7118L21.0136 9.71007C20.9208 9.64249 20.8088 9.60725 20.6945 9.60967C20.5802 9.61208 20.4698 9.65201 20.3798 9.72346L18.6898 11.0083C18.0481 11.4907 17.2704 11.7511 16.4716 11.7511C15.6727 11.7511 14.895 11.4907 14.2534 11.0083L13.5404 10.4596C13.4778 10.4159 13.4262 10.3582 13.3895 10.2908C13.3528 10.2234 13.3322 10.1483 13.3291 10.0714C13.3207 9.99446 13.3307 9.91656 13.3583 9.84434C13.3859 9.77212 13.4302 9.7077 13.4876 9.65654L18.6502 4.41016C18.7505 4.31538 18.8827 4.26276 19.0199 4.26294H24.0768L27.9851 11.8515L26.427 13.7118ZM2.09291 9.33533C2.06738 9.26837 2.05652 9.19658 2.06108 9.12494C2.06564 9.0533 2.08551 8.98352 2.11932 8.92044L5.36739 2.61676C5.41228 2.52914 5.48077 2.45622 5.56491 2.40647C5.64905 2.35673 5.74538 2.33219 5.84272 2.3357C5.92092 2.33279 5.99846 2.35129 6.06718 2.38924L8.89274 3.8079L5.15613 11.0618L2.35698 9.64316C2.29292 9.61535 2.23588 9.57322 2.19015 9.51991C2.14442 9.4666 2.11118 9.40351 2.09291 9.33533ZM21.2777 18.9715C21.2124 19.036 21.1325 19.0831 21.045 19.1088C20.9575 19.1344 20.8651 19.1379 20.7759 19.1188L13.1179 17.1781C13.0473 17.158 12.9804 17.1264 12.9198 17.0844L6.05398 11.6373L9.96222 4.04881L16.6036 2.0948C16.7258 2.0569 16.8576 2.06644 16.9733 2.12157L19.3103 3.19226H19.0199C18.8115 3.191 18.605 3.23177 18.4123 3.31219C18.2196 3.39261 18.0446 3.51107 17.8976 3.66068L12.735 8.89367C12.5742 9.05653 12.4499 9.25253 12.3705 9.46838C12.2911 9.68423 12.2584 9.91487 12.2747 10.1446C12.291 10.3744 12.3558 10.598 12.4649 10.8001C12.5739 11.0022 12.7246 11.1782 12.9066 11.3161L13.6196 11.8648C14.4449 12.4842 15.4447 12.8185 16.4716 12.8185C17.4985 12.8185 18.4982 12.4842 19.3235 11.8648L20.6967 10.8075L25.7009 14.488L21.2777 18.9715ZM31.9065 9.48255C31.8858 9.54956 31.8517 9.6115 31.8063 9.66448C31.7608 9.71745 31.705 9.76032 31.6424 9.79038L28.8433 11.209L25.1067 3.95512L27.9323 2.53646C28.0552 2.47485 28.197 2.46415 28.3276 2.50661C28.4582 2.54908 28.5674 2.64137 28.632 2.76398L31.8801 9.06766C31.9139 9.13074 31.9338 9.20052 31.9384 9.27216C31.9429 9.3438 31.9321 9.41559 31.9065 9.48255ZM15.4021 22.5851C15.3731 22.702 15.307 22.8059 15.2139 22.8809C15.1208 22.9559 15.006 22.9978 14.8871 23L14.7551 22.9732L10.7808 21.9695C10.5367 21.9082 10.3104 21.789 10.1207 21.6215L7.14987 18.9983C7.08776 18.956 7.03521 18.9009 6.99572 18.8364C6.95622 18.772 6.93068 18.6999 6.92078 18.6247C6.91088 18.5495 6.91685 18.4731 6.9383 18.4004C6.95974 18.3278 6.99617 18.2605 7.04517 18.2032C7.09417 18.1459 7.15462 18.0998 7.22253 18.068C7.29043 18.0361 7.36423 18.0193 7.43904 18.0185C7.51386 18.0178 7.58797 18.0331 7.65649 18.0636C7.725 18.0941 7.78634 18.139 7.83645 18.1953L10.8205 20.8185C10.8805 20.8721 10.9533 20.909 11.0317 20.9255L15.0192 21.9427C15.1534 21.9775 15.2687 22.0643 15.3403 22.1845C15.4119 22.3047 15.4341 22.4485 15.4021 22.5851Z" fill="#85CFFF" stroke="#85CFFF" stroke-width="0.3"/>
</svg>
