<svg width="495" height="310" viewBox="0 0 742 466" fill="none" xmlns="http://www.w3.org/2000/svg">
<mask id="path-1-inside-1_177_18170" fill="white">
<path fill-rule="evenodd" clip-rule="evenodd" d="M37.5804 21.5056L58.1825 2.16709C59.6657 0.774907 61.6235 0 63.6577 0H128.894H257.788H515.576L733.141 5.20595e-05C737.559 5.31167e-05 741.141 3.58178 741.141 8.00005V127.532V156.838V194.46V240.851V260.478V297.073V363.091V405.981C741.141 408.212 740.209 410.343 738.57 411.857L703.561 444.198L682.959 463.536C681.475 464.928 679.518 465.703 677.483 465.703H612.247L515.576 465.703H8C3.58172 465.703 0 462.122 0 457.703V364.899V348.611V262.287V215.896V205.225V159.674V102.612V59.7226C0 57.4909 0.932216 55.3606 2.57151 53.8463L37.5804 21.5056Z"/>
</mask>
<path fill-rule="evenodd" clip-rule="evenodd" d="M37.5804 21.5056L58.1825 2.16709C59.6657 0.774907 61.6235 0 63.6577 0H128.894H257.788H515.576L733.141 5.20595e-05C737.559 5.31167e-05 741.141 3.58178 741.141 8.00005V127.532V156.838V194.46V240.851V260.478V297.073V363.091V405.981C741.141 408.212 740.209 410.343 738.57 411.857L703.561 444.198L682.959 463.536C681.475 464.928 679.518 465.703 677.483 465.703H612.247L515.576 465.703H8C3.58172 465.703 0 462.122 0 457.703V364.899V348.611V262.287V215.896V205.225V159.674V102.612V59.7226C0 57.4909 0.932216 55.3606 2.57151 53.8463L37.5804 21.5056Z" fill="#1E193D"/>
<path d="M37.5804 21.5056L38.9375 22.9747L38.9433 22.9693L38.9492 22.9638L37.5804 21.5056ZM515.576 0V-2V0ZM703.561 444.198L702.204 442.729L702.198 442.734L702.192 442.739L703.561 444.198ZM612.247 465.703V463.703V465.703ZM515.576 465.703V467.703V465.703ZM738.57 411.857L737.212 410.388L738.57 411.857ZM2.57151 53.8463L3.92863 55.3153L2.57151 53.8463ZM682.959 463.536L684.327 464.994L682.959 463.536ZM733.141 5.20595e-05V-1.99995V5.20595e-05ZM58.1825 2.16709L56.8137 0.708867L58.1825 2.16709ZM56.8137 0.708867L36.2116 20.0474L38.9492 22.9638L59.5513 3.62532L56.8137 0.708867ZM128.894 -2H63.6577V2H128.894V-2ZM257.788 -2H128.894V2H257.788V-2ZM515.576 -2H257.788V2H515.576V-2ZM733.141 -1.99995L515.576 -2V2L733.141 2.00005V-1.99995ZM743.141 127.532V8.00005H739.141V127.532H743.141ZM743.141 156.838V127.532H739.141V156.838H743.141ZM743.141 194.46V156.838H739.141V194.46H743.141ZM743.141 240.851V194.46H739.141V240.851H743.141ZM743.141 260.478V240.851H739.141V260.478H743.141ZM743.141 297.073V260.478H739.141V297.073H743.141ZM743.141 363.091V297.073H739.141V363.091H743.141ZM743.141 405.981V363.091H739.141V405.981H743.141ZM704.918 445.667L739.927 413.326L737.212 410.388L702.204 442.729L704.918 445.667ZM684.327 464.994L704.93 445.656L702.192 442.739L681.59 462.078L684.327 464.994ZM612.247 467.703H677.483V463.703H612.247V467.703ZM515.576 467.703L612.247 467.703V463.703L515.576 463.703V467.703ZM8 467.703H515.576V463.703H8V467.703ZM-2 364.899V457.703H2V364.899H-2ZM-2 348.611V364.899H2V348.611H-2ZM-2 262.287V348.611H2V262.287H-2ZM-2 215.896V262.287H2V215.896H-2ZM-2 205.225V215.896H2V205.225H-2ZM-2 159.674V205.225H2V159.674H-2ZM-2 102.612V159.674H2V102.612H-2ZM-2 59.7226V102.612H2V59.7226H-2ZM36.2233 20.0365L1.21439 52.3772L3.92863 55.3153L38.9375 22.9747L36.2233 20.0365ZM8 463.703C4.6863 463.703 2 461.017 2 457.703H-2C-2 463.226 2.47715 467.703 8 467.703V463.703ZM739.141 405.981C739.141 407.654 738.442 409.252 737.212 410.388L739.927 413.326C741.976 411.433 743.141 408.77 743.141 405.981H739.141ZM2 59.7226C2 58.0488 2.69916 56.4511 3.92863 55.3153L1.21439 52.3772C-0.83473 54.2701 -2 56.933 -2 59.7226H2ZM681.59 462.078C680.477 463.122 679.009 463.703 677.483 463.703V467.703C680.026 467.703 682.473 466.735 684.327 464.994L681.59 462.078ZM733.141 2.00005C736.455 2.00005 739.141 4.68635 739.141 8.00005H743.141C743.141 2.47721 738.664 -1.99995 733.141 -1.99995V2.00005ZM59.5513 3.62532C60.6637 2.58118 62.132 2 63.6577 2V-2C61.1149 -2 58.6677 -1.03137 56.8137 0.708867L59.5513 3.62532Z" fill="url(#paint0_linear_177_18170)" mask="url(#path-1-inside-1_177_18170)"/>
<defs>
<linearGradient id="paint0_linear_177_18170" x1="741.141" y1="7.52539e-05" x2="-67.0633" y2="237.216" gradientUnits="userSpaceOnUse">
<stop offset="0.302083" stop-color="#FF127F"/>
<stop offset="0.458285" stop-color="#FF89BF"/>
<stop offset="0.625" stop-color="#FF1580"/>
</linearGradient>
</defs>
</svg>