<svg width="320" height="437" viewBox="0 0 320 437" fill="none" xmlns="http://www.w3.org/2000/svg">
<path d="M15 20.9473L23.3687 16.1156C25.4654 14.9051 27.0881 14.4419 28.2367 14.7261C29.4036 14.9788 29.987 16.0314 29.987 17.8841C29.987 20.3473 29.0207 22.5157 27.0881 24.3894C28.1455 24.1368 29.0207 24.2631 29.7135 24.7684C30.4064 25.2526 30.7528 26.2526 30.7528 27.7684C30.7528 28.9684 30.5249 30.1316 30.0691 31.2579C29.6133 32.3632 28.9934 33.3527 28.2094 34.2264C27.4436 35.0896 26.6505 35.8527 25.83 36.5159C25.0278 37.1686 24.1618 37.7633 23.2319 38.3001L15 43.0528L15 20.9473ZM26.6505 29.6316C26.6505 27.7368 25.5657 27.4158 23.396 28.6684L19.0749 31.1632L19.0749 36.8475L23.1772 34.479C24.2529 33.858 25.1007 33.1685 25.7206 32.4106C26.3405 31.6527 26.6505 30.7264 26.6505 29.6316ZM25.9121 21.0578C25.9121 19.3736 24.9458 19.0893 23.0131 20.2051L19.1023 22.4631L19.1023 27.5158L23.2319 25.1315C24.0341 24.6684 24.6814 24.0842 25.1737 23.3789C25.6659 22.6526 25.9121 21.8789 25.9121 21.0578Z" fill="#2785C2"/>
<path d="M40.0415 28.5952L33.2043 32.5426L33.2043 17.3845L37.0058 15.1897L37.0058 19.9266L40.0415 18.174C41.7006 17.216 42.9951 16.9634 43.925 17.416C44.873 17.8371 45.3471 18.8055 45.3471 20.3214C45.3471 21.8372 44.873 23.3635 43.925 24.9004C42.9951 26.4057 41.7006 27.6372 40.0415 28.5952ZM36.9784 23.1003L36.9784 27.2057L39.1116 25.9741C39.8591 25.5425 40.4335 25.0319 40.8346 24.4425C41.2357 23.853 41.4362 23.2319 41.4362 22.5793C41.4362 21.9266 41.2357 21.5372 40.8346 21.4108C40.4335 21.2845 39.8591 21.4372 39.1116 21.8687L36.9784 23.1003ZM51.2817 22.1056L47.4803 24.3004L47.4803 9.14224L51.2817 6.94748L51.2817 22.1056Z" fill="#2785C2"/>
<path d="M70 70.2705L251.284 158.271L70 256.5L251.284 371.5" stroke="#F5F5F5" stroke-width="12" stroke-miterlimit="10"/>
<g filter="url(#filter0_d_960_10)">
<path d="M299.364 157.06L263.886 177.091C256.323 181.364 244.036 181.364 236.432 177.091L200.729 157.06C196.896 154.908 194.99 152.079 195 149.271V153.255C195 156.064 196.906 158.883 200.739 161.034L236.442 181.066C244.046 185.339 256.333 185.339 263.896 181.066L299.364 161.034C303.114 158.913 305 156.134 305 153.354V149.37C305 152.159 303.114 154.938 299.364 157.06Z" fill="#FF127F"/>
</g>
<path d="M299.267 141.909C306.88 146.246 306.911 153.288 299.359 157.634L263.883 178.01C256.321 182.357 244.034 182.357 236.431 178.01L200.73 157.634C193.126 153.288 193.085 146.246 200.637 141.909L236.103 121.523C243.665 117.186 255.952 117.186 263.555 121.523L299.267 141.909Z" fill="#F6F5FF"/>
<g filter="url(#filter1_d_960_10)">
<path d="M120.414 70.4939L85.2659 91.6683C77.7812 96.1854 65.5945 96.1854 58.0591 91.6683L22.677 70.4939C18.889 68.2196 16.9899 65.2292 17 62.2705V66.4822C17 69.4515 18.889 72.4313 22.677 74.7056L58.0489 95.8906C65.5844 100.397 77.7711 100.397 85.2558 95.8906L120.404 74.7056C124.131 72.4629 125.99 69.5357 126 66.5981V62.3863C126 65.3135 124.142 68.2512 120.414 70.4939Z" fill="#2785C2"/>
</g>
<path d="M120.324 54.6579C127.858 59.1428 127.899 66.3982 120.405 70.8831L85.26 91.9068C77.7761 96.3917 65.5907 96.3917 58.0561 91.9068L22.6778 70.8831C15.1431 66.3982 15.1025 59.1428 22.5864 54.6579L57.7413 33.6342C65.2252 29.1493 77.4004 29.1493 84.9452 33.6342L120.324 54.6579Z" fill="#F5FBFF"/>
<path d="M191.463 129C189.853 127.539 189.048 124.913 189.048 121.122C189.048 117.33 189.853 113.786 191.463 110.49C193.095 107.158 195.531 104.555 198.773 102.684C202.014 100.812 204.44 100.607 206.051 102.068C207.682 103.493 208.498 106.101 208.498 109.892C208.498 113.684 207.682 117.246 206.051 120.578C204.44 123.875 202.014 126.459 198.773 128.33C195.531 130.202 193.095 130.425 191.463 129ZM198.773 123.549C202.119 121.617 203.792 117.97 203.792 112.609C203.792 107.248 202.119 105.534 198.773 107.465C195.427 109.397 193.753 113.044 193.753 118.405C193.753 123.766 195.427 125.481 198.773 123.549Z" fill="#FF127F"/>
<path d="M216.624 92.8845L220.044 90.9103L220.044 110.869L223.62 108.805L223.62 113.478L211.448 120.505L211.448 115.832L215.464 113.514L215.464 98.9881L211.448 103.045L211.448 98.155L216.624 92.8845Z" fill="#FF127F"/>
<path fill-rule="evenodd" clip-rule="evenodd" d="M90.289 51.7597C100.568 57.6941 100.568 67.3157 90.289 73.25C80.0104 79.1844 63.3454 79.1844 53.0667 73.25C42.7881 67.3157 42.7881 57.6941 53.0667 51.7597C63.3454 45.8253 80.0104 45.8253 90.289 51.7597ZM89.7056 72.9132C99.6621 67.1648 99.6621 57.8449 89.7056 52.0966C79.7492 46.3482 63.6066 46.3482 53.6501 52.0966C43.6937 57.8449 43.6937 67.1648 53.6501 72.9132C63.6066 78.6616 79.7492 78.6616 89.7056 72.9132ZM90.8906 53.568C98.7154 59.1614 98.126 67.3779 89.1225 72.5761C80.1189 77.7743 65.8874 78.1146 56.1994 73.5969L59.7367 71.5547C67.4791 74.9271 78.5388 74.577 85.5925 70.5045C92.6462 66.4321 93.2525 60.0468 87.4114 55.5767L90.8906 53.568ZM89.5309 72.8119C99.3906 67.1194 99.3906 57.8899 89.5309 52.1974C79.6711 46.5048 63.6852 46.5048 53.8254 52.1974C43.9657 57.8899 43.9657 67.1194 53.8254 72.8119C63.6852 78.5045 79.6711 78.5045 89.5309 72.8119ZM64.774 54.9703C64.235 55.2815 64.235 55.786 64.774 56.0972C65.313 56.4084 66.1869 56.4084 66.7259 56.0972C67.0067 55.935 67.1412 55.7204 67.1294 55.508C71.8244 54.4024 77.4133 54.9495 81.2235 57.1494C86.1969 60.0207 86.2933 64.6415 81.5129 67.5807L80.3366 66.9015C84.4752 64.3353 84.4216 60.3338 80.1513 57.8339C80.384 57.5399 80.2908 57.1809 79.8717 56.9389C79.3327 56.6278 78.4588 56.6278 77.9199 56.9389C77.3809 57.2501 77.3809 57.7547 77.9199 58.0658C78.3733 58.3277 79.0638 58.3692 79.5925 58.1905C83.5061 60.5022 83.5562 64.1875 79.7482 66.5619L78.0179 65.5629C78.4925 65.4079 78.9388 65.2137 79.343 64.9804C81.7579 63.5861 81.7496 61.3208 79.3244 59.9205C78.0003 59.1561 76.2295 58.8076 74.5015 58.8756L70.8416 56.7625L70.2537 57.1019L73.4812 58.9653C73.1675 59.0086 72.8587 59.0662 72.5577 59.1381L68.6311 56.8711L68.0432 57.2105L71.7742 59.3646C71.3411 59.5131 70.9328 59.6948 70.5604 59.9098C69.0974 60.7545 68.5238 61.9188 68.8381 63.0169L69.6595 62.5426C69.6087 61.7258 70.1216 60.9007 71.1992 60.2786C72.0568 59.7835 73.137 59.4948 74.2555 59.4124L74.2749 59.4236L74.2998 59.4092C75.8594 59.302 77.4884 59.595 78.6883 60.2878C80.7607 61.4843 80.7679 63.4202 78.7042 64.6116C77.6266 65.2338 76.1974 65.5299 74.7825 65.5005L73.9611 65.9748C75.0517 66.0789 76.1801 66.0144 77.2202 65.7812L81.2235 68.0925L81.5175 68.2622L81.8114 68.0925C87.2078 64.9769 87.2078 59.9255 81.8114 56.8099C77.7675 54.4752 71.8406 53.89 66.8529 55.0546C66.8145 55.0252 66.7722 54.997 66.7259 54.9703C66.1869 54.6591 65.313 54.6591 64.774 54.9703ZM61.8053 57.3819C57.0249 60.3211 57.1213 64.9419 62.0947 67.8132C65.9051 70.0132 71.4944 70.5603 76.1896 69.4545C76.1778 69.2421 76.3124 69.0275 76.5931 68.8654C77.1321 68.5542 78.006 68.5542 78.545 68.8654C79.0839 69.1766 79.0839 69.6811 78.545 69.9923C78.006 70.3035 77.1321 70.3035 76.5931 69.9923C76.5467 69.9655 76.5043 69.9373 76.4659 69.9079C71.4781 71.0726 65.5509 70.4875 61.5068 68.1527C56.1104 65.0371 56.1104 59.9857 61.5068 56.8701L61.8007 56.7004L62.0947 56.8701L66.0983 59.1816C67.1385 58.9483 68.2671 58.8838 69.3579 58.9879L68.5365 59.4621C67.1216 59.4327 65.6924 59.7289 64.6148 60.351C62.5511 61.5425 62.5583 63.4784 64.6307 64.6749C65.8306 65.3677 67.4598 65.6607 69.0195 65.5534L69.0442 65.5391L69.0635 65.5503C70.182 65.4679 71.2622 65.1792 72.1198 64.6841C73.1974 64.062 73.7103 63.2369 73.6595 62.4201L74.4809 61.9458C74.7952 63.0438 74.2216 64.2082 72.7586 65.0529C72.3863 65.2678 71.9781 65.4495 71.5451 65.598L75.2762 67.7522L74.6883 68.0916L70.7616 65.8245C70.4606 65.8964 70.1516 65.9541 69.8379 65.9973L73.0655 67.8608L72.4776 68.2002L68.8175 66.0871C67.0895 66.1551 65.3187 65.8066 63.9946 65.0421C61.5694 63.6419 61.5611 61.3765 63.976 59.9822C64.38 59.749 64.8262 59.5549 65.3006 59.3999L63.5704 58.401C59.7628 60.7754 59.813 64.4605 63.7265 66.7722C64.2552 66.5934 64.9459 66.6349 65.3994 66.8968C65.9384 67.208 65.9384 67.7125 65.3994 68.0237C64.8604 68.3349 63.9866 68.3349 63.4476 68.0237C63.0285 67.7817 62.9353 67.4229 63.1679 67.1289C58.8976 64.629 58.8437 60.6276 62.9821 58.0613L61.8053 57.3819ZM85.1841 54.6057C92.6756 58.931 92.6756 65.9435 85.1841 70.2687C77.6926 74.594 65.5465 74.594 58.055 70.2687C50.5635 65.9435 50.5635 58.931 58.055 54.6057C65.5465 50.2805 77.6926 50.2805 85.1841 54.6057ZM59.4516 72.9428C59.2514 73.0322 59.0777 73.1543 58.9266 73.3069C58.7831 73.4508 58.7038 73.5969 58.6887 73.7321C58.6698 73.8738 58.7038 74.0024 58.7907 74.118C58.8775 74.2336 58.9984 74.3382 59.1532 74.432C59.3081 74.5258 59.4931 74.6064 59.7046 74.6762C60.0143 74.7765 60.3277 74.8354 60.6488 74.8506L61.1359 74.347C60.9018 74.3775 60.6261 74.3404 60.2975 74.2336C60.086 74.1638 59.9388 74.0744 59.8557 73.9654C59.7726 73.8564 59.7877 73.7386 59.9085 73.6165C60.0445 73.477 60.2145 73.3963 60.4297 73.3767C60.6412 73.3592 60.8603 73.3854 61.0793 73.4552C61.3437 73.538 61.5325 73.6514 61.6496 73.7888L62.1254 73.296C61.9328 73.1455 61.6798 73.0213 61.3701 72.921C61.1624 72.8577 60.9509 72.8098 60.7356 72.7858C60.5204 72.7618 60.3013 72.7618 60.0823 72.7792C59.867 72.7988 59.6517 72.8534 59.4516 72.9428ZM63.2093 75.5265L62.1708 75.3281L63.2169 73.5118L64.6747 73.7909C64.8559 73.8258 65.0108 73.8672 65.1505 73.9174C65.2902 73.9675 65.4111 74.0286 65.5131 74.1005C65.615 74.1725 65.683 74.2597 65.7057 74.36C65.7283 74.4603 65.7094 74.5715 65.6415 74.6893C65.4904 74.9466 65.2072 75.0926 64.7917 75.1275L65.2374 75.9168L64.0931 75.6966L63.7569 75.036L63.5152 74.988L63.2093 75.5265ZM63.9722 74.1965L63.772 74.5388L64.1724 74.6173C64.2706 74.6348 64.3574 74.6369 64.433 74.6151C64.5085 74.5933 64.5614 74.5584 64.5916 74.5061C64.6218 74.4538 64.618 74.408 64.5802 74.3644C64.5387 74.3229 64.4707 74.2924 64.3763 74.2728L63.9722 74.1965ZM67.4576 76.1436L68.5302 76.2264L68.6774 75.5832L70.2221 74.4297L68.9985 74.3338L68.2696 75.0076L67.873 74.2466L66.6494 74.1507L67.6049 75.496L67.4576 76.1436ZM71.1553 74.4189L72.6017 74.3644C73.5874 74.3273 74.1124 74.5432 74.1652 75.0141C74.2181 75.4851 73.7498 75.738 72.7641 75.7751L72.4091 75.7882L72.4658 76.2875L71.3743 76.3289L71.1553 74.4189ZM73.0813 75.0556C73.0662 74.9291 72.9227 74.8724 72.647 74.8833L72.2996 74.8964L72.3411 75.2692L72.6886 75.2562C72.9643 75.2453 73.0927 75.1798 73.0813 75.0556ZM77.7039 73.8171L74.9243 74.2226L75.1623 74.7612L76.0233 74.6347L76.6011 75.9539L77.6548 75.7991L77.077 74.4799L77.9381 74.3535L77.7039 73.8171ZM80.1135 75.0861C79.6943 74.9924 79.3771 74.8136 79.1618 74.5497C78.9503 74.2881 78.9164 74.033 79.0599 73.7844C79.2034 73.5358 79.5357 73.344 80.0531 73.2022C80.5705 73.0605 81.0388 73.0387 81.4618 73.1346C81.881 73.2284 82.1982 73.4072 82.4135 73.671C82.625 73.9327 82.659 74.1878 82.5155 74.4364C82.372 74.6849 82.0396 74.8768 81.5222 75.0185C81.0011 75.1581 80.5327 75.1799 80.1135 75.0861ZM81.4656 74.275C81.5147 74.1769 81.492 74.0679 81.3938 73.9458C81.2956 73.8236 81.1672 73.7452 81.001 73.7059C80.8387 73.6645 80.6612 73.671 80.4685 73.7212C80.2797 73.7735 80.1589 73.8476 80.106 73.9479C80.0569 74.0461 80.0796 74.1551 80.1777 74.2772C80.2759 74.3993 80.4043 74.4778 80.5705 74.517C80.7329 74.5585 80.9104 74.5519 81.103 74.5018C81.2919 74.4494 81.4165 74.3731 81.4656 74.275ZM84.5847 72.2733C84.6678 72.4129 84.8038 72.5481 85.0039 72.6811C85.1928 72.8075 85.4005 72.9013 85.6271 72.958C85.8499 73.0168 86.0727 73.0408 86.2917 73.0321C86.5108 73.0234 86.7223 72.9929 86.9262 72.9405C87.1302 72.8882 87.3265 72.8141 87.5078 72.7225C87.7722 72.5873 87.9761 72.4347 88.1083 72.2668L87.4512 71.8307C87.4247 71.9681 87.2661 72.1076 86.9829 72.2493C86.8016 72.3409 86.6052 72.3889 86.3975 72.3998C86.1898 72.4107 86.0047 72.3605 85.8461 72.2559C85.6611 72.136 85.5931 72.0138 85.6308 71.8917C85.6724 71.7675 85.7857 71.6584 85.9745 71.5625C86.2011 71.4448 86.4466 71.3815 86.711 71.3641L86.0689 70.9411C85.7555 70.9956 85.4722 71.0893 85.2003 71.2245C85.0228 71.3139 84.8793 71.4142 84.766 71.5232C84.6527 71.6323 84.5734 71.7522 84.5318 71.8765C84.4903 72.0008 84.5092 72.1338 84.5847 72.2733ZM89.914 71.2071L89.2342 71.713L87.3686 69.9773L88.0861 69.4409L91.4624 70.0471L90.7826 70.553L90.3483 70.4636L89.6459 70.9869L89.914 71.2071ZM88.7659 70.2346L89.1851 70.59L89.5817 70.2957L88.8792 70.1518C88.7395 70.1234 88.6111 70.0885 88.4827 70.0449C88.5733 70.0973 88.6677 70.1605 88.7659 70.2346ZM92.2857 69.2534L92.7691 68.6865L91.8929 68.4336L92.0062 68.3028L93.1883 68.2003L93.7208 67.5788L92.3083 67.7228C92.3008 67.4785 92.0893 67.2954 91.6701 67.1755C91.4737 67.1188 91.2849 67.0926 91.1111 67.0926C90.9336 67.0948 90.7788 67.1188 90.6391 67.1689C90.4993 67.2191 90.3785 67.2801 90.2765 67.3521C90.1708 67.4262 90.0801 67.5091 89.9933 67.6072L89.3097 68.4031L92.2857 69.2534ZM91.1527 68.2286L90.5938 68.0673L90.7788 67.8514C90.8241 67.7947 90.8883 67.762 90.9639 67.7446C91.0432 67.7293 91.1225 67.7315 91.2093 67.7555C91.2962 67.7794 91.3491 67.8143 91.3755 67.8601C91.3982 67.9081 91.3868 67.9582 91.3415 68.0106L91.1527 68.2286ZM93.9247 66.5062C93.532 66.6326 93.0901 66.661 92.6067 66.5868C92.1195 66.5149 91.7569 66.3666 91.5228 66.1442C91.2849 65.924 91.2358 65.6514 91.3831 65.3309C91.5266 65.0126 91.7947 64.788 92.1913 64.6637C92.584 64.5372 93.0259 64.5089 93.5093 64.583C93.9965 64.655 94.359 64.8032 94.5932 65.0256C94.8311 65.2459 94.8802 65.5184 94.7329 65.8389C94.5894 66.1573 94.3213 66.3775 93.9247 66.5062ZM93.7095 65.3876C93.6113 65.3004 93.4489 65.2415 93.2261 65.2088C93.0032 65.1761 92.8106 65.1826 92.6558 65.2284C92.4972 65.2764 92.3914 65.3592 92.3385 65.477C92.2857 65.5947 92.3083 65.695 92.4065 65.7823C92.5047 65.8695 92.6671 65.9283 92.8899 65.961C93.1128 65.9938 93.3054 65.9872 93.4602 65.9414C93.6188 65.8935 93.7246 65.8106 93.7774 65.6929C93.8303 65.5751 93.8077 65.4748 93.7095 65.3876ZM92.1758 61.9817L92.1229 62.6097L94.0868 62.6664C94.3776 62.6729 94.5173 62.7623 94.5022 62.9367C94.4871 63.1112 94.336 63.1897 94.0452 63.1831L92.0701 63.1286L92.021 63.7588L94.0452 63.8155C94.2907 63.822 94.5098 63.8046 94.6948 63.7588C94.8761 63.7152 95.0272 63.6497 95.1367 63.5691C95.2462 63.484 95.3331 63.3946 95.3859 63.2943C95.4426 63.1919 95.4728 63.0828 95.4841 62.9629C95.4955 62.843 95.4841 62.7318 95.4426 62.6293C95.4048 62.529 95.3368 62.4331 95.2424 62.3437C95.148 62.2543 95.012 62.1845 94.8345 62.13C94.657 62.0755 94.4456 62.0449 94.2001 62.0384L92.1758 61.9817ZM93.0446 61.2796C92.7123 61.3058 92.4441 61.26 92.2327 61.1335C92.0249 61.0092 91.8928 60.837 91.8361 60.6211C91.7719 60.3529 91.8021 60.1131 91.9381 59.9037L92.8747 59.8252C92.7085 60.0389 92.6556 60.257 92.7161 60.4794C92.7425 60.5906 92.8029 60.6429 92.9011 60.6342C92.9464 60.6298 92.9804 60.6102 93.0069 60.5731C93.0333 60.5361 93.056 60.4881 93.0673 60.4336L93.0834 60.372C93.0935 60.3331 93.1041 60.2921 93.1164 60.2483C93.1315 60.1785 93.1579 60.1109 93.1957 60.0411C93.2335 59.9713 93.2788 59.9059 93.3354 59.8471C93.3921 59.7882 93.4827 59.7359 93.596 59.6922C93.7093 59.6486 93.8415 59.6203 93.9963 59.605C94.7026 59.5462 95.1255 59.7816 95.2577 60.3115C95.3295 60.6015 95.2917 60.8588 95.1369 61.0877L94.1587 61.1684C94.3589 60.922 94.4307 60.68 94.374 60.4467C94.3551 60.366 94.3287 60.3115 94.2947 60.2831C94.2607 60.2548 94.2154 60.2417 94.1625 60.2461C94.1096 60.2504 94.0719 60.2766 94.0417 60.3246C94.0114 60.3725 93.9888 60.4336 93.9737 60.5034C93.9624 60.5753 93.9359 60.6516 93.9019 60.7367C93.8642 60.8195 93.8226 60.9002 93.7622 60.9743C93.7093 61.0485 93.6187 61.1139 93.4903 61.1706C93.377 61.2273 93.2259 61.2665 93.0446 61.2796ZM90.6694 57.8105L91.4511 59.1864L94.6046 58.5868L93.8115 57.1956L92.9807 57.3526L93.4301 58.1441L93.0562 58.2161L92.6672 57.5336L91.9006 57.6797L92.2896 58.3622L91.927 58.4319L91.4889 57.6557L90.6694 57.8105ZM90.2005 57.1913L89.6869 56.6331L91.7716 55.992L91.1069 55.2725L91.9491 55.013L93.1274 56.2907L90.2005 57.1913ZM83.668 51.8935C83.8681 51.8041 84.0419 51.682 84.1929 51.5294C84.3365 51.3855 84.4158 51.2394 84.4309 51.1042C84.4498 50.9625 84.4158 50.8338 84.3289 50.7182C84.242 50.6027 84.1212 50.498 83.9663 50.4043C83.8115 50.3105 83.6264 50.2298 83.415 50.1601C83.1053 50.0598 82.7918 50.0009 82.4708 49.9856L81.9836 50.4893C82.2178 50.4588 82.4935 50.4958 82.822 50.6027C83.0335 50.6725 83.1808 50.7619 83.2639 50.8709C83.347 50.9799 83.3319 51.0976 83.211 51.2197C83.0751 51.3593 82.9051 51.44 82.6898 51.4596C82.4784 51.477 82.2593 51.4509 82.0403 51.3811C81.7759 51.2982 81.5871 51.1849 81.47 51.0475L80.9941 51.5403C81.1867 51.6907 81.4398 51.815 81.7495 51.9153C81.9572 51.9785 82.1687 52.0265 82.3839 52.0505C82.5992 52.0745 82.8182 52.0745 83.0373 52.057C83.2526 52.0374 83.4678 51.9829 83.668 51.8935ZM79.9098 49.3097L80.9484 49.5081L79.9023 51.3244L78.4445 51.0453C78.2632 51.0104 78.1084 50.969 77.9686 50.9189C77.8289 50.8687 77.708 50.8077 77.6061 50.7357C77.5041 50.6638 77.4361 50.5765 77.4135 50.4762C77.3908 50.3759 77.4097 50.2647 77.4777 50.147C77.6287 49.8897 77.912 49.7436 78.3274 49.7087L77.8818 48.9194L79.0261 49.1396L79.3622 49.8003L79.6039 49.8483L79.9098 49.3097ZM79.1469 50.6398L79.3471 50.2974L78.9468 50.2189C78.8486 50.2015 78.7617 50.1993 78.6862 50.2211C78.6107 50.2429 78.5578 50.2778 78.5276 50.3301C78.4974 50.3825 78.5011 50.4283 78.5389 50.4719C78.5804 50.5133 78.6484 50.5438 78.7428 50.5635L79.1469 50.6398ZM75.6612 48.6926L74.5887 48.6097L74.4414 49.253L72.8968 50.4064L74.1204 50.5024L74.8493 49.8286L75.2458 50.5896L76.4694 50.6855L75.5139 49.3402L75.6612 48.6926ZM71.9639 50.4173L70.5174 50.4719C69.5317 50.5089 69.0068 50.2931 68.9539 49.8221C68.901 49.3511 69.3693 49.0982 70.355 49.0611L70.71 49.048L70.6534 48.5487L71.7448 48.5073L71.9639 50.4173ZM70.0378 49.7807C70.0529 49.9071 70.1964 49.9638 70.4721 49.9529L70.8195 49.9398L70.778 49.567L70.4306 49.5801C70.1549 49.591 70.0265 49.6564 70.0378 49.7807ZM65.4149 51.0192L68.1945 50.6136L67.9566 50.075L67.0955 50.2015L66.5177 48.8823L65.464 49.0371L66.0418 50.3563L65.1808 50.4828L65.4149 51.0192ZM63.0056 49.7501C63.4248 49.8439 63.742 50.0227 63.9573 50.2865C64.1688 50.5482 64.2028 50.8033 64.0593 51.0519C63.9158 51.3004 63.5834 51.4923 63.066 51.634C62.5486 51.7758 62.0803 51.7976 61.6573 51.7016C61.2381 51.6079 60.9209 51.4291 60.7056 51.1652C60.4941 50.9036 60.4601 50.6485 60.6037 50.3999C60.7472 50.1513 61.0795 49.9595 61.5969 49.8177C62.1181 49.6782 62.5864 49.6564 63.0056 49.7501ZM61.6536 50.5613C61.6045 50.6594 61.6271 50.7684 61.7253 50.8905C61.8235 51.0126 61.9519 51.0911 62.1181 51.1303C62.2805 51.1718 62.458 51.1652 62.6506 51.1151C62.8394 51.0628 62.9603 50.9886 63.0131 50.8883C63.0622 50.7902 63.0396 50.6812 62.9414 50.5591C62.8432 50.437 62.7148 50.3585 62.5486 50.3192C62.3862 50.2778 62.2087 50.2843 62.0161 50.3345C61.8273 50.3868 61.7027 50.4631 61.6536 50.5613ZM58.5341 52.5629C58.451 52.4233 58.3151 52.2881 58.1149 52.1551C57.9261 52.0287 57.7184 51.9349 57.4918 51.8782C57.269 51.8193 57.0461 51.7954 56.8271 51.8041C56.608 51.8128 56.3966 51.8433 56.1926 51.8957C55.9887 51.948 55.7923 52.0221 55.611 52.1137C55.3467 52.2489 55.1427 52.4015 55.0105 52.5694L55.6677 53.0055C55.6941 52.8681 55.8527 52.7286 56.136 52.5869C56.3172 52.4953 56.5136 52.4473 56.7213 52.4364C56.9291 52.4255 57.1141 52.4757 57.2727 52.5803C57.4578 52.7002 57.5258 52.8223 57.488 52.9444C57.4465 53.0687 57.3332 53.1778 57.1443 53.2737C56.9177 53.3914 56.6722 53.4547 56.4079 53.4721L57.0499 53.8951C57.3634 53.8406 57.6466 53.7468 57.9185 53.6117C58.096 53.5223 58.2395 53.422 58.3528 53.3129C58.4661 53.2039 58.5455 53.084 58.587 52.9597C58.6285 52.8354 58.6097 52.7024 58.5341 52.5629ZM53.2051 53.6291L53.8849 53.1233L55.7506 54.8589L55.033 55.3953L51.6567 54.7891L52.3365 54.2833L52.7708 54.3727L53.4733 53.8494L53.2051 53.6291ZM54.3532 54.6016L53.934 54.2462L53.5375 54.5405L54.2399 54.6845C54.3797 54.7128 54.5081 54.7477 54.6365 54.7913C54.5458 54.739 54.4514 54.6757 54.3532 54.6016ZM50.8335 55.5828L50.35 56.1497L51.2262 56.4026L51.1129 56.5335L49.9308 56.6359L49.3983 57.2574L50.8108 57.1135C50.8184 57.3577 51.0298 57.5408 51.449 57.6608C51.6454 57.7174 51.8343 57.7436 52.008 57.7436C52.1855 57.7414 52.3403 57.7174 52.4801 57.6673C52.6198 57.6171 52.7407 57.5561 52.8426 57.4841C52.9484 57.41 53.039 57.3271 53.1259 57.229L53.8094 56.4332L50.8335 55.5828ZM51.9664 56.6076L52.5254 56.769L52.3403 56.9848C52.295 57.0415 52.2308 57.0742 52.1553 57.0917C52.076 57.1069 51.9967 57.1047 51.9098 57.0808C51.8229 57.0568 51.7701 57.0219 51.7436 56.9761C51.721 56.9281 51.7323 56.878 51.7776 56.8256L51.9664 56.6076ZM49.1947 58.3301C49.5875 58.2036 50.0293 58.1753 50.5127 58.2494C50.9999 58.3214 51.3625 58.4696 51.5966 58.6921C51.8346 58.9123 51.8837 59.1848 51.7364 59.5054C51.5929 59.8237 51.3247 60.0483 50.9282 60.1726C50.5354 60.299 50.0935 60.3274 49.6101 60.2532C49.1229 60.1813 48.7604 60.033 48.5262 59.8106C48.2883 59.5904 48.2392 59.3178 48.3865 58.9973C48.53 58.679 48.7982 58.4587 49.1947 58.3301ZM49.41 59.4487C49.5082 59.5359 49.6706 59.5948 49.8934 59.6275C50.1162 59.6602 50.3088 59.6536 50.4636 59.6078C50.6223 59.5599 50.728 59.477 50.7809 59.3593C50.8338 59.2415 50.8111 59.1412 50.7129 59.054C50.6147 58.9668 50.4523 58.9079 50.2295 58.8752C50.0067 58.8425 49.8141 58.849 49.6592 58.8948C49.5006 58.9428 49.3949 59.0257 49.342 59.1434C49.2891 59.2611 49.3118 59.3614 49.41 59.4487ZM50.943 62.8545L50.9959 62.2265L49.0321 62.1699C48.7413 62.1633 48.6015 62.0739 48.6166 61.8995C48.6317 61.7251 48.7828 61.6466 49.0736 61.6531L51.0488 61.7076L51.0979 61.0775L49.0736 61.0208C48.8281 61.0142 48.6091 61.0317 48.424 61.0775C48.2427 61.1211 48.0917 61.1865 47.9822 61.2672C47.8726 61.3522 47.7858 61.4416 47.7329 61.5419C47.6763 61.6444 47.646 61.7534 47.6347 61.8733C47.6234 61.9932 47.6347 62.1044 47.6763 62.2069C47.714 62.3072 47.782 62.4032 47.8764 62.4926C47.9708 62.582 48.1068 62.6517 48.2843 62.7062C48.4618 62.7608 48.6733 62.7913 48.9188 62.7978L50.943 62.8545ZM50.0745 63.5567C50.4068 63.5305 50.675 63.5763 50.8865 63.7027C51.0942 63.827 51.2264 63.9993 51.283 64.2151C51.3472 64.4833 51.317 64.7232 51.1811 64.9325L50.2445 65.011C50.4106 64.7973 50.4635 64.5793 50.4031 64.3569C50.3766 64.2457 50.3162 64.1933 50.218 64.2021C50.1727 64.2064 50.1387 64.2261 50.1123 64.2631C50.0858 64.3002 50.0632 64.3482 50.0518 64.4027L50.0357 64.4643C50.0256 64.5032 50.015 64.5442 50.0027 64.588C49.9876 64.6578 49.9612 64.7254 49.9234 64.7951C49.8857 64.8649 49.8404 64.9303 49.7837 64.9892C49.7271 65.0481 49.6364 65.1004 49.5231 65.144C49.4098 65.1876 49.2776 65.216 49.1228 65.2312C48.4166 65.2901 47.9936 65.0546 47.8614 64.5248C47.7896 64.2348 47.8274 63.9775 47.9823 63.7485L48.9604 63.6679C48.7602 63.9142 48.6885 64.1563 48.7451 64.3896C48.764 64.4703 48.7905 64.5248 48.8244 64.5531C48.8584 64.5815 48.9038 64.5945 48.9566 64.5902C49.0095 64.5858 49.0473 64.5597 49.0775 64.5117C49.1077 64.4637 49.1303 64.4027 49.1455 64.3329C49.1568 64.2609 49.1832 64.1846 49.2172 64.0996C49.255 64.0167 49.2965 63.9361 49.3569 63.8619C49.4098 63.7878 49.5005 63.7224 49.6289 63.6657C49.7422 63.609 49.8932 63.5697 50.0745 63.5567ZM52.45 67.0257L51.6683 65.6498L48.5148 66.2495L49.3079 67.6406L50.1388 67.4836L49.6893 66.6921L50.0632 66.6201L50.4522 67.3026L51.2189 67.1565L50.8299 66.4741L51.1924 66.4043L51.6305 67.1805L52.45 67.0257ZM52.9183 67.6449L53.4319 68.2031L51.3472 68.8441L52.0119 69.5637L51.1697 69.8232L49.9914 68.5454L52.9183 67.6449ZM87.897 53.8815C88.4447 53.5653 88.4447 53.0525 87.897 52.7363C87.3492 52.42 86.4611 52.42 85.9133 52.7363C85.3656 53.0525 85.3656 53.5653 85.9133 53.8815C86.4611 54.1978 87.3492 54.1978 87.897 53.8815ZM56.7424 70.7235C57.2902 71.0397 57.2902 71.5525 56.7424 71.8687C56.1947 72.185 55.3066 72.185 54.7588 71.8687C54.211 71.5525 54.211 71.0397 54.7588 70.7235C55.3066 70.4072 56.1947 70.4072 56.7424 70.7235Z" fill="#2785C2"/>
<path d="M239.909 150.562L244.323 148.014L245.641 148.775L242.596 150.521L243.863 151.358C244.122 151.13 244.388 150.938 244.66 150.78C245.409 150.348 246.199 150.1 247.03 150.037C247.868 149.97 248.665 150.155 249.421 150.592C250.184 151.032 250.48 151.529 250.31 152.084C250.132 152.634 249.628 153.15 248.798 153.629C247.953 154.117 247.051 154.457 246.09 154.65L244.67 153.83C245.617 153.708 246.489 153.417 247.286 152.957C247.762 152.682 248.059 152.412 248.174 152.149C248.297 151.881 248.195 151.653 247.868 151.465C247.187 151.071 246.281 151.201 245.15 151.854C244.537 152.208 244.054 152.601 243.7 153.034L239.909 150.562Z" fill="#FF127F"/>
<path d="M255.733 150.168L254.711 150.758L250.513 143.509L251.534 142.919L255.733 150.168ZM248.612 145.691C249.273 145.663 249.879 145.809 250.431 146.127C250.982 146.446 251.238 146.798 251.197 147.183C251.149 147.565 250.867 147.905 250.349 148.204C249.825 148.506 249.229 148.674 248.561 148.705C247.894 148.729 247.284 148.581 246.733 148.263C246.181 147.944 245.929 147.594 245.977 147.213C246.024 146.823 246.31 146.477 246.835 146.175C247.352 145.876 247.945 145.714 248.612 145.691ZM247.55 147.213C247.57 147.358 247.679 147.488 247.877 147.602C248.074 147.716 248.299 147.779 248.551 147.791C248.81 147.799 249.058 147.734 249.297 147.596C249.522 147.466 249.624 147.329 249.603 147.183C249.59 147.034 249.484 146.902 249.287 146.788C249.089 146.674 248.861 146.613 248.602 146.605C248.35 146.593 248.112 146.652 247.887 146.782C247.649 146.92 247.536 147.063 247.55 147.213ZM257.654 145.001C258.314 144.973 258.921 145.119 259.472 145.437C260.024 145.756 260.279 146.108 260.238 146.493C260.191 146.875 259.908 147.215 259.39 147.513C258.866 147.816 258.27 147.983 257.603 148.015C256.935 148.038 256.326 147.891 255.774 147.572C255.222 147.254 254.97 146.904 255.018 146.523C255.066 146.133 255.352 145.787 255.876 145.484C256.394 145.186 256.986 145.024 257.654 145.001ZM256.591 146.523C256.612 146.668 256.721 146.798 256.918 146.912C257.116 147.026 257.34 147.089 257.592 147.101C257.851 147.108 258.1 147.044 258.338 146.906C258.563 146.776 258.665 146.639 258.645 146.493C258.631 146.344 258.525 146.212 258.328 146.098C258.13 145.984 257.902 145.923 257.643 145.915C257.391 145.903 257.153 145.962 256.928 146.092C256.69 146.23 256.578 146.373 256.591 146.523Z" fill="#FF127F"/>
<g filter="url(#filter2_d_960_10)">
<path fill-rule="evenodd" clip-rule="evenodd" d="M268.433 138.195C278.401 143.95 278.401 153.281 268.433 159.036C258.465 164.791 242.304 164.791 232.336 159.036C222.368 153.281 222.368 143.95 232.336 138.195C242.304 132.44 258.465 132.44 268.433 138.195ZM267.867 158.709C277.523 153.135 277.523 144.097 267.867 138.522C258.212 132.947 242.557 132.947 232.902 138.522C223.246 144.097 223.246 153.135 232.902 158.709C242.557 164.284 258.212 164.284 267.867 158.709ZM269.016 139.949C276.605 145.374 276.033 153.342 267.302 158.383C258.57 163.424 244.769 163.754 235.374 159.373L238.804 157.392C246.313 160.663 257.038 160.323 263.879 156.374C270.719 152.424 271.307 146.232 265.643 141.897L269.016 139.949ZM267.698 138.62C277.259 144.14 277.259 153.091 267.698 158.611C258.136 164.132 242.633 164.132 233.071 158.611C223.51 153.091 223.51 144.14 233.071 138.62C242.633 133.099 258.136 133.099 267.698 138.62ZM263.483 140.956C270.748 145.15 270.748 151.951 263.483 156.145C256.217 160.34 244.438 160.34 237.173 156.145C229.908 151.951 229.908 145.15 237.173 140.956C244.438 136.761 256.217 136.761 263.483 140.956ZM238.528 158.738C238.334 158.825 238.165 158.943 238.019 159.091C237.879 159.231 237.802 159.373 237.788 159.504C237.77 159.641 237.802 159.766 237.887 159.878C237.971 159.99 238.088 160.092 238.238 160.183C238.388 160.274 238.568 160.352 238.773 160.419C239.073 160.517 239.377 160.574 239.689 160.589L240.161 160.1C239.934 160.13 239.667 160.094 239.348 159.99C239.143 159.922 239 159.836 238.92 159.73C238.839 159.624 238.854 159.51 238.971 159.392C239.103 159.256 239.267 159.178 239.476 159.159C239.681 159.142 239.894 159.168 240.106 159.235C240.363 159.316 240.546 159.426 240.659 159.559L241.121 159.081C240.934 158.935 240.689 158.814 240.388 158.717C240.187 158.656 239.982 158.609 239.773 158.586C239.564 158.563 239.352 158.563 239.139 158.58C238.931 158.599 238.722 158.652 238.528 158.738ZM242.172 161.244L241.165 161.052L242.179 159.29L243.593 159.561C243.769 159.595 243.919 159.635 244.054 159.684C244.19 159.732 244.307 159.791 244.406 159.861C244.505 159.931 244.571 160.016 244.593 160.113C244.615 160.21 244.596 160.318 244.53 160.432C244.384 160.682 244.109 160.823 243.706 160.857L244.139 161.623L243.029 161.409L242.703 160.768L242.468 160.722L242.172 161.244ZM242.912 159.954L242.718 160.286L243.106 160.362C243.201 160.379 243.285 160.381 243.358 160.36C243.432 160.339 243.483 160.305 243.512 160.254C243.542 160.204 243.538 160.159 243.501 160.117C243.461 160.077 243.395 160.047 243.304 160.028L242.912 159.954ZM246.292 161.842L247.332 161.923L247.475 161.299L248.973 160.18L247.786 160.087L247.08 160.741L246.695 160.003L245.508 159.91L246.435 161.214L246.292 161.842ZM249.878 160.17L251.28 160.117C252.236 160.081 252.745 160.29 252.797 160.747C252.848 161.204 252.394 161.449 251.438 161.485L251.094 161.498L251.149 161.982L250.09 162.022L249.878 160.17ZM251.746 160.787C251.731 160.665 251.592 160.61 251.324 160.62L250.987 160.633L251.028 160.995L251.365 160.982C251.632 160.971 251.757 160.908 251.746 160.787ZM256.228 159.586L253.533 159.98L253.764 160.502L254.599 160.379L255.159 161.659L256.181 161.508L255.62 160.229L256.455 160.106L256.228 159.586ZM258.565 160.817C258.159 160.726 257.851 160.553 257.642 160.297C257.437 160.043 257.404 159.796 257.543 159.555C257.682 159.314 258.005 159.127 258.507 158.99C259.008 158.853 259.462 158.831 259.873 158.924C260.279 159.015 260.587 159.189 260.796 159.445C261.001 159.698 261.034 159.946 260.894 160.187C260.755 160.428 260.433 160.614 259.931 160.751C259.426 160.887 258.972 160.908 258.565 160.817ZM259.876 160.03C259.924 159.935 259.902 159.829 259.807 159.711C259.711 159.593 259.587 159.517 259.426 159.478C259.268 159.438 259.096 159.445 258.909 159.493C258.726 159.544 258.609 159.616 258.558 159.713C258.51 159.808 258.532 159.914 258.627 160.032C258.723 160.151 258.847 160.227 259.008 160.265C259.166 160.305 259.338 160.299 259.525 160.25C259.708 160.2 259.829 160.125 259.876 160.03ZM262.901 158.089C262.982 158.224 263.114 158.356 263.308 158.485C263.491 158.607 263.693 158.698 263.912 158.753C264.128 158.81 264.344 158.833 264.557 158.825C264.769 158.817 264.974 158.787 265.172 158.736C265.37 158.685 265.56 158.614 265.736 158.525C265.993 158.394 266.19 158.246 266.319 158.083L265.681 157.66C265.656 157.793 265.502 157.928 265.227 158.066C265.051 158.155 264.861 158.201 264.659 158.212C264.458 158.222 264.279 158.174 264.125 158.072C263.945 157.956 263.879 157.838 263.916 157.719C263.956 157.599 264.066 157.493 264.249 157.4C264.469 157.286 264.707 157.224 264.963 157.207L264.341 156.797C264.037 156.85 263.762 156.941 263.498 157.072C263.326 157.159 263.187 157.256 263.077 157.362C262.967 157.467 262.89 157.584 262.85 157.704C262.81 157.825 262.828 157.954 262.901 158.089ZM268.069 157.055L267.41 157.546L265.601 155.863L266.297 155.342L269.571 155.93L268.912 156.421L268.49 156.334L267.809 156.842L268.069 157.055ZM266.956 156.112L267.362 156.457L267.747 156.171L267.066 156.032C266.93 156.004 266.806 155.97 266.681 155.928C266.769 155.979 266.861 156.04 266.956 156.112ZM270.369 155.161L270.838 154.611L269.988 154.365L270.098 154.239L271.245 154.139L271.761 153.537L270.391 153.676C270.384 153.439 270.179 153.262 269.772 153.145C269.582 153.09 269.399 153.065 269.23 153.065C269.058 153.067 268.908 153.09 268.772 153.139C268.637 153.188 268.52 153.247 268.421 153.317C268.318 153.389 268.23 153.469 268.146 153.564L267.483 154.336L270.369 155.161ZM269.271 154.167L268.728 154.01L268.908 153.801C268.952 153.746 269.014 153.714 269.087 153.697C269.164 153.682 269.241 153.685 269.325 153.708C269.41 153.731 269.461 153.765 269.487 153.809C269.509 153.856 269.498 153.904 269.454 153.955L269.271 154.167ZM271.959 152.496C271.578 152.619 271.149 152.646 270.681 152.574C270.208 152.505 269.857 152.361 269.63 152.145C269.399 151.932 269.351 151.667 269.494 151.357C269.633 151.048 269.893 150.83 270.278 150.709C270.659 150.587 271.087 150.559 271.556 150.631C272.028 150.701 272.38 150.845 272.607 151.06C272.838 151.274 272.885 151.538 272.743 151.849C272.603 152.158 272.343 152.371 271.959 152.496ZM271.75 151.411C271.655 151.327 271.497 151.27 271.281 151.238C271.065 151.206 270.878 151.213 270.728 151.257C270.574 151.304 270.472 151.384 270.421 151.498C270.369 151.612 270.391 151.71 270.487 151.794C270.582 151.879 270.739 151.936 270.955 151.968C271.171 151.999 271.358 151.993 271.508 151.949C271.662 151.902 271.765 151.822 271.816 151.708C271.867 151.593 271.845 151.496 271.75 151.411ZM270.263 148.109L270.212 148.718L272.116 148.773C272.398 148.779 272.534 148.866 272.519 149.035C272.505 149.204 272.358 149.28 272.076 149.274L270.161 149.221L270.113 149.832L272.076 149.887C272.314 149.893 272.526 149.876 272.706 149.832C272.882 149.79 273.028 149.726 273.134 149.648C273.241 149.565 273.325 149.479 273.376 149.382C273.431 149.282 273.46 149.176 273.471 149.06C273.482 148.944 273.471 148.836 273.431 148.737C273.395 148.639 273.329 148.546 273.237 148.46C273.145 148.373 273.014 148.305 272.841 148.252C272.669 148.199 272.464 148.17 272.226 148.164L270.263 148.109ZM271.105 147.428C270.783 147.453 270.523 147.409 270.318 147.286C270.117 147.165 269.988 146.998 269.933 146.789C269.871 146.529 269.9 146.296 270.032 146.093L270.941 146.017C270.779 146.224 270.728 146.436 270.787 146.652C270.812 146.759 270.871 146.81 270.966 146.802C271.01 146.798 271.043 146.779 271.069 146.743C271.094 146.707 271.116 146.66 271.127 146.607C271.133 146.588 271.138 146.568 271.143 146.548L271.143 146.547C271.153 146.51 271.163 146.47 271.175 146.427C271.19 146.36 271.215 146.294 271.252 146.227C271.289 146.159 271.333 146.096 271.387 146.038C271.442 145.981 271.53 145.931 271.64 145.888C271.75 145.846 271.878 145.819 272.028 145.804C272.713 145.747 273.123 145.975 273.252 146.489C273.321 146.77 273.285 147.02 273.134 147.242L272.186 147.32C272.38 147.081 272.45 146.846 272.395 146.62C272.376 146.542 272.351 146.489 272.318 146.461C272.285 146.434 272.241 146.421 272.19 146.425C272.138 146.43 272.102 146.455 272.072 146.501C272.043 146.548 272.021 146.607 272.006 146.675C271.995 146.745 271.97 146.819 271.937 146.901C271.9 146.981 271.86 147.06 271.801 147.132C271.75 147.204 271.662 147.267 271.538 147.322C271.428 147.377 271.281 147.415 271.105 147.428ZM268.802 144.063L269.56 145.398L272.618 144.816L271.849 143.467L271.043 143.619L271.479 144.387L271.116 144.457L270.739 143.795L269.996 143.937L270.373 144.598L270.021 144.666L269.597 143.913L268.802 144.063ZM268.348 143.463L267.85 142.922L269.871 142.3L269.227 141.602L270.043 141.351L271.186 142.59L268.348 143.463ZM262.012 138.325C262.206 138.239 262.375 138.12 262.521 137.972C262.66 137.833 262.737 137.691 262.752 137.56C262.77 137.422 262.737 137.298 262.653 137.186C262.569 137.073 262.451 136.972 262.301 136.881C262.151 136.79 261.972 136.712 261.767 136.644C261.466 136.547 261.162 136.49 260.851 136.475L260.378 136.964C260.606 136.934 260.873 136.97 261.192 137.073C261.397 137.141 261.539 137.228 261.62 137.334C261.701 137.439 261.686 137.553 261.569 137.672C261.437 137.807 261.272 137.885 261.063 137.905C260.858 137.921 260.646 137.896 260.433 137.828C260.177 137.748 259.994 137.638 259.88 137.505L259.419 137.983C259.606 138.129 259.851 138.249 260.151 138.346C260.353 138.408 260.558 138.454 260.767 138.478C260.975 138.501 261.188 138.501 261.4 138.484C261.609 138.465 261.818 138.412 262.012 138.325ZM258.368 135.82L259.375 136.012L258.36 137.773L256.947 137.503C256.771 137.469 256.621 137.429 256.485 137.38C256.35 137.331 256.232 137.272 256.134 137.202C256.035 137.133 255.969 137.048 255.947 136.951C255.925 136.854 255.943 136.746 256.009 136.632C256.156 136.382 256.43 136.24 256.833 136.207L256.401 135.441L257.511 135.655L257.837 136.295L258.071 136.342L258.368 135.82ZM257.628 137.109L257.822 136.777L257.434 136.701C257.339 136.684 257.254 136.682 257.181 136.703C257.108 136.725 257.057 136.758 257.027 136.809C256.998 136.86 257.002 136.904 257.038 136.947C257.079 136.987 257.144 137.016 257.236 137.035L257.628 137.109ZM254.247 135.221L253.207 135.141L253.064 135.765L251.566 136.883L252.753 136.976L253.46 136.323L253.845 137.061L255.031 137.154L254.105 135.849L254.247 135.221ZM250.662 136.894L249.259 136.947C248.303 136.983 247.794 136.773 247.743 136.316C247.692 135.86 248.146 135.614 249.102 135.579L249.446 135.566L249.391 135.082L250.449 135.041L250.662 136.894ZM248.794 136.276C248.809 136.399 248.948 136.454 249.215 136.443L249.552 136.431L249.512 136.069L249.175 136.082C248.908 136.092 248.783 136.156 248.794 136.276ZM244.311 137.477L247.007 137.084L246.776 136.562L245.941 136.684L245.381 135.405L244.359 135.555L244.919 136.835L244.084 136.957L244.311 137.477ZM241.974 136.247C242.381 136.338 242.689 136.511 242.897 136.767C243.102 137.021 243.135 137.268 242.996 137.509C242.857 137.75 242.535 137.936 242.033 138.074C241.531 138.211 241.077 138.232 240.667 138.139C240.26 138.048 239.953 137.875 239.744 137.619C239.539 137.365 239.506 137.118 239.645 136.877C239.784 136.636 240.107 136.45 240.608 136.312C241.114 136.177 241.568 136.156 241.974 136.247ZM240.663 137.033C240.616 137.128 240.638 137.234 240.733 137.353C240.828 137.471 240.953 137.547 241.114 137.585C241.271 137.625 241.443 137.619 241.63 137.57C241.813 137.52 241.93 137.448 241.982 137.35C242.029 137.255 242.007 137.15 241.912 137.031C241.817 136.913 241.692 136.837 241.531 136.799C241.374 136.758 241.202 136.765 241.015 136.813C240.832 136.864 240.711 136.938 240.663 137.033ZM237.638 138.974C237.557 138.839 237.426 138.708 237.232 138.579C237.048 138.456 236.847 138.365 236.627 138.31C236.411 138.253 236.195 138.23 235.983 138.239C235.77 138.247 235.565 138.277 235.367 138.327C235.17 138.378 234.979 138.45 234.803 138.539C234.547 138.67 234.349 138.818 234.221 138.981L234.858 139.404C234.884 139.27 235.038 139.135 235.312 138.998C235.488 138.909 235.679 138.862 235.88 138.852C236.082 138.841 236.261 138.89 236.415 138.991C236.594 139.108 236.66 139.226 236.624 139.344C236.583 139.465 236.473 139.571 236.29 139.664C236.071 139.778 235.832 139.839 235.576 139.856L236.199 140.266C236.503 140.214 236.777 140.123 237.041 139.992C237.213 139.905 237.352 139.808 237.462 139.702C237.572 139.596 237.649 139.48 237.689 139.359C237.73 139.239 237.711 139.11 237.638 138.974ZM232.47 140.008L233.13 139.518L234.939 141.201L234.243 141.721L230.969 141.133L231.628 140.643L232.049 140.73L232.73 140.222L232.47 140.008ZM233.584 140.952L233.177 140.607L232.793 140.892L233.474 141.032C233.609 141.059 233.734 141.093 233.858 141.136C233.77 141.085 233.679 141.023 233.584 140.952ZM230.17 141.903L229.701 142.453L230.551 142.698L230.441 142.825L229.295 142.924L228.779 143.527L230.148 143.387C230.156 143.624 230.361 143.802 230.767 143.918C230.958 143.973 231.141 143.999 231.309 143.999C231.481 143.996 231.632 143.973 231.767 143.925C231.903 143.876 232.02 143.817 232.119 143.747C232.221 143.675 232.309 143.595 232.393 143.5L233.056 142.728L230.17 141.903ZM231.269 142.897L231.811 143.053L231.632 143.263C231.588 143.318 231.525 143.349 231.452 143.366C231.375 143.381 231.298 143.379 231.214 143.356C231.13 143.333 231.079 143.299 231.053 143.254C231.031 143.208 231.042 143.159 231.086 143.108L231.269 142.897ZM228.581 144.567C228.962 144.445 229.39 144.417 229.859 144.489C230.331 144.559 230.683 144.703 230.91 144.918C231.141 145.132 231.188 145.396 231.046 145.707C230.906 146.016 230.646 146.234 230.262 146.354C229.881 146.477 229.452 146.504 228.984 146.432C228.511 146.363 228.159 146.219 227.932 146.003C227.702 145.79 227.654 145.525 227.797 145.214C227.936 144.906 228.196 144.692 228.581 144.567ZM228.789 145.652C228.885 145.737 229.042 145.794 229.258 145.826C229.474 145.857 229.661 145.851 229.811 145.807C229.965 145.76 230.068 145.68 230.119 145.565C230.17 145.451 230.148 145.354 230.053 145.269C229.958 145.185 229.8 145.128 229.584 145.096C229.368 145.064 229.181 145.071 229.031 145.115C228.877 145.162 228.775 145.242 228.724 145.356C228.672 145.47 228.694 145.568 228.789 145.652ZM230.276 148.955L230.328 148.346L228.423 148.291C228.141 148.285 228.006 148.198 228.02 148.029C228.035 147.86 228.182 147.784 228.464 147.79L230.379 147.843L230.427 147.232L228.464 147.177C228.225 147.17 228.013 147.187 227.834 147.232C227.658 147.274 227.511 147.337 227.405 147.416C227.299 147.498 227.215 147.585 227.163 147.682C227.108 147.781 227.079 147.887 227.068 148.004C227.057 148.12 227.068 148.228 227.108 148.327C227.145 148.424 227.211 148.517 227.303 148.604C227.394 148.691 227.526 148.758 227.698 148.811C227.87 148.864 228.075 148.894 228.313 148.9L230.276 148.955ZM229.434 149.636C229.756 149.611 230.016 149.655 230.222 149.778C230.423 149.898 230.551 150.065 230.606 150.275C230.668 150.535 230.639 150.767 230.507 150.97L229.599 151.046C229.76 150.839 229.811 150.628 229.753 150.412C229.727 150.304 229.668 150.253 229.573 150.262C229.529 150.266 229.496 150.285 229.471 150.321C229.445 150.357 229.423 150.404 229.412 150.456C229.407 150.476 229.402 150.495 229.397 150.515L229.396 150.516L229.396 150.516L229.396 150.516C229.387 150.554 229.376 150.594 229.364 150.636C229.35 150.704 229.324 150.769 229.288 150.837C229.251 150.905 229.207 150.968 229.152 151.025C229.097 151.082 229.009 151.133 228.899 151.175C228.789 151.218 228.661 151.245 228.511 151.26C227.826 151.317 227.416 151.089 227.288 150.575C227.218 150.294 227.255 150.044 227.405 149.822L228.354 149.744C228.16 149.983 228.09 150.217 228.145 150.444C228.163 150.522 228.189 150.575 228.222 150.602C228.255 150.63 228.299 150.642 228.35 150.638C228.401 150.634 228.438 150.609 228.467 150.562C228.496 150.516 228.518 150.456 228.533 150.389C228.544 150.319 228.57 150.245 228.603 150.162C228.639 150.082 228.68 150.004 228.738 149.932C228.789 149.86 228.877 149.797 229.002 149.742C229.112 149.687 229.258 149.649 229.434 149.636ZM231.738 153L230.98 151.666L227.921 152.247L228.691 153.596L229.496 153.444L229.061 152.677L229.423 152.607L229.8 153.269L230.544 153.127L230.167 152.465L230.518 152.398L230.943 153.15L231.738 153ZM232.192 153.601L232.69 154.142L230.668 154.764L231.313 155.461L230.496 155.713L229.353 154.474L232.192 153.601ZM266.114 140.253C266.645 139.947 266.645 139.449 266.114 139.143C265.582 138.836 264.721 138.836 264.19 139.143C263.659 139.449 263.659 139.947 264.19 140.253C264.721 140.56 265.582 140.56 266.114 140.253ZM235.9 156.586C236.431 156.893 236.431 157.39 235.9 157.697C235.369 158.004 234.508 158.004 233.977 157.697C233.445 157.39 233.445 156.893 233.977 156.586C234.508 156.279 235.369 156.279 235.9 156.586Z" fill="#FF127F"/>
</g>
<path d="M17.446 224.21C15.8153 222.731 15 220.072 15 216.232C15 212.393 15.8153 208.805 17.446 205.467C19.0978 202.092 21.565 199.457 24.8475 197.562C28.13 195.667 30.5865 195.459 32.2172 196.939C33.869 198.381 34.695 201.022 34.695 204.861C34.695 208.701 33.869 212.308 32.2172 215.682C30.5865 219.02 28.13 221.637 24.8475 223.532C21.565 225.427 19.0978 225.653 17.446 224.21ZM24.8475 218.69C28.2359 216.734 29.93 213.041 29.93 207.613C29.93 202.184 28.2359 200.448 24.8475 202.404C21.4591 204.36 19.7649 208.053 19.7649 213.481C19.7649 218.91 21.4591 220.646 24.8475 218.69Z" fill="#852DEE"/>
<path d="M38.0639 192.573C40.2028 189.577 42.6806 187.266 45.4971 185.64C47.8055 184.307 49.6903 183.843 51.1515 184.246C52.6339 184.637 53.3751 186.044 53.3751 188.464C53.3751 190.347 52.8457 192.267 51.7868 194.223C50.7491 196.143 49.3303 198.234 47.5302 200.496C45.4124 203.161 44.11 204.891 43.623 205.686C43.0512 206.652 42.7547 207.422 42.7335 207.997L53.534 201.724L53.534 206.456L37.3333 215.81L37.3333 213.352C37.3333 212.007 37.5027 210.699 37.8415 209.427C38.2015 208.143 38.7733 206.847 39.5569 205.539C40.3616 204.219 41.0287 203.198 41.5582 202.476C42.0876 201.73 42.8923 200.679 43.9724 199.322C44.0359 199.236 44.0889 199.169 44.1312 199.12C44.1736 199.071 44.2265 199.004 44.29 198.918C44.3536 198.833 44.4065 198.765 44.4489 198.717C44.5759 198.545 44.8406 198.221 45.243 197.745C45.6666 197.231 45.9419 196.889 46.0689 196.717C46.196 196.546 46.4184 196.259 46.736 195.855C47.0537 195.428 47.276 195.116 47.4031 194.92C47.5302 194.7 47.689 194.413 47.8796 194.058C48.0914 193.691 48.2396 193.386 48.3243 193.141C48.409 192.897 48.4832 192.622 48.5467 192.316C48.6102 192.01 48.642 191.711 48.642 191.417C48.642 190.512 48.3243 190.011 47.689 189.913C47.0537 189.791 46.1748 190.054 45.0524 190.702C42.6382 192.096 40.3087 194.431 38.0639 197.708L38.0639 192.573Z" fill="#852DEE"/>
<g filter="url(#filter3_d_960_10)">
<path d="M120.312 255.405L84.5118 276.579C76.8905 281.097 64.4917 281.097 56.8188 276.579L20.7909 255.405C16.9234 253.131 15 250.14 15 247.182V251.393C15 254.363 16.9234 257.342 20.7806 259.617L56.8084 280.802C64.4917 285.308 76.8905 285.308 84.5118 280.802L120.312 259.617C124.097 257.374 125.989 254.447 126 251.509V247.297C126.031 250.225 124.097 253.162 120.312 255.405Z" fill="#852DEE"/>
</g>
<path d="M120.218 240.194C127.891 244.61 127.932 251.753 120.311 256.169L84.5107 276.87C76.8894 281.286 64.4906 281.286 56.8176 276.87L20.7897 256.169C13.1064 251.753 13.0651 244.61 20.6967 240.194L56.4867 219.494C64.1183 215.078 76.5171 215.078 84.1901 219.494L120.218 240.194Z" fill="#F5F0FA"/>
<path d="M65.9224 248.295C66.281 248.502 66.4982 248.739 66.5741 249.005C66.65 249.264 66.581 249.523 66.3672 249.782C66.8776 249.623 67.4121 249.557 67.9707 249.585C68.5224 249.609 69.0397 249.76 69.5224 250.039C69.8811 250.246 70.119 250.475 70.2362 250.726C70.3535 250.968 70.3569 251.213 70.2466 251.46C70.1362 251.707 69.9535 251.948 69.6983 252.183C69.4569 252.418 69.15 252.643 68.7776 252.858C67.9155 253.356 66.9431 253.734 65.8603 253.993L64.4223 253.162C65.4775 252.991 66.4327 252.651 67.2879 252.141C67.7224 251.89 67.9983 251.643 68.1155 251.401C68.2328 251.158 68.1362 250.947 67.8259 250.767C67.281 250.453 66.6017 250.53 65.7879 251L64.6292 251.669L63.3154 250.899L64.2982 250.343C64.6499 250.14 64.8603 249.947 64.9292 249.764C64.9982 249.573 64.912 249.408 64.6706 249.268C64.4154 249.121 64.1085 249.071 63.7499 249.119C63.3844 249.163 62.9913 249.306 62.5706 249.549C61.874 249.951 61.3912 250.473 61.1223 251.114L59.6843 250.284C59.9947 249.682 60.5774 249.135 61.4326 248.641C62.1913 248.203 62.974 247.946 63.7809 247.871C64.5879 247.795 65.3017 247.936 65.9224 248.295Z" fill="#852DEE"/>
<path d="M75.6747 249.425L74.6402 250.023L70.3884 242.682L71.4229 242.085L75.6747 249.425ZM68.4642 244.892C69.1332 244.864 69.747 245.011 70.3056 245.334C70.8642 245.657 71.1229 246.013 71.0815 246.403C71.0332 246.789 70.747 247.134 70.2228 247.436C69.6918 247.743 69.0883 247.912 68.4124 247.944C67.7366 247.968 67.1193 247.819 66.5607 247.496C66.0021 247.174 65.7469 246.819 65.7952 246.433C65.8434 246.039 66.1331 245.688 66.6641 245.382C67.1883 245.079 67.7883 244.916 68.4642 244.892ZM67.3883 246.433C67.409 246.58 67.5193 246.712 67.7193 246.827C67.9193 246.943 68.1469 247.006 68.4021 247.018C68.6642 247.026 68.9159 246.961 69.1573 246.821C69.3849 246.69 69.4883 246.55 69.4676 246.403C69.4539 246.252 69.347 246.118 69.1469 246.003C68.9469 245.887 68.7159 245.826 68.4538 245.818C68.1987 245.806 67.9573 245.866 67.7297 245.997C67.4883 246.136 67.3745 246.282 67.3883 246.433ZM77.6195 244.193C78.2885 244.165 78.9023 244.313 79.461 244.635C80.0196 244.958 80.2782 245.314 80.2368 245.704C80.1886 246.091 79.9023 246.435 79.3782 246.738C78.8472 247.044 78.2437 247.213 77.5678 247.245C76.8919 247.269 76.2747 247.12 75.7161 246.797C75.1574 246.475 74.9022 246.12 74.9505 245.734C74.9988 245.34 75.2885 244.99 75.8195 244.683C76.3437 244.38 76.9437 244.217 77.6195 244.193ZM76.5437 245.734C76.5643 245.882 76.6747 246.013 76.8747 246.128C77.0747 246.244 77.3023 246.308 77.5575 246.32C77.8195 246.327 78.0713 246.262 78.3127 246.122C78.5402 245.991 78.6437 245.852 78.623 245.704C78.6092 245.553 78.5023 245.42 78.3023 245.304C78.1023 245.189 77.8713 245.127 77.6092 245.119C77.354 245.107 77.1126 245.167 76.885 245.298C76.6437 245.438 76.5299 245.583 76.5437 245.734Z" fill="#852DEE"/>
<g filter="url(#filter4_d_960_10)">
<path fill-rule="evenodd" clip-rule="evenodd" d="M88.4645 237.343C98.5582 243.17 98.5582 252.619 88.4645 258.446C78.3708 264.274 62.0057 264.274 51.912 258.446C41.8183 252.619 41.8183 243.17 51.912 237.343C62.0057 231.515 78.3708 231.515 88.4645 237.343ZM87.8915 258.116C97.6688 252.471 97.6688 243.318 87.8915 237.674C78.1143 232.029 62.2622 232.029 52.4849 237.674C42.7076 243.318 42.7076 252.471 52.4849 258.116C62.2622 263.76 78.1143 263.76 87.8915 258.116ZM89.0551 239.119C96.7389 244.612 96.1601 252.68 87.3186 257.785C78.4771 262.889 64.5018 263.224 54.9882 258.787L58.462 256.782C66.065 260.093 76.9256 259.75 83.8524 255.75C90.7792 251.751 91.3746 245.481 85.6386 241.091L89.0551 239.119ZM87.7197 237.773C97.402 243.363 97.402 252.426 87.7197 258.016C78.0373 263.606 62.3391 263.606 52.6568 258.016C42.9744 252.426 42.9744 243.363 52.6568 237.773C62.3391 232.183 78.0373 232.183 87.7197 237.773ZM83.4514 240.138C90.8081 244.385 90.8081 251.272 83.4514 255.519C76.0947 259.766 64.1672 259.766 56.8105 255.519C49.4538 251.272 49.4538 244.385 56.8105 240.138C64.1672 235.89 76.0947 235.89 83.4514 240.138ZM58.1819 258.145C57.9853 258.233 57.8147 258.352 57.6664 258.502C57.5254 258.644 57.4476 258.787 57.4327 258.92C57.4142 259.059 57.4476 259.185 57.5329 259.299C57.6182 259.412 57.7368 259.515 57.8889 259.607C58.0409 259.699 58.2227 259.779 58.4304 259.847C58.7345 259.946 59.0423 260.003 59.3575 260.018L59.8359 259.524C59.606 259.554 59.3353 259.517 59.0126 259.412C58.8049 259.344 58.6603 259.256 58.5787 259.149C58.4971 259.042 58.512 258.926 58.6306 258.806C58.7641 258.669 58.931 258.59 59.1424 258.571C59.3501 258.554 59.5652 258.579 59.7803 258.648C60.0399 258.729 60.2254 258.841 60.3403 258.976L60.8076 258.492C60.6185 258.344 60.37 258.222 60.0659 258.123C59.8619 258.061 59.6542 258.014 59.4428 257.991C59.2314 257.967 59.0163 257.967 58.8012 257.984C58.5898 258.003 58.3784 258.057 58.1819 258.145ZM61.872 260.682L60.8521 260.487L61.8794 258.704L63.311 258.978C63.489 259.012 63.641 259.053 63.7782 259.102C63.9155 259.151 64.0341 259.211 64.1343 259.282C64.2344 259.352 64.3012 259.438 64.3234 259.537C64.3457 259.635 64.3271 259.744 64.2604 259.86C64.112 260.113 63.8339 260.256 63.4259 260.29L63.8635 261.065L62.7398 260.849L62.4097 260.2L62.1724 260.153L61.872 260.682ZM62.6211 259.376L62.4246 259.712L62.8177 259.789C62.9141 259.806 62.9994 259.808 63.0736 259.787C63.1478 259.766 63.1997 259.731 63.2294 259.68C63.259 259.629 63.2553 259.584 63.2182 259.541C63.1774 259.5 63.1107 259.47 63.018 259.451L62.6211 259.376ZM66.0442 261.288L67.0975 261.369L67.2421 260.738L68.759 259.605L67.5573 259.511L66.8416 260.172L66.4522 259.425L65.2506 259.331L66.1888 260.652L66.0442 261.288ZM69.675 259.594L71.0955 259.541C72.0634 259.504 72.5789 259.716 72.6308 260.179C72.6828 260.641 72.2229 260.89 71.2549 260.926L70.9063 260.939L70.9619 261.429L69.8901 261.47L69.675 259.594ZM71.5665 260.22C71.5516 260.095 71.4107 260.04 71.14 260.05L70.7988 260.063L70.8396 260.429L71.1808 260.417C71.4515 260.406 71.5776 260.342 71.5665 260.22ZM76.1058 259.003L73.3762 259.402L73.6099 259.931L74.4555 259.806L75.0229 261.102L76.0576 260.95L75.4902 259.654L76.3358 259.53L76.1058 259.003ZM78.472 260.25C78.0603 260.158 77.7488 259.982 77.5374 259.723C77.3297 259.466 77.2964 259.215 77.4373 258.971C77.5782 258.727 77.9046 258.539 78.4127 258.4C78.9207 258.26 79.3806 258.239 79.796 258.333C80.2077 258.425 80.5192 258.601 80.7306 258.86C80.9383 259.117 80.9716 259.367 80.8307 259.612C80.6898 259.856 80.3634 260.044 79.8553 260.183C79.3435 260.32 78.8837 260.342 78.472 260.25ZM79.7997 259.453C79.8479 259.357 79.8257 259.25 79.7292 259.13C79.6328 259.01 79.5067 258.933 79.3435 258.894C79.1841 258.854 79.0098 258.86 78.8206 258.909C78.6352 258.961 78.5165 259.033 78.4646 259.132C78.4164 259.228 78.4386 259.335 78.535 259.455C78.6315 259.575 78.7576 259.652 78.9207 259.691C79.0802 259.731 79.2545 259.725 79.4437 259.676C79.6291 259.624 79.7515 259.549 79.7997 259.453ZM82.863 257.487C82.9446 257.624 83.0781 257.757 83.2747 257.888C83.4601 258.012 83.6641 258.104 83.8866 258.16C84.1054 258.218 84.3242 258.241 84.5393 258.233C84.7544 258.224 84.9621 258.194 85.1624 258.143C85.3626 258.091 85.5555 258.018 85.7335 257.928C85.9931 257.796 86.1934 257.646 86.3232 257.481L85.6779 257.053C85.6519 257.188 85.4961 257.325 85.218 257.464C85.04 257.554 84.8471 257.601 84.6432 257.612C84.4392 257.622 84.2575 257.573 84.1017 257.47C83.92 257.353 83.8532 257.233 83.8903 257.113C83.9311 256.991 84.0424 256.884 84.2278 256.789C84.4503 256.674 84.6914 256.612 84.951 256.595L84.3205 256.179C84.0127 256.233 83.7345 256.325 83.4675 256.457C83.2932 256.545 83.1523 256.644 83.041 256.751C82.9298 256.858 82.8519 256.976 82.8111 257.098C82.7703 257.22 82.7888 257.35 82.863 257.487ZM88.0959 256.44L87.4284 256.937L85.5963 255.233L86.3009 254.706L89.6165 255.301L88.9489 255.798L88.5224 255.71L87.8326 256.224L88.0959 256.44ZM86.9685 255.485L87.3802 255.834L87.7696 255.545L87.0798 255.404C86.9425 255.376 86.8164 255.342 86.6904 255.299C86.7794 255.351 86.8721 255.413 86.9685 255.485ZM90.4249 254.522L90.8996 253.965L90.0392 253.717L90.1505 253.588L91.3113 253.488L91.8342 252.877L90.4472 253.019C90.4398 252.779 90.2321 252.599 89.8204 252.481C89.6276 252.426 89.4421 252.4 89.2715 252.4C89.0972 252.402 88.9452 252.426 88.808 252.475C88.6707 252.524 88.5521 252.584 88.4519 252.655C88.3481 252.728 88.2591 252.809 88.1738 252.905L87.5025 253.687L90.4249 254.522ZM89.3123 253.515L88.7635 253.357L88.9452 253.145C88.9897 253.089 89.0527 253.057 89.1269 253.04C89.2048 253.025 89.2827 253.027 89.368 253.051C89.4533 253.074 89.5052 253.109 89.5311 253.154C89.5534 253.201 89.5423 253.25 89.4978 253.301L89.3123 253.515ZM92.0346 251.824C91.6489 251.948 91.215 251.976 90.7402 251.903C90.2618 251.833 89.9058 251.687 89.6759 251.469C89.4422 251.252 89.394 250.985 89.5386 250.67C89.6796 250.357 89.9429 250.137 90.3323 250.015C90.718 249.89 91.1519 249.863 91.6266 249.935C92.105 250.006 92.4611 250.152 92.691 250.37C92.9247 250.586 92.9729 250.854 92.8282 251.169C92.6873 251.481 92.424 251.698 92.0346 251.824ZM91.8232 250.726C91.7268 250.64 91.5673 250.582 91.3485 250.55C91.1297 250.518 90.9405 250.524 90.7885 250.569C90.6327 250.616 90.5289 250.698 90.4769 250.813C90.425 250.929 90.4473 251.027 90.5437 251.113C90.6401 251.199 90.7996 251.257 91.0184 251.289C91.2372 251.321 91.4264 251.314 91.5784 251.269C91.7342 251.222 91.838 251.141 91.8899 251.025C91.9419 250.91 91.9196 250.811 91.8232 250.726ZM90.3174 247.381L90.2655 247.998L92.194 248.053C92.4796 248.06 92.6168 248.148 92.602 248.319C92.5871 248.49 92.4388 248.567 92.1532 248.561L90.2136 248.507L90.1654 249.126L92.1532 249.182C92.3943 249.188 92.6094 249.171 92.7911 249.126C92.9691 249.083 93.1175 249.019 93.225 248.94C93.3326 248.856 93.4179 248.768 93.4698 248.67C93.5254 248.569 93.5551 248.462 93.5662 248.345C93.5773 248.227 93.5662 248.118 93.5254 248.017C93.4883 247.918 93.4216 247.824 93.3289 247.736C93.2361 247.649 93.1026 247.58 92.9283 247.527C92.754 247.473 92.5463 247.443 92.3053 247.437L90.3174 247.381ZM91.1704 246.691C90.844 246.717 90.5807 246.672 90.373 246.548C90.1691 246.426 90.0393 246.257 89.9836 246.045C89.9206 245.781 89.9503 245.546 90.0838 245.34L91.0035 245.263C90.8403 245.473 90.7884 245.687 90.8478 245.906C90.8737 246.015 90.9331 246.066 91.0295 246.058C91.074 246.053 91.1074 246.034 91.1333 245.998C91.1593 245.961 91.1815 245.914 91.1927 245.861C91.1979 245.841 91.2031 245.821 91.2085 245.8L91.2085 245.8C91.2184 245.762 91.2289 245.722 91.2409 245.679C91.2557 245.61 91.2817 245.544 91.3188 245.475C91.3558 245.407 91.4003 245.343 91.456 245.285C91.5116 245.227 91.6006 245.176 91.7119 245.133C91.8231 245.09 91.9529 245.062 92.105 245.047C92.7985 244.989 93.2139 245.22 93.3437 245.741C93.4141 246.026 93.3771 246.278 93.225 246.503L92.2645 246.582C92.461 246.34 92.5315 246.103 92.4759 245.874C92.4573 245.794 92.4314 245.741 92.398 245.713C92.3646 245.685 92.3201 245.672 92.2682 245.677C92.2162 245.681 92.1792 245.707 92.1495 245.754C92.1198 245.801 92.0976 245.861 92.0827 245.929C92.0716 246 92.0456 246.075 92.0123 246.158C91.9752 246.24 91.9344 246.319 91.8751 246.392C91.8231 246.465 91.7341 246.529 91.608 246.584C91.4968 246.64 91.3484 246.679 91.1704 246.691ZM88.8377 243.285L89.6054 244.636L92.7021 244.047L91.9233 242.681L91.1074 242.835L91.5487 243.612L91.1816 243.683L90.7996 243.013L90.0467 243.156L90.4287 243.827L90.0727 243.895L89.6425 243.133L88.8377 243.285ZM88.3778 242.677L87.8735 242.129L89.9206 241.499L89.2679 240.793L90.0949 240.538L91.252 241.792L88.3778 242.677ZM81.9622 237.474C82.1588 237.387 82.3294 237.267 82.4777 237.117C82.6187 236.975 82.6966 236.832 82.7114 236.699C82.7299 236.56 82.6966 236.434 82.6113 236.32C82.526 236.207 82.4073 236.104 82.2552 236.012C82.1032 235.92 81.9214 235.841 81.7138 235.772C81.4097 235.674 81.1018 235.616 80.7866 235.601L80.3082 236.095C80.5381 236.065 80.8088 236.102 81.1315 236.207C81.3392 236.275 81.4838 236.363 81.5654 236.47C81.647 236.577 81.6322 236.693 81.5135 236.813C81.38 236.95 81.2131 237.029 81.0017 237.048C80.794 237.065 80.5789 237.04 80.3638 236.971C80.1042 236.89 79.9188 236.778 79.8038 236.644L79.3365 237.127C79.5256 237.275 79.7741 237.397 80.0782 237.496C80.2822 237.558 80.4899 237.605 80.7013 237.629C80.9127 237.652 81.1278 237.652 81.3429 237.635C81.5543 237.616 81.7657 237.562 81.9622 237.474ZM78.2721 234.937L79.292 235.132L78.2647 236.916L76.8331 236.641C76.6551 236.607 76.5031 236.566 76.3658 236.517C76.2286 236.468 76.11 236.408 76.0098 236.337C75.9097 236.267 75.8429 236.181 75.8207 236.083C75.7984 235.984 75.817 235.875 75.8837 235.759C76.0321 235.507 76.3102 235.363 76.7182 235.329L76.2805 234.554L77.4043 234.77L77.7343 235.419L77.9717 235.466L78.2721 234.937ZM77.523 236.243L77.7195 235.907L77.3264 235.83C77.23 235.813 77.1447 235.811 77.0705 235.832C76.9963 235.853 76.9444 235.888 76.9147 235.939C76.8851 235.991 76.8888 236.035 76.9259 236.078C76.9667 236.119 77.0334 236.149 77.1261 236.168L77.523 236.243ZM74.0998 234.331L73.0466 234.25L72.9019 234.881L71.3851 236.014L72.5867 236.108L73.3025 235.447L73.6919 236.194L74.8935 236.288L73.9552 234.967L74.0998 234.331ZM70.4691 236.025L69.0487 236.078C68.0807 236.115 67.5652 235.903 67.5133 235.44C67.4614 234.978 67.9213 234.729 68.8892 234.693L69.2378 234.68L69.1822 234.19L70.254 234.149L70.4691 236.025ZM68.5777 235.4C68.5925 235.524 68.7335 235.579 69.0042 235.569L69.3454 235.556L69.3046 235.19L68.9634 235.203C68.6927 235.213 68.5666 235.278 68.5777 235.4ZM64.0383 236.616L66.7679 236.217L66.5342 235.689L65.6886 235.813L65.1212 234.517L64.0865 234.669L64.6539 235.965L63.8084 236.089L64.0383 236.616ZM61.6721 235.37C62.0838 235.462 62.3953 235.637 62.6067 235.896C62.8144 236.153 62.8478 236.404 62.7069 236.648C62.5659 236.892 62.2396 237.08 61.7315 237.22C61.2234 237.359 60.7635 237.38 60.3481 237.286C59.9365 237.194 59.625 237.018 59.4136 236.759C59.2059 236.502 59.1725 236.252 59.3134 236.008C59.4544 235.764 59.7807 235.575 60.2888 235.436C60.8006 235.299 61.2605 235.277 61.6721 235.37ZM60.3444 236.166C60.2962 236.262 60.3185 236.37 60.4149 236.489C60.5113 236.609 60.6374 236.686 60.8006 236.725C60.9601 236.766 61.1344 236.759 61.3235 236.71C61.509 236.659 61.6276 236.586 61.6796 236.487C61.7278 236.391 61.7055 236.284 61.6091 236.164C61.5127 236.044 61.3866 235.967 61.2234 235.928C61.0639 235.888 60.8896 235.894 60.7005 235.943C60.515 235.995 60.3926 236.07 60.3444 236.166ZM57.2811 238.132C57.1995 237.995 57.066 237.862 56.8694 237.731C56.684 237.607 56.48 237.515 56.2575 237.459C56.0387 237.402 55.8199 237.378 55.6048 237.387C55.3897 237.395 55.182 237.425 54.9817 237.477C54.7815 237.528 54.5886 237.601 54.4106 237.691C54.151 237.823 53.9507 237.973 53.8209 238.138L54.4662 238.566C54.4922 238.431 54.6479 238.294 54.9261 238.155C55.1041 238.065 55.297 238.018 55.5009 238.008C55.7049 237.997 55.8866 238.046 56.0424 238.149C56.2241 238.267 56.2909 238.387 56.2538 238.506C56.213 238.628 56.1017 238.736 55.9163 238.83C55.6938 238.945 55.4527 239.007 55.1931 239.025L55.8236 239.44C56.1314 239.386 56.4096 239.294 56.6766 239.162C56.8509 239.074 56.9918 238.975 57.1031 238.868C57.2143 238.761 57.2922 238.643 57.333 238.521C57.3738 238.399 57.3553 238.269 57.2811 238.132ZM52.0481 239.179L52.7157 238.682L54.5478 240.386L53.8431 240.913L50.5276 240.318L51.1951 239.821L51.6216 239.909L52.3115 239.395L52.0481 239.179ZM53.1756 240.134L52.7639 239.785L52.3745 240.074L53.0643 240.215C53.2015 240.243 53.3276 240.277 53.4537 240.32C53.3647 240.269 53.272 240.207 53.1756 240.134ZM49.7192 241.097L49.2445 241.654L50.1049 241.902L49.9936 242.031L48.8328 242.131L48.3099 242.742L49.6969 242.6C49.7043 242.84 49.912 243.02 50.3237 243.138C50.5165 243.193 50.702 243.219 50.8726 243.219C51.0469 243.217 51.1989 243.193 51.3361 243.144C51.4734 243.095 51.592 243.035 51.6922 242.964C51.796 242.892 51.885 242.81 51.9703 242.714L52.6416 241.932L49.7192 241.097ZM50.8318 242.104L51.3806 242.262L51.1989 242.474C51.1544 242.53 51.0914 242.562 51.0172 242.579C50.9393 242.594 50.8614 242.592 50.7761 242.568C50.6908 242.545 50.6389 242.51 50.6129 242.465C50.5907 242.418 50.6018 242.369 50.6463 242.318L50.8318 242.104ZM48.1095 243.795C48.4952 243.671 48.9291 243.643 49.4038 243.716C49.8822 243.787 50.2383 243.932 50.4682 244.151C50.7019 244.367 50.7501 244.635 50.6054 244.949C50.4645 245.262 50.2012 245.482 49.8118 245.604C49.4261 245.729 48.9922 245.756 48.5175 245.684C48.039 245.613 47.683 245.467 47.4531 245.249C47.2194 245.033 47.1712 244.765 47.3159 244.45C47.4568 244.138 47.7201 243.921 48.1095 243.795ZM48.3209 244.894C48.4173 244.979 48.5768 245.037 48.7956 245.069C49.0144 245.101 49.2036 245.095 49.3556 245.05C49.5114 245.003 49.6152 244.921 49.6671 244.806C49.7191 244.69 49.6968 244.592 49.6004 244.506C49.504 244.42 49.3445 244.363 49.1257 244.33C48.9069 244.298 48.7177 244.305 48.5657 244.35C48.4099 244.397 48.3061 244.478 48.2541 244.594C48.2022 244.709 48.2245 244.808 48.3209 244.894ZM49.8267 248.238L49.8786 247.621L47.9501 247.566C47.6645 247.559 47.5273 247.472 47.5421 247.3C47.557 247.129 47.7053 247.052 47.9909 247.058L49.9305 247.112L49.9787 246.493L47.9909 246.437C47.7498 246.431 47.5347 246.448 47.353 246.493C47.175 246.536 47.0266 246.6 46.9191 246.679C46.8115 246.763 46.7262 246.851 46.6743 246.949C46.6187 247.05 46.589 247.157 46.5779 247.275C46.5668 247.392 46.5779 247.502 46.6187 247.602C46.6558 247.701 46.7225 247.795 46.8152 247.883C46.908 247.97 47.0415 248.039 47.2158 248.093C47.3901 248.146 47.5978 248.176 47.8388 248.182L49.8267 248.238ZM48.9737 248.928C49.3 248.902 49.5633 248.947 49.771 249.071C49.975 249.193 50.1048 249.362 50.1604 249.574C50.2235 249.838 50.1938 250.073 50.0603 250.279L49.1406 250.356C49.3037 250.146 49.3557 249.932 49.2963 249.713C49.2704 249.604 49.211 249.553 49.1146 249.561C49.0701 249.566 49.0367 249.585 49.0108 249.621C48.9848 249.658 48.9625 249.705 48.9514 249.758C48.9463 249.778 48.9411 249.798 48.9358 249.818L48.9356 249.819L48.9356 249.819L48.9356 249.819C48.9257 249.857 48.9152 249.897 48.9032 249.94C48.8884 250.009 48.8624 250.075 48.8253 250.144C48.7882 250.212 48.7437 250.277 48.6881 250.334C48.6325 250.392 48.5435 250.444 48.4322 250.486C48.3209 250.529 48.1911 250.557 48.0391 250.572C47.3456 250.63 46.9302 250.399 46.8004 249.878C46.7299 249.594 46.767 249.341 46.9191 249.116L47.8796 249.037C47.6831 249.279 47.6126 249.516 47.6682 249.746C47.6868 249.825 47.7127 249.878 47.7461 249.906C47.7795 249.934 47.824 249.947 47.8759 249.943C47.9278 249.938 47.9649 249.913 47.9946 249.865C48.0242 249.818 48.0465 249.758 48.0613 249.69C48.0725 249.619 48.0984 249.544 48.1318 249.461C48.1689 249.379 48.2097 249.3 48.269 249.227C48.3209 249.155 48.41 249.09 48.536 249.035C48.6473 248.979 48.7957 248.94 48.9737 248.928ZM51.3064 252.334L50.5388 250.983L47.442 251.572L48.2208 252.938L49.0367 252.784L48.5954 252.007L48.9626 251.936L49.3446 252.606L50.0974 252.463L49.7154 251.793L50.0715 251.724L50.5017 252.486L51.3064 252.334ZM51.7663 252.942L52.2706 253.49L50.2235 254.12L50.8762 254.827L50.0492 255.081L48.8921 253.827L51.7663 252.942ZM86.1155 239.427C86.6534 239.116 86.6534 238.613 86.1155 238.302C85.5776 237.991 84.7055 237.991 84.1676 238.302C83.6297 238.613 83.6297 239.116 84.1676 239.427C84.7055 239.737 85.5776 239.737 86.1155 239.427ZM55.5214 255.965C56.0593 256.276 56.0593 256.78 55.5214 257.09C54.9835 257.401 54.1114 257.401 53.5734 257.09C53.0355 256.78 53.0355 256.276 53.5734 255.965C54.1114 255.655 54.9835 255.655 55.5214 255.965Z" fill="#852DEE"/>
</g>
<g filter="url(#filter5_d_960_10)">
<path d="M299.097 378.012L262.017 398.616C254.121 403.011 241.265 403.011 233.315 398.616L195.989 378.012C191.993 375.799 189.989 372.889 190 370V374.098C190 376.987 191.993 379.887 195.989 382.1L233.315 402.704C241.265 407.099 254.121 407.099 262.017 402.704L299.097 382.1C303.029 379.918 304.989 377.059 305 374.201V370.102C304.989 372.971 303.029 375.83 299.097 378.012Z" fill="#9E00FF"/>
</g>
<path d="M299.011 361.764C306.96 366.307 307.003 373.685 299.097 378.238L262.017 399.585C254.122 404.138 241.265 404.138 233.316 399.585L195.99 378.238C188.041 373.685 187.998 366.307 195.894 361.764L232.984 340.407C240.88 335.864 253.725 335.864 261.685 340.407L299.011 361.764Z" fill="#FFF5F9"/>
<path d="M191.514 349.178C189.838 347.658 189 344.925 189 340.979C189 337.034 189.838 333.346 191.514 329.916C193.211 326.448 195.746 323.741 199.12 321.793C202.493 319.846 205.017 319.632 206.693 321.152C208.391 322.635 209.239 325.349 209.239 329.294C209.239 333.24 208.391 336.946 206.693 340.414C205.017 343.844 202.493 346.533 199.12 348.481C195.746 350.428 193.211 350.661 191.514 349.178ZM199.12 343.505C202.602 341.495 204.343 337.7 204.343 332.121C204.343 326.543 202.602 324.758 199.12 326.769C195.638 328.779 193.897 332.574 193.897 338.152C193.897 343.731 195.638 345.515 199.12 343.505Z" fill="#9E00FF"/>
<path d="M227.848 312.293C227.848 313.6 227.544 314.919 226.934 316.251C226.347 317.545 225.531 318.707 224.486 319.738C225.726 319.449 226.749 319.625 227.554 320.266C228.36 320.881 228.762 322.069 228.762 323.828C228.762 325.134 228.512 326.435 228.011 327.729C227.533 328.985 226.869 330.148 226.02 331.216C225.171 332.284 224.225 333.257 223.18 334.137C222.157 335.029 221.058 335.814 219.883 336.493C217.163 338.063 214.595 338.968 212.179 339.207L212.179 333.967C214.312 334.118 216.749 333.377 219.491 331.743C220.862 330.952 221.972 330.035 222.821 328.992C223.67 327.949 224.094 326.862 224.094 325.731C224.094 323.746 222.81 323.495 220.242 324.977L216.586 327.088L216.619 322.244L219.687 320.511C220.797 319.87 221.657 319.147 222.266 318.343C222.897 317.501 223.213 316.641 223.213 315.761C223.213 314.831 222.865 314.316 222.168 314.216C221.472 314.09 220.46 314.41 219.132 315.177C216.934 316.446 214.747 318.475 212.571 321.264L212.571 316.025C214.704 313.462 217.119 311.401 219.818 309.843C222.212 308.461 224.149 307.958 225.628 308.335C227.108 308.712 227.848 310.032 227.848 312.293Z" fill="#9E00FF"/>
<path d="M238.363 371.938L239.522 371.269L245.38 374.651L246.592 373.951L247.963 374.743L243.838 377.125L242.467 376.333L243.828 375.547L239.565 373.086L238.714 374.166L237.279 373.338L238.363 371.938Z" fill="#9E00FF"/>
<path d="M252.109 373.086L251.045 373.7L246.676 366.157L247.739 365.543L252.109 373.086ZM244.699 368.428C245.386 368.399 246.017 368.551 246.591 368.882C247.165 369.213 247.431 369.58 247.388 369.981C247.339 370.378 247.045 370.732 246.506 371.043C245.96 371.358 245.34 371.531 244.646 371.564C243.951 371.589 243.317 371.435 242.743 371.104C242.169 370.772 241.906 370.408 241.956 370.011C242.006 369.606 242.303 369.246 242.849 368.931C243.388 368.62 244.004 368.452 244.699 368.428ZM243.593 370.011C243.614 370.163 243.728 370.298 243.933 370.416C244.139 370.535 244.373 370.601 244.635 370.613C244.904 370.621 245.163 370.554 245.411 370.41C245.645 370.275 245.751 370.132 245.73 369.981C245.716 369.825 245.606 369.688 245.4 369.569C245.195 369.451 244.957 369.387 244.688 369.379C244.426 369.367 244.178 369.428 243.944 369.563C243.696 369.707 243.579 369.856 243.593 370.011ZM254.107 367.71C254.795 367.681 255.425 367.832 256 368.164C256.574 368.495 256.839 368.862 256.797 369.263C256.747 369.659 256.453 370.013 255.914 370.324C255.369 370.639 254.749 370.813 254.054 370.846C253.359 370.871 252.725 370.717 252.151 370.386C251.577 370.054 251.315 369.69 251.364 369.293C251.414 368.888 251.712 368.528 252.257 368.213C252.796 367.902 253.413 367.734 254.107 367.71ZM253.002 369.293C253.023 369.445 253.136 369.58 253.342 369.698C253.547 369.817 253.781 369.882 254.043 369.895C254.313 369.903 254.571 369.835 254.819 369.692C255.053 369.557 255.16 369.414 255.138 369.263C255.124 369.107 255.014 368.97 254.809 368.851C254.603 368.733 254.366 368.669 254.097 368.661C253.834 368.649 253.586 368.71 253.352 368.845C253.104 368.988 252.987 369.138 253.002 369.293Z" fill="#9E00FF"/>
<g filter="url(#filter6_d_960_10)">
<path fill-rule="evenodd" clip-rule="evenodd" d="M266.685 359.843C277.057 365.831 277.057 375.541 266.685 381.529C256.312 387.518 239.494 387.518 229.122 381.529C218.749 375.541 218.749 365.831 229.122 359.843C239.494 353.854 256.312 353.854 266.685 359.843ZM266.096 381.19C276.143 375.389 276.143 365.983 266.096 360.183C256.048 354.382 239.758 354.382 229.71 360.183C219.663 365.983 219.663 375.389 229.71 381.19C239.758 386.99 256.048 386.99 266.096 381.19ZM267.291 361.668C275.188 367.312 274.593 375.604 265.507 380.85C256.421 386.095 242.06 386.439 232.283 381.88L235.853 379.819C243.666 383.222 254.827 382.869 261.945 378.759C269.063 374.649 269.675 368.206 263.781 363.695L267.291 361.668ZM265.919 360.284C275.869 366.029 275.869 375.343 265.919 381.088C255.969 386.832 239.837 386.832 229.887 381.088C219.937 375.343 219.937 366.029 229.887 360.284C239.837 354.54 255.969 354.54 265.919 360.284ZM261.533 362.715C269.093 367.08 269.093 374.156 261.533 378.521C253.973 382.886 241.716 382.886 234.156 378.521C226.596 374.156 226.596 367.08 234.156 362.715C241.716 358.35 253.973 358.35 261.533 362.715ZM235.565 381.22C235.363 381.31 235.188 381.433 235.035 381.587C234.89 381.732 234.81 381.88 234.795 382.016C234.776 382.159 234.81 382.289 234.898 382.406C234.986 382.522 235.108 382.628 235.264 382.722C235.42 382.817 235.607 382.898 235.82 382.969C236.133 383.07 236.449 383.13 236.773 383.145L237.265 382.637C237.028 382.667 236.75 382.63 236.419 382.522C236.205 382.452 236.057 382.362 235.973 382.252C235.889 382.142 235.904 382.023 236.026 381.9C236.163 381.759 236.335 381.677 236.552 381.657C236.765 381.64 236.986 381.666 237.208 381.737C237.474 381.82 237.665 381.935 237.783 382.073L238.263 381.576C238.069 381.424 237.814 381.299 237.501 381.198C237.291 381.134 237.078 381.085 236.861 381.061C236.643 381.037 236.422 381.037 236.201 381.055C235.984 381.074 235.767 381.129 235.565 381.22ZM239.357 383.827L238.309 383.627L239.365 381.794L240.836 382.076C241.019 382.111 241.175 382.153 241.316 382.203C241.457 382.254 241.579 382.315 241.682 382.388C241.785 382.461 241.853 382.549 241.876 382.65C241.899 382.751 241.88 382.863 241.811 382.982C241.659 383.242 241.373 383.389 240.954 383.424L241.404 384.221L240.249 383.999L239.91 383.332L239.666 383.284L239.357 383.827ZM240.127 382.485L239.925 382.83L240.329 382.909C240.428 382.927 240.516 382.929 240.592 382.907C240.668 382.885 240.721 382.85 240.752 382.797C240.782 382.744 240.779 382.698 240.74 382.654C240.699 382.612 240.63 382.582 240.535 382.562L240.127 382.485ZM243.645 384.45L244.727 384.533L244.876 383.884L246.434 382.72L245.2 382.623L244.464 383.303L244.064 382.535L242.829 382.439L243.793 383.796L243.645 384.45ZM247.376 382.709L248.835 382.654C249.83 382.617 250.36 382.835 250.413 383.31C250.467 383.785 249.994 384.04 248.999 384.078L248.641 384.091L248.698 384.595L247.597 384.637L247.376 382.709ZM249.319 383.352C249.304 383.224 249.159 383.167 248.881 383.178L248.531 383.191L248.572 383.567L248.923 383.554C249.201 383.543 249.331 383.477 249.319 383.352ZM253.984 382.102L251.179 382.511L251.419 383.055L252.288 382.927L252.871 384.258L253.935 384.102L253.352 382.771L254.221 382.643L253.984 382.102ZM256.416 383.383C255.993 383.288 255.673 383.108 255.455 382.841C255.242 382.577 255.208 382.32 255.353 382.069C255.497 381.818 255.833 381.624 256.355 381.481C256.877 381.338 257.35 381.316 257.776 381.413C258.199 381.508 258.52 381.688 258.737 381.955C258.95 382.219 258.985 382.476 258.84 382.727C258.695 382.978 258.36 383.171 257.837 383.314C257.311 383.455 256.839 383.477 256.416 383.383ZM257.78 382.564C257.83 382.465 257.807 382.355 257.708 382.232C257.609 382.109 257.479 382.029 257.311 381.99C257.148 381.948 256.968 381.955 256.774 382.005C256.584 382.058 256.462 382.133 256.408 382.234C256.359 382.333 256.382 382.443 256.481 382.566C256.58 382.689 256.709 382.769 256.877 382.808C257.041 382.85 257.22 382.843 257.414 382.793C257.605 382.74 257.731 382.663 257.78 382.564ZM260.928 380.544C261.012 380.685 261.149 380.821 261.351 380.956C261.542 381.083 261.751 381.178 261.98 381.235C262.205 381.294 262.43 381.319 262.651 381.31C262.872 381.301 263.085 381.27 263.291 381.217C263.497 381.165 263.695 381.09 263.878 380.997C264.145 380.861 264.351 380.707 264.484 380.537L263.821 380.097C263.794 380.236 263.634 380.377 263.348 380.52C263.165 380.612 262.967 380.661 262.758 380.672C262.548 380.683 262.361 380.632 262.201 380.526C262.014 380.405 261.946 380.282 261.984 380.159C262.026 380.034 262.14 379.924 262.331 379.827C262.559 379.708 262.807 379.644 263.074 379.627L262.426 379.2C262.11 379.255 261.824 379.349 261.549 379.486C261.37 379.576 261.226 379.677 261.111 379.787C260.997 379.897 260.917 380.018 260.875 380.144C260.833 380.269 260.852 380.403 260.928 380.544ZM266.306 379.468L265.62 379.979L263.737 378.227L264.461 377.686L267.868 378.297L267.182 378.808L266.744 378.718L266.035 379.246L266.306 379.468ZM265.147 378.487L265.57 378.845L265.97 378.548L265.262 378.403C265.121 378.374 264.991 378.339 264.861 378.295C264.953 378.348 265.048 378.412 265.147 378.487ZM268.699 377.497L269.187 376.924L268.303 376.669L268.417 376.537L269.61 376.434L270.147 375.807L268.722 375.952C268.714 375.705 268.501 375.521 268.078 375.4C267.88 375.342 267.689 375.316 267.514 375.316C267.335 375.318 267.179 375.342 267.038 375.393C266.897 375.444 266.775 375.505 266.672 375.578C266.565 375.653 266.473 375.736 266.386 375.835L265.696 376.638L268.699 377.497ZM267.556 376.462L266.992 376.3L267.179 376.082C267.224 376.024 267.289 375.991 267.365 375.974C267.445 375.958 267.525 375.961 267.613 375.985C267.701 376.009 267.754 376.044 267.781 376.09C267.804 376.139 267.792 376.19 267.746 376.242L267.556 376.462ZM270.353 374.724C269.957 374.852 269.511 374.88 269.023 374.806C268.532 374.733 268.166 374.583 267.929 374.359C267.689 374.137 267.64 373.862 267.788 373.538C267.933 373.217 268.204 372.99 268.604 372.865C269 372.737 269.446 372.709 269.934 372.783C270.426 372.856 270.792 373.006 271.028 373.23C271.268 373.452 271.318 373.727 271.169 374.051C271.024 374.372 270.753 374.594 270.353 374.724ZM270.136 373.595C270.037 373.507 269.873 373.448 269.648 373.415C269.423 373.382 269.229 373.388 269.073 373.435C268.913 373.483 268.806 373.567 268.753 373.686C268.699 373.804 268.722 373.906 268.821 373.994C268.92 374.082 269.084 374.141 269.309 374.174C269.534 374.207 269.728 374.2 269.885 374.154C270.045 374.106 270.151 374.022 270.205 373.903C270.258 373.785 270.235 373.683 270.136 373.595ZM268.589 370.158L268.535 370.792L270.517 370.849C270.811 370.856 270.952 370.946 270.936 371.122C270.921 371.298 270.769 371.377 270.475 371.371L268.482 371.316L268.432 371.952L270.475 372.009C270.723 372.015 270.944 371.998 271.131 371.952C271.314 371.908 271.466 371.842 271.577 371.76C271.687 371.674 271.775 371.584 271.828 371.483C271.885 371.379 271.916 371.269 271.927 371.148C271.939 371.027 271.927 370.915 271.885 370.812C271.847 370.711 271.779 370.614 271.683 370.524C271.588 370.433 271.451 370.363 271.272 370.308C271.093 370.253 270.879 370.222 270.631 370.215L268.589 370.158ZM269.465 369.45C269.13 369.476 268.859 369.43 268.646 369.302C268.436 369.177 268.303 369.003 268.246 368.785C268.181 368.515 268.211 368.273 268.349 368.061L269.294 367.982C269.126 368.198 269.073 368.418 269.134 368.642C269.16 368.754 269.221 368.807 269.32 368.798C269.366 368.794 269.4 368.774 269.427 368.737C269.454 368.699 269.477 368.651 269.488 368.596C269.493 368.576 269.499 368.555 269.504 368.534L269.504 368.534C269.515 368.494 269.525 368.453 269.538 368.409C269.553 368.339 269.58 368.27 269.618 368.2C269.656 368.13 269.702 368.064 269.759 368.004C269.816 367.945 269.907 367.892 270.022 367.848C270.136 367.804 270.269 367.775 270.426 367.76C271.138 367.7 271.565 367.938 271.699 368.473C271.771 368.765 271.733 369.025 271.577 369.256L270.59 369.338C270.792 369.089 270.864 368.845 270.807 368.609C270.788 368.528 270.761 368.473 270.727 368.444C270.692 368.416 270.647 368.402 270.593 368.407C270.54 368.411 270.502 368.438 270.471 368.486C270.441 368.534 270.418 368.596 270.403 368.666C270.391 368.739 270.365 368.816 270.33 368.902C270.292 368.985 270.25 369.067 270.189 369.142C270.136 369.217 270.045 369.283 269.915 369.34C269.801 369.397 269.648 369.437 269.465 369.45ZM267.068 365.949L267.857 367.337L271.039 366.732L270.239 365.328L269.401 365.487L269.854 366.286L269.477 366.358L269.084 365.67L268.311 365.817L268.703 366.506L268.337 366.576L267.895 365.793L267.068 365.949ZM266.596 365.324L266.077 364.761L268.181 364.114L267.51 363.388L268.36 363.126L269.549 364.415L266.596 365.324ZM260.003 359.978C260.205 359.888 260.38 359.764 260.532 359.61C260.677 359.465 260.757 359.318 260.772 359.181C260.791 359.038 260.757 358.908 260.67 358.792C260.582 358.675 260.46 358.57 260.304 358.475C260.147 358.38 259.961 358.299 259.747 358.229C259.435 358.127 259.118 358.068 258.794 358.053L258.303 358.561C258.539 358.53 258.817 358.567 259.149 358.675C259.362 358.746 259.511 358.836 259.595 358.946C259.679 359.056 259.663 359.175 259.541 359.298C259.404 359.439 259.233 359.52 259.015 359.54C258.802 359.558 258.581 359.531 258.36 359.461C258.093 359.377 257.903 359.263 257.784 359.124L257.304 359.621C257.499 359.773 257.754 359.899 258.067 360C258.276 360.064 258.49 360.112 258.707 360.136C258.924 360.16 259.145 360.16 259.366 360.143C259.583 360.123 259.801 360.068 260.003 359.978ZM256.21 357.37L257.259 357.571L256.203 359.404L254.732 359.122C254.549 359.087 254.393 359.045 254.252 358.994C254.11 358.944 253.989 358.882 253.886 358.809C253.783 358.737 253.714 358.649 253.691 358.548C253.668 358.446 253.687 358.334 253.756 358.215C253.909 357.956 254.194 357.808 254.614 357.773L254.164 356.977L255.319 357.199L255.658 357.865L255.902 357.914L256.21 357.37ZM255.441 358.713L255.643 358.367L255.239 358.288C255.14 358.27 255.052 358.268 254.976 358.29C254.899 358.312 254.846 358.347 254.816 358.4C254.785 358.453 254.789 358.499 254.827 358.543C254.869 358.585 254.938 358.616 255.033 358.636L255.441 358.713ZM251.923 356.748L250.84 356.664L250.692 357.313L249.133 358.477L250.368 358.574L251.103 357.894L251.504 358.662L252.738 358.759L251.774 357.401L251.923 356.748ZM248.192 358.488L246.732 358.543C245.737 358.581 245.208 358.363 245.154 357.887C245.101 357.412 245.574 357.157 246.568 357.12L246.926 357.106L246.869 356.602L247.971 356.561L248.192 358.488ZM246.248 357.846C246.263 357.973 246.408 358.031 246.686 358.02L247.037 358.006L246.995 357.63L246.644 357.643C246.366 357.654 246.237 357.72 246.248 357.846ZM241.583 359.096L244.388 358.686L244.148 358.143L243.279 358.27L242.696 356.939L241.633 357.095L242.216 358.427L241.347 358.554L241.583 359.096ZM239.152 357.815C239.575 357.909 239.895 358.09 240.112 358.356C240.325 358.62 240.36 358.878 240.215 359.129C240.07 359.379 239.735 359.573 239.213 359.716C238.691 359.859 238.218 359.881 237.791 359.784C237.368 359.69 237.048 359.509 236.831 359.243C236.617 358.979 236.583 358.721 236.728 358.471C236.873 358.22 237.208 358.026 237.73 357.883C238.256 357.742 238.729 357.72 239.152 357.815ZM237.787 358.633C237.738 358.732 237.761 358.842 237.86 358.966C237.959 359.089 238.088 359.168 238.256 359.208C238.42 359.25 238.599 359.243 238.793 359.192C238.984 359.14 239.106 359.065 239.159 358.963C239.209 358.864 239.186 358.754 239.087 358.631C238.988 358.508 238.858 358.429 238.691 358.389C238.527 358.347 238.348 358.354 238.153 358.405C237.963 358.457 237.837 358.534 237.787 358.633ZM234.639 360.653C234.555 360.513 234.418 360.376 234.216 360.242C234.026 360.114 233.816 360.02 233.587 359.962C233.363 359.903 233.138 359.879 232.917 359.888C232.696 359.896 232.482 359.927 232.276 359.98C232.071 360.033 231.872 360.108 231.689 360.2C231.423 360.337 231.217 360.491 231.083 360.66L231.747 361.1C231.773 360.961 231.933 360.821 232.219 360.678C232.402 360.585 232.6 360.537 232.81 360.526C233.02 360.515 233.206 360.565 233.366 360.671C233.553 360.792 233.622 360.915 233.584 361.038C233.542 361.164 233.427 361.274 233.237 361.371C233.008 361.49 232.76 361.553 232.494 361.571L233.141 361.998C233.458 361.943 233.744 361.848 234.018 361.712C234.197 361.622 234.342 361.52 234.456 361.41C234.571 361.3 234.651 361.179 234.693 361.054C234.735 360.928 234.715 360.794 234.639 360.653ZM229.262 361.729L229.948 361.219L231.83 362.97L231.106 363.512L227.699 362.9L228.385 362.389L228.823 362.48L229.532 361.952L229.262 361.729ZM230.42 362.711L229.997 362.352L229.597 362.649L230.306 362.794C230.447 362.823 230.577 362.858 230.706 362.902C230.615 362.849 230.519 362.786 230.42 362.711ZM226.868 363.701L226.38 364.273L227.265 364.528L227.15 364.66L225.957 364.764L225.42 365.391L226.845 365.246C226.853 365.492 227.066 365.677 227.49 365.798C227.688 365.855 227.878 365.881 228.054 365.881C228.233 365.879 228.389 365.855 228.53 365.804C228.671 365.754 228.793 365.692 228.896 365.62C229.003 365.545 229.094 365.461 229.182 365.362L229.872 364.559L226.868 363.701ZM228.012 364.735L228.576 364.898L228.389 365.116C228.343 365.173 228.278 365.206 228.202 365.224C228.122 365.239 228.042 365.237 227.954 365.213C227.867 365.188 227.813 365.153 227.787 365.107C227.764 365.059 227.775 365.008 227.821 364.955L228.012 364.735ZM225.214 366.473C225.611 366.346 226.056 366.317 226.544 366.392C227.036 366.465 227.402 366.614 227.638 366.839C227.878 367.061 227.928 367.336 227.779 367.659C227.634 367.981 227.364 368.207 226.963 368.333C226.567 368.46 226.121 368.489 225.633 368.414C225.142 368.341 224.776 368.192 224.54 367.967C224.299 367.745 224.25 367.47 224.399 367.147C224.543 366.825 224.814 366.603 225.214 366.473ZM225.431 367.602C225.53 367.69 225.694 367.75 225.919 367.783C226.144 367.816 226.338 367.809 226.495 367.763C226.655 367.714 226.761 367.631 226.815 367.512C226.868 367.393 226.845 367.292 226.746 367.204C226.647 367.116 226.483 367.056 226.258 367.023C226.034 366.99 225.839 366.997 225.683 367.043C225.523 367.092 225.416 367.175 225.363 367.294C225.309 367.413 225.332 367.514 225.431 367.602ZM226.979 371.039L227.032 370.405L225.05 370.348C224.757 370.342 224.616 370.251 224.631 370.075C224.646 369.899 224.799 369.82 225.092 369.827L227.085 369.882L227.135 369.246L225.092 369.189C224.845 369.182 224.623 369.2 224.437 369.246C224.254 369.29 224.101 369.356 223.991 369.437C223.88 369.523 223.793 369.613 223.739 369.715C223.682 369.818 223.652 369.928 223.64 370.049C223.629 370.17 223.64 370.282 223.682 370.386C223.72 370.487 223.789 370.584 223.884 370.674C223.979 370.764 224.117 370.835 224.296 370.89C224.475 370.945 224.688 370.975 224.936 370.982L226.979 371.039ZM226.102 371.748C226.438 371.721 226.708 371.768 226.922 371.895C227.131 372.021 227.265 372.194 227.322 372.412C227.387 372.683 227.356 372.925 227.219 373.136L226.274 373.215C226.441 373 226.495 372.78 226.434 372.555C226.407 372.443 226.346 372.39 226.247 372.399C226.201 372.403 226.167 372.423 226.14 372.461C226.114 372.498 226.091 372.546 226.079 372.601C226.074 372.621 226.069 372.642 226.063 372.663L226.063 372.663L226.063 372.664L226.063 372.664C226.053 372.703 226.042 372.744 226.03 372.788C226.015 372.859 225.988 372.927 225.95 372.998C225.912 373.068 225.866 373.134 225.809 373.193C225.752 373.253 225.66 373.306 225.546 373.35C225.431 373.394 225.298 373.422 225.142 373.438C224.429 373.497 224.002 373.259 223.869 372.725C223.796 372.432 223.835 372.172 223.991 371.941L224.978 371.86C224.776 372.109 224.704 372.353 224.761 372.588C224.78 372.67 224.806 372.725 224.841 372.753C224.875 372.782 224.921 372.795 224.974 372.791C225.027 372.786 225.066 372.76 225.096 372.711C225.127 372.663 225.149 372.601 225.165 372.531C225.176 372.458 225.203 372.381 225.237 372.296C225.275 372.212 225.317 372.131 225.378 372.056C225.431 371.981 225.523 371.915 225.652 371.858C225.767 371.801 225.919 371.761 226.102 371.748ZM228.499 375.248L227.711 373.86L224.528 374.465L225.329 375.869L226.167 375.711L225.713 374.912L226.091 374.839L226.483 375.528L227.257 375.381L226.864 374.692L227.23 374.621L227.672 375.405L228.499 375.248ZM228.972 375.873L229.49 376.437L227.387 377.084L228.057 377.81L227.207 378.072L226.018 376.782L228.972 375.873ZM264.271 361.984C264.823 361.665 264.823 361.147 264.271 360.828C263.718 360.509 262.822 360.509 262.269 360.828C261.716 361.147 261.716 361.665 262.269 361.984C262.822 362.303 263.718 362.303 264.271 361.984ZM232.831 378.98C233.384 379.299 233.384 379.817 232.831 380.136C232.278 380.455 231.382 380.455 230.829 380.136C230.276 379.817 230.276 379.299 230.829 378.98C231.382 378.661 232.278 378.661 232.831 378.98Z" fill="#9E00FF"/>
</g>
<defs>
<filter id="filter0_d_960_10" x="170" y="130.271" width="160" height="85" filterUnits="userSpaceOnUse" color-interpolation-filters="sRGB">
<feFlood flood-opacity="0" result="BackgroundImageFix"/>
<feColorMatrix in="SourceAlpha" type="matrix" values="0 0 0 0 0 0 0 0 0 0 0 0 0 0 0 0 0 0 127 0" result="hardAlpha"/>
<feOffset dy="6"/>
<feGaussianBlur stdDeviation="12.5"/>
<feComposite in2="hardAlpha" operator="out"/>
<feColorMatrix type="matrix" values="0 0 0 0 1 0 0 0 0 0.0705882 0 0 0 0 0.498039 0 0 0 1 0"/>
<feBlend mode="normal" in2="BackgroundImageFix" result="effect1_dropShadow_960_10"/>
<feBlend mode="normal" in="SourceGraphic" in2="effect1_dropShadow_960_10" result="shape"/>
</filter>
<filter id="filter1_d_960_10" x="-8" y="43.2705" width="159" height="87" filterUnits="userSpaceOnUse" color-interpolation-filters="sRGB">
<feFlood flood-opacity="0" result="BackgroundImageFix"/>
<feColorMatrix in="SourceAlpha" type="matrix" values="0 0 0 0 0 0 0 0 0 0 0 0 0 0 0 0 0 0 127 0" result="hardAlpha"/>
<feOffset dy="6"/>
<feGaussianBlur stdDeviation="12.5"/>
<feComposite in2="hardAlpha" operator="out"/>
<feColorMatrix type="matrix" values="0 0 0 0 0.521569 0 0 0 0 0.811765 0 0 0 0 1 0 0 0 1 0"/>
<feBlend mode="normal" in2="BackgroundImageFix" result="effect1_dropShadow_960_10"/>
<feBlend mode="normal" in="SourceGraphic" in2="effect1_dropShadow_960_10" result="shape"/>
</filter>
<filter id="filter2_d_960_10" x="201.86" y="110.879" width="97.0493" height="75.4736" filterUnits="userSpaceOnUse" color-interpolation-filters="sRGB">
<feFlood flood-opacity="0" result="BackgroundImageFix"/>
<feColorMatrix in="SourceAlpha" type="matrix" values="0 0 0 0 0 0 0 0 0 0 0 0 0 0 0 0 0 0 127 0" result="hardAlpha"/>
<feOffset/>
<feGaussianBlur stdDeviation="11.5"/>
<feComposite in2="hardAlpha" operator="out"/>
<feColorMatrix type="matrix" values="0 0 0 0 1 0 0 0 0 1 0 0 0 0 1 0 0 0 0.5 0"/>
<feBlend mode="normal" in2="BackgroundImageFix" result="effect1_dropShadow_960_10"/>
<feBlend mode="normal" in="SourceGraphic" in2="effect1_dropShadow_960_10" result="shape"/>
</filter>
<filter id="filter3_d_960_10" x="-10" y="228.182" width="161" height="87" filterUnits="userSpaceOnUse" color-interpolation-filters="sRGB">
<feFlood flood-opacity="0" result="BackgroundImageFix"/>
<feColorMatrix in="SourceAlpha" type="matrix" values="0 0 0 0 0 0 0 0 0 0 0 0 0 0 0 0 0 0 127 0" result="hardAlpha"/>
<feOffset dy="6"/>
<feGaussianBlur stdDeviation="12.5"/>
<feComposite in2="hardAlpha" operator="out"/>
<feColorMatrix type="matrix" values="0 0 0 0 0.689443 0 0 0 0 0.429167 0 0 0 0 1 0 0 0 1 0"/>
<feBlend mode="normal" in2="BackgroundImageFix" result="effect1_dropShadow_960_10"/>
<feBlend mode="normal" in="SourceGraphic" in2="effect1_dropShadow_960_10" result="shape"/>
</filter>
<filter id="filter4_d_960_10" x="21.3418" y="209.972" width="97.6929" height="75.8452" filterUnits="userSpaceOnUse" color-interpolation-filters="sRGB">
<feFlood flood-opacity="0" result="BackgroundImageFix"/>
<feColorMatrix in="SourceAlpha" type="matrix" values="0 0 0 0 0 0 0 0 0 0 0 0 0 0 0 0 0 0 127 0" result="hardAlpha"/>
<feOffset/>
<feGaussianBlur stdDeviation="11.5"/>
<feComposite in2="hardAlpha" operator="out"/>
<feColorMatrix type="matrix" values="0 0 0 0 1 0 0 0 0 1 0 0 0 0 1 0 0 0 0.5 0"/>
<feBlend mode="normal" in2="BackgroundImageFix" result="effect1_dropShadow_960_10"/>
<feBlend mode="normal" in="SourceGraphic" in2="effect1_dropShadow_960_10" result="shape"/>
</filter>
<filter id="filter5_d_960_10" x="165" y="351" width="165" height="86" filterUnits="userSpaceOnUse" color-interpolation-filters="sRGB">
<feFlood flood-opacity="0" result="BackgroundImageFix"/>
<feColorMatrix in="SourceAlpha" type="matrix" values="0 0 0 0 0 0 0 0 0 0 0 0 0 0 0 0 0 0 127 0" result="hardAlpha"/>
<feOffset dy="6"/>
<feGaussianBlur stdDeviation="12.5"/>
<feComposite in2="hardAlpha" operator="out"/>
<feColorMatrix type="matrix" values="0 0 0 0 0.920833 0 0 0 0 0.556337 0 0 0 0 0.884384 0 0 0 1 0"/>
<feBlend mode="normal" in2="BackgroundImageFix" result="effect1_dropShadow_960_10"/>
<feBlend mode="normal" in="SourceGraphic" in2="effect1_dropShadow_960_10" result="shape"/>
</filter>
<filter id="filter6_d_960_10" x="198.342" y="332.351" width="99.1216" height="76.6699" filterUnits="userSpaceOnUse" color-interpolation-filters="sRGB">
<feFlood flood-opacity="0" result="BackgroundImageFix"/>
<feColorMatrix in="SourceAlpha" type="matrix" values="0 0 0 0 0 0 0 0 0 0 0 0 0 0 0 0 0 0 127 0" result="hardAlpha"/>
<feOffset/>
<feGaussianBlur stdDeviation="11.5"/>
<feComposite in2="hardAlpha" operator="out"/>
<feColorMatrix type="matrix" values="0 0 0 0 1 0 0 0 0 1 0 0 0 0 1 0 0 0 0.5 0"/>
<feBlend mode="normal" in2="BackgroundImageFix" result="effect1_dropShadow_960_10"/>
<feBlend mode="normal" in="SourceGraphic" in2="effect1_dropShadow_960_10" result="shape"/>
</filter>
</defs>
</svg>
