<svg width="603" height="301" viewBox="0 0 603 301" fill="none" xmlns="http://www.w3.org/2000/svg">
<g style="mix-blend-mode:overlay">
<path d="M32.0001 196.1C28.4001 183.5 26.6001 169.8 26.6001 155C26.6001 140.2 28.4001 126.6 32.0001 114.2C35.8001 101.6 41.4001 90.3 48.8001 80.2999C56.4001 70.2999 66.5001 62.4999 79.1001 56.8999C91.9001 51.0999 106.6 48.2 123.2 48.2C139.8 48.2 154.4 51.0999 167 56.8999C179.6 62.4999 189.6 70.2999 197 80.2999C204.6 90.3 210.2 101.6 213.8 114.2C217.6 126.6 219.5 140.2 219.5 155C219.5 169.8 217.6 183.5 213.8 196.1C210.2 208.5 204.6 219.7 197 229.7C189.6 239.7 179.6 247.6 167 253.4C154.4 259 139.8 261.8 123.2 261.8C106.6 261.8 91.9001 259 79.1001 253.4C66.5001 247.6 56.4001 239.7 48.8001 229.7C41.4001 219.7 35.8001 208.5 32.0001 196.1ZM143.9 191C148.3 183.4 150.5 171.4 150.5 155C150.5 138.6 148.3 126.7 143.9 119.3C139.5 111.7 132.6 107.9 123.2 107.9C113.6 107.9 106.6 111.6 102.2 119C97.8001 126.4 95.6001 138.4 95.6001 155C95.6001 171.6 97.8001 183.6 102.2 191C106.6 198.4 113.6 202.1 123.2 202.1C132.6 202.1 139.5 198.4 143.9 191Z" fill="white"/>
<path d="M293.009 53H343.409V200.3H374.909V257H241.709V200.3H276.509V118.4L243.509 130.7V71.8999L293.009 53Z" fill="white"/>
</g>
<mask id="path-2-inside-1_5_282" fill="white">
<path fill-rule="evenodd" clip-rule="evenodd" d="M20.7673 11.8842L31.9851 1.35443C32.9121 0.484317 34.1357 0 35.4071 0H71.2281H142.456H284.912L596.772 3.92415e-06C599.534 3.9589e-06 601.772 2.23859 601.772 5.00001V73.0609C601.772 73.2057 601.89 73.3231 602.035 73.3231V73.3231C602.179 73.3231 602.297 73.4405 602.297 73.5853V186.732V243.437V266.885C602.297 268.28 601.714 269.611 600.69 270.558L581.53 288.257L570.312 298.787C569.385 299.657 568.161 300.142 566.89 300.142H531.069H459.841H354.811C354.677 300.142 354.569 300.25 354.569 300.383V300.383C354.569 300.516 354.461 300.625 354.328 300.625H5.00001C2.23858 300.625 5.48885e-06 298.386 5.27706e-06 295.625L0 226.819V113.409V56.7046V33.2567C0 31.8619 0.582634 30.5305 1.60719 29.584L20.7673 11.8842Z"/>
</mask>
<path d="M20.7673 11.8842L22.1244 13.3533L22.1303 13.3479L22.1361 13.3424L20.7673 11.8842ZM284.912 0V-2V0ZM581.53 288.257L580.172 286.788L580.167 286.794L580.161 286.799L581.53 288.257ZM0 226.819L-2 226.819L-2 226.819L0 226.819ZM570.312 298.787L568.943 297.329L570.312 298.787ZM1.60719 29.584L0.250073 28.1149L1.60719 29.584ZM600.69 270.558L602.047 272.027L600.69 270.558ZM31.9851 1.35443L30.6163 -0.103793L31.9851 1.35443ZM30.6163 -0.103793L19.3985 10.426L22.1361 13.3424L33.3539 2.81266L30.6163 -0.103793ZM71.2281 -2H35.4071V2H71.2281V-2ZM142.456 -2H71.2281V2H142.456V-2ZM284.912 -2H142.456V2H284.912V-2ZM596.772 -2L284.912 -2L284.912 2L596.772 2L596.772 -2ZM603.772 73.0609V5.00001H599.772V73.0609H603.772ZM604.297 186.732V73.5853H600.297V186.732H604.297ZM604.297 243.437V186.732H600.297V243.437H604.297ZM604.297 266.885V243.437H600.297V266.885H604.297ZM582.887 289.727L602.047 272.027L599.332 269.089L580.172 286.788L582.887 289.727ZM571.68 300.245L582.898 289.716L580.161 286.799L568.943 297.329L571.68 300.245ZM531.069 302.142H566.89V298.142H531.069V302.142ZM459.841 302.142H531.069V298.142H459.841V302.142ZM354.811 302.142H459.841V298.142H354.811V302.142ZM5.00001 302.625H354.328V298.625H5.00001V302.625ZM-2 226.819L-1.99999 295.625L2.00001 295.625L2 226.819L-2 226.819ZM-2 113.409V226.819H2V113.409H-2ZM-2 56.7046V113.409H2V56.7046H-2ZM-2 33.2567V56.7046H2V33.2567H-2ZM19.4102 10.4151L0.250073 28.1149L2.96432 31.0531L22.1244 13.3533L19.4102 10.4151ZM354.811 298.142C353.573 298.142 352.569 299.145 352.569 300.383H356.569C356.569 301.354 355.782 302.142 354.811 302.142V298.142ZM568.943 297.329C568.387 297.851 567.653 298.142 566.89 298.142V302.142C568.67 302.142 570.383 301.464 571.68 300.245L568.943 297.329ZM602.035 75.3231C601.075 75.3231 600.297 74.5451 600.297 73.5853H604.297C604.297 72.3359 603.284 71.3231 602.035 71.3231V75.3231ZM5.00001 298.625C3.34315 298.625 2.00001 297.281 2.00001 295.625L-1.99999 295.625C-1.99999 299.491 1.13402 302.625 5.00001 302.625V298.625ZM599.772 73.0609C599.772 74.3103 600.785 75.3231 602.035 75.3231V71.3231C602.994 71.3231 603.772 72.1012 603.772 73.0609H599.772ZM2 33.2567C2 32.4198 2.34958 31.621 2.96432 31.0531L0.250073 28.1149C-1.18431 29.44 -2 31.304 -2 33.2567H2ZM600.297 266.885C600.297 267.722 599.947 268.521 599.332 269.089L602.047 272.027C603.481 270.702 604.297 268.838 604.297 266.885H600.297ZM352.569 300.383C352.569 299.412 353.357 298.625 354.328 298.625V302.625C355.566 302.625 356.569 301.621 356.569 300.383H352.569ZM596.772 2C598.429 2 599.772 3.34315 599.772 5.00001H603.772C603.772 1.13402 600.638 -2 596.772 -2L596.772 2ZM33.3539 2.81266C33.9101 2.29059 34.6442 2 35.4071 2V-2C33.6271 -2 31.9141 -1.32196 30.6163 -0.103793L33.3539 2.81266Z" fill="url(#paint0_linear_5_282)" mask="url(#path-2-inside-1_5_282)"/>
<defs>
<linearGradient id="paint0_linear_5_282" x1="602.297" y1="4.85785e-05" x2="-25.3832" y2="231.929" gradientUnits="userSpaceOnUse">
<stop offset="0.302083" stop-color="#FF127F"/>
<stop offset="0.458285" stop-color="#FF89BF"/>
<stop offset="0.625" stop-color="#FF1580"/>
</linearGradient>
</defs>
</svg>
