<svg width="603" height="301" viewBox="0 0 603 301" fill="none" xmlns="http://www.w3.org/2000/svg">
<g style="mix-blend-mode:overlay">
<path d="M32.0001 195.1C28.4001 182.5 26.6001 168.8 26.6001 154C26.6001 139.2 28.4001 125.6 32.0001 113.2C35.8001 100.6 41.4001 89.3 48.8001 79.3C56.4001 69.3 66.5001 61.5 79.1001 55.9C91.9001 50.1 106.6 47.2 123.2 47.2C139.8 47.2 154.4 50.1 167 55.9C179.6 61.5 189.6 69.3 197 79.3C204.6 89.3 210.2 100.6 213.8 113.2C217.6 125.6 219.5 139.2 219.5 154C219.5 168.8 217.6 182.5 213.8 195.1C210.2 207.5 204.6 218.7 197 228.7C189.6 238.7 179.6 246.6 167 252.4C154.4 258 139.8 260.8 123.2 260.8C106.6 260.8 91.9001 258 79.1001 252.4C66.5001 246.6 56.4001 238.7 48.8001 228.7C41.4001 218.7 35.8001 207.5 32.0001 195.1ZM143.9 190C148.3 182.4 150.5 170.4 150.5 154C150.5 137.6 148.3 125.7 143.9 118.3C139.5 110.7 132.6 106.9 123.2 106.9C113.6 106.9 106.6 110.6 102.2 118C97.8001 125.4 95.6001 137.4 95.6001 154C95.6001 170.6 97.8001 182.6 102.2 190C106.6 197.4 113.6 201.1 123.2 201.1C132.6 201.1 139.5 197.4 143.9 190Z" fill="white"/>
<path d="M393.509 105.7C393.509 115.9 390.709 124.9 385.109 132.7C379.709 140.3 371.809 145.9 361.409 149.5C373.209 152.5 382.909 158.3 390.509 166.9C398.109 175.3 401.909 186.2 401.909 199.6C401.909 210.6 399.509 220.2 394.709 228.4C389.909 236.4 383.309 242.7 374.909 247.3C366.509 251.9 357.309 255.3 347.309 257.5C337.509 259.7 326.809 260.8 315.209 260.8C288.409 260.8 263.709 256.5 241.109 247.9V188.5C260.509 198.9 282.709 204.1 307.709 204.1C326.709 203.7 336.209 198.8 336.209 189.4C336.209 181.8 330.209 178 318.209 178H281.909L282.209 126.7H311.909C322.909 127.1 328.409 123.8 328.409 116.8C328.409 108.6 320.309 104.5 304.109 104.5C295.309 104.5 285.309 106.2 274.109 109.6C262.909 113 253.109 117.4 244.709 122.8V64.9C264.509 53.1 288.009 47.2 315.209 47.2C337.809 47.2 356.509 52.1 371.309 61.9C386.109 71.5 393.509 86.1 393.509 105.7Z" fill="white"/>
</g>
<mask id="path-2-inside-1_5_318" fill="white">
<path fill-rule="evenodd" clip-rule="evenodd" d="M20.7673 289.116L31.9851 299.646C32.9121 300.516 34.1357 301 35.4071 301H71.2281H142.456H284.912L596.772 301C599.534 301 601.772 298.761 601.772 296V227.939C601.772 227.794 601.89 227.677 602.035 227.677V227.677C602.179 227.677 602.297 227.56 602.297 227.415V114.268V57.563V34.1151C602.297 32.7203 601.714 31.3889 600.69 30.4424L581.53 12.7426L570.312 2.21283C569.385 1.34272 568.161 0.858398 566.89 0.858398H531.069H459.841H354.811C354.677 0.858398 354.569 0.750295 354.569 0.616943V0.616943C354.569 0.483591 354.461 0.375488 354.328 0.375488H5.00001C2.23858 0.375488 5.48885e-06 2.61406 5.27706e-06 5.37548L0 74.1815V187.591V244.295V267.743C0 269.138 0.582634 270.47 1.60719 271.416L20.7673 289.116Z"/>
</mask>
<path d="M20.7673 289.116L22.1244 287.647L22.1303 287.652L22.1361 287.658L20.7673 289.116ZM284.912 301V303V301ZM581.53 12.7426L580.172 14.2117L580.167 14.2063L580.161 14.2008L581.53 12.7426ZM0 74.1815L-2 74.1815L-2 74.1815L0 74.1815ZM570.312 2.21283L568.943 3.67106L570.312 2.21283ZM1.60719 271.416L0.250073 272.885L1.60719 271.416ZM600.69 30.4424L602.047 28.9733L600.69 30.4424ZM31.9851 299.646L30.6163 301.104L31.9851 299.646ZM30.6163 301.104L19.3985 290.574L22.1361 287.658L33.3539 298.187L30.6163 301.104ZM71.2281 303H35.4071V299H71.2281V303ZM142.456 303H71.2281V299H142.456V303ZM284.912 303H142.456V299H284.912V303ZM596.772 303L284.912 303L284.912 299L596.772 299L596.772 303ZM603.772 227.939V296H599.772V227.939H603.772ZM604.297 114.268V227.415H600.297V114.268H604.297ZM604.297 57.563V114.268H600.297V57.563H604.297ZM604.297 34.1151V57.563H600.297V34.1151H604.297ZM582.887 11.2735L602.047 28.9733L599.332 31.9115L580.172 14.2117L582.887 11.2735ZM571.68 0.754605L582.898 11.2844L580.161 14.2008L568.943 3.67106L571.68 0.754605ZM531.069 -1.1416H566.89V2.8584H531.069V-1.1416ZM459.841 -1.1416H531.069V2.8584H459.841V-1.1416ZM354.811 -1.1416H459.841V2.8584H354.811V-1.1416ZM5.00001 -1.62451H354.328V2.37549H5.00001V-1.62451ZM-2 74.1815L-1.99999 5.37548L2.00001 5.37548L2 74.1815L-2 74.1815ZM-2 187.591V74.1815H2V187.591H-2ZM-2 244.295V187.591H2V244.295H-2ZM-2 267.743V244.295H2V267.743H-2ZM19.4102 290.585L0.250073 272.885L2.96432 269.947L22.1244 287.647L19.4102 290.585ZM354.811 2.8584C353.573 2.8584 352.569 1.85486 352.569 0.616943H356.569C356.569 -0.354274 355.782 -1.1416 354.811 -1.1416V2.8584ZM568.943 3.67106C568.387 3.14899 567.653 2.8584 566.89 2.8584V-1.1416C568.67 -1.1416 570.383 -0.463558 571.68 0.754605L568.943 3.67106ZM602.035 225.677C601.075 225.677 600.297 226.455 600.297 227.415H604.297C604.297 228.664 603.284 229.677 602.035 229.677V225.677ZM5.00001 2.37549C3.34315 2.37549 2.00001 3.71863 2.00001 5.37548L-1.99999 5.37548C-1.99999 1.50948 1.13402 -1.62451 5.00001 -1.62451V2.37549ZM599.772 227.939C599.772 226.69 600.785 225.677 602.035 225.677V229.677C602.994 229.677 603.772 228.899 603.772 227.939H599.772ZM2 267.743C2 268.58 2.34958 269.379 2.96432 269.947L0.250073 272.885C-1.18431 271.56 -2 269.696 -2 267.743H2ZM600.297 34.1151C600.297 33.2782 599.947 32.4794 599.332 31.9115L602.047 28.9733C603.481 30.2984 604.297 32.1624 604.297 34.1151H600.297ZM352.569 0.616943C352.569 1.58817 353.357 2.37549 354.328 2.37549V-1.62451C355.566 -1.62451 356.569 -0.620985 356.569 0.616943H352.569ZM596.772 299C598.429 299 599.772 297.657 599.772 296H603.772C603.772 299.866 600.638 303 596.772 303L596.772 299ZM33.3539 298.187C33.9101 298.709 34.6442 299 35.4071 299V303C33.6271 303 31.9141 302.322 30.6163 301.104L33.3539 298.187Z" fill="url(#paint0_linear_5_318)" mask="url(#path-2-inside-1_5_318)"/>
<defs>
<linearGradient id="paint0_linear_5_318" x1="602.297" y1="301" x2="-25.3832" y2="69.0711" gradientUnits="userSpaceOnUse">
<stop offset="0.302083" stop-color="#FF127F"/>
<stop offset="0.458285" stop-color="#FF89BF"/>
<stop offset="0.625" stop-color="#FF1580"/>
</linearGradient>
</defs>
</svg>
